solid Onshape
  facet normal 0 0 -1
    outer loop
      vertex -49.2379 69.0277 -2.54
      vertex -49.2379 76.129 -2.54
      vertex 49.2379 69.0277 -2.54
    endloop
  endfacet
  facet normal 0 0 -1
    outer loop
      vertex -49.2379 76.129 -2.54
      vertex 49.2379 76.129 -2.54
      vertex 49.2379 69.0277 -2.54
    endloop
  endfacet
  facet normal 0 0 1
    outer loop
      vertex -49.2379 76.129 2.54
      vertex -49.2379 69.0277 2.54
      vertex 49.2379 76.129 2.54
    endloop
  endfacet
  facet normal 0 0 1
    outer loop
      vertex -49.2379 69.0277 2.54
      vertex 49.2379 69.0277 2.54
      vertex 49.2379 76.129 2.54
    endloop
  endfacet
  facet normal -1 0 0
    outer loop
      vertex -49.2379 68.2377 0.466502
      vertex -49.2379 68.2617 0.651905
      vertex -49.2379 76.895 -0.651905
    endloop
  endfacet
  facet normal -1 0 0
    outer loop
      vertex -49.2379 76.895 -0.651905
      vertex -49.2379 68.2617 0.651905
      vertex -49.2379 76.919 -0.466502
    endloop
  endfacet
  facet normal -1 0 0
    outer loop
      vertex -49.2379 76.3333 2.22695
      vertex -49.2379 76.4252 2.06415
      vertex -49.2379 68.9222 2.38566
    endloop
  endfacet
  facet normal -1 0 0
    outer loop
      vertex -49.2379 68.9222 2.38566
      vertex -49.2379 76.4252 2.06415
      vertex -49.2379 68.8234 2.22695
    endloop
  endfacet
  facet normal -1 0 0
    outer loop
      vertex -49.2379 76.5876 1.72751
      vertex -49.2379 76.6579 1.55428
      vertex -49.2379 68.7315 2.06415
    endloop
  endfacet
  facet normal -1 0 0
    outer loop
      vertex -49.2379 76.919 0.466502
      vertex -49.2379 76.935 0.280244
      vertex -49.2379 68.2617 0.651905
    endloop
  endfacet
  facet normal -1 0 0
    outer loop
      vertex -49.2379 76.935 0.280244
      vertex -49.2379 76.943 0.0934718
      vertex -49.2379 68.2617 0.651905
    endloop
  endfacet
  facet normal -1 0 0
    outer loop
      vertex -49.2379 68.6467 -1.89757
      vertex -49.2379 68.5691 -1.72751
      vertex -49.2379 76.895 -0.651905
    endloop
  endfacet
  facet normal -1 0 0
    outer loop
      vertex -49.2379 68.3333 1.01879
      vertex -49.2379 68.3808 1.19959
      vertex -49.2379 76.895 0.651905
    endloop
  endfacet
  facet normal -1 0 0
    outer loop
      vertex -49.2379 76.943 0.0934718
      vertex -49.2379 76.943 -0.0934718
      vertex -49.2379 68.2617 0.651905
    endloop
  endfacet
  facet normal -1 0 0
    outer loop
      vertex -49.2379 76.943 -0.0934718
      vertex -49.2379 76.935 -0.280244
      vertex -49.2379 68.2617 0.651905
    endloop
  endfacet
  facet normal -1 0 0
    outer loop
      vertex -49.2379 68.2617 0.651905
      vertex -49.2379 76.935 -0.280244
      vertex -49.2379 76.919 -0.466502
    endloop
  endfacet
  facet normal -1 0 0
    outer loop
      vertex -49.2379 68.5691 -1.72751
      vertex -49.2379 68.4988 -1.55428
      vertex -49.2379 76.895 -0.651905
    endloop
  endfacet
  facet normal -1 0 0
    outer loop
      vertex -49.2379 68.4988 -1.55428
      vertex -49.2379 68.436 -1.3782
      vertex -49.2379 76.895 -0.651905
    endloop
  endfacet
  facet normal -1 0 0
    outer loop
      vertex -49.2379 76.895 -0.651905
      vertex -49.2379 68.436 -1.3782
      vertex -49.2379 68.3808 -1.19959
    endloop
  endfacet
  facet normal -1 0 0
    outer loop
      vertex -49.2379 68.2617 -0.651905
      vertex -49.2379 68.2377 -0.466502
      vertex -49.2379 76.895 -0.651905
    endloop
  endfacet
  facet normal -1 0 0
    outer loop
      vertex -49.2379 68.2377 -0.466502
      vertex -49.2379 68.2217 -0.280244
      vertex -49.2379 76.895 -0.651905
    endloop
  endfacet
  facet normal -1 0 0
    outer loop
      vertex -49.2379 76.895 -0.651905
      vertex -49.2379 68.2217 -0.280244
      vertex -49.2379 68.2137 -0.0934718
    endloop
  endfacet
  facet normal -1 0 0
    outer loop
      vertex -49.2379 76.919 0.466502
      vertex -49.2379 68.2617 0.651905
      vertex -49.2379 76.895 0.651905
    endloop
  endfacet
  facet normal -1 0 0
    outer loop
      vertex -49.2379 68.2617 0.651905
      vertex -49.2379 68.2935 0.836113
      vertex -49.2379 76.895 0.651905
    endloop
  endfacet
  facet normal -1 0 0
    outer loop
      vertex -49.2379 76.895 0.651905
      vertex -49.2379 68.2935 0.836113
      vertex -49.2379 68.3333 1.01879
    endloop
  endfacet
  facet normal -1 0 0
    outer loop
      vertex -49.2379 68.3808 1.19959
      vertex -49.2379 68.436 1.3782
      vertex -49.2379 76.895 0.651905
    endloop
  endfacet
  facet normal -1 0 0
    outer loop
      vertex -49.2379 68.436 1.3782
      vertex -49.2379 68.4988 1.55428
      vertex -49.2379 76.895 0.651905
    endloop
  endfacet
  facet normal -1 0 0
    outer loop
      vertex -49.2379 76.895 0.651905
      vertex -49.2379 68.4988 1.55428
      vertex -49.2379 68.5691 1.72751
    endloop
  endfacet
  facet normal -1 0 0
    outer loop
      vertex -49.2379 68.8234 2.22695
      vertex -49.2379 76.4252 2.06415
      vertex -49.2379 68.7315 2.06415
    endloop
  endfacet
  facet normal -1 0 0
    outer loop
      vertex -49.2379 76.4252 2.06415
      vertex -49.2379 76.51 1.89757
      vertex -49.2379 68.7315 2.06415
    endloop
  endfacet
  facet normal -1 0 0
    outer loop
      vertex -49.2379 68.7315 2.06415
      vertex -49.2379 76.51 1.89757
      vertex -49.2379 76.5876 1.72751
    endloop
  endfacet
  facet normal -1 0 0
    outer loop
      vertex -49.2379 76.6579 1.55428
      vertex -49.2379 76.7207 1.3782
      vertex -49.2379 68.7315 2.06415
    endloop
  endfacet
  facet normal -1 0 0
    outer loop
      vertex -49.2379 76.7207 1.3782
      vertex -49.2379 76.7759 1.19959
      vertex -49.2379 68.7315 2.06415
    endloop
  endfacet
  facet normal -1 0 0
    outer loop
      vertex -49.2379 68.7315 2.06415
      vertex -49.2379 76.7759 1.19959
      vertex -49.2379 76.8234 1.01879
    endloop
  endfacet
  facet normal -1 0 0
    outer loop
      vertex -49.2379 76.8234 -1.01879
      vertex -49.2379 76.7759 -1.19959
      vertex -49.2379 68.7315 -2.06415
    endloop
  endfacet
  facet normal -1 0 0
    outer loop
      vertex -49.2379 76.7759 -1.19959
      vertex -49.2379 76.7207 -1.3782
      vertex -49.2379 68.7315 -2.06415
    endloop
  endfacet
  facet normal -1 0 0
    outer loop
      vertex -49.2379 68.7315 -2.06415
      vertex -49.2379 76.7207 -1.3782
      vertex -49.2379 76.6579 -1.55428
    endloop
  endfacet
  facet normal -1 0 0
    outer loop
      vertex -49.2379 76.6579 -1.55428
      vertex -49.2379 76.5876 -1.72751
      vertex -49.2379 68.7315 -2.06415
    endloop
  endfacet
  facet normal -1 0 0
    outer loop
      vertex -49.2379 76.5876 -1.72751
      vertex -49.2379 76.51 -1.89757
      vertex -49.2379 68.7315 -2.06415
    endloop
  endfacet
  facet normal -1 0 0
    outer loop
      vertex -49.2379 68.7315 -2.06415
      vertex -49.2379 76.51 -1.89757
      vertex -49.2379 76.4252 -2.06415
    endloop
  endfacet
  facet normal -1 0 0
    outer loop
      vertex -49.2379 76.129 -2.54
      vertex -49.2379 69.0277 -2.54
      vertex -49.2379 76.2345 -2.38566
    endloop
  endfacet
  facet normal -1 0 0
    outer loop
      vertex -49.2379 69.0277 -2.54
      vertex -49.2379 68.9222 -2.38566
      vertex -49.2379 76.2345 -2.38566
    endloop
  endfacet
  facet normal -1 0 0
    outer loop
      vertex -49.2379 76.4252 -2.06415
      vertex -49.2379 76.3333 -2.22695
      vertex -49.2379 68.7315 -2.06415
    endloop
  endfacet
  facet normal -1 0 0
    outer loop
      vertex -49.2379 76.3333 -2.22695
      vertex -49.2379 76.2345 -2.38566
      vertex -49.2379 68.7315 -2.06415
    endloop
  endfacet
  facet normal -1 0 0
    outer loop
      vertex -49.2379 68.7315 -2.06415
      vertex -49.2379 76.2345 -2.38566
      vertex -49.2379 68.8234 -2.22695
    endloop
  endfacet
  facet normal -1 0 0
    outer loop
      vertex -49.2379 76.2345 -2.38566
      vertex -49.2379 68.9222 -2.38566
      vertex -49.2379 68.8234 -2.22695
    endloop
  endfacet
  facet normal -1 0 0
    outer loop
      vertex -49.2379 68.3808 -1.19959
      vertex -49.2379 68.3333 -1.01879
      vertex -49.2379 76.895 -0.651905
    endloop
  endfacet
  facet normal -1 0 0
    outer loop
      vertex -49.2379 68.3333 -1.01879
      vertex -49.2379 68.2935 -0.836113
      vertex -49.2379 76.895 -0.651905
    endloop
  endfacet
  facet normal -1 0 0
    outer loop
      vertex -49.2379 76.895 -0.651905
      vertex -49.2379 68.2935 -0.836113
      vertex -49.2379 68.2617 -0.651905
    endloop
  endfacet
  facet normal -1 0 0
    outer loop
      vertex -49.2379 68.2137 -0.0934718
      vertex -49.2379 68.2137 0.0934718
      vertex -49.2379 76.895 -0.651905
    endloop
  endfacet
  facet normal -1 0 0
    outer loop
      vertex -49.2379 68.2137 0.0934718
      vertex -49.2379 68.2217 0.280244
      vertex -49.2379 76.895 -0.651905
    endloop
  endfacet
  facet normal -1 0 0
    outer loop
      vertex -49.2379 76.895 -0.651905
      vertex -49.2379 68.2217 0.280244
      vertex -49.2379 68.2377 0.466502
    endloop
  endfacet
  facet normal -1 0 0
    outer loop
      vertex -49.2379 69.0277 2.54
      vertex -49.2379 76.129 2.54
      vertex -49.2379 68.9222 2.38566
    endloop
  endfacet
  facet normal -1 0 0
    outer loop
      vertex -49.2379 76.129 2.54
      vertex -49.2379 76.2345 2.38566
      vertex -49.2379 68.9222 2.38566
    endloop
  endfacet
  facet normal -1 0 0
    outer loop
      vertex -49.2379 68.9222 2.38566
      vertex -49.2379 76.2345 2.38566
      vertex -49.2379 76.3333 2.22695
    endloop
  endfacet
  facet normal -1 0 0
    outer loop
      vertex -49.2379 68.5691 1.72751
      vertex -49.2379 68.6467 1.89757
      vertex -49.2379 76.895 0.651905
    endloop
  endfacet
  facet normal -1 0 0
    outer loop
      vertex -49.2379 68.6467 1.89757
      vertex -49.2379 68.7315 2.06415
      vertex -49.2379 76.895 0.651905
    endloop
  endfacet
  facet normal -1 0 0
    outer loop
      vertex -49.2379 76.895 0.651905
      vertex -49.2379 68.7315 2.06415
      vertex -49.2379 76.8632 0.836113
    endloop
  endfacet
  facet normal -1 0 0
    outer loop
      vertex -49.2379 68.7315 2.06415
      vertex -49.2379 76.8234 1.01879
      vertex -49.2379 76.8632 0.836113
    endloop
  endfacet
  facet normal -1 0 0
    outer loop
      vertex -49.2379 68.6467 -1.89757
      vertex -49.2379 76.895 -0.651905
      vertex -49.2379 68.7315 -2.06415
    endloop
  endfacet
  facet normal -1 0 0
    outer loop
      vertex -49.2379 76.895 -0.651905
      vertex -49.2379 76.8632 -0.836113
      vertex -49.2379 68.7315 -2.06415
    endloop
  endfacet
  facet normal -1 0 0
    outer loop
      vertex -49.2379 68.7315 -2.06415
      vertex -49.2379 76.8632 -0.836113
      vertex -49.2379 76.8234 -1.01879
    endloop
  endfacet
  facet normal 1 0 0
    outer loop
      vertex 49.2379 76.935 -0.280244
      vertex 49.2379 68.2617 0.651905
      vertex 49.2379 76.919 -0.466502
    endloop
  endfacet
  facet normal 1 0 0
    outer loop
      vertex 49.2379 68.2617 0.651905
      vertex 49.2379 76.895 -0.651905
      vertex 49.2379 76.919 -0.466502
    endloop
  endfacet
  facet normal 1 0 0
    outer loop
      vertex 49.2379 68.436 -1.3782
      vertex 49.2379 68.4988 -1.55428
      vertex 49.2379 76.895 -0.651905
    endloop
  endfacet
  facet normal 1 0 0
    outer loop
      vertex 49.2379 68.4988 -1.55428
      vertex 49.2379 68.5691 -1.72751
      vertex 49.2379 76.895 -0.651905
    endloop
  endfacet
  facet normal 1 0 0
    outer loop
      vertex 49.2379 76.895 0.651905
      vertex 49.2379 68.2617 0.651905
      vertex 49.2379 76.919 0.466502
    endloop
  endfacet
  facet normal 1 0 0
    outer loop
      vertex 49.2379 68.2617 0.651905
      vertex 49.2379 76.935 0.280244
      vertex 49.2379 76.919 0.466502
    endloop
  endfacet
  facet normal 1 0 0
    outer loop
      vertex 49.2379 68.6467 1.89757
      vertex 49.2379 68.5691 1.72751
      vertex 49.2379 76.895 0.651905
    endloop
  endfacet
  facet normal 1 0 0
    outer loop
      vertex 49.2379 68.2617 0.651905
      vertex 49.2379 68.2377 0.466502
      vertex 49.2379 76.895 -0.651905
    endloop
  endfacet
  facet normal 1 0 0
    outer loop
      vertex 49.2379 68.2377 0.466502
      vertex 49.2379 68.2217 0.280244
      vertex 49.2379 76.895 -0.651905
    endloop
  endfacet
  facet normal 1 0 0
    outer loop
      vertex 49.2379 76.895 -0.651905
      vertex 49.2379 68.2217 0.280244
      vertex 49.2379 68.2137 0.0934718
    endloop
  endfacet
  facet normal 1 0 0
    outer loop
      vertex 49.2379 68.2377 -0.466502
      vertex 49.2379 68.2617 -0.651905
      vertex 49.2379 76.895 -0.651905
    endloop
  endfacet
  facet normal 1 0 0
    outer loop
      vertex 49.2379 68.2617 -0.651905
      vertex 49.2379 68.2935 -0.836113
      vertex 49.2379 76.895 -0.651905
    endloop
  endfacet
  facet normal 1 0 0
    outer loop
      vertex 49.2379 76.4252 -2.06415
      vertex 49.2379 68.7315 -2.06415
      vertex 49.2379 76.3333 -2.22695
    endloop
  endfacet
  facet normal 1 0 0
    outer loop
      vertex 49.2379 68.7315 -2.06415
      vertex 49.2379 76.2345 -2.38566
      vertex 49.2379 76.3333 -2.22695
    endloop
  endfacet
  facet normal 1 0 0
    outer loop
      vertex 49.2379 76.935 -0.280244
      vertex 49.2379 76.943 -0.0934718
      vertex 49.2379 68.2617 0.651905
    endloop
  endfacet
  facet normal 1 0 0
    outer loop
      vertex 49.2379 76.943 -0.0934718
      vertex 49.2379 76.943 0.0934718
      vertex 49.2379 68.2617 0.651905
    endloop
  endfacet
  facet normal 1 0 0
    outer loop
      vertex 49.2379 68.2617 0.651905
      vertex 49.2379 76.943 0.0934718
      vertex 49.2379 76.935 0.280244
    endloop
  endfacet
  facet normal 1 0 0
    outer loop
      vertex 49.2379 68.7315 2.06415
      vertex 49.2379 76.4252 2.06415
      vertex 49.2379 68.8234 2.22695
    endloop
  endfacet
  facet normal 1 0 0
    outer loop
      vertex 49.2379 76.4252 2.06415
      vertex 49.2379 68.9222 2.38566
      vertex 49.2379 68.8234 2.22695
    endloop
  endfacet
  facet normal 1 0 0
    outer loop
      vertex 49.2379 68.2137 0.0934718
      vertex 49.2379 68.2137 -0.0934718
      vertex 49.2379 76.895 -0.651905
    endloop
  endfacet
  facet normal 1 0 0
    outer loop
      vertex 49.2379 68.2137 -0.0934718
      vertex 49.2379 68.2217 -0.280244
      vertex 49.2379 76.895 -0.651905
    endloop
  endfacet
  facet normal 1 0 0
    outer loop
      vertex 49.2379 76.895 -0.651905
      vertex 49.2379 68.2217 -0.280244
      vertex 49.2379 68.2377 -0.466502
    endloop
  endfacet
  facet normal 1 0 0
    outer loop
      vertex 49.2379 68.2935 -0.836113
      vertex 49.2379 68.3333 -1.01879
      vertex 49.2379 76.895 -0.651905
    endloop
  endfacet
  facet normal 1 0 0
    outer loop
      vertex 49.2379 68.3333 -1.01879
      vertex 49.2379 68.3808 -1.19959
      vertex 49.2379 76.895 -0.651905
    endloop
  endfacet
  facet normal 1 0 0
    outer loop
      vertex 49.2379 76.895 -0.651905
      vertex 49.2379 68.3808 -1.19959
      vertex 49.2379 68.436 -1.3782
    endloop
  endfacet
  facet normal 1 0 0
    outer loop
      vertex 49.2379 69.0277 -2.54
      vertex 49.2379 76.129 -2.54
      vertex 49.2379 68.9222 -2.38566
    endloop
  endfacet
  facet normal 1 0 0
    outer loop
      vertex 49.2379 76.129 -2.54
      vertex 49.2379 76.2345 -2.38566
      vertex 49.2379 68.9222 -2.38566
    endloop
  endfacet
  facet normal 1 0 0
    outer loop
      vertex 49.2379 68.9222 -2.38566
      vertex 49.2379 76.2345 -2.38566
      vertex 49.2379 68.8234 -2.22695
    endloop
  endfacet
  facet normal 1 0 0
    outer loop
      vertex 49.2379 76.2345 -2.38566
      vertex 49.2379 68.7315 -2.06415
      vertex 49.2379 68.8234 -2.22695
    endloop
  endfacet
  facet normal 1 0 0
    outer loop
      vertex 49.2379 76.4252 -2.06415
      vertex 49.2379 76.51 -1.89757
      vertex 49.2379 68.7315 -2.06415
    endloop
  endfacet
  facet normal 1 0 0
    outer loop
      vertex 49.2379 76.51 -1.89757
      vertex 49.2379 76.5876 -1.72751
      vertex 49.2379 68.7315 -2.06415
    endloop
  endfacet
  facet normal 1 0 0
    outer loop
      vertex 49.2379 68.7315 -2.06415
      vertex 49.2379 76.5876 -1.72751
      vertex 49.2379 76.6579 -1.55428
    endloop
  endfacet
  facet normal 1 0 0
    outer loop
      vertex 49.2379 76.6579 -1.55428
      vertex 49.2379 76.7207 -1.3782
      vertex 49.2379 68.7315 -2.06415
    endloop
  endfacet
  facet normal 1 0 0
    outer loop
      vertex 49.2379 76.7207 -1.3782
      vertex 49.2379 76.7759 -1.19959
      vertex 49.2379 68.7315 -2.06415
    endloop
  endfacet
  facet normal 1 0 0
    outer loop
      vertex 49.2379 68.7315 -2.06415
      vertex 49.2379 76.7759 -1.19959
      vertex 49.2379 76.8234 -1.01879
    endloop
  endfacet
  facet normal 1 0 0
    outer loop
      vertex 49.2379 76.8234 1.01879
      vertex 49.2379 76.7759 1.19959
      vertex 49.2379 68.7315 2.06415
    endloop
  endfacet
  facet normal 1 0 0
    outer loop
      vertex 49.2379 76.7759 1.19959
      vertex 49.2379 76.7207 1.3782
      vertex 49.2379 68.7315 2.06415
    endloop
  endfacet
  facet normal 1 0 0
    outer loop
      vertex 49.2379 68.7315 2.06415
      vertex 49.2379 76.7207 1.3782
      vertex 49.2379 76.6579 1.55428
    endloop
  endfacet
  facet normal 1 0 0
    outer loop
      vertex 49.2379 76.6579 1.55428
      vertex 49.2379 76.5876 1.72751
      vertex 49.2379 68.7315 2.06415
    endloop
  endfacet
  facet normal 1 0 0
    outer loop
      vertex 49.2379 76.5876 1.72751
      vertex 49.2379 76.51 1.89757
      vertex 49.2379 68.7315 2.06415
    endloop
  endfacet
  facet normal 1 0 0
    outer loop
      vertex 49.2379 68.7315 2.06415
      vertex 49.2379 76.51 1.89757
      vertex 49.2379 76.4252 2.06415
    endloop
  endfacet
  facet normal 1 0 0
    outer loop
      vertex 49.2379 68.5691 1.72751
      vertex 49.2379 68.4988 1.55428
      vertex 49.2379 76.895 0.651905
    endloop
  endfacet
  facet normal 1 0 0
    outer loop
      vertex 49.2379 68.4988 1.55428
      vertex 49.2379 68.436 1.3782
      vertex 49.2379 76.895 0.651905
    endloop
  endfacet
  facet normal 1 0 0
    outer loop
      vertex 49.2379 76.895 0.651905
      vertex 49.2379 68.436 1.3782
      vertex 49.2379 68.3808 1.19959
    endloop
  endfacet
  facet normal 1 0 0
    outer loop
      vertex 49.2379 68.3808 1.19959
      vertex 49.2379 68.3333 1.01879
      vertex 49.2379 76.895 0.651905
    endloop
  endfacet
  facet normal 1 0 0
    outer loop
      vertex 49.2379 68.3333 1.01879
      vertex 49.2379 68.2935 0.836113
      vertex 49.2379 76.895 0.651905
    endloop
  endfacet
  facet normal 1 0 0
    outer loop
      vertex 49.2379 76.895 0.651905
      vertex 49.2379 68.2935 0.836113
      vertex 49.2379 68.2617 0.651905
    endloop
  endfacet
  facet normal 1 0 0
    outer loop
      vertex 49.2379 68.5691 -1.72751
      vertex 49.2379 68.6467 -1.89757
      vertex 49.2379 76.895 -0.651905
    endloop
  endfacet
  facet normal 1 0 0
    outer loop
      vertex 49.2379 68.6467 -1.89757
      vertex 49.2379 68.7315 -2.06415
      vertex 49.2379 76.895 -0.651905
    endloop
  endfacet
  facet normal 1 0 0
    outer loop
      vertex 49.2379 76.895 -0.651905
      vertex 49.2379 68.7315 -2.06415
      vertex 49.2379 76.8632 -0.836113
    endloop
  endfacet
  facet normal 1 0 0
    outer loop
      vertex 49.2379 68.7315 -2.06415
      vertex 49.2379 76.8234 -1.01879
      vertex 49.2379 76.8632 -0.836113
    endloop
  endfacet
  facet normal 1 0 0
    outer loop
      vertex 49.2379 68.6467 1.89757
      vertex 49.2379 76.895 0.651905
      vertex 49.2379 68.7315 2.06415
    endloop
  endfacet
  facet normal 1 0 0
    outer loop
      vertex 49.2379 76.895 0.651905
      vertex 49.2379 76.8632 0.836113
      vertex 49.2379 68.7315 2.06415
    endloop
  endfacet
  facet normal 1 0 0
    outer loop
      vertex 49.2379 68.7315 2.06415
      vertex 49.2379 76.8632 0.836113
      vertex 49.2379 76.8234 1.01879
    endloop
  endfacet
  facet normal 1 0 0
    outer loop
      vertex 49.2379 76.129 2.54
      vertex 49.2379 69.0277 2.54
      vertex 49.2379 76.2345 2.38566
    endloop
  endfacet
  facet normal 1 0 0
    outer loop
      vertex 49.2379 69.0277 2.54
      vertex 49.2379 68.9222 2.38566
      vertex 49.2379 76.2345 2.38566
    endloop
  endfacet
  facet normal 1 0 0
    outer loop
      vertex 49.2379 76.2345 2.38566
      vertex 49.2379 68.9222 2.38566
      vertex 49.2379 76.3333 2.22695
    endloop
  endfacet
  facet normal 1 0 0
    outer loop
      vertex 49.2379 68.9222 2.38566
      vertex 49.2379 76.4252 2.06415
      vertex 49.2379 76.3333 2.22695
    endloop
  endfacet
  facet normal 0 0.825594 -0.564265
    outer loop
      vertex 49.2379 76.129 -2.54
      vertex -49.2379 76.129 -2.54
      vertex -49.2379 76.2345 -2.38566
    endloop
  endfacet
  facet normal 0 0.825594 -0.564265
    outer loop
      vertex 49.2379 76.129 -2.54
      vertex -49.2379 76.2345 -2.38566
      vertex 49.2379 76.2345 -2.38566
    endloop
  endfacet
  facet normal 0 0.848997 -0.528398
    outer loop
      vertex -49.2379 76.2345 -2.38566
      vertex -49.2379 76.3333 -2.22695
      vertex 49.2379 76.2345 -2.38566
    endloop
  endfacet
  facet normal 0 0.848997 -0.528398
    outer loop
      vertex 49.2379 76.2345 -2.38566
      vertex -49.2379 76.3333 -2.22695
      vertex 49.2379 76.3333 -2.22695
    endloop
  endfacet
  facet normal 0 0.870838 -0.49157
    outer loop
      vertex -49.2379 76.3333 -2.22695
      vertex -49.2379 76.4252 -2.06415
      vertex 49.2379 76.3333 -2.22695
    endloop
  endfacet
  facet normal 0 0.870838 -0.49157
    outer loop
      vertex 49.2379 76.3333 -2.22695
      vertex -49.2379 76.4252 -2.06415
      vertex 49.2379 76.4252 -2.06415
    endloop
  endfacet
  facet normal 0 0.891072 -0.453861
    outer loop
      vertex -49.2379 76.4252 -2.06415
      vertex -49.2379 76.51 -1.89757
      vertex 49.2379 76.4252 -2.06415
    endloop
  endfacet
  facet normal 0 0.891072 -0.453861
    outer loop
      vertex 49.2379 76.4252 -2.06415
      vertex -49.2379 76.51 -1.89757
      vertex 49.2379 76.51 -1.89757
    endloop
  endfacet
  facet normal 0 0.909691 -0.415285
    outer loop
      vertex -49.2379 76.51 -1.89757
      vertex -49.2379 76.5876 -1.72751
      vertex 49.2379 76.51 -1.89757
    endloop
  endfacet
  facet normal 0 0.909691 -0.415285
    outer loop
      vertex 49.2379 76.51 -1.89757
      vertex -49.2379 76.5876 -1.72751
      vertex 49.2379 76.5876 -1.72751
    endloop
  endfacet
  facet normal 0 0.92664 -0.37595
    outer loop
      vertex -49.2379 76.5876 -1.72751
      vertex -49.2379 76.6579 -1.55428
      vertex 49.2379 76.5876 -1.72751
    endloop
  endfacet
  facet normal 0 0.92664 -0.37595
    outer loop
      vertex 49.2379 76.5876 -1.72751
      vertex -49.2379 76.6579 -1.55428
      vertex 49.2379 76.6579 -1.55428
    endloop
  endfacet
  facet normal 0 0.941885 -0.335936
    outer loop
      vertex -49.2379 76.6579 -1.55428
      vertex -49.2379 76.7207 -1.3782
      vertex 49.2379 76.6579 -1.55428
    endloop
  endfacet
  facet normal 0 0.941885 -0.335936
    outer loop
      vertex 49.2379 76.6579 -1.55428
      vertex -49.2379 76.7207 -1.3782
      vertex 49.2379 76.7207 -1.3782
    endloop
  endfacet
  facet normal 0 0.955409 -0.295285
    outer loop
      vertex -49.2379 76.7207 -1.3782
      vertex -49.2379 76.7759 -1.19959
      vertex 49.2379 76.7207 -1.3782
    endloop
  endfacet
  facet normal 0 0.955409 -0.295285
    outer loop
      vertex 49.2379 76.7207 -1.3782
      vertex -49.2379 76.7759 -1.19959
      vertex 49.2379 76.7759 -1.19959
    endloop
  endfacet
  facet normal 0 0.967164 -0.254152
    outer loop
      vertex -49.2379 76.7759 -1.19959
      vertex -49.2379 76.8234 -1.01879
      vertex 49.2379 76.7759 -1.19959
    endloop
  endfacet
  facet normal 0 0.967164 -0.254152
    outer loop
      vertex 49.2379 76.7759 -1.19959
      vertex -49.2379 76.8234 -1.01879
      vertex 49.2379 76.8234 -1.01879
    endloop
  endfacet
  facet normal 0 0.977168 -0.212467
    outer loop
      vertex -49.2379 76.8234 -1.01879
      vertex -49.2379 76.8632 -0.836113
      vertex 49.2379 76.8234 -1.01879
    endloop
  endfacet
  facet normal 0 0.977168 -0.212467
    outer loop
      vertex 49.2379 76.8234 -1.01879
      vertex -49.2379 76.8632 -0.836113
      vertex 49.2379 76.8632 -0.836113
    endloop
  endfacet
  facet normal 0 0.985358 -0.170497
    outer loop
      vertex -49.2379 76.8632 -0.836113
      vertex -49.2379 76.895 -0.651905
      vertex 49.2379 76.8632 -0.836113
    endloop
  endfacet
  facet normal 0 0.985358 -0.170497
    outer loop
      vertex 49.2379 76.8632 -0.836113
      vertex -49.2379 76.895 -0.651905
      vertex 49.2379 76.895 -0.651905
    endloop
  endfacet
  facet normal 0 0.991762 -0.128093
    outer loop
      vertex -49.2379 76.895 -0.651905
      vertex -49.2379 76.919 -0.466502
      vertex 49.2379 76.895 -0.651905
    endloop
  endfacet
  facet normal 0 0.991762 -0.128093
    outer loop
      vertex 49.2379 76.895 -0.651905
      vertex -49.2379 76.919 -0.466502
      vertex 49.2379 76.919 -0.466502
    endloop
  endfacet
  facet normal 0 0.996332 -0.0855679
    outer loop
      vertex -49.2379 76.919 -0.466502
      vertex -49.2379 76.935 -0.280244
      vertex 49.2379 76.919 -0.466502
    endloop
  endfacet
  facet normal 0 0.996332 -0.0855679
    outer loop
      vertex 49.2379 76.919 -0.466502
      vertex -49.2379 76.935 -0.280244
      vertex 49.2379 76.935 -0.280244
    endloop
  endfacet
  facet normal 0 0.999083 -0.042804
    outer loop
      vertex -49.2379 76.935 -0.280244
      vertex -49.2379 76.943 -0.0934718
      vertex 49.2379 76.935 -0.280244
    endloop
  endfacet
  facet normal 0 0.999083 -0.042804
    outer loop
      vertex 49.2379 76.935 -0.280244
      vertex -49.2379 76.943 -0.0934718
      vertex 49.2379 76.943 -0.0934718
    endloop
  endfacet
  facet normal 0 1 0
    outer loop
      vertex -49.2379 76.943 -0.0934718
      vertex -49.2379 76.943 0.0934718
      vertex 49.2379 76.943 -0.0934718
    endloop
  endfacet
  facet normal 0 1 0
    outer loop
      vertex 49.2379 76.943 -0.0934718
      vertex -49.2379 76.943 0.0934718
      vertex 49.2379 76.943 0.0934718
    endloop
  endfacet
  facet normal 0 0.999083 0.042804
    outer loop
      vertex -49.2379 76.943 0.0934718
      vertex -49.2379 76.935 0.280244
      vertex 49.2379 76.943 0.0934718
    endloop
  endfacet
  facet normal 0 0.999083 0.042804
    outer loop
      vertex 49.2379 76.943 0.0934718
      vertex -49.2379 76.935 0.280244
      vertex 49.2379 76.935 0.280244
    endloop
  endfacet
  facet normal 0 0.996332 0.0855679
    outer loop
      vertex -49.2379 76.935 0.280244
      vertex -49.2379 76.919 0.466502
      vertex 49.2379 76.935 0.280244
    endloop
  endfacet
  facet normal 0 0.996332 0.0855679
    outer loop
      vertex 49.2379 76.935 0.280244
      vertex -49.2379 76.919 0.466502
      vertex 49.2379 76.919 0.466502
    endloop
  endfacet
  facet normal 0 0.991762 0.128093
    outer loop
      vertex -49.2379 76.919 0.466502
      vertex -49.2379 76.895 0.651905
      vertex 49.2379 76.919 0.466502
    endloop
  endfacet
  facet normal 0 0.991762 0.128093
    outer loop
      vertex 49.2379 76.919 0.466502
      vertex -49.2379 76.895 0.651905
      vertex 49.2379 76.895 0.651905
    endloop
  endfacet
  facet normal 0 0.985358 0.170497
    outer loop
      vertex -49.2379 76.895 0.651905
      vertex -49.2379 76.8632 0.836113
      vertex 49.2379 76.895 0.651905
    endloop
  endfacet
  facet normal 0 0.985358 0.170497
    outer loop
      vertex 49.2379 76.895 0.651905
      vertex -49.2379 76.8632 0.836113
      vertex 49.2379 76.8632 0.836113
    endloop
  endfacet
  facet normal 0 0.977168 0.212467
    outer loop
      vertex -49.2379 76.8632 0.836113
      vertex -49.2379 76.8234 1.01879
      vertex 49.2379 76.8632 0.836113
    endloop
  endfacet
  facet normal 0 0.977168 0.212467
    outer loop
      vertex 49.2379 76.8632 0.836113
      vertex -49.2379 76.8234 1.01879
      vertex 49.2379 76.8234 1.01879
    endloop
  endfacet
  facet normal 0 0.967164 0.254152
    outer loop
      vertex -49.2379 76.8234 1.01879
      vertex -49.2379 76.7759 1.19959
      vertex 49.2379 76.8234 1.01879
    endloop
  endfacet
  facet normal 0 0.967164 0.254152
    outer loop
      vertex 49.2379 76.8234 1.01879
      vertex -49.2379 76.7759 1.19959
      vertex 49.2379 76.7759 1.19959
    endloop
  endfacet
  facet normal 0 0.955409 0.295285
    outer loop
      vertex -49.2379 76.7759 1.19959
      vertex -49.2379 76.7207 1.3782
      vertex 49.2379 76.7759 1.19959
    endloop
  endfacet
  facet normal 0 0.955409 0.295285
    outer loop
      vertex 49.2379 76.7759 1.19959
      vertex -49.2379 76.7207 1.3782
      vertex 49.2379 76.7207 1.3782
    endloop
  endfacet
  facet normal 0 0.941885 0.335936
    outer loop
      vertex -49.2379 76.7207 1.3782
      vertex -49.2379 76.6579 1.55428
      vertex 49.2379 76.7207 1.3782
    endloop
  endfacet
  facet normal 0 0.941885 0.335936
    outer loop
      vertex 49.2379 76.7207 1.3782
      vertex -49.2379 76.6579 1.55428
      vertex 49.2379 76.6579 1.55428
    endloop
  endfacet
  facet normal 0 0.92664 0.37595
    outer loop
      vertex -49.2379 76.6579 1.55428
      vertex -49.2379 76.5876 1.72751
      vertex 49.2379 76.6579 1.55428
    endloop
  endfacet
  facet normal 0 0.92664 0.37595
    outer loop
      vertex 49.2379 76.6579 1.55428
      vertex -49.2379 76.5876 1.72751
      vertex 49.2379 76.5876 1.72751
    endloop
  endfacet
  facet normal 0 0.909691 0.415285
    outer loop
      vertex -49.2379 76.5876 1.72751
      vertex -49.2379 76.51 1.89757
      vertex 49.2379 76.5876 1.72751
    endloop
  endfacet
  facet normal 0 0.909691 0.415285
    outer loop
      vertex 49.2379 76.5876 1.72751
      vertex -49.2379 76.51 1.89757
      vertex 49.2379 76.51 1.89757
    endloop
  endfacet
  facet normal 0 0.891072 0.453861
    outer loop
      vertex -49.2379 76.51 1.89757
      vertex -49.2379 76.4252 2.06415
      vertex 49.2379 76.51 1.89757
    endloop
  endfacet
  facet normal 0 0.891072 0.453861
    outer loop
      vertex 49.2379 76.51 1.89757
      vertex -49.2379 76.4252 2.06415
      vertex 49.2379 76.4252 2.06415
    endloop
  endfacet
  facet normal 0 0.870838 0.49157
    outer loop
      vertex -49.2379 76.4252 2.06415
      vertex -49.2379 76.3333 2.22695
      vertex 49.2379 76.4252 2.06415
    endloop
  endfacet
  facet normal 0 0.870838 0.49157
    outer loop
      vertex 49.2379 76.4252 2.06415
      vertex -49.2379 76.3333 2.22695
      vertex 49.2379 76.3333 2.22695
    endloop
  endfacet
  facet normal 0 0.848997 0.528398
    outer loop
      vertex -49.2379 76.3333 2.22695
      vertex -49.2379 76.2345 2.38566
      vertex 49.2379 76.3333 2.22695
    endloop
  endfacet
  facet normal 0 0.848997 0.528398
    outer loop
      vertex 49.2379 76.3333 2.22695
      vertex -49.2379 76.2345 2.38566
      vertex 49.2379 76.2345 2.38566
    endloop
  endfacet
  facet normal 0 0.825594 0.564265
    outer loop
      vertex -49.2379 76.2345 2.38566
      vertex -49.2379 76.129 2.54
      vertex 49.2379 76.2345 2.38566
    endloop
  endfacet
  facet normal 0 0.825594 0.564265
    outer loop
      vertex 49.2379 76.2345 2.38566
      vertex -49.2379 76.129 2.54
      vertex 49.2379 76.129 2.54
    endloop
  endfacet
  facet normal 0 -0.825594 0.564265
    outer loop
      vertex 49.2379 69.0277 2.54
      vertex -49.2379 69.0277 2.54
      vertex -49.2379 68.9222 2.38566
    endloop
  endfacet
  facet normal 0 -0.825594 0.564265
    outer loop
      vertex 49.2379 69.0277 2.54
      vertex -49.2379 68.9222 2.38566
      vertex 49.2379 68.9222 2.38566
    endloop
  endfacet
  facet normal 0 -0.848997 0.528398
    outer loop
      vertex -49.2379 68.9222 2.38566
      vertex -49.2379 68.8234 2.22695
      vertex 49.2379 68.9222 2.38566
    endloop
  endfacet
  facet normal 0 -0.848997 0.528398
    outer loop
      vertex 49.2379 68.9222 2.38566
      vertex -49.2379 68.8234 2.22695
      vertex 49.2379 68.8234 2.22695
    endloop
  endfacet
  facet normal 0 -0.870838 0.49157
    outer loop
      vertex -49.2379 68.8234 2.22695
      vertex -49.2379 68.7315 2.06415
      vertex 49.2379 68.8234 2.22695
    endloop
  endfacet
  facet normal 0 -0.870838 0.49157
    outer loop
      vertex 49.2379 68.8234 2.22695
      vertex -49.2379 68.7315 2.06415
      vertex 49.2379 68.7315 2.06415
    endloop
  endfacet
  facet normal 0 -0.891072 0.453861
    outer loop
      vertex -49.2379 68.7315 2.06415
      vertex -49.2379 68.6467 1.89757
      vertex 49.2379 68.7315 2.06415
    endloop
  endfacet
  facet normal 0 -0.891072 0.453861
    outer loop
      vertex 49.2379 68.7315 2.06415
      vertex -49.2379 68.6467 1.89757
      vertex 49.2379 68.6467 1.89757
    endloop
  endfacet
  facet normal 0 -0.909691 0.415285
    outer loop
      vertex -49.2379 68.6467 1.89757
      vertex -49.2379 68.5691 1.72751
      vertex 49.2379 68.6467 1.89757
    endloop
  endfacet
  facet normal 0 -0.909691 0.415285
    outer loop
      vertex 49.2379 68.6467 1.89757
      vertex -49.2379 68.5691 1.72751
      vertex 49.2379 68.5691 1.72751
    endloop
  endfacet
  facet normal 0 -0.92664 0.37595
    outer loop
      vertex -49.2379 68.5691 1.72751
      vertex -49.2379 68.4988 1.55428
      vertex 49.2379 68.5691 1.72751
    endloop
  endfacet
  facet normal 0 -0.92664 0.37595
    outer loop
      vertex 49.2379 68.5691 1.72751
      vertex -49.2379 68.4988 1.55428
      vertex 49.2379 68.4988 1.55428
    endloop
  endfacet
  facet normal 0 -0.941885 0.335936
    outer loop
      vertex -49.2379 68.4988 1.55428
      vertex -49.2379 68.436 1.3782
      vertex 49.2379 68.4988 1.55428
    endloop
  endfacet
  facet normal 0 -0.941885 0.335936
    outer loop
      vertex 49.2379 68.4988 1.55428
      vertex -49.2379 68.436 1.3782
      vertex 49.2379 68.436 1.3782
    endloop
  endfacet
  facet normal 0 -0.955409 0.295285
    outer loop
      vertex -49.2379 68.436 1.3782
      vertex -49.2379 68.3808 1.19959
      vertex 49.2379 68.436 1.3782
    endloop
  endfacet
  facet normal 0 -0.955409 0.295285
    outer loop
      vertex 49.2379 68.436 1.3782
      vertex -49.2379 68.3808 1.19959
      vertex 49.2379 68.3808 1.19959
    endloop
  endfacet
  facet normal 0 -0.967164 0.254152
    outer loop
      vertex -49.2379 68.3808 1.19959
      vertex -49.2379 68.3333 1.01879
      vertex 49.2379 68.3808 1.19959
    endloop
  endfacet
  facet normal 0 -0.967164 0.254152
    outer loop
      vertex 49.2379 68.3808 1.19959
      vertex -49.2379 68.3333 1.01879
      vertex 49.2379 68.3333 1.01879
    endloop
  endfacet
  facet normal 0 -0.977168 0.212467
    outer loop
      vertex -49.2379 68.3333 1.01879
      vertex -49.2379 68.2935 0.836113
      vertex 49.2379 68.3333 1.01879
    endloop
  endfacet
  facet normal 0 -0.977168 0.212467
    outer loop
      vertex 49.2379 68.3333 1.01879
      vertex -49.2379 68.2935 0.836113
      vertex 49.2379 68.2935 0.836113
    endloop
  endfacet
  facet normal 0 -0.985358 0.170497
    outer loop
      vertex -49.2379 68.2935 0.836113
      vertex -49.2379 68.2617 0.651905
      vertex 49.2379 68.2935 0.836113
    endloop
  endfacet
  facet normal 0 -0.985358 0.170497
    outer loop
      vertex 49.2379 68.2935 0.836113
      vertex -49.2379 68.2617 0.651905
      vertex 49.2379 68.2617 0.651905
    endloop
  endfacet
  facet normal 0 -0.991762 0.128093
    outer loop
      vertex -49.2379 68.2617 0.651905
      vertex -49.2379 68.2377 0.466502
      vertex 49.2379 68.2617 0.651905
    endloop
  endfacet
  facet normal 0 -0.991762 0.128093
    outer loop
      vertex 49.2379 68.2617 0.651905
      vertex -49.2379 68.2377 0.466502
      vertex 49.2379 68.2377 0.466502
    endloop
  endfacet
  facet normal 0 -0.996332 0.0855679
    outer loop
      vertex -49.2379 68.2377 0.466502
      vertex -49.2379 68.2217 0.280244
      vertex 49.2379 68.2377 0.466502
    endloop
  endfacet
  facet normal 0 -0.996332 0.0855679
    outer loop
      vertex 49.2379 68.2377 0.466502
      vertex -49.2379 68.2217 0.280244
      vertex 49.2379 68.2217 0.280244
    endloop
  endfacet
  facet normal 0 -0.999083 0.042804
    outer loop
      vertex -49.2379 68.2217 0.280244
      vertex -49.2379 68.2137 0.0934718
      vertex 49.2379 68.2217 0.280244
    endloop
  endfacet
  facet normal 0 -0.999083 0.042804
    outer loop
      vertex 49.2379 68.2217 0.280244
      vertex -49.2379 68.2137 0.0934718
      vertex 49.2379 68.2137 0.0934718
    endloop
  endfacet
  facet normal 0 -1 0
    outer loop
      vertex -49.2379 68.2137 0.0934718
      vertex -49.2379 68.2137 -0.0934718
      vertex 49.2379 68.2137 0.0934718
    endloop
  endfacet
  facet normal 0 -1 0
    outer loop
      vertex 49.2379 68.2137 0.0934718
      vertex -49.2379 68.2137 -0.0934718
      vertex 49.2379 68.2137 -0.0934718
    endloop
  endfacet
  facet normal 0 -0.999083 -0.042804
    outer loop
      vertex -49.2379 68.2137 -0.0934718
      vertex -49.2379 68.2217 -0.280244
      vertex 49.2379 68.2137 -0.0934718
    endloop
  endfacet
  facet normal 0 -0.999083 -0.042804
    outer loop
      vertex 49.2379 68.2137 -0.0934718
      vertex -49.2379 68.2217 -0.280244
      vertex 49.2379 68.2217 -0.280244
    endloop
  endfacet
  facet normal 0 -0.996332 -0.0855679
    outer loop
      vertex -49.2379 68.2217 -0.280244
      vertex -49.2379 68.2377 -0.466502
      vertex 49.2379 68.2217 -0.280244
    endloop
  endfacet
  facet normal 0 -0.996332 -0.0855679
    outer loop
      vertex 49.2379 68.2217 -0.280244
      vertex -49.2379 68.2377 -0.466502
      vertex 49.2379 68.2377 -0.466502
    endloop
  endfacet
  facet normal 0 -0.991762 -0.128093
    outer loop
      vertex -49.2379 68.2377 -0.466502
      vertex -49.2379 68.2617 -0.651905
      vertex 49.2379 68.2377 -0.466502
    endloop
  endfacet
  facet normal 0 -0.991762 -0.128093
    outer loop
      vertex 49.2379 68.2377 -0.466502
      vertex -49.2379 68.2617 -0.651905
      vertex 49.2379 68.2617 -0.651905
    endloop
  endfacet
  facet normal 0 -0.985358 -0.170497
    outer loop
      vertex -49.2379 68.2617 -0.651905
      vertex -49.2379 68.2935 -0.836113
      vertex 49.2379 68.2617 -0.651905
    endloop
  endfacet
  facet normal 0 -0.985358 -0.170497
    outer loop
      vertex 49.2379 68.2617 -0.651905
      vertex -49.2379 68.2935 -0.836113
      vertex 49.2379 68.2935 -0.836113
    endloop
  endfacet
  facet normal 0 -0.977168 -0.212467
    outer loop
      vertex -49.2379 68.2935 -0.836113
      vertex -49.2379 68.3333 -1.01879
      vertex 49.2379 68.2935 -0.836113
    endloop
  endfacet
  facet normal 0 -0.977168 -0.212467
    outer loop
      vertex 49.2379 68.2935 -0.836113
      vertex -49.2379 68.3333 -1.01879
      vertex 49.2379 68.3333 -1.01879
    endloop
  endfacet
  facet normal 0 -0.967164 -0.254152
    outer loop
      vertex -49.2379 68.3333 -1.01879
      vertex -49.2379 68.3808 -1.19959
      vertex 49.2379 68.3333 -1.01879
    endloop
  endfacet
  facet normal 0 -0.967164 -0.254152
    outer loop
      vertex 49.2379 68.3333 -1.01879
      vertex -49.2379 68.3808 -1.19959
      vertex 49.2379 68.3808 -1.19959
    endloop
  endfacet
  facet normal 0 -0.955409 -0.295285
    outer loop
      vertex -49.2379 68.3808 -1.19959
      vertex -49.2379 68.436 -1.3782
      vertex 49.2379 68.3808 -1.19959
    endloop
  endfacet
  facet normal 0 -0.955409 -0.295285
    outer loop
      vertex 49.2379 68.3808 -1.19959
      vertex -49.2379 68.436 -1.3782
      vertex 49.2379 68.436 -1.3782
    endloop
  endfacet
  facet normal 0 -0.941885 -0.335936
    outer loop
      vertex -49.2379 68.436 -1.3782
      vertex -49.2379 68.4988 -1.55428
      vertex 49.2379 68.436 -1.3782
    endloop
  endfacet
  facet normal 0 -0.941885 -0.335936
    outer loop
      vertex 49.2379 68.436 -1.3782
      vertex -49.2379 68.4988 -1.55428
      vertex 49.2379 68.4988 -1.55428
    endloop
  endfacet
  facet normal 0 -0.92664 -0.37595
    outer loop
      vertex -49.2379 68.4988 -1.55428
      vertex -49.2379 68.5691 -1.72751
      vertex 49.2379 68.4988 -1.55428
    endloop
  endfacet
  facet normal 0 -0.92664 -0.37595
    outer loop
      vertex 49.2379 68.4988 -1.55428
      vertex -49.2379 68.5691 -1.72751
      vertex 49.2379 68.5691 -1.72751
    endloop
  endfacet
  facet normal 0 -0.909691 -0.415285
    outer loop
      vertex -49.2379 68.5691 -1.72751
      vertex -49.2379 68.6467 -1.89757
      vertex 49.2379 68.5691 -1.72751
    endloop
  endfacet
  facet normal 0 -0.909691 -0.415285
    outer loop
      vertex 49.2379 68.5691 -1.72751
      vertex -49.2379 68.6467 -1.89757
      vertex 49.2379 68.6467 -1.89757
    endloop
  endfacet
  facet normal 0 -0.891072 -0.453861
    outer loop
      vertex -49.2379 68.6467 -1.89757
      vertex -49.2379 68.7315 -2.06415
      vertex 49.2379 68.6467 -1.89757
    endloop
  endfacet
  facet normal 0 -0.891072 -0.453861
    outer loop
      vertex 49.2379 68.6467 -1.89757
      vertex -49.2379 68.7315 -2.06415
      vertex 49.2379 68.7315 -2.06415
    endloop
  endfacet
  facet normal 0 -0.870838 -0.49157
    outer loop
      vertex -49.2379 68.7315 -2.06415
      vertex -49.2379 68.8234 -2.22695
      vertex 49.2379 68.7315 -2.06415
    endloop
  endfacet
  facet normal 0 -0.870838 -0.49157
    outer loop
      vertex 49.2379 68.7315 -2.06415
      vertex -49.2379 68.8234 -2.22695
      vertex 49.2379 68.8234 -2.22695
    endloop
  endfacet
  facet normal 0 -0.848997 -0.528398
    outer loop
      vertex -49.2379 68.8234 -2.22695
      vertex -49.2379 68.9222 -2.38566
      vertex 49.2379 68.8234 -2.22695
    endloop
  endfacet
  facet normal 0 -0.848997 -0.528398
    outer loop
      vertex 49.2379 68.8234 -2.22695
      vertex -49.2379 68.9222 -2.38566
      vertex 49.2379 68.9222 -2.38566
    endloop
  endfacet
  facet normal 0 -0.825594 -0.564265
    outer loop
      vertex -49.2379 68.9222 -2.38566
      vertex -49.2379 69.0277 -2.54
      vertex 49.2379 68.9222 -2.38566
    endloop
  endfacet
  facet normal 0 -0.825594 -0.564265
    outer loop
      vertex 49.2379 68.9222 -2.38566
      vertex -49.2379 69.0277 -2.54
      vertex 49.2379 69.0277 -2.54
    endloop
  endfacet
endsolid Onshape
