solid Onshape
  facet normal 0 0 -1
    outer loop
      vertex 6.35 -76.733 -2.286
      vertex 12.7 -76.733 -2.286
      vertex 12.7 -80.276 -2.286
    endloop
  endfacet
  facet normal 0 0 -1
    outer loop
      vertex -12.7 -71.92 -2.286
      vertex 12.7 -71.92 -2.286
      vertex 6.35 -75.463 -2.286
    endloop
  endfacet
  facet normal 0 0 -1
    outer loop
      vertex 12.7 -71.92 -2.286
      vertex 12.7 -75.463 -2.286
      vertex 6.35 -75.463 -2.286
    endloop
  endfacet
  facet normal 0 0 -1
    outer loop
      vertex -12.7 -80.276 -2.286
      vertex -12.7 -76.733 -2.286
      vertex -6.35 -76.733 -2.286
    endloop
  endfacet
  facet normal 0 0 -1
    outer loop
      vertex -12.7 -75.463 -2.286
      vertex -12.7 -71.92 -2.286
      vertex -6.35 -75.463 -2.286
    endloop
  endfacet
  facet normal 0 0 -1
    outer loop
      vertex -12.7 -71.92 -2.286
      vertex 6.35 -75.463 -2.286
      vertex -6.35 -75.463 -2.286
    endloop
  endfacet
  facet normal 0 0 -1
    outer loop
      vertex -6.35 -75.463 -2.286
      vertex 6.35 -75.463 -2.286
      vertex -6.35 -76.733 -2.286
    endloop
  endfacet
  facet normal 0 0 -1
    outer loop
      vertex 6.35 -75.463 -2.286
      vertex 6.35 -76.733 -2.286
      vertex -6.35 -76.733 -2.286
    endloop
  endfacet
  facet normal 0 0 -1
    outer loop
      vertex -6.35 -76.733 -2.286
      vertex 6.35 -76.733 -2.286
      vertex -12.7 -80.276 -2.286
    endloop
  endfacet
  facet normal 0 0 -1
    outer loop
      vertex 6.35 -76.733 -2.286
      vertex 12.7 -80.276 -2.286
      vertex -12.7 -80.276 -2.286
    endloop
  endfacet
  facet normal 1 0 0
    outer loop
      vertex 6.35 -75.463 2.286
      vertex 6.35 -76.733 2.286
      vertex 6.35 -75.463 -2.286
    endloop
  endfacet
  facet normal 1 0 0
    outer loop
      vertex 6.35 -76.733 2.286
      vertex 6.35 -76.733 -2.286
      vertex 6.35 -75.463 -2.286
    endloop
  endfacet
  facet normal 0 -1 0
    outer loop
      vertex 12.7 -75.463 2.286
      vertex 6.35 -75.463 2.286
      vertex 12.7 -75.463 -2.286
    endloop
  endfacet
  facet normal 0 -1 0
    outer loop
      vertex 6.35 -75.463 2.286
      vertex 6.35 -75.463 -2.286
      vertex 12.7 -75.463 -2.286
    endloop
  endfacet
  facet normal 0 1 0
    outer loop
      vertex 6.35 -76.733 -2.286
      vertex 6.35 -76.733 2.286
      vertex 12.7 -76.733 -2.286
    endloop
  endfacet
  facet normal 0 1 0
    outer loop
      vertex 6.35 -76.733 2.286
      vertex 12.7 -76.733 2.286
      vertex 12.7 -76.733 -2.286
    endloop
  endfacet
  facet normal 1 0 0
    outer loop
      vertex 12.7 -75.463 -2.286
      vertex 12.7 -71.92 -2.286
      vertex 12.7 -75.463 2.286
    endloop
  endfacet
  facet normal 1 0 0
    outer loop
      vertex 12.7 -71.92 -2.286
      vertex 12.7 -71.8245 -2.102
      vertex 12.7 -75.463 2.286
    endloop
  endfacet
  facet normal 1 0 0
    outer loop
      vertex 12.7 -75.463 2.286
      vertex 12.7 -71.5871 -1.52754
      vertex 12.7 -71.5249 -1.32977
    endloop
  endfacet
  facet normal 1 0 0
    outer loop
      vertex 12.7 -71.5249 -1.32977
      vertex 12.7 -71.4714 -1.12948
      vertex 12.7 -75.463 2.286
    endloop
  endfacet
  facet normal 1 0 0
    outer loop
      vertex 12.7 -71.4714 -1.12948
      vertex 12.7 -71.4266 -0.927057
      vertex 12.7 -75.463 2.286
    endloop
  endfacet
  facet normal 1 0 0
    outer loop
      vertex 12.7 -75.463 2.286
      vertex 12.7 -71.4266 -0.927057
      vertex 12.7 -71.3907 -0.722872
    endloop
  endfacet
  facet normal 1 0 0
    outer loop
      vertex 12.7 -71.8245 -2.102
      vertex 12.7 -71.7371 -1.91402
      vertex 12.7 -75.463 2.286
    endloop
  endfacet
  facet normal 1 0 0
    outer loop
      vertex 12.7 -71.7371 -1.91402
      vertex 12.7 -71.6579 -1.72241
      vertex 12.7 -75.463 2.286
    endloop
  endfacet
  facet normal 1 0 0
    outer loop
      vertex 12.7 -75.463 2.286
      vertex 12.7 -71.6579 -1.72241
      vertex 12.7 -71.5871 -1.52754
    endloop
  endfacet
  facet normal 1 0 0
    outer loop
      vertex 12.7 -71.3907 -0.722872
      vertex 12.7 -71.3637 -0.517318
      vertex 12.7 -75.463 2.286
    endloop
  endfacet
  facet normal 1 0 0
    outer loop
      vertex 12.7 -71.3637 -0.517318
      vertex 12.7 -71.3457 -0.310784
      vertex 12.7 -75.463 2.286
    endloop
  endfacet
  facet normal 1 0 0
    outer loop
      vertex 12.7 -75.463 2.286
      vertex 12.7 -71.3457 -0.310784
      vertex 12.7 -71.3367 -0.10366
    endloop
  endfacet
  facet normal 1 0 0
    outer loop
      vertex 12.7 -71.3637 0.517318
      vertex 12.7 -71.3907 0.722872
      vertex 12.7 -75.463 2.286
    endloop
  endfacet
  facet normal 1 0 0
    outer loop
      vertex 12.7 -71.3907 0.722872
      vertex 12.7 -71.4266 0.927057
      vertex 12.7 -75.463 2.286
    endloop
  endfacet
  facet normal 1 0 0
    outer loop
      vertex 12.7 -75.463 2.286
      vertex 12.7 -71.4266 0.927057
      vertex 12.7 -71.4714 1.12948
    endloop
  endfacet
  facet normal 1 0 0
    outer loop
      vertex 12.7 -71.4714 1.12948
      vertex 12.7 -71.5249 1.32977
      vertex 12.7 -75.463 2.286
    endloop
  endfacet
  facet normal 1 0 0
    outer loop
      vertex 12.7 -71.5249 1.32977
      vertex 12.7 -71.5871 1.52754
      vertex 12.7 -75.463 2.286
    endloop
  endfacet
  facet normal 1 0 0
    outer loop
      vertex 12.7 -75.463 2.286
      vertex 12.7 -71.5871 1.52754
      vertex 12.7 -71.6579 1.72241
    endloop
  endfacet
  facet normal 1 0 0
    outer loop
      vertex 12.7 -71.3367 -0.10366
      vertex 12.7 -71.3367 0.10366
      vertex 12.7 -75.463 2.286
    endloop
  endfacet
  facet normal 1 0 0
    outer loop
      vertex 12.7 -71.3367 0.10366
      vertex 12.7 -71.3457 0.310784
      vertex 12.7 -75.463 2.286
    endloop
  endfacet
  facet normal 1 0 0
    outer loop
      vertex 12.7 -75.463 2.286
      vertex 12.7 -71.3457 0.310784
      vertex 12.7 -71.3637 0.517318
    endloop
  endfacet
  facet normal 1 0 0
    outer loop
      vertex 12.7 -71.6579 1.72241
      vertex 12.7 -71.7371 1.91402
      vertex 12.7 -75.463 2.286
    endloop
  endfacet
  facet normal 1 0 0
    outer loop
      vertex 12.7 -71.7371 1.91402
      vertex 12.7 -71.8245 2.102
      vertex 12.7 -75.463 2.286
    endloop
  endfacet
  facet normal 1 0 0
    outer loop
      vertex 12.7 -75.463 2.286
      vertex 12.7 -71.8245 2.102
      vertex 12.7 -71.92 2.286
    endloop
  endfacet
  facet normal 1 0 0
    outer loop
      vertex 12.7 -76.733 -2.286
      vertex 12.7 -76.733 2.286
      vertex 12.7 -80.276 2.286
    endloop
  endfacet
  facet normal 1 0 0
    outer loop
      vertex 12.7 -80.8053 0.722872
      vertex 12.7 -76.733 -2.286
      vertex 12.7 -80.7694 0.927057
    endloop
  endfacet
  facet normal 1 0 0
    outer loop
      vertex 12.7 -76.733 -2.286
      vertex 12.7 -80.7246 1.12948
      vertex 12.7 -80.7694 0.927057
    endloop
  endfacet
  facet normal 1 0 0
    outer loop
      vertex 12.7 -80.7246 -1.12948
      vertex 12.7 -80.6711 -1.32977
      vertex 12.7 -76.733 -2.286
    endloop
  endfacet
  facet normal 1 0 0
    outer loop
      vertex 12.7 -80.6711 -1.32977
      vertex 12.7 -80.6089 -1.52754
      vertex 12.7 -76.733 -2.286
    endloop
  endfacet
  facet normal 1 0 0
    outer loop
      vertex 12.7 -76.733 -2.286
      vertex 12.7 -80.6089 -1.52754
      vertex 12.7 -80.5381 -1.72241
    endloop
  endfacet
  facet normal 1 0 0
    outer loop
      vertex 12.7 -80.276 2.286
      vertex 12.7 -80.3715 2.102
      vertex 12.7 -76.733 -2.286
    endloop
  endfacet
  facet normal 1 0 0
    outer loop
      vertex 12.7 -80.3715 2.102
      vertex 12.7 -80.459 1.91402
      vertex 12.7 -76.733 -2.286
    endloop
  endfacet
  facet normal 1 0 0
    outer loop
      vertex 12.7 -76.733 -2.286
      vertex 12.7 -80.459 1.91402
      vertex 12.7 -80.5381 1.72241
    endloop
  endfacet
  facet normal 1 0 0
    outer loop
      vertex 12.7 -80.5381 1.72241
      vertex 12.7 -80.6089 1.52754
      vertex 12.7 -76.733 -2.286
    endloop
  endfacet
  facet normal 1 0 0
    outer loop
      vertex 12.7 -80.6089 1.52754
      vertex 12.7 -80.6711 1.32977
      vertex 12.7 -76.733 -2.286
    endloop
  endfacet
  facet normal 1 0 0
    outer loop
      vertex 12.7 -76.733 -2.286
      vertex 12.7 -80.6711 1.32977
      vertex 12.7 -80.7246 1.12948
    endloop
  endfacet
  facet normal 1 0 0
    outer loop
      vertex 12.7 -80.5381 -1.72241
      vertex 12.7 -80.459 -1.91402
      vertex 12.7 -76.733 -2.286
    endloop
  endfacet
  facet normal 1 0 0
    outer loop
      vertex 12.7 -80.459 -1.91402
      vertex 12.7 -80.3715 -2.102
      vertex 12.7 -76.733 -2.286
    endloop
  endfacet
  facet normal 1 0 0
    outer loop
      vertex 12.7 -76.733 -2.286
      vertex 12.7 -80.3715 -2.102
      vertex 12.7 -80.276 -2.286
    endloop
  endfacet
  facet normal 1 0 0
    outer loop
      vertex 12.7 -80.8053 0.722872
      vertex 12.7 -80.8323 0.517318
      vertex 12.7 -76.733 -2.286
    endloop
  endfacet
  facet normal 1 0 0
    outer loop
      vertex 12.7 -80.8323 0.517318
      vertex 12.7 -80.8504 0.310784
      vertex 12.7 -76.733 -2.286
    endloop
  endfacet
  facet normal 1 0 0
    outer loop
      vertex 12.7 -76.733 -2.286
      vertex 12.7 -80.8504 0.310784
      vertex 12.7 -80.8594 0.10366
    endloop
  endfacet
  facet normal 1 0 0
    outer loop
      vertex 12.7 -80.8323 -0.517318
      vertex 12.7 -80.8053 -0.722872
      vertex 12.7 -76.733 -2.286
    endloop
  endfacet
  facet normal 1 0 0
    outer loop
      vertex 12.7 -80.8053 -0.722872
      vertex 12.7 -80.7694 -0.927057
      vertex 12.7 -76.733 -2.286
    endloop
  endfacet
  facet normal 1 0 0
    outer loop
      vertex 12.7 -76.733 -2.286
      vertex 12.7 -80.7694 -0.927057
      vertex 12.7 -80.7246 -1.12948
    endloop
  endfacet
  facet normal 1 0 0
    outer loop
      vertex 12.7 -80.8594 0.10366
      vertex 12.7 -80.8594 -0.10366
      vertex 12.7 -76.733 -2.286
    endloop
  endfacet
  facet normal 1 0 0
    outer loop
      vertex 12.7 -80.8594 -0.10366
      vertex 12.7 -80.8504 -0.310784
      vertex 12.7 -76.733 -2.286
    endloop
  endfacet
  facet normal 1 0 0
    outer loop
      vertex 12.7 -76.733 -2.286
      vertex 12.7 -80.8504 -0.310784
      vertex 12.7 -80.8323 -0.517318
    endloop
  endfacet
  facet normal 0 0 1
    outer loop
      vertex -6.35 -76.733 2.286
      vertex -12.7 -76.733 2.286
      vertex -12.7 -80.276 2.286
    endloop
  endfacet
  facet normal 0 0 1
    outer loop
      vertex 12.7 -71.92 2.286
      vertex -12.7 -71.92 2.286
      vertex -6.35 -75.463 2.286
    endloop
  endfacet
  facet normal 0 0 1
    outer loop
      vertex -12.7 -71.92 2.286
      vertex -12.7 -75.463 2.286
      vertex -6.35 -75.463 2.286
    endloop
  endfacet
  facet normal 0 0 1
    outer loop
      vertex 12.7 -80.276 2.286
      vertex 12.7 -76.733 2.286
      vertex 6.35 -76.733 2.286
    endloop
  endfacet
  facet normal 0 0 1
    outer loop
      vertex 12.7 -75.463 2.286
      vertex 12.7 -71.92 2.286
      vertex 6.35 -75.463 2.286
    endloop
  endfacet
  facet normal 0 0 1
    outer loop
      vertex 12.7 -71.92 2.286
      vertex -6.35 -75.463 2.286
      vertex 6.35 -75.463 2.286
    endloop
  endfacet
  facet normal 0 0 1
    outer loop
      vertex 6.35 -75.463 2.286
      vertex -6.35 -75.463 2.286
      vertex 6.35 -76.733 2.286
    endloop
  endfacet
  facet normal 0 0 1
    outer loop
      vertex -6.35 -75.463 2.286
      vertex -6.35 -76.733 2.286
      vertex 6.35 -76.733 2.286
    endloop
  endfacet
  facet normal 0 0 1
    outer loop
      vertex 6.35 -76.733 2.286
      vertex -6.35 -76.733 2.286
      vertex 12.7 -80.276 2.286
    endloop
  endfacet
  facet normal 0 0 1
    outer loop
      vertex -6.35 -76.733 2.286
      vertex -12.7 -80.276 2.286
      vertex 12.7 -80.276 2.286
    endloop
  endfacet
  facet normal -1 0 0
    outer loop
      vertex -6.35 -76.733 2.286
      vertex -6.35 -75.463 2.286
      vertex -6.35 -76.733 -2.286
    endloop
  endfacet
  facet normal -1 0 0
    outer loop
      vertex -6.35 -75.463 2.286
      vertex -6.35 -75.463 -2.286
      vertex -6.35 -76.733 -2.286
    endloop
  endfacet
  facet normal -1 0 0
    outer loop
      vertex -12.7 -76.733 -2.286
      vertex -12.7 -80.276 -2.286
      vertex -12.7 -80.3715 -2.102
    endloop
  endfacet
  facet normal -1 0 0
    outer loop
      vertex -12.7 -76.733 -2.286
      vertex -12.7 -80.6089 -1.52754
      vertex -12.7 -80.6711 -1.32977
    endloop
  endfacet
  facet normal -1 0 0
    outer loop
      vertex -12.7 -80.8323 0.517318
      vertex -12.7 -80.8053 0.722872
      vertex -12.7 -76.733 -2.286
    endloop
  endfacet
  facet normal -1 0 0
    outer loop
      vertex -12.7 -80.8053 0.722872
      vertex -12.7 -80.7694 0.927057
      vertex -12.7 -76.733 -2.286
    endloop
  endfacet
  facet normal -1 0 0
    outer loop
      vertex -12.7 -76.733 -2.286
      vertex -12.7 -80.7694 0.927057
      vertex -12.7 -80.7246 1.12948
    endloop
  endfacet
  facet normal -1 0 0
    outer loop
      vertex -12.7 -80.3715 -2.102
      vertex -12.7 -80.459 -1.91402
      vertex -12.7 -76.733 -2.286
    endloop
  endfacet
  facet normal -1 0 0
    outer loop
      vertex -12.7 -80.459 -1.91402
      vertex -12.7 -80.5381 -1.72241
      vertex -12.7 -76.733 -2.286
    endloop
  endfacet
  facet normal -1 0 0
    outer loop
      vertex -12.7 -76.733 -2.286
      vertex -12.7 -80.5381 -1.72241
      vertex -12.7 -80.6089 -1.52754
    endloop
  endfacet
  facet normal -1 0 0
    outer loop
      vertex -12.7 -80.7246 1.12948
      vertex -12.7 -80.6711 1.32977
      vertex -12.7 -76.733 -2.286
    endloop
  endfacet
  facet normal -1 0 0
    outer loop
      vertex -12.7 -80.6711 1.32977
      vertex -12.7 -80.6089 1.52754
      vertex -12.7 -76.733 -2.286
    endloop
  endfacet
  facet normal -1 0 0
    outer loop
      vertex -12.7 -76.733 -2.286
      vertex -12.7 -80.6089 1.52754
      vertex -12.7 -80.5381 1.72241
    endloop
  endfacet
  facet normal -1 0 0
    outer loop
      vertex -12.7 -80.276 2.286
      vertex -12.7 -76.733 2.286
      vertex -12.7 -80.3715 2.102
    endloop
  endfacet
  facet normal -1 0 0
    outer loop
      vertex -12.7 -76.733 2.286
      vertex -12.7 -76.733 -2.286
      vertex -12.7 -80.3715 2.102
    endloop
  endfacet
  facet normal -1 0 0
    outer loop
      vertex -12.7 -80.3715 2.102
      vertex -12.7 -76.733 -2.286
      vertex -12.7 -80.459 1.91402
    endloop
  endfacet
  facet normal -1 0 0
    outer loop
      vertex -12.7 -76.733 -2.286
      vertex -12.7 -80.5381 1.72241
      vertex -12.7 -80.459 1.91402
    endloop
  endfacet
  facet normal -1 0 0
    outer loop
      vertex -12.7 -80.6711 -1.32977
      vertex -12.7 -80.7246 -1.12948
      vertex -12.7 -76.733 -2.286
    endloop
  endfacet
  facet normal -1 0 0
    outer loop
      vertex -12.7 -80.7246 -1.12948
      vertex -12.7 -80.7694 -0.927057
      vertex -12.7 -76.733 -2.286
    endloop
  endfacet
  facet normal -1 0 0
    outer loop
      vertex -12.7 -76.733 -2.286
      vertex -12.7 -80.7694 -0.927057
      vertex -12.7 -80.8053 -0.722872
    endloop
  endfacet
  facet normal -1 0 0
    outer loop
      vertex -12.7 -80.8053 -0.722872
      vertex -12.7 -80.8323 -0.517318
      vertex -12.7 -76.733 -2.286
    endloop
  endfacet
  facet normal -1 0 0
    outer loop
      vertex -12.7 -80.8323 -0.517318
      vertex -12.7 -80.8504 -0.310784
      vertex -12.7 -76.733 -2.286
    endloop
  endfacet
  facet normal -1 0 0
    outer loop
      vertex -12.7 -76.733 -2.286
      vertex -12.7 -80.8504 -0.310784
      vertex -12.7 -80.8594 -0.10366
    endloop
  endfacet
  facet normal -1 0 0
    outer loop
      vertex -12.7 -80.8594 -0.10366
      vertex -12.7 -80.8594 0.10366
      vertex -12.7 -76.733 -2.286
    endloop
  endfacet
  facet normal -1 0 0
    outer loop
      vertex -12.7 -80.8594 0.10366
      vertex -12.7 -80.8504 0.310784
      vertex -12.7 -76.733 -2.286
    endloop
  endfacet
  facet normal -1 0 0
    outer loop
      vertex -12.7 -76.733 -2.286
      vertex -12.7 -80.8504 0.310784
      vertex -12.7 -80.8323 0.517318
    endloop
  endfacet
  facet normal 0 -0.887508 -0.460792
    outer loop
      vertex -12.7 -80.276 -2.286
      vertex 12.7 -80.276 -2.286
      vertex 12.7 -80.3715 -2.102
    endloop
  endfacet
  facet normal 0 -0.887508 -0.460792
    outer loop
      vertex -12.7 -80.276 -2.286
      vertex 12.7 -80.3715 -2.102
      vertex -12.7 -80.3715 -2.102
    endloop
  endfacet
  facet normal 0 -0.906709 -0.421758
    outer loop
      vertex 12.7 -80.3715 -2.102
      vertex 12.7 -80.459 -1.91402
      vertex -12.7 -80.3715 -2.102
    endloop
  endfacet
  facet normal 0 -0.906709 -0.421758
    outer loop
      vertex -12.7 -80.3715 -2.102
      vertex 12.7 -80.459 -1.91402
      vertex -12.7 -80.459 -1.91402
    endloop
  endfacet
  facet normal 0 -0.924228 -0.381842
    outer loop
      vertex 12.7 -80.459 -1.91402
      vertex 12.7 -80.5381 -1.72241
      vertex -12.7 -80.459 -1.91402
    endloop
  endfacet
  facet normal 0 -0.924228 -0.381842
    outer loop
      vertex -12.7 -80.459 -1.91402
      vertex 12.7 -80.5381 -1.72241
      vertex -12.7 -80.5381 -1.72241
    endloop
  endfacet
  facet normal 0 -0.939955 -0.341297
    outer loop
      vertex 12.7 -80.5381 -1.72241
      vertex 12.7 -80.6089 -1.52754
      vertex -12.7 -80.5381 -1.72241
    endloop
  endfacet
  facet normal 0 -0.939955 -0.341297
    outer loop
      vertex -12.7 -80.5381 -1.72241
      vertex 12.7 -80.6089 -1.52754
      vertex -12.7 -80.6089 -1.52754
    endloop
  endfacet
  facet normal 0 -0.953925 -0.300044
    outer loop
      vertex 12.7 -80.6089 -1.52754
      vertex 12.7 -80.6711 -1.32977
      vertex -12.7 -80.6089 -1.52754
    endloop
  endfacet
  facet normal 0 -0.953925 -0.300044
    outer loop
      vertex -12.7 -80.6089 -1.52754
      vertex 12.7 -80.6711 -1.32977
      vertex -12.7 -80.6711 -1.32977
    endloop
  endfacet
  facet normal 0 -0.966079 -0.258248
    outer loop
      vertex 12.7 -80.6711 -1.32977
      vertex 12.7 -80.7246 -1.12948
      vertex -12.7 -80.6711 -1.32977
    endloop
  endfacet
  facet normal 0 -0.966079 -0.258248
    outer loop
      vertex -12.7 -80.6711 -1.32977
      vertex 12.7 -80.7246 -1.12948
      vertex -12.7 -80.7246 -1.12948
    endloop
  endfacet
  facet normal 0 -0.976397 -0.215984
    outer loop
      vertex 12.7 -80.7246 -1.12948
      vertex 12.7 -80.7694 -0.927057
      vertex -12.7 -80.7246 -1.12948
    endloop
  endfacet
  facet normal 0 -0.976397 -0.215984
    outer loop
      vertex -12.7 -80.7246 -1.12948
      vertex 12.7 -80.7694 -0.927057
      vertex -12.7 -80.7694 -0.927057
    endloop
  endfacet
  facet normal 0 -0.984877 -0.173255
    outer loop
      vertex 12.7 -80.7694 -0.927057
      vertex 12.7 -80.8053 -0.722872
      vertex -12.7 -80.7694 -0.927057
    endloop
  endfacet
  facet normal 0 -0.984877 -0.173255
    outer loop
      vertex -12.7 -80.7694 -0.927057
      vertex 12.7 -80.8053 -0.722872
      vertex -12.7 -80.8053 -0.722872
    endloop
  endfacet
  facet normal 0 -0.991483 -0.130238
    outer loop
      vertex 12.7 -80.8053 -0.722872
      vertex 12.7 -80.8323 -0.517318
      vertex -12.7 -80.8053 -0.722872
    endloop
  endfacet
  facet normal 0 -0.991483 -0.130238
    outer loop
      vertex -12.7 -80.8053 -0.722872
      vertex 12.7 -80.8323 -0.517318
      vertex -12.7 -80.8323 -0.517318
    endloop
  endfacet
  facet normal 0 -0.996214 -0.0869332
    outer loop
      vertex 12.7 -80.8323 -0.517318
      vertex 12.7 -80.8504 -0.310784
      vertex -12.7 -80.8323 -0.517318
    endloop
  endfacet
  facet normal 0 -0.996214 -0.0869332
    outer loop
      vertex -12.7 -80.8323 -0.517318
      vertex 12.7 -80.8504 -0.310784
      vertex -12.7 -80.8504 -0.310784
    endloop
  endfacet
  facet normal 0 -0.999053 -0.0435204
    outer loop
      vertex 12.7 -80.8504 -0.310784
      vertex 12.7 -80.8594 -0.10366
      vertex -12.7 -80.8504 -0.310784
    endloop
  endfacet
  facet normal 0 -0.999053 -0.0435204
    outer loop
      vertex -12.7 -80.8504 -0.310784
      vertex 12.7 -80.8594 -0.10366
      vertex -12.7 -80.8594 -0.10366
    endloop
  endfacet
  facet normal 0 -1 0
    outer loop
      vertex 12.7 -80.8594 -0.10366
      vertex 12.7 -80.8594 0.10366
      vertex -12.7 -80.8594 -0.10366
    endloop
  endfacet
  facet normal 0 -1 0
    outer loop
      vertex -12.7 -80.8594 -0.10366
      vertex 12.7 -80.8594 0.10366
      vertex -12.7 -80.8594 0.10366
    endloop
  endfacet
  facet normal 0 -0.999053 0.0435204
    outer loop
      vertex 12.7 -80.8594 0.10366
      vertex 12.7 -80.8504 0.310784
      vertex -12.7 -80.8594 0.10366
    endloop
  endfacet
  facet normal 0 -0.999053 0.0435204
    outer loop
      vertex -12.7 -80.8594 0.10366
      vertex 12.7 -80.8504 0.310784
      vertex -12.7 -80.8504 0.310784
    endloop
  endfacet
  facet normal 0 -0.996214 0.0869332
    outer loop
      vertex 12.7 -80.8504 0.310784
      vertex 12.7 -80.8323 0.517318
      vertex -12.7 -80.8504 0.310784
    endloop
  endfacet
  facet normal 0 -0.996214 0.0869332
    outer loop
      vertex -12.7 -80.8504 0.310784
      vertex 12.7 -80.8323 0.517318
      vertex -12.7 -80.8323 0.517318
    endloop
  endfacet
  facet normal 0 -0.991483 0.130238
    outer loop
      vertex 12.7 -80.8323 0.517318
      vertex 12.7 -80.8053 0.722872
      vertex -12.7 -80.8323 0.517318
    endloop
  endfacet
  facet normal 0 -0.991483 0.130238
    outer loop
      vertex -12.7 -80.8323 0.517318
      vertex 12.7 -80.8053 0.722872
      vertex -12.7 -80.8053 0.722872
    endloop
  endfacet
  facet normal 0 -0.984877 0.173255
    outer loop
      vertex 12.7 -80.8053 0.722872
      vertex 12.7 -80.7694 0.927057
      vertex -12.7 -80.8053 0.722872
    endloop
  endfacet
  facet normal 0 -0.984877 0.173255
    outer loop
      vertex -12.7 -80.8053 0.722872
      vertex 12.7 -80.7694 0.927057
      vertex -12.7 -80.7694 0.927057
    endloop
  endfacet
  facet normal 0 -0.976397 0.215984
    outer loop
      vertex 12.7 -80.7694 0.927057
      vertex 12.7 -80.7246 1.12948
      vertex -12.7 -80.7694 0.927057
    endloop
  endfacet
  facet normal 0 -0.976397 0.215984
    outer loop
      vertex -12.7 -80.7694 0.927057
      vertex 12.7 -80.7246 1.12948
      vertex -12.7 -80.7246 1.12948
    endloop
  endfacet
  facet normal 0 -0.966079 0.258248
    outer loop
      vertex 12.7 -80.7246 1.12948
      vertex 12.7 -80.6711 1.32977
      vertex -12.7 -80.7246 1.12948
    endloop
  endfacet
  facet normal 0 -0.966079 0.258248
    outer loop
      vertex -12.7 -80.7246 1.12948
      vertex 12.7 -80.6711 1.32977
      vertex -12.7 -80.6711 1.32977
    endloop
  endfacet
  facet normal 0 -0.953925 0.300044
    outer loop
      vertex 12.7 -80.6711 1.32977
      vertex 12.7 -80.6089 1.52754
      vertex -12.7 -80.6711 1.32977
    endloop
  endfacet
  facet normal 0 -0.953925 0.300044
    outer loop
      vertex -12.7 -80.6711 1.32977
      vertex 12.7 -80.6089 1.52754
      vertex -12.7 -80.6089 1.52754
    endloop
  endfacet
  facet normal 0 -0.939955 0.341297
    outer loop
      vertex 12.7 -80.6089 1.52754
      vertex 12.7 -80.5381 1.72241
      vertex -12.7 -80.6089 1.52754
    endloop
  endfacet
  facet normal 0 -0.939955 0.341297
    outer loop
      vertex -12.7 -80.6089 1.52754
      vertex 12.7 -80.5381 1.72241
      vertex -12.7 -80.5381 1.72241
    endloop
  endfacet
  facet normal 0 -0.924228 0.381842
    outer loop
      vertex 12.7 -80.5381 1.72241
      vertex 12.7 -80.459 1.91402
      vertex -12.7 -80.5381 1.72241
    endloop
  endfacet
  facet normal 0 -0.924228 0.381842
    outer loop
      vertex -12.7 -80.5381 1.72241
      vertex 12.7 -80.459 1.91402
      vertex -12.7 -80.459 1.91402
    endloop
  endfacet
  facet normal 0 -0.906709 0.421758
    outer loop
      vertex 12.7 -80.459 1.91402
      vertex 12.7 -80.3715 2.102
      vertex -12.7 -80.459 1.91402
    endloop
  endfacet
  facet normal 0 -0.906709 0.421758
    outer loop
      vertex -12.7 -80.459 1.91402
      vertex 12.7 -80.3715 2.102
      vertex -12.7 -80.3715 2.102
    endloop
  endfacet
  facet normal 0 -0.887508 0.460792
    outer loop
      vertex 12.7 -80.3715 2.102
      vertex 12.7 -80.276 2.286
      vertex -12.7 -80.3715 2.102
    endloop
  endfacet
  facet normal 0 -0.887508 0.460792
    outer loop
      vertex -12.7 -80.3715 2.102
      vertex 12.7 -80.276 2.286
      vertex -12.7 -80.276 2.286
    endloop
  endfacet
  facet normal -1 0 0
    outer loop
      vertex -12.7 -75.463 2.286
      vertex -12.7 -71.92 2.286
      vertex -12.7 -71.8245 2.102
    endloop
  endfacet
  facet normal -1 0 0
    outer loop
      vertex -12.7 -71.3637 -0.517318
      vertex -12.7 -71.3907 -0.722872
      vertex -12.7 -75.463 2.286
    endloop
  endfacet
  facet normal -1 0 0
    outer loop
      vertex -12.7 -71.3907 -0.722872
      vertex -12.7 -71.4266 -0.927057
      vertex -12.7 -75.463 2.286
    endloop
  endfacet
  facet normal -1 0 0
    outer loop
      vertex -12.7 -75.463 2.286
      vertex -12.7 -71.4266 -0.927057
      vertex -12.7 -71.4714 -1.12948
    endloop
  endfacet
  facet normal -1 0 0
    outer loop
      vertex -12.7 -71.4714 -1.12948
      vertex -12.7 -71.5249 -1.32977
      vertex -12.7 -75.463 2.286
    endloop
  endfacet
  facet normal -1 0 0
    outer loop
      vertex -12.7 -71.5249 -1.32977
      vertex -12.7 -71.5871 -1.52754
      vertex -12.7 -75.463 2.286
    endloop
  endfacet
  facet normal -1 0 0
    outer loop
      vertex -12.7 -75.463 2.286
      vertex -12.7 -71.5871 -1.52754
      vertex -12.7 -71.6579 -1.72241
    endloop
  endfacet
  facet normal -1 0 0
    outer loop
      vertex -12.7 -75.463 2.286
      vertex -12.7 -71.5871 1.52754
      vertex -12.7 -71.5249 1.32977
    endloop
  endfacet
  facet normal -1 0 0
    outer loop
      vertex -12.7 -71.5249 1.32977
      vertex -12.7 -71.4714 1.12948
      vertex -12.7 -75.463 2.286
    endloop
  endfacet
  facet normal -1 0 0
    outer loop
      vertex -12.7 -71.4714 1.12948
      vertex -12.7 -71.4266 0.927057
      vertex -12.7 -75.463 2.286
    endloop
  endfacet
  facet normal -1 0 0
    outer loop
      vertex -12.7 -75.463 2.286
      vertex -12.7 -71.4266 0.927057
      vertex -12.7 -71.3907 0.722872
    endloop
  endfacet
  facet normal -1 0 0
    outer loop
      vertex -12.7 -71.3907 0.722872
      vertex -12.7 -71.3637 0.517318
      vertex -12.7 -75.463 2.286
    endloop
  endfacet
  facet normal -1 0 0
    outer loop
      vertex -12.7 -71.3637 0.517318
      vertex -12.7 -71.3457 0.310784
      vertex -12.7 -75.463 2.286
    endloop
  endfacet
  facet normal -1 0 0
    outer loop
      vertex -12.7 -75.463 2.286
      vertex -12.7 -71.3457 0.310784
      vertex -12.7 -71.3367 0.10366
    endloop
  endfacet
  facet normal -1 0 0
    outer loop
      vertex -12.7 -71.92 -2.286
      vertex -12.7 -75.463 -2.286
      vertex -12.7 -71.8245 -2.102
    endloop
  endfacet
  facet normal -1 0 0
    outer loop
      vertex -12.7 -75.463 -2.286
      vertex -12.7 -75.463 2.286
      vertex -12.7 -71.8245 -2.102
    endloop
  endfacet
  facet normal -1 0 0
    outer loop
      vertex -12.7 -71.8245 -2.102
      vertex -12.7 -75.463 2.286
      vertex -12.7 -71.7371 -1.91402
    endloop
  endfacet
  facet normal -1 0 0
    outer loop
      vertex -12.7 -75.463 2.286
      vertex -12.7 -71.6579 -1.72241
      vertex -12.7 -71.7371 -1.91402
    endloop
  endfacet
  facet normal -1 0 0
    outer loop
      vertex -12.7 -71.8245 2.102
      vertex -12.7 -71.7371 1.91402
      vertex -12.7 -75.463 2.286
    endloop
  endfacet
  facet normal -1 0 0
    outer loop
      vertex -12.7 -71.7371 1.91402
      vertex -12.7 -71.6579 1.72241
      vertex -12.7 -75.463 2.286
    endloop
  endfacet
  facet normal -1 0 0
    outer loop
      vertex -12.7 -75.463 2.286
      vertex -12.7 -71.6579 1.72241
      vertex -12.7 -71.5871 1.52754
    endloop
  endfacet
  facet normal -1 0 0
    outer loop
      vertex -12.7 -71.3367 0.10366
      vertex -12.7 -71.3367 -0.10366
      vertex -12.7 -75.463 2.286
    endloop
  endfacet
  facet normal -1 0 0
    outer loop
      vertex -12.7 -71.3367 -0.10366
      vertex -12.7 -71.3457 -0.310784
      vertex -12.7 -75.463 2.286
    endloop
  endfacet
  facet normal -1 0 0
    outer loop
      vertex -12.7 -75.463 2.286
      vertex -12.7 -71.3457 -0.310784
      vertex -12.7 -71.3637 -0.517318
    endloop
  endfacet
  facet normal 0 1 0
    outer loop
      vertex -12.7 -76.733 -2.286
      vertex -12.7 -76.733 2.286
      vertex -6.35 -76.733 -2.286
    endloop
  endfacet
  facet normal 0 1 0
    outer loop
      vertex -12.7 -76.733 2.286
      vertex -6.35 -76.733 2.286
      vertex -6.35 -76.733 -2.286
    endloop
  endfacet
  facet normal 0 0.887508 0.460792
    outer loop
      vertex -12.7 -71.92 2.286
      vertex 12.7 -71.92 2.286
      vertex 12.7 -71.8245 2.102
    endloop
  endfacet
  facet normal 0 0.887508 0.460792
    outer loop
      vertex -12.7 -71.92 2.286
      vertex 12.7 -71.8245 2.102
      vertex -12.7 -71.8245 2.102
    endloop
  endfacet
  facet normal 0 0.906709 0.421758
    outer loop
      vertex 12.7 -71.8245 2.102
      vertex 12.7 -71.7371 1.91402
      vertex -12.7 -71.8245 2.102
    endloop
  endfacet
  facet normal 0 0.906709 0.421758
    outer loop
      vertex -12.7 -71.8245 2.102
      vertex 12.7 -71.7371 1.91402
      vertex -12.7 -71.7371 1.91402
    endloop
  endfacet
  facet normal 0 0.924228 0.381842
    outer loop
      vertex 12.7 -71.7371 1.91402
      vertex 12.7 -71.6579 1.72241
      vertex -12.7 -71.7371 1.91402
    endloop
  endfacet
  facet normal 0 0.924228 0.381842
    outer loop
      vertex -12.7 -71.7371 1.91402
      vertex 12.7 -71.6579 1.72241
      vertex -12.7 -71.6579 1.72241
    endloop
  endfacet
  facet normal 0 0.939955 0.341297
    outer loop
      vertex 12.7 -71.6579 1.72241
      vertex 12.7 -71.5871 1.52754
      vertex -12.7 -71.6579 1.72241
    endloop
  endfacet
  facet normal 0 0.939955 0.341297
    outer loop
      vertex -12.7 -71.6579 1.72241
      vertex 12.7 -71.5871 1.52754
      vertex -12.7 -71.5871 1.52754
    endloop
  endfacet
  facet normal 0 0.953925 0.300044
    outer loop
      vertex 12.7 -71.5871 1.52754
      vertex 12.7 -71.5249 1.32977
      vertex -12.7 -71.5871 1.52754
    endloop
  endfacet
  facet normal 0 0.953925 0.300044
    outer loop
      vertex -12.7 -71.5871 1.52754
      vertex 12.7 -71.5249 1.32977
      vertex -12.7 -71.5249 1.32977
    endloop
  endfacet
  facet normal 0 0.966079 0.258248
    outer loop
      vertex 12.7 -71.5249 1.32977
      vertex 12.7 -71.4714 1.12948
      vertex -12.7 -71.5249 1.32977
    endloop
  endfacet
  facet normal 0 0.966079 0.258248
    outer loop
      vertex -12.7 -71.5249 1.32977
      vertex 12.7 -71.4714 1.12948
      vertex -12.7 -71.4714 1.12948
    endloop
  endfacet
  facet normal 0 0.976397 0.215984
    outer loop
      vertex 12.7 -71.4714 1.12948
      vertex 12.7 -71.4266 0.927057
      vertex -12.7 -71.4714 1.12948
    endloop
  endfacet
  facet normal 0 0.976397 0.215984
    outer loop
      vertex -12.7 -71.4714 1.12948
      vertex 12.7 -71.4266 0.927057
      vertex -12.7 -71.4266 0.927057
    endloop
  endfacet
  facet normal 0 0.984877 0.173255
    outer loop
      vertex 12.7 -71.4266 0.927057
      vertex 12.7 -71.3907 0.722872
      vertex -12.7 -71.4266 0.927057
    endloop
  endfacet
  facet normal 0 0.984877 0.173255
    outer loop
      vertex -12.7 -71.4266 0.927057
      vertex 12.7 -71.3907 0.722872
      vertex -12.7 -71.3907 0.722872
    endloop
  endfacet
  facet normal 0 0.991483 0.130238
    outer loop
      vertex 12.7 -71.3907 0.722872
      vertex 12.7 -71.3637 0.517318
      vertex -12.7 -71.3907 0.722872
    endloop
  endfacet
  facet normal 0 0.991483 0.130238
    outer loop
      vertex -12.7 -71.3907 0.722872
      vertex 12.7 -71.3637 0.517318
      vertex -12.7 -71.3637 0.517318
    endloop
  endfacet
  facet normal 0 0.996214 0.0869332
    outer loop
      vertex 12.7 -71.3637 0.517318
      vertex 12.7 -71.3457 0.310784
      vertex -12.7 -71.3637 0.517318
    endloop
  endfacet
  facet normal 0 0.996214 0.0869332
    outer loop
      vertex -12.7 -71.3637 0.517318
      vertex 12.7 -71.3457 0.310784
      vertex -12.7 -71.3457 0.310784
    endloop
  endfacet
  facet normal 0 0.999053 0.0435204
    outer loop
      vertex 12.7 -71.3457 0.310784
      vertex 12.7 -71.3367 0.10366
      vertex -12.7 -71.3457 0.310784
    endloop
  endfacet
  facet normal 0 0.999053 0.0435204
    outer loop
      vertex -12.7 -71.3457 0.310784
      vertex 12.7 -71.3367 0.10366
      vertex -12.7 -71.3367 0.10366
    endloop
  endfacet
  facet normal 0 1 0
    outer loop
      vertex 12.7 -71.3367 0.10366
      vertex 12.7 -71.3367 -0.10366
      vertex -12.7 -71.3367 0.10366
    endloop
  endfacet
  facet normal 0 1 0
    outer loop
      vertex -12.7 -71.3367 0.10366
      vertex 12.7 -71.3367 -0.10366
      vertex -12.7 -71.3367 -0.10366
    endloop
  endfacet
  facet normal 0 0.999053 -0.0435204
    outer loop
      vertex 12.7 -71.3367 -0.10366
      vertex 12.7 -71.3457 -0.310784
      vertex -12.7 -71.3367 -0.10366
    endloop
  endfacet
  facet normal 0 0.999053 -0.0435204
    outer loop
      vertex -12.7 -71.3367 -0.10366
      vertex 12.7 -71.3457 -0.310784
      vertex -12.7 -71.3457 -0.310784
    endloop
  endfacet
  facet normal 0 0.996214 -0.0869332
    outer loop
      vertex 12.7 -71.3457 -0.310784
      vertex 12.7 -71.3637 -0.517318
      vertex -12.7 -71.3457 -0.310784
    endloop
  endfacet
  facet normal 0 0.996214 -0.0869332
    outer loop
      vertex -12.7 -71.3457 -0.310784
      vertex 12.7 -71.3637 -0.517318
      vertex -12.7 -71.3637 -0.517318
    endloop
  endfacet
  facet normal 0 0.991483 -0.130238
    outer loop
      vertex 12.7 -71.3637 -0.517318
      vertex 12.7 -71.3907 -0.722872
      vertex -12.7 -71.3637 -0.517318
    endloop
  endfacet
  facet normal 0 0.991483 -0.130238
    outer loop
      vertex -12.7 -71.3637 -0.517318
      vertex 12.7 -71.3907 -0.722872
      vertex -12.7 -71.3907 -0.722872
    endloop
  endfacet
  facet normal 0 0.984877 -0.173255
    outer loop
      vertex 12.7 -71.3907 -0.722872
      vertex 12.7 -71.4266 -0.927057
      vertex -12.7 -71.3907 -0.722872
    endloop
  endfacet
  facet normal 0 0.984877 -0.173255
    outer loop
      vertex -12.7 -71.3907 -0.722872
      vertex 12.7 -71.4266 -0.927057
      vertex -12.7 -71.4266 -0.927057
    endloop
  endfacet
  facet normal 0 0.976397 -0.215984
    outer loop
      vertex 12.7 -71.4266 -0.927057
      vertex 12.7 -71.4714 -1.12948
      vertex -12.7 -71.4266 -0.927057
    endloop
  endfacet
  facet normal 0 0.976397 -0.215984
    outer loop
      vertex -12.7 -71.4266 -0.927057
      vertex 12.7 -71.4714 -1.12948
      vertex -12.7 -71.4714 -1.12948
    endloop
  endfacet
  facet normal 0 0.966079 -0.258248
    outer loop
      vertex 12.7 -71.4714 -1.12948
      vertex 12.7 -71.5249 -1.32977
      vertex -12.7 -71.4714 -1.12948
    endloop
  endfacet
  facet normal 0 0.966079 -0.258248
    outer loop
      vertex -12.7 -71.4714 -1.12948
      vertex 12.7 -71.5249 -1.32977
      vertex -12.7 -71.5249 -1.32977
    endloop
  endfacet
  facet normal 0 0.953925 -0.300044
    outer loop
      vertex 12.7 -71.5249 -1.32977
      vertex 12.7 -71.5871 -1.52754
      vertex -12.7 -71.5249 -1.32977
    endloop
  endfacet
  facet normal 0 0.953925 -0.300044
    outer loop
      vertex -12.7 -71.5249 -1.32977
      vertex 12.7 -71.5871 -1.52754
      vertex -12.7 -71.5871 -1.52754
    endloop
  endfacet
  facet normal 0 0.939955 -0.341297
    outer loop
      vertex 12.7 -71.5871 -1.52754
      vertex 12.7 -71.6579 -1.72241
      vertex -12.7 -71.5871 -1.52754
    endloop
  endfacet
  facet normal 0 0.939955 -0.341297
    outer loop
      vertex -12.7 -71.5871 -1.52754
      vertex 12.7 -71.6579 -1.72241
      vertex -12.7 -71.6579 -1.72241
    endloop
  endfacet
  facet normal 0 0.924228 -0.381842
    outer loop
      vertex 12.7 -71.6579 -1.72241
      vertex 12.7 -71.7371 -1.91402
      vertex -12.7 -71.6579 -1.72241
    endloop
  endfacet
  facet normal 0 0.924228 -0.381842
    outer loop
      vertex -12.7 -71.6579 -1.72241
      vertex 12.7 -71.7371 -1.91402
      vertex -12.7 -71.7371 -1.91402
    endloop
  endfacet
  facet normal 0 0.906709 -0.421758
    outer loop
      vertex 12.7 -71.7371 -1.91402
      vertex 12.7 -71.8245 -2.102
      vertex -12.7 -71.7371 -1.91402
    endloop
  endfacet
  facet normal 0 0.906709 -0.421758
    outer loop
      vertex -12.7 -71.7371 -1.91402
      vertex 12.7 -71.8245 -2.102
      vertex -12.7 -71.8245 -2.102
    endloop
  endfacet
  facet normal 0 0.887508 -0.460792
    outer loop
      vertex 12.7 -71.8245 -2.102
      vertex 12.7 -71.92 -2.286
      vertex -12.7 -71.8245 -2.102
    endloop
  endfacet
  facet normal 0 0.887508 -0.460792
    outer loop
      vertex -12.7 -71.8245 -2.102
      vertex 12.7 -71.92 -2.286
      vertex -12.7 -71.92 -2.286
    endloop
  endfacet
  facet normal 0 -1 0
    outer loop
      vertex -6.35 -75.463 2.286
      vertex -12.7 -75.463 2.286
      vertex -6.35 -75.463 -2.286
    endloop
  endfacet
  facet normal 0 -1 0
    outer loop
      vertex -12.7 -75.463 2.286
      vertex -12.7 -75.463 -2.286
      vertex -6.35 -75.463 -2.286
    endloop
  endfacet
endsolid Onshape
