solid Onshape
  facet normal 0 1 0
    outer loop
      vertex 0 1.19063 -2.52488
      vertex 6.35 1.19063 -2.52488
      vertex 0 1.19063 -23.8125
    endloop
  endfacet
  facet normal 0 1 0
    outer loop
      vertex 6.35 1.19063 -2.52488
      vertex 6.35 1.19063 -23.8125
      vertex 0 1.19063 -23.8125
    endloop
  endfacet
  facet normal 0 -1 0
    outer loop
      vertex 0 2.77812 -2.52488
      vertex 0 2.77812 -23.8125
      vertex 6.35 2.77812 -2.52488
    endloop
  endfacet
  facet normal 0 -1 0
    outer loop
      vertex 0 2.77812 -23.8125
      vertex 6.35 2.77812 -23.8125
      vertex 6.35 2.77812 -2.52488
    endloop
  endfacet
  facet normal 0 0 -1
    outer loop
      vertex 0 1.19063 -2.52488
      vertex 0 2.77812 -2.52488
      vertex 6.35 1.19063 -2.52488
    endloop
  endfacet
  facet normal 0 0 -1
    outer loop
      vertex 0 2.77812 -2.52488
      vertex 6.35 2.77812 -2.52488
      vertex 6.35 1.19063 -2.52488
    endloop
  endfacet
  facet normal 1 0 0
    outer loop
      vertex 6.35 2.77812 -23.8125
      vertex 6.35 7.14375 -23.8125
      vertex 6.35 2.77812 -2.52488
    endloop
  endfacet
  facet normal 1 0 0
    outer loop
      vertex 6.35 7.14375 -23.8125
      vertex 6.35 7.14375 -4.7625
      vertex 6.35 2.77812 -2.52488
    endloop
  endfacet
  facet normal 1 0 0
    outer loop
      vertex 6.35 -25.3877 26.0643
      vertex 6.35 7.14375 -4.7625
      vertex 6.35 -25.3435 26.8143
    endloop
  endfacet
  facet normal 1 0 0
    outer loop
      vertex 6.35 7.14375 -4.7625
      vertex 6.35 -25.2669 27.5617
      vertex 6.35 -25.3435 26.8143
    endloop
  endfacet
  facet normal 1 0 0
    outer loop
      vertex 6.35 -25.4 23.8125
      vertex 6.35 -25.4 -4.70907
      vertex 6.35 -25.3268 23.8125
    endloop
  endfacet
  facet normal 1 0 0
    outer loop
      vertex 6.35 -25.4 -4.70907
      vertex 6.35 -3.175 -4.70907
      vertex 6.35 -25.3268 23.8125
    endloop
  endfacet
  facet normal 1 0 0
    outer loop
      vertex 6.35 -4.67682 42.5656
      vertex 6.35 -5.41779 42.69
      vertex 6.35 -25.2669 27.5617
    endloop
  endfacet
  facet normal 1 0 0
    outer loop
      vertex 6.35 -25.3877 26.0643
      vertex 6.35 -25.3997 25.313
      vertex 6.35 7.14375 -4.7625
    endloop
  endfacet
  facet normal 1 0 0
    outer loop
      vertex 6.35 -25.3997 25.313
      vertex 6.35 -25.3794 24.562
      vertex 6.35 7.14375 -4.7625
    endloop
  endfacet
  facet normal 1 0 0
    outer loop
      vertex 6.35 7.14375 -4.7625
      vertex 6.35 -25.3794 24.562
      vertex 6.35 2.77812 -2.52488
    endloop
  endfacet
  facet normal 1 0 0
    outer loop
      vertex 6.35 -25.3794 24.562
      vertex 6.35 -25.3268 23.8125
      vertex 6.35 2.77812 -2.52488
    endloop
  endfacet
  facet normal 1 0 0
    outer loop
      vertex 6.35 2.77812 -2.52488
      vertex 6.35 -25.3268 23.8125
      vertex 6.35 1.19063 -2.52488
    endloop
  endfacet
  facet normal 1 0 0
    outer loop
      vertex 6.35 -25.3268 23.8125
      vertex 6.35 -3.175 -4.70907
      vertex 6.35 1.19063 -2.52488
    endloop
  endfacet
  facet normal 1 0 0
    outer loop
      vertex 6.35 1.19063 -2.52488
      vertex 6.35 -3.175 -4.70907
      vertex 6.35 1.19063 -23.8125
    endloop
  endfacet
  facet normal 1 0 0
    outer loop
      vertex 6.35 -3.175 -4.70907
      vertex 6.35 -3.175 -23.8125
      vertex 6.35 1.19063 -23.8125
    endloop
  endfacet
  facet normal 1 0 0
    outer loop
      vertex 6.35 7.14375 -4.7625
      vertex 6.35 25.4 -4.7625
      vertex 6.35 -25.2669 27.5617
    endloop
  endfacet
  facet normal 1 0 0
    outer loop
      vertex 6.35 25.4 -4.7625
      vertex 6.35 7.8889 32.7902
      vertex 6.35 -25.2669 27.5617
    endloop
  endfacet
  facet normal 1 0 0
    outer loop
      vertex 6.35 -25.2669 27.5617
      vertex 6.35 7.8889 32.7902
      vertex 6.35 7.5568 33.4641
    endloop
  endfacet
  facet normal 1 0 0
    outer loop
      vertex 6.35 7.5568 33.4641
      vertex 6.35 7.19601 34.1232
      vertex 6.35 -25.2669 27.5617
    endloop
  endfacet
  facet normal 1 0 0
    outer loop
      vertex 6.35 7.19601 34.1232
      vertex 6.35 6.80721 34.7661
      vertex 6.35 -25.2669 27.5617
    endloop
  endfacet
  facet normal 1 0 0
    outer loop
      vertex 6.35 -25.2669 27.5617
      vertex 6.35 6.80721 34.7661
      vertex 6.35 6.39111 35.3917
    endloop
  endfacet
  facet normal 1 0 0
    outer loop
      vertex 6.35 -13.5717 41.9388
      vertex 6.35 -25.2669 27.5617
      vertex 6.35 -12.8554 42.1659
    endloop
  endfacet
  facet normal 1 0 0
    outer loop
      vertex 6.35 -25.2669 27.5617
      vertex 6.35 -12.1301 42.3619
      vertex 6.35 -12.8554 42.1659
    endloop
  endfacet
  facet normal 1 0 0
    outer loop
      vertex 6.35 6.39111 35.3917
      vertex 6.35 5.94849 35.9988
      vertex 6.35 -25.2669 27.5617
    endloop
  endfacet
  facet normal 1 0 0
    outer loop
      vertex 6.35 5.94849 35.9988
      vertex 6.35 5.48016 36.5863
      vertex 6.35 -25.2669 27.5617
    endloop
  endfacet
  facet normal 1 0 0
    outer loop
      vertex 6.35 -25.2669 27.5617
      vertex 6.35 5.48016 36.5863
      vertex 6.35 4.98699 37.1531
    endloop
  endfacet
  facet normal 1 0 0
    outer loop
      vertex 6.35 4.98699 37.1531
      vertex 6.35 4.4699 37.6982
      vertex 6.35 -25.2669 27.5617
    endloop
  endfacet
  facet normal 1 0 0
    outer loop
      vertex 6.35 4.4699 37.6982
      vertex 6.35 3.92984 38.2206
      vertex 6.35 -25.2669 27.5617
    endloop
  endfacet
  facet normal 1 0 0
    outer loop
      vertex 6.35 -25.2669 27.5617
      vertex 6.35 3.92984 38.2206
      vertex 6.35 3.36781 38.7192
    endloop
  endfacet
  facet normal 1 0 0
    outer loop
      vertex 6.35 3.36781 38.7192
      vertex 6.35 2.78485 39.1932
      vertex 6.35 -25.2669 27.5617
    endloop
  endfacet
  facet normal 1 0 0
    outer loop
      vertex 6.35 2.78485 39.1932
      vertex 6.35 2.18204 39.6416
      vertex 6.35 -25.2669 27.5617
    endloop
  endfacet
  facet normal 1 0 0
    outer loop
      vertex 6.35 -25.2669 27.5617
      vertex 6.35 2.18204 39.6416
      vertex 6.35 1.5605 40.0638
    endloop
  endfacet
  facet normal 1 0 0
    outer loop
      vertex 6.35 -5.41779 42.69
      vertex 6.35 -6.16342 42.7824
      vertex 6.35 -25.2669 27.5617
    endloop
  endfacet
  facet normal 1 0 0
    outer loop
      vertex 6.35 -6.16342 42.7824
      vertex 6.35 -6.91234 42.8426
      vertex 6.35 -25.2669 27.5617
    endloop
  endfacet
  facet normal 1 0 0
    outer loop
      vertex 6.35 -25.2669 27.5617
      vertex 6.35 -6.91234 42.8426
      vertex 6.35 -7.66315 42.8705
    endloop
  endfacet
  facet normal 1 0 0
    outer loop
      vertex 6.35 -7.66315 42.8705
      vertex 6.35 -8.41448 42.8662
      vertex 6.35 -25.2669 27.5617
    endloop
  endfacet
  facet normal 1 0 0
    outer loop
      vertex 6.35 -8.41448 42.8662
      vertex 6.35 -9.16492 42.8295
      vertex 6.35 -25.2669 27.5617
    endloop
  endfacet
  facet normal 1 0 0
    outer loop
      vertex 6.35 -25.2669 27.5617
      vertex 6.35 -9.16492 42.8295
      vertex 6.35 -9.91308 42.7606
    endloop
  endfacet
  facet normal 1 0 0
    outer loop
      vertex 6.35 -9.91308 42.7606
      vertex 6.35 -10.6576 42.6596
      vertex 6.35 -25.2669 27.5617
    endloop
  endfacet
  facet normal 1 0 0
    outer loop
      vertex 6.35 -10.6576 42.6596
      vertex 6.35 -11.3971 42.5266
      vertex 6.35 -25.2669 27.5617
    endloop
  endfacet
  facet normal 1 0 0
    outer loop
      vertex 6.35 -25.2669 27.5617
      vertex 6.35 -11.3971 42.5266
      vertex 6.35 -12.1301 42.3619
    endloop
  endfacet
  facet normal 1 0 0
    outer loop
      vertex 6.35 -13.5717 41.9388
      vertex 6.35 -14.2774 41.6812
      vertex 6.35 -25.2669 27.5617
    endloop
  endfacet
  facet normal 1 0 0
    outer loop
      vertex 6.35 -14.2774 41.6812
      vertex 6.35 -14.9715 41.3934
      vertex 6.35 -25.2669 27.5617
    endloop
  endfacet
  facet normal 1 0 0
    outer loop
      vertex 6.35 -25.2669 27.5617
      vertex 6.35 -14.9715 41.3934
      vertex 6.35 -15.6525 41.076
    endloop
  endfacet
  facet normal 1 0 0
    outer loop
      vertex 6.35 -15.6525 41.076
      vertex 6.35 -16.3192 40.7297
      vertex 6.35 -25.2669 27.5617
    endloop
  endfacet
  facet normal 1 0 0
    outer loop
      vertex 6.35 -16.3192 40.7297
      vertex 6.35 -16.9704 40.3549
      vertex 6.35 -25.2669 27.5617
    endloop
  endfacet
  facet normal 1 0 0
    outer loop
      vertex 6.35 -25.2669 27.5617
      vertex 6.35 -16.9704 40.3549
      vertex 6.35 -17.6049 39.9525
    endloop
  endfacet
  facet normal 1 0 0
    outer loop
      vertex 6.35 -18.8191 39.0678
      vertex 6.35 -19.3965 38.5871
      vertex 6.35 -23.5242 33.2838
    endloop
  endfacet
  facet normal 1 0 0
    outer loop
      vertex 6.35 -19.3965 38.5871
      vertex 6.35 -19.9527 38.082
      vertex 6.35 -23.5242 33.2838
    endloop
  endfacet
  facet normal 1 0 0
    outer loop
      vertex 6.35 -23.5242 33.2838
      vertex 6.35 -19.9527 38.082
      vertex 6.35 -20.4867 37.5534
    endloop
  endfacet
  facet normal 1 0 0
    outer loop
      vertex 6.35 1.5605 40.0638
      vertex 6.35 0.921375 40.4588
      vertex 6.35 -25.2669 27.5617
    endloop
  endfacet
  facet normal 1 0 0
    outer loop
      vertex 6.35 0.921375 40.4588
      vertex 6.35 0.265851 40.8259
      vertex 6.35 -25.2669 27.5617
    endloop
  endfacet
  facet normal 1 0 0
    outer loop
      vertex 6.35 -25.2669 27.5617
      vertex 6.35 0.265851 40.8259
      vertex 6.35 -0.404859 41.1645
    endloop
  endfacet
  facet normal 1 0 0
    outer loop
      vertex 6.35 -25.0179 29.0433
      vertex 6.35 -25.1584 28.3052
      vertex 6.35 -18.8191 39.0678
    endloop
  endfacet
  facet normal 1 0 0
    outer loop
      vertex 6.35 -25.1584 28.3052
      vertex 6.35 -25.2669 27.5617
      vertex 6.35 -18.8191 39.0678
    endloop
  endfacet
  facet normal 1 0 0
    outer loop
      vertex 6.35 -18.8191 39.0678
      vertex 6.35 -25.2669 27.5617
      vertex 6.35 -18.2215 39.5232
    endloop
  endfacet
  facet normal 1 0 0
    outer loop
      vertex 6.35 -25.2669 27.5617
      vertex 6.35 -17.6049 39.9525
      vertex 6.35 -18.2215 39.5232
    endloop
  endfacet
  facet normal 1 0 0
    outer loop
      vertex 6.35 -20.4867 37.5534
      vertex 6.35 -20.9974 37.0023
      vertex 6.35 -23.5242 33.2838
    endloop
  endfacet
  facet normal 1 0 0
    outer loop
      vertex 6.35 -20.9974 37.0023
      vertex 6.35 -21.484 36.4298
      vertex 6.35 -23.5242 33.2838
    endloop
  endfacet
  facet normal 1 0 0
    outer loop
      vertex 6.35 -23.5242 33.2838
      vertex 6.35 -21.484 36.4298
      vertex 6.35 -21.9454 35.8369
    endloop
  endfacet
  facet normal 1 0 0
    outer loop
      vertex 6.35 -23.5242 33.2838
      vertex 6.35 -23.8485 32.606
      vertex 6.35 -18.8191 39.0678
    endloop
  endfacet
  facet normal 1 0 0
    outer loop
      vertex 6.35 -23.8485 32.606
      vertex 6.35 -24.1433 31.9149
      vertex 6.35 -18.8191 39.0678
    endloop
  endfacet
  facet normal 1 0 0
    outer loop
      vertex 6.35 -18.8191 39.0678
      vertex 6.35 -24.1433 31.9149
      vertex 6.35 -24.4081 31.2118
    endloop
  endfacet
  facet normal 1 0 0
    outer loop
      vertex 6.35 -0.404859 41.1645
      vertex 6.35 -1.08951 41.474
      vertex 6.35 -25.2669 27.5617
    endloop
  endfacet
  facet normal 1 0 0
    outer loop
      vertex 6.35 -1.08951 41.474
      vertex 6.35 -1.78684 41.7537
      vertex 6.35 -25.2669 27.5617
    endloop
  endfacet
  facet normal 1 0 0
    outer loop
      vertex 6.35 -25.2669 27.5617
      vertex 6.35 -1.78684 41.7537
      vertex 6.35 -2.49556 42.0031
    endloop
  endfacet
  facet normal 1 0 0
    outer loop
      vertex 6.35 -2.49556 42.0031
      vertex 6.35 -3.21435 42.2218
      vertex 6.35 -25.2669 27.5617
    endloop
  endfacet
  facet normal 1 0 0
    outer loop
      vertex 6.35 -3.21435 42.2218
      vertex 6.35 -3.94189 42.4094
      vertex 6.35 -25.2669 27.5617
    endloop
  endfacet
  facet normal 1 0 0
    outer loop
      vertex 6.35 -25.2669 27.5617
      vertex 6.35 -3.94189 42.4094
      vertex 6.35 -4.67682 42.5656
    endloop
  endfacet
  facet normal 1 0 0
    outer loop
      vertex 6.35 -21.9454 35.8369
      vertex 6.35 -22.381 35.2247
      vertex 6.35 -23.5242 33.2838
    endloop
  endfacet
  facet normal 1 0 0
    outer loop
      vertex 6.35 -22.381 35.2247
      vertex 6.35 -22.7898 34.5943
      vertex 6.35 -23.5242 33.2838
    endloop
  endfacet
  facet normal 1 0 0
    outer loop
      vertex 6.35 -23.5242 33.2838
      vertex 6.35 -22.7898 34.5943
      vertex 6.35 -23.1711 33.9469
    endloop
  endfacet
  facet normal 1 0 0
    outer loop
      vertex 6.35 -24.4081 31.2118
      vertex 6.35 -24.6424 30.4979
      vertex 6.35 -18.8191 39.0678
    endloop
  endfacet
  facet normal 1 0 0
    outer loop
      vertex 6.35 -24.6424 30.4979
      vertex 6.35 -24.8458 29.7746
      vertex 6.35 -18.8191 39.0678
    endloop
  endfacet
  facet normal 1 0 0
    outer loop
      vertex 6.35 -18.8191 39.0678
      vertex 6.35 -24.8458 29.7746
      vertex 6.35 -25.0179 29.0433
    endloop
  endfacet
  facet normal 0 -1 0
    outer loop
      vertex 6.35 -25.4 -4.70907
      vertex 6.35 -25.4 23.8125
      vertex 0 -25.4 -4.70907
    endloop
  endfacet
  facet normal 0 -1 0
    outer loop
      vertex 6.35 -25.4 23.8125
      vertex 0 -25.4 23.8125
      vertex 0 -25.4 -4.70907
    endloop
  endfacet
  facet normal 0 0 1
    outer loop
      vertex 6.35 -25.4 23.8125
      vertex 6.35 -25.3268 23.8125
      vertex 0 -25.4 23.8125
    endloop
  endfacet
  facet normal 0 0 1
    outer loop
      vertex 6.35 -25.3268 23.8125
      vertex 0 -25.3268 23.8125
      vertex 0 -25.4 23.8125
    endloop
  endfacet
  facet normal 0 0.897006 0.442019
    outer loop
      vertex 6.35 7.8889 32.7902
      vertex 0 7.8889 32.7902
      vertex 1.73472e-15 7.5568 33.4641
    endloop
  endfacet
  facet normal 0 0.897006 0.442019
    outer loop
      vertex 6.35 7.8889 32.7902
      vertex 1.73472e-15 7.5568 33.4641
      vertex 6.35 7.5568 33.4641
    endloop
  endfacet
  facet normal 0 0.877163 0.480193
    outer loop
      vertex 1.73472e-15 7.5568 33.4641
      vertex 1.73472e-15 7.19601 34.1232
      vertex 6.35 7.5568 33.4641
    endloop
  endfacet
  facet normal 0 0.877163 0.480193
    outer loop
      vertex 6.35 7.5568 33.4641
      vertex 1.73472e-15 7.19601 34.1232
      vertex 6.35 7.19601 34.1232
    endloop
  endfacet
  facet normal 0 0.855695 0.51748
    outer loop
      vertex 1.73472e-15 7.19601 34.1232
      vertex 1.73472e-15 6.80721 34.7661
      vertex 6.35 7.19601 34.1232
    endloop
  endfacet
  facet normal 0 0.855695 0.51748
    outer loop
      vertex 6.35 7.19601 34.1232
      vertex 1.73472e-15 6.80721 34.7661
      vertex 6.35 6.80721 34.7661
    endloop
  endfacet
  facet normal 0 0.832642 0.553812
    outer loop
      vertex 1.73472e-15 6.80721 34.7661
      vertex 1.73472e-15 6.39111 35.3917
      vertex 6.35 6.80721 34.7661
    endloop
  endfacet
  facet normal 0 0.832642 0.553812
    outer loop
      vertex 6.35 6.80721 34.7661
      vertex 1.73472e-15 6.39111 35.3917
      vertex 6.35 6.39111 35.3917
    endloop
  endfacet
  facet normal 0 0.80805 0.589113
    outer loop
      vertex 1.73472e-15 6.39111 35.3917
      vertex 1.73472e-15 5.94849 35.9988
      vertex 6.35 6.39111 35.3917
    endloop
  endfacet
  facet normal 0 0.80805 0.589113
    outer loop
      vertex 6.35 6.39111 35.3917
      vertex 1.73472e-15 5.94849 35.9988
      vertex 6.35 5.94849 35.9988
    endloop
  endfacet
  facet normal 0 0.781959 0.62333
    outer loop
      vertex 1.73472e-15 5.94849 35.9988
      vertex 1.73472e-15 5.48016 36.5863
      vertex 6.35 5.94849 35.9988
    endloop
  endfacet
  facet normal 0 0.781959 0.62333
    outer loop
      vertex 6.35 5.94849 35.9988
      vertex 1.73472e-15 5.48016 36.5863
      vertex 6.35 5.48016 36.5863
    endloop
  endfacet
  facet normal 0 0.754424 0.656387
    outer loop
      vertex 1.73472e-15 5.48016 36.5863
      vertex 1.73472e-15 4.98699 37.1531
      vertex 6.35 5.48016 36.5863
    endloop
  endfacet
  facet normal 0 0.754424 0.656387
    outer loop
      vertex 6.35 5.48016 36.5863
      vertex 1.73472e-15 4.98699 37.1531
      vertex 6.35 4.98699 37.1531
    endloop
  endfacet
  facet normal 0 0.725492 0.688231
    outer loop
      vertex 1.73472e-15 4.98699 37.1531
      vertex 1.73472e-15 4.4699 37.6982
      vertex 6.35 4.98699 37.1531
    endloop
  endfacet
  facet normal 0 0.725492 0.688231
    outer loop
      vertex 6.35 4.98699 37.1531
      vertex 1.73472e-15 4.4699 37.6982
      vertex 6.35 4.4699 37.6982
    endloop
  endfacet
  facet normal 0 0.695214 0.718803
    outer loop
      vertex 1.73472e-15 4.4699 37.6982
      vertex 1.73472e-15 3.92984 38.2206
      vertex 6.35 4.4699 37.6982
    endloop
  endfacet
  facet normal 0 0.695214 0.718803
    outer loop
      vertex 6.35 4.4699 37.6982
      vertex 1.73472e-15 3.92984 38.2206
      vertex 6.35 3.92984 38.2206
    endloop
  endfacet
  facet normal 0 0.663652 0.748041
    outer loop
      vertex 1.73472e-15 3.92984 38.2206
      vertex 1.73472e-15 3.36781 38.7192
      vertex 6.35 3.92984 38.2206
    endloop
  endfacet
  facet normal 0 0.663652 0.748041
    outer loop
      vertex 6.35 3.92984 38.2206
      vertex 1.73472e-15 3.36781 38.7192
      vertex 6.35 3.36781 38.7192
    endloop
  endfacet
  facet normal 0 0.630857 0.775899
    outer loop
      vertex 1.73472e-15 3.36781 38.7192
      vertex 1.73472e-15 2.78485 39.1932
      vertex 6.35 3.36781 38.7192
    endloop
  endfacet
  facet normal 0 0.630857 0.775899
    outer loop
      vertex 6.35 3.36781 38.7192
      vertex 1.73472e-15 2.78485 39.1932
      vertex 6.35 2.78485 39.1932
    endloop
  endfacet
  facet normal 0 0.596901 0.802315
    outer loop
      vertex 1.73472e-15 2.78485 39.1932
      vertex 1.73472e-15 2.18204 39.6416
      vertex 6.35 2.78485 39.1932
    endloop
  endfacet
  facet normal 0 0.596901 0.802315
    outer loop
      vertex 6.35 2.78485 39.1932
      vertex 1.73472e-15 2.18204 39.6416
      vertex 6.35 2.18204 39.6416
    endloop
  endfacet
  facet normal 0 0.561836 0.827249
    outer loop
      vertex 1.73472e-15 2.18204 39.6416
      vertex 1.73472e-15 1.5605 40.0638
      vertex 6.35 2.18204 39.6416
    endloop
  endfacet
  facet normal 0 0.561836 0.827249
    outer loop
      vertex 6.35 2.18204 39.6416
      vertex 1.73472e-15 1.5605 40.0638
      vertex 6.35 1.5605 40.0638
    endloop
  endfacet
  facet normal 0 0.525731 0.850651
    outer loop
      vertex 1.73472e-15 1.5605 40.0638
      vertex 1.73472e-15 0.921375 40.4588
      vertex 6.35 1.5605 40.0638
    endloop
  endfacet
  facet normal 0 0.525731 0.850651
    outer loop
      vertex 6.35 1.5605 40.0638
      vertex 1.73472e-15 0.921375 40.4588
      vertex 6.35 0.921375 40.4588
    endloop
  endfacet
  facet normal 0 0.488649 0.87248
    outer loop
      vertex 1.73472e-15 0.921375 40.4588
      vertex 1.73472e-15 0.265851 40.8259
      vertex 6.35 0.921375 40.4588
    endloop
  endfacet
  facet normal 0 0.488649 0.87248
    outer loop
      vertex 6.35 0.921375 40.4588
      vertex 1.73472e-15 0.265851 40.8259
      vertex 6.35 0.265851 40.8259
    endloop
  endfacet
  facet normal 0 0.450672 0.892689
    outer loop
      vertex 1.73472e-15 0.265851 40.8259
      vertex 1.73472e-15 -0.404859 41.1645
      vertex 6.35 0.265851 40.8259
    endloop
  endfacet
  facet normal 0 0.450672 0.892689
    outer loop
      vertex 6.35 0.265851 40.8259
      vertex 1.73472e-15 -0.404859 41.1645
      vertex 6.35 -0.404859 41.1645
    endloop
  endfacet
  facet normal 0 0.411851 0.911251
    outer loop
      vertex 1.73472e-15 -0.404859 41.1645
      vertex 1.73472e-15 -1.08951 41.474
      vertex 6.35 -0.404859 41.1645
    endloop
  endfacet
  facet normal 0 0.411851 0.911251
    outer loop
      vertex 6.35 -0.404859 41.1645
      vertex 1.73472e-15 -1.08951 41.474
      vertex 6.35 -1.08951 41.474
    endloop
  endfacet
  facet normal 0 0.372274 0.928123
    outer loop
      vertex 1.73472e-15 -1.08951 41.474
      vertex 1.73472e-15 -1.78684 41.7537
      vertex 6.35 -1.08951 41.474
    endloop
  endfacet
  facet normal 0 0.372274 0.928123
    outer loop
      vertex 6.35 -1.08951 41.474
      vertex 1.73472e-15 -1.78684 41.7537
      vertex 6.35 -1.78684 41.7537
    endloop
  endfacet
  facet normal 0 0.332007 0.943277
    outer loop
      vertex 1.73472e-15 -1.78684 41.7537
      vertex 1.73472e-15 -2.49556 42.0031
      vertex 6.35 -1.78684 41.7537
    endloop
  endfacet
  facet normal 0 0.332007 0.943277
    outer loop
      vertex 6.35 -1.78684 41.7537
      vertex 1.73472e-15 -2.49556 42.0031
      vertex 6.35 -2.49556 42.0031
    endloop
  endfacet
  facet normal 0 0.291122 0.956686
    outer loop
      vertex 1.73472e-15 -2.49556 42.0031
      vertex 1.73472e-15 -3.21435 42.2218
      vertex 6.35 -2.49556 42.0031
    endloop
  endfacet
  facet normal 0 0.291122 0.956686
    outer loop
      vertex 6.35 -2.49556 42.0031
      vertex 1.73472e-15 -3.21435 42.2218
      vertex 6.35 -3.21435 42.2218
    endloop
  endfacet
  facet normal 0 0.249697 0.968324
    outer loop
      vertex 1.73472e-15 -3.21435 42.2218
      vertex 1.73472e-15 -3.94189 42.4094
      vertex 6.35 -3.21435 42.2218
    endloop
  endfacet
  facet normal 0 0.249697 0.968324
    outer loop
      vertex 6.35 -3.21435 42.2218
      vertex 1.73472e-15 -3.94189 42.4094
      vertex 6.35 -3.94189 42.4094
    endloop
  endfacet
  facet normal 0 0.207819 0.978167
    outer loop
      vertex 1.73472e-15 -3.94189 42.4094
      vertex 1.73472e-15 -4.67682 42.5656
      vertex 6.35 -3.94189 42.4094
    endloop
  endfacet
  facet normal 0 0.207819 0.978167
    outer loop
      vertex 6.35 -3.94189 42.4094
      vertex 1.73472e-15 -4.67682 42.5656
      vertex 6.35 -4.67682 42.5656
    endloop
  endfacet
  facet normal 0 0.165545 0.986202
    outer loop
      vertex 1.73472e-15 -4.67682 42.5656
      vertex 1.73472e-15 -5.41779 42.69
      vertex 6.35 -4.67682 42.5656
    endloop
  endfacet
  facet normal 0 0.165545 0.986202
    outer loop
      vertex 6.35 -4.67682 42.5656
      vertex 1.73472e-15 -5.41779 42.69
      vertex 6.35 -5.41779 42.69
    endloop
  endfacet
  facet normal 0 0.122969 0.99241
    outer loop
      vertex 1.73472e-15 -5.41779 42.69
      vertex 1.73472e-15 -6.16342 42.7824
      vertex 6.35 -5.41779 42.69
    endloop
  endfacet
  facet normal 0 0.122969 0.99241
    outer loop
      vertex 6.35 -5.41779 42.69
      vertex 1.73472e-15 -6.16342 42.7824
      vertex 6.35 -6.16342 42.7824
    endloop
  endfacet
  facet normal 0 0.0801696 0.996781
    outer loop
      vertex 1.73472e-15 -6.16342 42.7824
      vertex 1.73472e-15 -6.91234 42.8426
      vertex 6.35 -6.16342 42.7824
    endloop
  endfacet
  facet normal 0 0.0801696 0.996781
    outer loop
      vertex 6.35 -6.16342 42.7824
      vertex 1.73472e-15 -6.91234 42.8426
      vertex 6.35 -6.91234 42.8426
    endloop
  endfacet
  facet normal 0 0.0372165 0.999307
    outer loop
      vertex 1.73472e-15 -6.91234 42.8426
      vertex 1.73472e-15 -7.66315 42.8705
      vertex 6.35 -6.91234 42.8426
    endloop
  endfacet
  facet normal 0 0.0372165 0.999307
    outer loop
      vertex 6.35 -6.91234 42.8426
      vertex 1.73472e-15 -7.66315 42.8705
      vertex 6.35 -7.66315 42.8705
    endloop
  endfacet
  facet normal 0 -0.00580112 0.999983
    outer loop
      vertex 1.73472e-15 -7.66315 42.8705
      vertex 1.73472e-15 -8.41448 42.8662
      vertex 6.35 -7.66315 42.8705
    endloop
  endfacet
  facet normal 0 -0.00580112 0.999983
    outer loop
      vertex 6.35 -7.66315 42.8705
      vertex 1.73472e-15 -8.41448 42.8662
      vertex 6.35 -8.41448 42.8662
    endloop
  endfacet
  facet normal 0 -0.0488138 0.998808
    outer loop
      vertex 1.73472e-15 -8.41448 42.8662
      vertex 1.73472e-15 -9.16492 42.8295
      vertex 6.35 -8.41448 42.8662
    endloop
  endfacet
  facet normal 0 -0.0488138 0.998808
    outer loop
      vertex 6.35 -8.41448 42.8662
      vertex 1.73472e-15 -9.16492 42.8295
      vertex 6.35 -9.16492 42.8295
    endloop
  endfacet
  facet normal 0 -0.0917321 0.995784
    outer loop
      vertex 1.73472e-15 -9.16492 42.8295
      vertex 1.73472e-15 -9.91308 42.7606
      vertex 6.35 -9.16492 42.8295
    endloop
  endfacet
  facet normal 0 -0.0917321 0.995784
    outer loop
      vertex 6.35 -9.16492 42.8295
      vertex 1.73472e-15 -9.91308 42.7606
      vertex 6.35 -9.91308 42.7606
    endloop
  endfacet
  facet normal 0 -0.134482 0.990916
    outer loop
      vertex 1.73472e-15 -9.91308 42.7606
      vertex 1.73472e-15 -10.6576 42.6596
      vertex 6.35 -9.91308 42.7606
    endloop
  endfacet
  facet normal 0 -0.134482 0.990916
    outer loop
      vertex 6.35 -9.91308 42.7606
      vertex 1.73472e-15 -10.6576 42.6596
      vertex 6.35 -10.6576 42.6596
    endloop
  endfacet
  facet normal 0 -0.176979 0.984215
    outer loop
      vertex 1.73472e-15 -10.6576 42.6596
      vertex 1.73472e-15 -11.3971 42.5266
      vertex 6.35 -10.6576 42.6596
    endloop
  endfacet
  facet normal 0 -0.176979 0.984215
    outer loop
      vertex 6.35 -10.6576 42.6596
      vertex 1.73472e-15 -11.3971 42.5266
      vertex 6.35 -11.3971 42.5266
    endloop
  endfacet
  facet normal 0 -0.219154 0.97569
    outer loop
      vertex 1.73472e-15 -11.3971 42.5266
      vertex 1.73472e-15 -12.1301 42.3619
      vertex 6.35 -11.3971 42.5266
    endloop
  endfacet
  facet normal 0 -0.219154 0.97569
    outer loop
      vertex 6.35 -11.3971 42.5266
      vertex 1.73472e-15 -12.1301 42.3619
      vertex 6.35 -12.1301 42.3619
    endloop
  endfacet
  facet normal 0 -0.260922 0.96536
    outer loop
      vertex 1.73472e-15 -12.1301 42.3619
      vertex 1.73472e-15 -12.8554 42.1659
      vertex 6.35 -12.1301 42.3619
    endloop
  endfacet
  facet normal 0 -0.260922 0.96536
    outer loop
      vertex 6.35 -12.1301 42.3619
      vertex 1.73472e-15 -12.8554 42.1659
      vertex 6.35 -12.8554 42.1659
    endloop
  endfacet
  facet normal 0 -0.302209 0.953242
    outer loop
      vertex 1.73472e-15 -12.8554 42.1659
      vertex 1.73472e-15 -13.5717 41.9388
      vertex 6.35 -12.8554 42.1659
    endloop
  endfacet
  facet normal 0 -0.302209 0.953242
    outer loop
      vertex 6.35 -12.8554 42.1659
      vertex 1.73472e-15 -13.5717 41.9388
      vertex 6.35 -13.5717 41.9388
    endloop
  endfacet
  facet normal 0 -0.342931 0.939361
    outer loop
      vertex 1.73472e-15 -13.5717 41.9388
      vertex 1.73472e-15 -14.2774 41.6812
      vertex 6.35 -13.5717 41.9388
    endloop
  endfacet
  facet normal 0 -0.342931 0.939361
    outer loop
      vertex 6.35 -13.5717 41.9388
      vertex 1.73472e-15 -14.2774 41.6812
      vertex 6.35 -14.2774 41.6812
    endloop
  endfacet
  facet normal 0 -0.383019 0.923741
    outer loop
      vertex 1.73472e-15 -14.2774 41.6812
      vertex 1.73472e-15 -14.9715 41.3934
      vertex 6.35 -14.2774 41.6812
    endloop
  endfacet
  facet normal 0 -0.383019 0.923741
    outer loop
      vertex 6.35 -14.2774 41.6812
      vertex 1.73472e-15 -14.9715 41.3934
      vertex 6.35 -14.9715 41.3934
    endloop
  endfacet
  facet normal 0 -0.422401 0.906409
    outer loop
      vertex 1.73472e-15 -14.9715 41.3934
      vertex 1.73472e-15 -15.6525 41.076
      vertex 6.35 -14.9715 41.3934
    endloop
  endfacet
  facet normal 0 -0.422401 0.906409
    outer loop
      vertex 6.35 -14.9715 41.3934
      vertex 1.73472e-15 -15.6525 41.076
      vertex 6.35 -15.6525 41.076
    endloop
  endfacet
  facet normal 0 -0.461001 0.887399
    outer loop
      vertex 1.73472e-15 -15.6525 41.076
      vertex 1.73472e-15 -16.3192 40.7297
      vertex 6.35 -15.6525 41.076
    endloop
  endfacet
  facet normal 0 -0.461001 0.887399
    outer loop
      vertex 6.35 -15.6525 41.076
      vertex 1.73472e-15 -16.3192 40.7297
      vertex 6.35 -16.3192 40.7297
    endloop
  endfacet
  facet normal 0 -0.498743 0.86675
    outer loop
      vertex 1.73472e-15 -16.3192 40.7297
      vertex 1.73472e-15 -16.9704 40.3549
      vertex 6.35 -16.3192 40.7297
    endloop
  endfacet
  facet normal 0 -0.498743 0.86675
    outer loop
      vertex 6.35 -16.3192 40.7297
      vertex 1.73472e-15 -16.9704 40.3549
      vertex 6.35 -16.9704 40.3549
    endloop
  endfacet
  facet normal 0 -0.535568 0.844492
    outer loop
      vertex 1.73472e-15 -16.9704 40.3549
      vertex 1.73472e-15 -17.6049 39.9525
      vertex 6.35 -16.9704 40.3549
    endloop
  endfacet
  facet normal 0 -0.535568 0.844492
    outer loop
      vertex 6.35 -16.9704 40.3549
      vertex 1.73472e-15 -17.6049 39.9525
      vertex 6.35 -17.6049 39.9525
    endloop
  endfacet
  facet normal 0 -0.5714 0.820672
    outer loop
      vertex 1.73472e-15 -17.6049 39.9525
      vertex 1.73472e-15 -18.2215 39.5232
      vertex 6.35 -17.6049 39.9525
    endloop
  endfacet
  facet normal 0 -0.5714 0.820672
    outer loop
      vertex 6.35 -17.6049 39.9525
      vertex 1.73472e-15 -18.2215 39.5232
      vertex 6.35 -18.2215 39.5232
    endloop
  endfacet
  facet normal 0 -0.60617 0.795335
    outer loop
      vertex 1.73472e-15 -18.2215 39.5232
      vertex 1.73472e-15 -18.8191 39.0678
      vertex 6.35 -18.2215 39.5232
    endloop
  endfacet
  facet normal 0 -0.60617 0.795335
    outer loop
      vertex 6.35 -18.2215 39.5232
      vertex 1.73472e-15 -18.8191 39.0678
      vertex 6.35 -18.8191 39.0678
    endloop
  endfacet
  facet normal 0 -0.639822 0.768523
    outer loop
      vertex 1.73472e-15 -18.8191 39.0678
      vertex 1.73472e-15 -19.3965 38.5871
      vertex 6.35 -18.8191 39.0678
    endloop
  endfacet
  facet normal 0 -0.639822 0.768523
    outer loop
      vertex 6.35 -18.8191 39.0678
      vertex 1.73472e-15 -19.3965 38.5871
      vertex 6.35 -19.3965 38.5871
    endloop
  endfacet
  facet normal 0 -0.672288 0.74029
    outer loop
      vertex 1.73472e-15 -19.3965 38.5871
      vertex 1.73472e-15 -19.9527 38.082
      vertex 6.35 -19.3965 38.5871
    endloop
  endfacet
  facet normal 0 -0.672288 0.74029
    outer loop
      vertex 6.35 -19.3965 38.5871
      vertex 1.73472e-15 -19.9527 38.082
      vertex 6.35 -19.9527 38.082
    endloop
  endfacet
  facet normal 0 -0.703512 0.710684
    outer loop
      vertex 1.73472e-15 -19.9527 38.082
      vertex 1.73472e-15 -20.4867 37.5534
      vertex 6.35 -19.9527 38.082
    endloop
  endfacet
  facet normal 0 -0.703512 0.710684
    outer loop
      vertex 6.35 -19.9527 38.082
      vertex 1.73472e-15 -20.4867 37.5534
      vertex 6.35 -20.4867 37.5534
    endloop
  endfacet
  facet normal 0 -0.733428 0.679767
    outer loop
      vertex 1.73472e-15 -20.4867 37.5534
      vertex 1.73472e-15 -20.9974 37.0023
      vertex 6.35 -20.4867 37.5534
    endloop
  endfacet
  facet normal 0 -0.733428 0.679767
    outer loop
      vertex 6.35 -20.4867 37.5534
      vertex 1.73472e-15 -20.9974 37.0023
      vertex 6.35 -20.9974 37.0023
    endloop
  endfacet
  facet normal 0 -0.761992 0.647586
    outer loop
      vertex 1.73472e-15 -20.9974 37.0023
      vertex 1.73472e-15 -21.484 36.4298
      vertex 6.35 -20.9974 37.0023
    endloop
  endfacet
  facet normal 0 -0.761992 0.647586
    outer loop
      vertex 6.35 -20.9974 37.0023
      vertex 1.73472e-15 -21.484 36.4298
      vertex 6.35 -21.484 36.4298
    endloop
  endfacet
  facet normal 0 -0.789142 0.614211
    outer loop
      vertex 1.73472e-15 -21.484 36.4298
      vertex 1.73472e-15 -21.9454 35.8369
      vertex 6.35 -21.484 36.4298
    endloop
  endfacet
  facet normal 0 -0.789142 0.614211
    outer loop
      vertex 6.35 -21.484 36.4298
      vertex 1.73472e-15 -21.9454 35.8369
      vertex 6.35 -21.9454 35.8369
    endloop
  endfacet
  facet normal 0 -0.814832 0.579697
    outer loop
      vertex 1.73472e-15 -21.9454 35.8369
      vertex 1.73472e-15 -22.381 35.2247
      vertex 6.35 -21.9454 35.8369
    endloop
  endfacet
  facet normal 0 -0.814832 0.579697
    outer loop
      vertex 6.35 -21.9454 35.8369
      vertex 1.73472e-15 -22.381 35.2247
      vertex 6.35 -22.381 35.2247
    endloop
  endfacet
  facet normal 0 -0.839015 0.544108
    outer loop
      vertex 1.73472e-15 -22.381 35.2247
      vertex 1.73472e-15 -22.7898 34.5943
      vertex 6.35 -22.381 35.2247
    endloop
  endfacet
  facet normal 0 -0.839015 0.544108
    outer loop
      vertex 6.35 -22.381 35.2247
      vertex 1.73472e-15 -22.7898 34.5943
      vertex 6.35 -22.7898 34.5943
    endloop
  endfacet
  facet normal 0 -0.861642 0.507517
    outer loop
      vertex 1.73472e-15 -22.7898 34.5943
      vertex 1.73472e-15 -23.1711 33.9469
      vertex 6.35 -22.7898 34.5943
    endloop
  endfacet
  facet normal 0 -0.861642 0.507517
    outer loop
      vertex 6.35 -22.7898 34.5943
      vertex 1.73472e-15 -23.1711 33.9469
      vertex 6.35 -23.1711 33.9469
    endloop
  endfacet
  facet normal 0 -0.882677 0.46998
    outer loop
      vertex 1.73472e-15 -23.1711 33.9469
      vertex 1.73472e-15 -23.5242 33.2838
      vertex 6.35 -23.1711 33.9469
    endloop
  endfacet
  facet normal 0 -0.882677 0.46998
    outer loop
      vertex 6.35 -23.1711 33.9469
      vertex 1.73472e-15 -23.5242 33.2838
      vertex 6.35 -23.5242 33.2838
    endloop
  endfacet
  facet normal 0 -0.902076 0.431577
    outer loop
      vertex 1.73472e-15 -23.5242 33.2838
      vertex 1.73472e-15 -23.8485 32.606
      vertex 6.35 -23.5242 33.2838
    endloop
  endfacet
  facet normal 0 -0.902076 0.431577
    outer loop
      vertex 6.35 -23.5242 33.2838
      vertex 1.73472e-15 -23.8485 32.606
      vertex 6.35 -23.8485 32.606
    endloop
  endfacet
  facet normal 0 -0.919806 0.392374
    outer loop
      vertex 1.73472e-15 -23.8485 32.606
      vertex 1.73472e-15 -24.1433 31.9149
      vertex 6.35 -23.8485 32.606
    endloop
  endfacet
  facet normal 0 -0.919806 0.392374
    outer loop
      vertex 6.35 -23.8485 32.606
      vertex 1.73472e-15 -24.1433 31.9149
      vertex 6.35 -24.1433 31.9149
    endloop
  endfacet
  facet normal 0 -0.935832 0.352445
    outer loop
      vertex 1.73472e-15 -24.1433 31.9149
      vertex 1.73472e-15 -24.4081 31.2118
      vertex 6.35 -24.1433 31.9149
    endloop
  endfacet
  facet normal 0 -0.935832 0.352445
    outer loop
      vertex 6.35 -24.1433 31.9149
      vertex 1.73472e-15 -24.4081 31.2118
      vertex 6.35 -24.4081 31.2118
    endloop
  endfacet
  facet normal 0 -0.950127 0.311862
    outer loop
      vertex 1.73472e-15 -24.4081 31.2118
      vertex 1.73472e-15 -24.6424 30.4979
      vertex 6.35 -24.4081 31.2118
    endloop
  endfacet
  facet normal 0 -0.950127 0.311862
    outer loop
      vertex 6.35 -24.4081 31.2118
      vertex 1.73472e-15 -24.6424 30.4979
      vertex 6.35 -24.6424 30.4979
    endloop
  endfacet
  facet normal 0 -0.962663 0.270704
    outer loop
      vertex 1.73472e-15 -24.6424 30.4979
      vertex 1.73472e-15 -24.8458 29.7746
      vertex 6.35 -24.6424 30.4979
    endloop
  endfacet
  facet normal 0 -0.962663 0.270704
    outer loop
      vertex 6.35 -24.6424 30.4979
      vertex 1.73472e-15 -24.8458 29.7746
      vertex 6.35 -24.8458 29.7746
    endloop
  endfacet
  facet normal 0 -0.973416 0.229043
    outer loop
      vertex 1.73472e-15 -24.8458 29.7746
      vertex 1.73472e-15 -25.0179 29.0433
      vertex 6.35 -24.8458 29.7746
    endloop
  endfacet
  facet normal 0 -0.973416 0.229043
    outer loop
      vertex 6.35 -24.8458 29.7746
      vertex 1.73472e-15 -25.0179 29.0433
      vertex 6.35 -25.0179 29.0433
    endloop
  endfacet
  facet normal 0 -0.982367 0.186963
    outer loop
      vertex 1.73472e-15 -25.0179 29.0433
      vertex 1.73472e-15 -25.1584 28.3052
      vertex 6.35 -25.0179 29.0433
    endloop
  endfacet
  facet normal 0 -0.982367 0.186963
    outer loop
      vertex 6.35 -25.0179 29.0433
      vertex 1.73472e-15 -25.1584 28.3052
      vertex 6.35 -25.1584 28.3052
    endloop
  endfacet
  facet normal 0 -0.989501 0.144527
    outer loop
      vertex 1.73472e-15 -25.1584 28.3052
      vertex 1.73472e-15 -25.2669 27.5617
      vertex 6.35 -25.1584 28.3052
    endloop
  endfacet
  facet normal 0 -0.989501 0.144527
    outer loop
      vertex 6.35 -25.1584 28.3052
      vertex 1.73472e-15 -25.2669 27.5617
      vertex 6.35 -25.2669 27.5617
    endloop
  endfacet
  facet normal 0 -0.994802 0.101832
    outer loop
      vertex 1.73472e-15 -25.2669 27.5617
      vertex 1.73472e-15 -25.3435 26.8143
      vertex 6.35 -25.2669 27.5617
    endloop
  endfacet
  facet normal 0 -0.994802 0.101832
    outer loop
      vertex 6.35 -25.2669 27.5617
      vertex 1.73472e-15 -25.3435 26.8143
      vertex 6.35 -25.3435 26.8143
    endloop
  endfacet
  facet normal 0 -0.998261 0.0589458
    outer loop
      vertex 1.73472e-15 -25.3435 26.8143
      vertex 1.73472e-15 -25.3877 26.0643
      vertex 6.35 -25.3435 26.8143
    endloop
  endfacet
  facet normal 0 -0.998261 0.0589458
    outer loop
      vertex 6.35 -25.3435 26.8143
      vertex 1.73472e-15 -25.3877 26.0643
      vertex 6.35 -25.3877 26.0643
    endloop
  endfacet
  facet normal 0 -0.999873 0.0159506
    outer loop
      vertex 1.73472e-15 -25.3877 26.0643
      vertex 1.73472e-15 -25.3997 25.313
      vertex 6.35 -25.3877 26.0643
    endloop
  endfacet
  facet normal 0 -0.999873 0.0159506
    outer loop
      vertex 6.35 -25.3877 26.0643
      vertex 1.73472e-15 -25.3997 25.313
      vertex 6.35 -25.3997 25.313
    endloop
  endfacet
  facet normal 0 -0.999633 -0.0270744
    outer loop
      vertex 1.73472e-15 -25.3997 25.313
      vertex 1.73472e-15 -25.3794 24.562
      vertex 6.35 -25.3997 25.313
    endloop
  endfacet
  facet normal 0 -0.999633 -0.0270744
    outer loop
      vertex 6.35 -25.3997 25.313
      vertex 1.73472e-15 -25.3794 24.562
      vertex 6.35 -25.3794 24.562
    endloop
  endfacet
  facet normal 0 -0.997543 -0.0700499
    outer loop
      vertex 1.73472e-15 -25.3794 24.562
      vertex 0 -25.3268 23.8125
      vertex 6.35 -25.3794 24.562
    endloop
  endfacet
  facet normal 0 -0.997543 -0.0700499
    outer loop
      vertex 6.35 -25.3794 24.562
      vertex 0 -25.3268 23.8125
      vertex 6.35 -25.3268 23.8125
    endloop
  endfacet
  facet normal 0 0.906308 0.422618
    outer loop
      vertex 6.35 7.8889 32.7902
      vertex 6.35 25.4 -4.7625
      vertex 0 7.8889 32.7902
    endloop
  endfacet
  facet normal 0 0.906308 0.422618
    outer loop
      vertex 6.35 25.4 -4.7625
      vertex 0 25.4 -4.7625
      vertex 0 7.8889 32.7902
    endloop
  endfacet
  facet normal 0 0 -1
    outer loop
      vertex 6.35 25.4 -4.7625
      vertex 6.35 7.14375 -4.7625
      vertex 0 25.4 -4.7625
    endloop
  endfacet
  facet normal 0 0 -1
    outer loop
      vertex 6.35 7.14375 -4.7625
      vertex 0 7.14375 -4.7625
      vertex 0 25.4 -4.7625
    endloop
  endfacet
  facet normal -1 0 0
    outer loop
      vertex 0 7.8889 32.7902
      vertex 0 25.4 -4.7625
      vertex 0 7.14375 -4.7625
    endloop
  endfacet
  facet normal -1 0 0
    outer loop
      vertex 0 1.19063 -2.52488
      vertex 0 1.19063 -23.8125
      vertex 0 -3.175 -23.8125
    endloop
  endfacet
  facet normal -1 0 0
    outer loop
      vertex 0 7.14375 -23.8125
      vertex 0 2.77812 -23.8125
      vertex 0 7.14375 -4.7625
    endloop
  endfacet
  facet normal -1 0 0
    outer loop
      vertex 0 2.77812 -23.8125
      vertex 0 2.77812 -2.52488
      vertex 0 7.14375 -4.7625
    endloop
  endfacet
  facet normal -1 0 0
    outer loop
      vertex 0 -25.4 -4.70907
      vertex 0 -25.4 23.8125
      vertex 0 -3.175 -4.70907
    endloop
  endfacet
  facet normal -1 0 0
    outer loop
      vertex 0 -25.4 23.8125
      vertex 0 -25.3268 23.8125
      vertex 0 -3.175 -4.70907
    endloop
  endfacet
  facet normal -1 -5.04988e-17 2.98188e-18
    outer loop
      vertex 1.73472e-15 -25.3877 26.0643
      vertex 1.73472e-15 -25.3435 26.8143
      vertex 0 7.14375 -4.7625
    endloop
  endfacet
  facet normal -1 -4.85651e-17 4.97133e-18
    outer loop
      vertex 1.73472e-15 -25.3435 26.8143
      vertex 1.73472e-15 -25.2669 27.5617
      vertex 0 7.14375 -4.7625
    endloop
  endfacet
  facet normal -1 -5.24845e-17 1.04144e-18
    outer loop
      vertex 0 7.14375 -4.7625
      vertex 1.73472e-15 -25.2669 27.5617
      vertex 0 7.8889 32.7902
    endloop
  endfacet
  facet normal -1 0 0
    outer loop
      vertex 0 -3.175 -23.8125
      vertex 0 -3.175 -4.70907
      vertex 0 1.19063 -2.52488
    endloop
  endfacet
  facet normal -1 0 0
    outer loop
      vertex 0 -3.175 -4.70907
      vertex 0 -25.3268 23.8125
      vertex 0 1.19063 -2.52488
    endloop
  endfacet
  facet normal -1 0 0
    outer loop
      vertex 0 1.19063 -2.52488
      vertex 0 -25.3268 23.8125
      vertex 0 2.77812 -2.52488
    endloop
  endfacet
  facet normal -1 2.32177e-15 2.47758e-15
    outer loop
      vertex 0 -25.3268 23.8125
      vertex 1.73472e-15 -25.3794 24.562
      vertex 0 2.77812 -2.52488
    endloop
  endfacet
  facet normal -1 7.02623e-17 1.37083e-16
    outer loop
      vertex 0 2.77812 -2.52488
      vertex 1.73472e-15 -25.3794 24.562
      vertex 0 7.14375 -4.7625
    endloop
  endfacet
  facet normal -1 -5.46733e-17 -1.48079e-18
    outer loop
      vertex 1.73472e-15 -25.3794 24.562
      vertex 1.73472e-15 -25.3997 25.313
      vertex 0 7.14375 -4.7625
    endloop
  endfacet
  facet normal -1 -5.25303e-17 8.37999e-19
    outer loop
      vertex 0 7.14375 -4.7625
      vertex 1.73472e-15 -25.3997 25.313
      vertex 1.73472e-15 -25.3877 26.0643
    endloop
  endfacet
  facet normal -1 0 0
    outer loop
      vertex 1.73472e-15 -12.8554 42.1659
      vertex 1.73472e-15 -12.1301 42.3619
      vertex 1.73472e-15 -25.2669 27.5617
    endloop
  endfacet
  facet normal -1 0 0
    outer loop
      vertex 1.73472e-15 6.80721 34.7661
      vertex 1.73472e-15 7.19601 34.1232
      vertex 1.73472e-15 -25.2669 27.5617
    endloop
  endfacet
  facet normal -1 0 0
    outer loop
      vertex 1.73472e-15 7.19601 34.1232
      vertex 1.73472e-15 7.5568 33.4641
      vertex 1.73472e-15 -25.2669 27.5617
    endloop
  endfacet
  facet normal -1 -4.25177e-16 2.36445e-15
    outer loop
      vertex 1.73472e-15 -25.2669 27.5617
      vertex 1.73472e-15 7.5568 33.4641
      vertex 0 7.8889 32.7902
    endloop
  endfacet
  facet normal -1 0 0
    outer loop
      vertex 1.73472e-15 -17.6049 39.9525
      vertex 1.73472e-15 -16.9704 40.3549
      vertex 1.73472e-15 -25.2669 27.5617
    endloop
  endfacet
  facet normal -1 0 0
    outer loop
      vertex 1.73472e-15 -25.2669 27.5617
      vertex 1.73472e-15 -7.66315 42.8705
      vertex 1.73472e-15 -6.91234 42.8426
    endloop
  endfacet
  facet normal -1 0 0
    outer loop
      vertex 1.73472e-15 -24.8458 29.7746
      vertex 1.73472e-15 -18.8191 39.0678
      vertex 1.73472e-15 -25.0179 29.0433
    endloop
  endfacet
  facet normal -1 0 0
    outer loop
      vertex 1.73472e-15 -18.8191 39.0678
      vertex 1.73472e-15 -25.1584 28.3052
      vertex 1.73472e-15 -25.0179 29.0433
    endloop
  endfacet
  facet normal -1 0 0
    outer loop
      vertex 1.73472e-15 -16.9704 40.3549
      vertex 1.73472e-15 -16.3192 40.7297
      vertex 1.73472e-15 -25.2669 27.5617
    endloop
  endfacet
  facet normal -1 0 0
    outer loop
      vertex 1.73472e-15 -16.3192 40.7297
      vertex 1.73472e-15 -15.6525 41.076
      vertex 1.73472e-15 -25.2669 27.5617
    endloop
  endfacet
  facet normal -1 0 0
    outer loop
      vertex 1.73472e-15 -25.2669 27.5617
      vertex 1.73472e-15 -15.6525 41.076
      vertex 1.73472e-15 -14.9715 41.3934
    endloop
  endfacet
  facet normal -1 0 0
    outer loop
      vertex 1.73472e-15 -14.9715 41.3934
      vertex 1.73472e-15 -14.2774 41.6812
      vertex 1.73472e-15 -25.2669 27.5617
    endloop
  endfacet
  facet normal -1 0 0
    outer loop
      vertex 1.73472e-15 -14.2774 41.6812
      vertex 1.73472e-15 -13.5717 41.9388
      vertex 1.73472e-15 -25.2669 27.5617
    endloop
  endfacet
  facet normal -1 0 0
    outer loop
      vertex 1.73472e-15 -25.2669 27.5617
      vertex 1.73472e-15 -13.5717 41.9388
      vertex 1.73472e-15 -12.8554 42.1659
    endloop
  endfacet
  facet normal -1 0 0
    outer loop
      vertex 1.73472e-15 -12.1301 42.3619
      vertex 1.73472e-15 -11.3971 42.5266
      vertex 1.73472e-15 -25.2669 27.5617
    endloop
  endfacet
  facet normal -1 0 0
    outer loop
      vertex 1.73472e-15 -11.3971 42.5266
      vertex 1.73472e-15 -10.6576 42.6596
      vertex 1.73472e-15 -25.2669 27.5617
    endloop
  endfacet
  facet normal -1 0 0
    outer loop
      vertex 1.73472e-15 -25.2669 27.5617
      vertex 1.73472e-15 -10.6576 42.6596
      vertex 1.73472e-15 -9.91308 42.7606
    endloop
  endfacet
  facet normal -1 0 0
    outer loop
      vertex 1.73472e-15 -9.91308 42.7606
      vertex 1.73472e-15 -9.16492 42.8295
      vertex 1.73472e-15 -25.2669 27.5617
    endloop
  endfacet
  facet normal -1 0 0
    outer loop
      vertex 1.73472e-15 -9.16492 42.8295
      vertex 1.73472e-15 -8.41448 42.8662
      vertex 1.73472e-15 -25.2669 27.5617
    endloop
  endfacet
  facet normal -1 0 0
    outer loop
      vertex 1.73472e-15 -25.2669 27.5617
      vertex 1.73472e-15 -8.41448 42.8662
      vertex 1.73472e-15 -7.66315 42.8705
    endloop
  endfacet
  facet normal -1 0 0
    outer loop
      vertex 1.73472e-15 -6.91234 42.8426
      vertex 1.73472e-15 -6.16342 42.7824
      vertex 1.73472e-15 -25.2669 27.5617
    endloop
  endfacet
  facet normal -1 0 0
    outer loop
      vertex 1.73472e-15 -6.16342 42.7824
      vertex 1.73472e-15 -5.41779 42.69
      vertex 1.73472e-15 -25.2669 27.5617
    endloop
  endfacet
  facet normal -1 0 0
    outer loop
      vertex 1.73472e-15 -25.2669 27.5617
      vertex 1.73472e-15 -5.41779 42.69
      vertex 1.73472e-15 -4.67682 42.5656
    endloop
  endfacet
  facet normal -1 0 0
    outer loop
      vertex 1.73472e-15 -25.2669 27.5617
      vertex 1.73472e-15 1.5605 40.0638
      vertex 1.73472e-15 2.18204 39.6416
    endloop
  endfacet
  facet normal -1 0 0
    outer loop
      vertex 1.73472e-15 2.18204 39.6416
      vertex 1.73472e-15 2.78485 39.1932
      vertex 1.73472e-15 -25.2669 27.5617
    endloop
  endfacet
  facet normal -1 0 0
    outer loop
      vertex 1.73472e-15 2.78485 39.1932
      vertex 1.73472e-15 3.36781 38.7192
      vertex 1.73472e-15 -25.2669 27.5617
    endloop
  endfacet
  facet normal -1 0 0
    outer loop
      vertex 1.73472e-15 -25.2669 27.5617
      vertex 1.73472e-15 3.36781 38.7192
      vertex 1.73472e-15 3.92984 38.2206
    endloop
  endfacet
  facet normal -1 0 0
    outer loop
      vertex 1.73472e-15 3.92984 38.2206
      vertex 1.73472e-15 4.4699 37.6982
      vertex 1.73472e-15 -25.2669 27.5617
    endloop
  endfacet
  facet normal -1 0 0
    outer loop
      vertex 1.73472e-15 4.4699 37.6982
      vertex 1.73472e-15 4.98699 37.1531
      vertex 1.73472e-15 -25.2669 27.5617
    endloop
  endfacet
  facet normal -1 0 0
    outer loop
      vertex 1.73472e-15 -25.2669 27.5617
      vertex 1.73472e-15 4.98699 37.1531
      vertex 1.73472e-15 5.48016 36.5863
    endloop
  endfacet
  facet normal -1 0 0
    outer loop
      vertex 1.73472e-15 5.48016 36.5863
      vertex 1.73472e-15 5.94849 35.9988
      vertex 1.73472e-15 -25.2669 27.5617
    endloop
  endfacet
  facet normal -1 0 0
    outer loop
      vertex 1.73472e-15 5.94849 35.9988
      vertex 1.73472e-15 6.39111 35.3917
      vertex 1.73472e-15 -25.2669 27.5617
    endloop
  endfacet
  facet normal -1 0 0
    outer loop
      vertex 1.73472e-15 -25.2669 27.5617
      vertex 1.73472e-15 6.39111 35.3917
      vertex 1.73472e-15 6.80721 34.7661
    endloop
  endfacet
  facet normal -1 0 0
    outer loop
      vertex 1.73472e-15 -19.9527 38.082
      vertex 1.73472e-15 -19.3965 38.5871
      vertex 1.73472e-15 -23.5242 33.2838
    endloop
  endfacet
  facet normal -1 0 0
    outer loop
      vertex 1.73472e-15 -19.3965 38.5871
      vertex 1.73472e-15 -18.8191 39.0678
      vertex 1.73472e-15 -23.5242 33.2838
    endloop
  endfacet
  facet normal -1 0 0
    outer loop
      vertex 1.73472e-15 -23.5242 33.2838
      vertex 1.73472e-15 -18.8191 39.0678
      vertex 1.73472e-15 -23.8485 32.606
    endloop
  endfacet
  facet normal -1 0 0
    outer loop
      vertex 1.73472e-15 -18.8191 39.0678
      vertex 1.73472e-15 -24.1433 31.9149
      vertex 1.73472e-15 -23.8485 32.606
    endloop
  endfacet
  facet normal -1 0 0
    outer loop
      vertex 1.73472e-15 -23.5242 33.2838
      vertex 1.73472e-15 -23.1711 33.9469
      vertex 1.73472e-15 -22.7898 34.5943
    endloop
  endfacet
  facet normal -1 0 0
    outer loop
      vertex 1.73472e-15 -21.484 36.4298
      vertex 1.73472e-15 -20.9974 37.0023
      vertex 1.73472e-15 -23.5242 33.2838
    endloop
  endfacet
  facet normal -1 0 0
    outer loop
      vertex 1.73472e-15 -20.9974 37.0023
      vertex 1.73472e-15 -20.4867 37.5534
      vertex 1.73472e-15 -23.5242 33.2838
    endloop
  endfacet
  facet normal -1 0 0
    outer loop
      vertex 1.73472e-15 -23.5242 33.2838
      vertex 1.73472e-15 -20.4867 37.5534
      vertex 1.73472e-15 -19.9527 38.082
    endloop
  endfacet
  facet normal -1 0 0
    outer loop
      vertex 1.73472e-15 -25.1584 28.3052
      vertex 1.73472e-15 -18.8191 39.0678
      vertex 1.73472e-15 -25.2669 27.5617
    endloop
  endfacet
  facet normal -1 0 0
    outer loop
      vertex 1.73472e-15 -18.8191 39.0678
      vertex 1.73472e-15 -18.2215 39.5232
      vertex 1.73472e-15 -25.2669 27.5617
    endloop
  endfacet
  facet normal -1 0 0
    outer loop
      vertex 1.73472e-15 -25.2669 27.5617
      vertex 1.73472e-15 -18.2215 39.5232
      vertex 1.73472e-15 -17.6049 39.9525
    endloop
  endfacet
  facet normal -1 0 0
    outer loop
      vertex 1.73472e-15 -0.404859 41.1645
      vertex 1.73472e-15 0.265851 40.8259
      vertex 1.73472e-15 -25.2669 27.5617
    endloop
  endfacet
  facet normal -1 0 0
    outer loop
      vertex 1.73472e-15 0.265851 40.8259
      vertex 1.73472e-15 0.921375 40.4588
      vertex 1.73472e-15 -25.2669 27.5617
    endloop
  endfacet
  facet normal -1 0 0
    outer loop
      vertex 1.73472e-15 -25.2669 27.5617
      vertex 1.73472e-15 0.921375 40.4588
      vertex 1.73472e-15 1.5605 40.0638
    endloop
  endfacet
  facet normal -1 0 0
    outer loop
      vertex 1.73472e-15 -24.8458 29.7746
      vertex 1.73472e-15 -24.6424 30.4979
      vertex 1.73472e-15 -18.8191 39.0678
    endloop
  endfacet
  facet normal -1 0 0
    outer loop
      vertex 1.73472e-15 -24.6424 30.4979
      vertex 1.73472e-15 -24.4081 31.2118
      vertex 1.73472e-15 -18.8191 39.0678
    endloop
  endfacet
  facet normal -1 0 0
    outer loop
      vertex 1.73472e-15 -18.8191 39.0678
      vertex 1.73472e-15 -24.4081 31.2118
      vertex 1.73472e-15 -24.1433 31.9149
    endloop
  endfacet
  facet normal -1 0 0
    outer loop
      vertex 1.73472e-15 -22.7898 34.5943
      vertex 1.73472e-15 -22.381 35.2247
      vertex 1.73472e-15 -23.5242 33.2838
    endloop
  endfacet
  facet normal -1 0 0
    outer loop
      vertex 1.73472e-15 -22.381 35.2247
      vertex 1.73472e-15 -21.9454 35.8369
      vertex 1.73472e-15 -23.5242 33.2838
    endloop
  endfacet
  facet normal -1 0 0
    outer loop
      vertex 1.73472e-15 -23.5242 33.2838
      vertex 1.73472e-15 -21.9454 35.8369
      vertex 1.73472e-15 -21.484 36.4298
    endloop
  endfacet
  facet normal -1 0 0
    outer loop
      vertex 1.73472e-15 -4.67682 42.5656
      vertex 1.73472e-15 -3.94189 42.4094
      vertex 1.73472e-15 -25.2669 27.5617
    endloop
  endfacet
  facet normal -1 0 0
    outer loop
      vertex 1.73472e-15 -3.94189 42.4094
      vertex 1.73472e-15 -3.21435 42.2218
      vertex 1.73472e-15 -25.2669 27.5617
    endloop
  endfacet
  facet normal -1 0 0
    outer loop
      vertex 1.73472e-15 -25.2669 27.5617
      vertex 1.73472e-15 -3.21435 42.2218
      vertex 1.73472e-15 -2.49556 42.0031
    endloop
  endfacet
  facet normal -1 0 0
    outer loop
      vertex 1.73472e-15 -2.49556 42.0031
      vertex 1.73472e-15 -1.78684 41.7537
      vertex 1.73472e-15 -25.2669 27.5617
    endloop
  endfacet
  facet normal -1 0 0
    outer loop
      vertex 1.73472e-15 -1.78684 41.7537
      vertex 1.73472e-15 -1.08951 41.474
      vertex 1.73472e-15 -25.2669 27.5617
    endloop
  endfacet
  facet normal -1 0 0
    outer loop
      vertex 1.73472e-15 -25.2669 27.5617
      vertex 1.73472e-15 -1.08951 41.474
      vertex 1.73472e-15 -0.404859 41.1645
    endloop
  endfacet
  facet normal 0 0 -1
    outer loop
      vertex 6.35 -3.175 -4.70907
      vertex 6.35 -25.4 -4.70907
      vertex 0 -3.175 -4.70907
    endloop
  endfacet
  facet normal 0 0 -1
    outer loop
      vertex 6.35 -25.4 -4.70907
      vertex 0 -25.4 -4.70907
      vertex 0 -3.175 -4.70907
    endloop
  endfacet
  facet normal 0 0 -1
    outer loop
      vertex 0 7.14375 -23.8125
      vertex 6.35 7.14375 -23.8125
      vertex 0 2.77812 -23.8125
    endloop
  endfacet
  facet normal 0 0 -1
    outer loop
      vertex 6.35 7.14375 -23.8125
      vertex 6.35 2.77812 -23.8125
      vertex 0 2.77812 -23.8125
    endloop
  endfacet
  facet normal 0 1 0
    outer loop
      vertex 6.35 7.14375 -4.7625
      vertex 6.35 7.14375 -23.8125
      vertex 0 7.14375 -4.7625
    endloop
  endfacet
  facet normal 0 1 0
    outer loop
      vertex 6.35 7.14375 -23.8125
      vertex 0 7.14375 -23.8125
      vertex 0 7.14375 -4.7625
    endloop
  endfacet
  facet normal 0 -1 0
    outer loop
      vertex 6.35 -3.175 -23.8125
      vertex 6.35 -3.175 -4.70907
      vertex 0 -3.175 -23.8125
    endloop
  endfacet
  facet normal 0 -1 0
    outer loop
      vertex 6.35 -3.175 -4.70907
      vertex 0 -3.175 -4.70907
      vertex 0 -3.175 -23.8125
    endloop
  endfacet
  facet normal 0 0 -1
    outer loop
      vertex 6.35 1.19063 -23.8125
      vertex 6.35 -3.175 -23.8125
      vertex 0 1.19063 -23.8125
    endloop
  endfacet
  facet normal 0 0 -1
    outer loop
      vertex 6.35 -3.175 -23.8125
      vertex 0 -3.175 -23.8125
      vertex 0 1.19063 -23.8125
    endloop
  endfacet
endsolid Onshape
