solid Onshape
  facet normal 1 0 0
    outer loop
      vertex 38.1 -55.9255 0.344197
      vertex 38.1 -55.9375 0.206778
      vertex 38.1 -53.4042 2.286
    endloop
  endfacet
  facet normal 1 0 0
    outer loop
      vertex 38.1 -55.9375 0.206778
      vertex 38.1 -55.9435 0.0689695
      vertex 38.1 -53.4042 2.286
    endloop
  endfacet
  facet normal 1 0 0
    outer loop
      vertex 38.1 -53.4042 2.286
      vertex 38.1 -55.7301 -1.1461
      vertex 38.1 -55.6776 -1.27363
    endloop
  endfacet
  facet normal 1 0 0
    outer loop
      vertex 38.1 -55.9435 0.0689695
      vertex 38.1 -55.9435 -0.0689695
      vertex 38.1 -53.4042 2.286
    endloop
  endfacet
  facet normal 1 0 0
    outer loop
      vertex 38.1 -55.9435 -0.0689695
      vertex 38.1 -55.9375 -0.206778
      vertex 38.1 -53.4042 2.286
    endloop
  endfacet
  facet normal 1 0 0
    outer loop
      vertex 38.1 -53.4042 2.286
      vertex 38.1 -55.9375 -0.206778
      vertex 38.1 -55.9255 -0.344197
    endloop
  endfacet
  facet normal 1 0 0
    outer loop
      vertex 38.1 -55.9255 -0.344197
      vertex 38.1 -55.9076 -0.480966
      vertex 38.1 -53.4042 2.286
    endloop
  endfacet
  facet normal 1 0 0
    outer loop
      vertex 38.1 -55.9076 -0.480966
      vertex 38.1 -55.8837 -0.616827
      vertex 38.1 -53.4042 2.286
    endloop
  endfacet
  facet normal 1 0 0
    outer loop
      vertex 38.1 -53.4042 2.286
      vertex 38.1 -55.8837 -0.616827
      vertex 38.1 -55.854 -0.751524
    endloop
  endfacet
  facet normal 1 0 0
    outer loop
      vertex 38.1 -55.854 -0.751524
      vertex 38.1 -55.8184 -0.884802
      vertex 38.1 -53.4042 2.286
    endloop
  endfacet
  facet normal 1 0 0
    outer loop
      vertex 38.1 -55.8184 -0.884802
      vertex 38.1 -55.7771 -1.01641
      vertex 38.1 -53.4042 2.286
    endloop
  endfacet
  facet normal 1 0 0
    outer loop
      vertex 38.1 -53.4042 2.286
      vertex 38.1 -55.7771 -1.01641
      vertex 38.1 -55.7301 -1.1461
    endloop
  endfacet
  facet normal 1 0 0
    outer loop
      vertex 38.1 -55.6776 -1.27363
      vertex 38.1 -55.6195 -1.39875
      vertex 38.1 -53.4042 2.286
    endloop
  endfacet
  facet normal 1 0 0
    outer loop
      vertex 38.1 -55.6195 -1.39875
      vertex 38.1 -55.5561 -1.52123
      vertex 38.1 -53.4042 2.286
    endloop
  endfacet
  facet normal 1 0 0
    outer loop
      vertex 38.1 -53.4042 2.286
      vertex 38.1 -55.5561 -1.52123
      vertex 38.1 -55.4873 -1.64084
    endloop
  endfacet
  facet normal 1 0 0
    outer loop
      vertex 38.1 -55.4873 -1.64084
      vertex 38.1 -55.4135 -1.75736
      vertex 38.1 -53.4042 2.286
    endloop
  endfacet
  facet normal 1 0 0
    outer loop
      vertex 38.1 -55.4135 -1.75736
      vertex 38.1 -55.3347 -1.87055
      vertex 38.1 -53.4042 2.286
    endloop
  endfacet
  facet normal 1 0 0
    outer loop
      vertex 38.1 -53.4042 2.286
      vertex 38.1 -55.3347 -1.87055
      vertex 38.1 -55.251 -1.98022
    endloop
  endfacet
  facet normal 1 0 0
    outer loop
      vertex 38.1 -55.7301 1.1461
      vertex 38.1 -53.4042 2.286
      vertex 38.1 -55.6776 1.27363
    endloop
  endfacet
  facet normal 1 0 0
    outer loop
      vertex 38.1 -53.4042 2.286
      vertex 38.1 -55.6195 1.39875
      vertex 38.1 -55.6776 1.27363
    endloop
  endfacet
  facet normal 1 0 0
    outer loop
      vertex 38.1 -54.9726 -2.286
      vertex 38.1 -53.4042 -2.286
      vertex 38.1 -55.0698 -2.18814
    endloop
  endfacet
  facet normal 1 0 0
    outer loop
      vertex 38.1 -53.4042 -2.286
      vertex 38.1 -53.4042 2.286
      vertex 38.1 -55.0698 -2.18814
    endloop
  endfacet
  facet normal 1 0 0
    outer loop
      vertex 38.1 -55.0698 -2.18814
      vertex 38.1 -53.4042 2.286
      vertex 38.1 -55.1627 -2.08615
    endloop
  endfacet
  facet normal 1 0 0
    outer loop
      vertex 38.1 -53.4042 2.286
      vertex 38.1 -55.251 -1.98022
      vertex 38.1 -55.1627 -2.08615
    endloop
  endfacet
  facet normal 1 0 0
    outer loop
      vertex 38.1 -54.9726 2.286
      vertex 38.1 -55.0698 2.18814
      vertex 38.1 -53.4042 2.286
    endloop
  endfacet
  facet normal 1 0 0
    outer loop
      vertex 38.1 -55.0698 2.18814
      vertex 38.1 -55.1627 2.08615
      vertex 38.1 -53.4042 2.286
    endloop
  endfacet
  facet normal 1 0 0
    outer loop
      vertex 38.1 -55.1627 2.08615
      vertex 38.1 -55.251 1.98022
      vertex 38.1 -53.4042 2.286
    endloop
  endfacet
  facet normal 1 0 0
    outer loop
      vertex 38.1 -55.251 1.98022
      vertex 38.1 -55.3347 1.87055
      vertex 38.1 -53.4042 2.286
    endloop
  endfacet
  facet normal 1 0 0
    outer loop
      vertex 38.1 -53.4042 2.286
      vertex 38.1 -55.3347 1.87055
      vertex 38.1 -55.4135 1.75736
    endloop
  endfacet
  facet normal 1 0 0
    outer loop
      vertex 38.1 -55.7301 1.1461
      vertex 38.1 -55.7771 1.01641
      vertex 38.1 -53.4042 2.286
    endloop
  endfacet
  facet normal 1 0 0
    outer loop
      vertex 38.1 -55.7771 1.01641
      vertex 38.1 -55.8184 0.884802
      vertex 38.1 -53.4042 2.286
    endloop
  endfacet
  facet normal 1 0 0
    outer loop
      vertex 38.1 -53.4042 2.286
      vertex 38.1 -55.8184 0.884802
      vertex 38.1 -55.854 0.751524
    endloop
  endfacet
  facet normal 1 0 0
    outer loop
      vertex 38.1 -55.4135 1.75736
      vertex 38.1 -55.4873 1.64084
      vertex 38.1 -53.4042 2.286
    endloop
  endfacet
  facet normal 1 0 0
    outer loop
      vertex 38.1 -55.4873 1.64084
      vertex 38.1 -55.5561 1.52123
      vertex 38.1 -53.4042 2.286
    endloop
  endfacet
  facet normal 1 0 0
    outer loop
      vertex 38.1 -53.4042 2.286
      vertex 38.1 -55.5561 1.52123
      vertex 38.1 -55.6195 1.39875
    endloop
  endfacet
  facet normal 1 0 0
    outer loop
      vertex 38.1 -55.854 0.751524
      vertex 38.1 -55.8837 0.616827
      vertex 38.1 -53.4042 2.286
    endloop
  endfacet
  facet normal 1 0 0
    outer loop
      vertex 38.1 -55.8837 0.616827
      vertex 38.1 -55.9076 0.480966
      vertex 38.1 -53.4042 2.286
    endloop
  endfacet
  facet normal 1 0 0
    outer loop
      vertex 38.1 -53.4042 2.286
      vertex 38.1 -55.9076 0.480966
      vertex 38.1 -55.9255 0.344197
    endloop
  endfacet
  facet normal -1 0 0
    outer loop
      vertex -38.1 -49.6129 0.344197
      vertex -38.1 -49.601 0.206778
      vertex -38.1 -52.1342 -2.286
    endloop
  endfacet
  facet normal -1 0 0
    outer loop
      vertex -38.1 -49.601 0.206778
      vertex -38.1 -49.595 0.0689695
      vertex -38.1 -52.1342 -2.286
    endloop
  endfacet
  facet normal -1 0 0
    outer loop
      vertex -38.1 -52.1342 -2.286
      vertex -38.1 -49.595 0.0689695
      vertex -38.1 -49.595 -0.0689695
    endloop
  endfacet
  facet normal -1 0 0
    outer loop
      vertex -38.1 -49.8083 1.1461
      vertex -38.1 -52.1342 -2.286
      vertex -38.1 -49.8609 1.27363
    endloop
  endfacet
  facet normal -1 0 0
    outer loop
      vertex -38.1 -52.1342 -2.286
      vertex -38.1 -49.9189 1.39875
      vertex -38.1 -49.8609 1.27363
    endloop
  endfacet
  facet normal -1 0 0
    outer loop
      vertex -38.1 -49.595 -0.0689695
      vertex -38.1 -49.601 -0.206778
      vertex -38.1 -52.1342 -2.286
    endloop
  endfacet
  facet normal -1 0 0
    outer loop
      vertex -38.1 -49.601 -0.206778
      vertex -38.1 -49.6129 -0.344197
      vertex -38.1 -52.1342 -2.286
    endloop
  endfacet
  facet normal -1 0 0
    outer loop
      vertex -38.1 -52.1342 -2.286
      vertex -38.1 -49.6129 -0.344197
      vertex -38.1 -49.6309 -0.480966
    endloop
  endfacet
  facet normal -1 0 0
    outer loop
      vertex -38.1 -52.1342 2.286
      vertex -38.1 -50.5658 2.286
      vertex -38.1 -52.1342 -2.286
    endloop
  endfacet
  facet normal -1 0 0
    outer loop
      vertex -38.1 -50.5658 2.286
      vertex -38.1 -50.4686 2.18814
      vertex -38.1 -52.1342 -2.286
    endloop
  endfacet
  facet normal -1 0 0
    outer loop
      vertex -38.1 -52.1342 -2.286
      vertex -38.1 -50.4686 2.18814
      vertex -38.1 -50.3758 2.08615
    endloop
  endfacet
  facet normal -1 0 0
    outer loop
      vertex -38.1 -49.8083 1.1461
      vertex -38.1 -49.7613 1.01641
      vertex -38.1 -52.1342 -2.286
    endloop
  endfacet
  facet normal -1 0 0
    outer loop
      vertex -38.1 -49.7613 1.01641
      vertex -38.1 -49.72 0.884802
      vertex -38.1 -52.1342 -2.286
    endloop
  endfacet
  facet normal -1 0 0
    outer loop
      vertex -38.1 -52.1342 -2.286
      vertex -38.1 -49.72 0.884802
      vertex -38.1 -49.6844 0.751524
    endloop
  endfacet
  facet normal -1 0 0
    outer loop
      vertex -38.1 -50.3758 2.08615
      vertex -38.1 -50.2874 1.98022
      vertex -38.1 -52.1342 -2.286
    endloop
  endfacet
  facet normal -1 0 0
    outer loop
      vertex -38.1 -50.2874 1.98022
      vertex -38.1 -50.2037 1.87055
      vertex -38.1 -52.1342 -2.286
    endloop
  endfacet
  facet normal -1 0 0
    outer loop
      vertex -38.1 -52.1342 -2.286
      vertex -38.1 -50.2037 1.87055
      vertex -38.1 -50.1249 1.75736
    endloop
  endfacet
  facet normal -1 0 0
    outer loop
      vertex -38.1 -49.6844 0.751524
      vertex -38.1 -49.6547 0.616827
      vertex -38.1 -52.1342 -2.286
    endloop
  endfacet
  facet normal -1 0 0
    outer loop
      vertex -38.1 -49.6547 0.616827
      vertex -38.1 -49.6309 0.480966
      vertex -38.1 -52.1342 -2.286
    endloop
  endfacet
  facet normal -1 0 0
    outer loop
      vertex -38.1 -52.1342 -2.286
      vertex -38.1 -49.6309 0.480966
      vertex -38.1 -49.6129 0.344197
    endloop
  endfacet
  facet normal -1 0 0
    outer loop
      vertex -38.1 -49.72 -0.884802
      vertex -38.1 -49.7613 -1.01641
      vertex -38.1 -52.1342 -2.286
    endloop
  endfacet
  facet normal -1 0 0
    outer loop
      vertex -38.1 -49.7613 -1.01641
      vertex -38.1 -49.8083 -1.1461
      vertex -38.1 -52.1342 -2.286
    endloop
  endfacet
  facet normal -1 0 0
    outer loop
      vertex -38.1 -52.1342 -2.286
      vertex -38.1 -49.8083 -1.1461
      vertex -38.1 -49.8609 -1.27363
    endloop
  endfacet
  facet normal -1 0 0
    outer loop
      vertex -38.1 -49.8609 -1.27363
      vertex -38.1 -49.9189 -1.39875
      vertex -38.1 -52.1342 -2.286
    endloop
  endfacet
  facet normal -1 0 0
    outer loop
      vertex -38.1 -49.9189 -1.39875
      vertex -38.1 -49.9824 -1.52123
      vertex -38.1 -52.1342 -2.286
    endloop
  endfacet
  facet normal -1 0 0
    outer loop
      vertex -38.1 -52.1342 -2.286
      vertex -38.1 -49.9824 -1.52123
      vertex -38.1 -50.0511 -1.64084
    endloop
  endfacet
  facet normal -1 0 0
    outer loop
      vertex -38.1 -49.6309 -0.480966
      vertex -38.1 -49.6547 -0.616827
      vertex -38.1 -52.1342 -2.286
    endloop
  endfacet
  facet normal -1 0 0
    outer loop
      vertex -38.1 -49.6547 -0.616827
      vertex -38.1 -49.6844 -0.751524
      vertex -38.1 -52.1342 -2.286
    endloop
  endfacet
  facet normal -1 0 0
    outer loop
      vertex -38.1 -52.1342 -2.286
      vertex -38.1 -49.6844 -0.751524
      vertex -38.1 -49.72 -0.884802
    endloop
  endfacet
  facet normal -1 0 0
    outer loop
      vertex -38.1 -50.0511 -1.64084
      vertex -38.1 -50.1249 -1.75736
      vertex -38.1 -52.1342 -2.286
    endloop
  endfacet
  facet normal -1 0 0
    outer loop
      vertex -38.1 -50.1249 -1.75736
      vertex -38.1 -50.2037 -1.87055
      vertex -38.1 -52.1342 -2.286
    endloop
  endfacet
  facet normal -1 0 0
    outer loop
      vertex -38.1 -52.1342 -2.286
      vertex -38.1 -50.2037 -1.87055
      vertex -38.1 -50.2874 -1.98022
    endloop
  endfacet
  facet normal -1 0 0
    outer loop
      vertex -38.1 -50.2874 -1.98022
      vertex -38.1 -50.3758 -2.08615
      vertex -38.1 -52.1342 -2.286
    endloop
  endfacet
  facet normal -1 0 0
    outer loop
      vertex -38.1 -50.3758 -2.08615
      vertex -38.1 -50.4686 -2.18814
      vertex -38.1 -52.1342 -2.286
    endloop
  endfacet
  facet normal -1 0 0
    outer loop
      vertex -38.1 -52.1342 -2.286
      vertex -38.1 -50.4686 -2.18814
      vertex -38.1 -50.5658 -2.286
    endloop
  endfacet
  facet normal -1 0 0
    outer loop
      vertex -38.1 -50.1249 1.75736
      vertex -38.1 -50.0511 1.64084
      vertex -38.1 -52.1342 -2.286
    endloop
  endfacet
  facet normal -1 0 0
    outer loop
      vertex -38.1 -50.0511 1.64084
      vertex -38.1 -49.9824 1.52123
      vertex -38.1 -52.1342 -2.286
    endloop
  endfacet
  facet normal -1 0 0
    outer loop
      vertex -38.1 -52.1342 -2.286
      vertex -38.1 -49.9824 1.52123
      vertex -38.1 -49.9189 1.39875
    endloop
  endfacet
  facet normal 1 0 0
    outer loop
      vertex 38.1 -52.1342 2.286
      vertex 38.1 -52.1342 -2.286
      vertex 38.1 -50.5658 -2.286
    endloop
  endfacet
  facet normal 1 0 0
    outer loop
      vertex 38.1 -50.0511 -1.64084
      vertex 38.1 -49.9824 -1.52123
      vertex 38.1 -52.1342 2.286
    endloop
  endfacet
  facet normal 1 0 0
    outer loop
      vertex 38.1 -49.9824 -1.52123
      vertex 38.1 -49.9189 -1.39875
      vertex 38.1 -52.1342 2.286
    endloop
  endfacet
  facet normal 1 0 0
    outer loop
      vertex 38.1 -49.9189 -1.39875
      vertex 38.1 -49.8609 -1.27363
      vertex 38.1 -52.1342 2.286
    endloop
  endfacet
  facet normal 1 0 0
    outer loop
      vertex 38.1 -52.1342 2.286
      vertex 38.1 -49.8609 -1.27363
      vertex 38.1 -49.8083 -1.1461
    endloop
  endfacet
  facet normal 1 0 0
    outer loop
      vertex 38.1 -49.6129 -0.344197
      vertex 38.1 -49.601 -0.206778
      vertex 38.1 -52.1342 2.286
    endloop
  endfacet
  facet normal 1 0 0
    outer loop
      vertex 38.1 -49.601 -0.206778
      vertex 38.1 -49.595 -0.0689695
      vertex 38.1 -52.1342 2.286
    endloop
  endfacet
  facet normal 1 0 0
    outer loop
      vertex 38.1 -52.1342 2.286
      vertex 38.1 -49.595 -0.0689695
      vertex 38.1 -49.595 0.0689695
    endloop
  endfacet
  facet normal 1 0 0
    outer loop
      vertex 38.1 -49.595 0.0689695
      vertex 38.1 -49.601 0.206778
      vertex 38.1 -52.1342 2.286
    endloop
  endfacet
  facet normal 1 0 0
    outer loop
      vertex 38.1 -49.601 0.206778
      vertex 38.1 -49.6129 0.344197
      vertex 38.1 -52.1342 2.286
    endloop
  endfacet
  facet normal 1 0 0
    outer loop
      vertex 38.1 -52.1342 2.286
      vertex 38.1 -49.6129 0.344197
      vertex 38.1 -49.6309 0.480966
    endloop
  endfacet
  facet normal 1 0 0
    outer loop
      vertex 38.1 -50.5658 -2.286
      vertex 38.1 -50.4686 -2.18814
      vertex 38.1 -52.1342 2.286
    endloop
  endfacet
  facet normal 1 0 0
    outer loop
      vertex 38.1 -50.4686 -2.18814
      vertex 38.1 -50.3758 -2.08615
      vertex 38.1 -52.1342 2.286
    endloop
  endfacet
  facet normal 1 0 0
    outer loop
      vertex 38.1 -52.1342 2.286
      vertex 38.1 -50.3758 -2.08615
      vertex 38.1 -50.2874 -1.98022
    endloop
  endfacet
  facet normal 1 0 0
    outer loop
      vertex 38.1 -50.2874 -1.98022
      vertex 38.1 -50.2037 -1.87055
      vertex 38.1 -52.1342 2.286
    endloop
  endfacet
  facet normal 1 0 0
    outer loop
      vertex 38.1 -50.2037 -1.87055
      vertex 38.1 -50.1249 -1.75736
      vertex 38.1 -52.1342 2.286
    endloop
  endfacet
  facet normal 1 0 0
    outer loop
      vertex 38.1 -52.1342 2.286
      vertex 38.1 -50.1249 -1.75736
      vertex 38.1 -50.0511 -1.64084
    endloop
  endfacet
  facet normal 1 0 0
    outer loop
      vertex 38.1 -49.8083 -1.1461
      vertex 38.1 -49.7613 -1.01641
      vertex 38.1 -52.1342 2.286
    endloop
  endfacet
  facet normal 1 0 0
    outer loop
      vertex 38.1 -49.7613 -1.01641
      vertex 38.1 -49.72 -0.884802
      vertex 38.1 -52.1342 2.286
    endloop
  endfacet
  facet normal 1 0 0
    outer loop
      vertex 38.1 -52.1342 2.286
      vertex 38.1 -49.72 -0.884802
      vertex 38.1 -49.6844 -0.751524
    endloop
  endfacet
  facet normal 1 0 0
    outer loop
      vertex 38.1 -49.6844 -0.751524
      vertex 38.1 -49.6547 -0.616827
      vertex 38.1 -52.1342 2.286
    endloop
  endfacet
  facet normal 1 0 0
    outer loop
      vertex 38.1 -49.6547 -0.616827
      vertex 38.1 -49.6309 -0.480966
      vertex 38.1 -52.1342 2.286
    endloop
  endfacet
  facet normal 1 0 0
    outer loop
      vertex 38.1 -52.1342 2.286
      vertex 38.1 -49.6309 -0.480966
      vertex 38.1 -49.6129 -0.344197
    endloop
  endfacet
  facet normal 1 0 0
    outer loop
      vertex 38.1 -50.2037 1.87055
      vertex 38.1 -50.2874 1.98022
      vertex 38.1 -52.1342 2.286
    endloop
  endfacet
  facet normal 1 0 0
    outer loop
      vertex 38.1 -50.2874 1.98022
      vertex 38.1 -50.3758 2.08615
      vertex 38.1 -52.1342 2.286
    endloop
  endfacet
  facet normal 1 0 0
    outer loop
      vertex 38.1 -50.3758 2.08615
      vertex 38.1 -50.4686 2.18814
      vertex 38.1 -52.1342 2.286
    endloop
  endfacet
  facet normal 1 0 0
    outer loop
      vertex 38.1 -52.1342 2.286
      vertex 38.1 -50.4686 2.18814
      vertex 38.1 -50.5658 2.286
    endloop
  endfacet
  facet normal 1 0 0
    outer loop
      vertex 38.1 -49.8083 1.1461
      vertex 38.1 -52.1342 2.286
      vertex 38.1 -49.7613 1.01641
    endloop
  endfacet
  facet normal 1 0 0
    outer loop
      vertex 38.1 -52.1342 2.286
      vertex 38.1 -49.72 0.884802
      vertex 38.1 -49.7613 1.01641
    endloop
  endfacet
  facet normal 1 0 0
    outer loop
      vertex 38.1 -49.6309 0.480966
      vertex 38.1 -49.6547 0.616827
      vertex 38.1 -52.1342 2.286
    endloop
  endfacet
  facet normal 1 0 0
    outer loop
      vertex 38.1 -49.6547 0.616827
      vertex 38.1 -49.6844 0.751524
      vertex 38.1 -52.1342 2.286
    endloop
  endfacet
  facet normal 1 0 0
    outer loop
      vertex 38.1 -52.1342 2.286
      vertex 38.1 -49.6844 0.751524
      vertex 38.1 -49.72 0.884802
    endloop
  endfacet
  facet normal 1 0 0
    outer loop
      vertex 38.1 -49.8083 1.1461
      vertex 38.1 -49.8609 1.27363
      vertex 38.1 -52.1342 2.286
    endloop
  endfacet
  facet normal 1 0 0
    outer loop
      vertex 38.1 -49.8609 1.27363
      vertex 38.1 -49.9189 1.39875
      vertex 38.1 -52.1342 2.286
    endloop
  endfacet
  facet normal 1 0 0
    outer loop
      vertex 38.1 -52.1342 2.286
      vertex 38.1 -49.9189 1.39875
      vertex 38.1 -49.9824 1.52123
    endloop
  endfacet
  facet normal 1 0 0
    outer loop
      vertex 38.1 -49.9824 1.52123
      vertex 38.1 -50.0511 1.64084
      vertex 38.1 -52.1342 2.286
    endloop
  endfacet
  facet normal 1 0 0
    outer loop
      vertex 38.1 -50.0511 1.64084
      vertex 38.1 -50.1249 1.75736
      vertex 38.1 -52.1342 2.286
    endloop
  endfacet
  facet normal 1 0 0
    outer loop
      vertex 38.1 -52.1342 2.286
      vertex 38.1 -50.1249 1.75736
      vertex 38.1 -50.2037 1.87055
    endloop
  endfacet
  facet normal -1 0 0
    outer loop
      vertex -38.1 -55.7301 -1.1461
      vertex -38.1 -53.4042 2.286
      vertex -38.1 -55.6776 -1.27363
    endloop
  endfacet
  facet normal -1 0 0
    outer loop
      vertex -38.1 -53.4042 2.286
      vertex -38.1 -55.6195 -1.39875
      vertex -38.1 -55.6776 -1.27363
    endloop
  endfacet
  facet normal -1 0 0
    outer loop
      vertex -38.1 -55.1627 -2.08615
      vertex -38.1 -55.251 -1.98022
      vertex -38.1 -53.4042 2.286
    endloop
  endfacet
  facet normal -1 0 0
    outer loop
      vertex -38.1 -55.251 -1.98022
      vertex -38.1 -55.3347 -1.87055
      vertex -38.1 -53.4042 2.286
    endloop
  endfacet
  facet normal -1 0 0
    outer loop
      vertex -38.1 -53.4042 2.286
      vertex -38.1 -55.3347 -1.87055
      vertex -38.1 -55.4135 -1.75736
    endloop
  endfacet
  facet normal -1 0 0
    outer loop
      vertex -38.1 -55.4135 -1.75736
      vertex -38.1 -55.4873 -1.64084
      vertex -38.1 -53.4042 2.286
    endloop
  endfacet
  facet normal -1 0 0
    outer loop
      vertex -38.1 -55.4873 -1.64084
      vertex -38.1 -55.5561 -1.52123
      vertex -38.1 -53.4042 2.286
    endloop
  endfacet
  facet normal -1 0 0
    outer loop
      vertex -38.1 -53.4042 2.286
      vertex -38.1 -55.5561 -1.52123
      vertex -38.1 -55.6195 -1.39875
    endloop
  endfacet
  facet normal -1 0 0
    outer loop
      vertex -38.1 -55.7301 -1.1461
      vertex -38.1 -55.7771 -1.01641
      vertex -38.1 -53.4042 2.286
    endloop
  endfacet
  facet normal -1 0 0
    outer loop
      vertex -38.1 -55.7771 -1.01641
      vertex -38.1 -55.8184 -0.884802
      vertex -38.1 -53.4042 2.286
    endloop
  endfacet
  facet normal -1 0 0
    outer loop
      vertex -38.1 -53.4042 2.286
      vertex -38.1 -55.8184 -0.884802
      vertex -38.1 -55.854 -0.751524
    endloop
  endfacet
  facet normal -1 0 0
    outer loop
      vertex -38.1 -55.854 -0.751524
      vertex -38.1 -55.8837 -0.616827
      vertex -38.1 -53.4042 2.286
    endloop
  endfacet
  facet normal -1 0 0
    outer loop
      vertex -38.1 -55.8837 -0.616827
      vertex -38.1 -55.9076 -0.480966
      vertex -38.1 -53.4042 2.286
    endloop
  endfacet
  facet normal -1 0 0
    outer loop
      vertex -38.1 -53.4042 2.286
      vertex -38.1 -55.9076 -0.480966
      vertex -38.1 -55.9255 -0.344197
    endloop
  endfacet
  facet normal -1 0 0
    outer loop
      vertex -38.1 -55.9255 -0.344197
      vertex -38.1 -55.9375 -0.206778
      vertex -38.1 -53.4042 2.286
    endloop
  endfacet
  facet normal -1 0 0
    outer loop
      vertex -38.1 -55.9375 -0.206778
      vertex -38.1 -55.9435 -0.0689695
      vertex -38.1 -53.4042 2.286
    endloop
  endfacet
  facet normal -1 0 0
    outer loop
      vertex -38.1 -53.4042 2.286
      vertex -38.1 -55.9435 -0.0689695
      vertex -38.1 -55.9435 0.0689695
    endloop
  endfacet
  facet normal -1 0 0
    outer loop
      vertex -38.1 -55.9435 0.0689695
      vertex -38.1 -55.9375 0.206778
      vertex -38.1 -53.4042 2.286
    endloop
  endfacet
  facet normal -1 0 0
    outer loop
      vertex -38.1 -55.9375 0.206778
      vertex -38.1 -55.9255 0.344197
      vertex -38.1 -53.4042 2.286
    endloop
  endfacet
  facet normal -1 0 0
    outer loop
      vertex -38.1 -53.4042 2.286
      vertex -38.1 -55.9255 0.344197
      vertex -38.1 -55.9076 0.480966
    endloop
  endfacet
  facet normal -1 0 0
    outer loop
      vertex -38.1 -53.4042 -2.286
      vertex -38.1 -54.9726 -2.286
      vertex -38.1 -53.4042 2.286
    endloop
  endfacet
  facet normal -1 0 0
    outer loop
      vertex -38.1 -54.9726 -2.286
      vertex -38.1 -55.0698 -2.18814
      vertex -38.1 -53.4042 2.286
    endloop
  endfacet
  facet normal -1 0 0
    outer loop
      vertex -38.1 -53.4042 2.286
      vertex -38.1 -55.0698 -2.18814
      vertex -38.1 -55.1627 -2.08615
    endloop
  endfacet
  facet normal -1 0 0
    outer loop
      vertex -38.1 -55.6776 1.27363
      vertex -38.1 -55.6195 1.39875
      vertex -38.1 -53.4042 2.286
    endloop
  endfacet
  facet normal -1 0 0
    outer loop
      vertex -38.1 -55.6195 1.39875
      vertex -38.1 -55.5561 1.52123
      vertex -38.1 -53.4042 2.286
    endloop
  endfacet
  facet normal -1 0 0
    outer loop
      vertex -38.1 -53.4042 2.286
      vertex -38.1 -55.3347 1.87055
      vertex -38.1 -55.251 1.98022
    endloop
  endfacet
  facet normal -1 0 0
    outer loop
      vertex -38.1 -55.8184 0.884802
      vertex -38.1 -55.7771 1.01641
      vertex -38.1 -53.4042 2.286
    endloop
  endfacet
  facet normal -1 0 0
    outer loop
      vertex -38.1 -55.7771 1.01641
      vertex -38.1 -55.7301 1.1461
      vertex -38.1 -53.4042 2.286
    endloop
  endfacet
  facet normal -1 0 0
    outer loop
      vertex -38.1 -53.4042 2.286
      vertex -38.1 -55.7301 1.1461
      vertex -38.1 -55.6776 1.27363
    endloop
  endfacet
  facet normal -1 0 0
    outer loop
      vertex -38.1 -55.251 1.98022
      vertex -38.1 -55.1627 2.08615
      vertex -38.1 -53.4042 2.286
    endloop
  endfacet
  facet normal -1 0 0
    outer loop
      vertex -38.1 -55.1627 2.08615
      vertex -38.1 -55.0698 2.18814
      vertex -38.1 -53.4042 2.286
    endloop
  endfacet
  facet normal -1 0 0
    outer loop
      vertex -38.1 -53.4042 2.286
      vertex -38.1 -55.0698 2.18814
      vertex -38.1 -54.9726 2.286
    endloop
  endfacet
  facet normal -1 0 0
    outer loop
      vertex -38.1 -55.9076 0.480966
      vertex -38.1 -55.8837 0.616827
      vertex -38.1 -53.4042 2.286
    endloop
  endfacet
  facet normal -1 0 0
    outer loop
      vertex -38.1 -55.8837 0.616827
      vertex -38.1 -55.854 0.751524
      vertex -38.1 -53.4042 2.286
    endloop
  endfacet
  facet normal -1 0 0
    outer loop
      vertex -38.1 -53.4042 2.286
      vertex -38.1 -55.854 0.751524
      vertex -38.1 -55.8184 0.884802
    endloop
  endfacet
  facet normal -1 0 0
    outer loop
      vertex -38.1 -55.5561 1.52123
      vertex -38.1 -55.4873 1.64084
      vertex -38.1 -53.4042 2.286
    endloop
  endfacet
  facet normal -1 0 0
    outer loop
      vertex -38.1 -55.4873 1.64084
      vertex -38.1 -55.4135 1.75736
      vertex -38.1 -53.4042 2.286
    endloop
  endfacet
  facet normal -1 0 0
    outer loop
      vertex -38.1 -53.4042 2.286
      vertex -38.1 -55.4135 1.75736
      vertex -38.1 -55.3347 1.87055
    endloop
  endfacet
  facet normal 1 0 0
    outer loop
      vertex 22.225 -52.1342 -2.286
      vertex 22.225 -52.1342 2.286
      vertex 22.225 -53.4042 -2.286
    endloop
  endfacet
  facet normal 1 0 0
    outer loop
      vertex 22.225 -52.1342 2.286
      vertex 22.225 -53.4042 2.286
      vertex 22.225 -53.4042 -2.286
    endloop
  endfacet
  facet normal 0 -0.709457 0.704749
    outer loop
      vertex 38.1 -54.9726 2.286
      vertex -38.1 -54.9726 2.286
      vertex -38.1 -55.0698 2.18814
    endloop
  endfacet
  facet normal 0 -0.709457 0.704749
    outer loop
      vertex 38.1 -54.9726 2.286
      vertex -38.1 -55.0698 2.18814
      vertex 38.1 -55.0698 2.18814
    endloop
  endfacet
  facet normal 0 -0.73939 0.673277
    outer loop
      vertex -38.1 -55.0698 2.18814
      vertex -38.1 -55.1627 2.08615
      vertex 38.1 -55.0698 2.18814
    endloop
  endfacet
  facet normal 0 -0.73939 0.673277
    outer loop
      vertex 38.1 -55.0698 2.18814
      vertex -38.1 -55.1627 2.08615
      vertex 38.1 -55.1627 2.08615
    endloop
  endfacet
  facet normal 0 -0.76794 0.640522
    outer loop
      vertex -38.1 -55.1627 2.08615
      vertex -38.1 -55.251 1.98022
      vertex 38.1 -55.1627 2.08615
    endloop
  endfacet
  facet normal 0 -0.76794 0.640522
    outer loop
      vertex 38.1 -55.1627 2.08615
      vertex -38.1 -55.251 1.98022
      vertex 38.1 -55.251 1.98022
    endloop
  endfacet
  facet normal 0 -0.795031 0.606569
    outer loop
      vertex -38.1 -55.251 1.98022
      vertex -38.1 -55.3347 1.87055
      vertex 38.1 -55.251 1.98022
    endloop
  endfacet
  facet normal 0 -0.795031 0.606569
    outer loop
      vertex 38.1 -55.251 1.98022
      vertex -38.1 -55.3347 1.87055
      vertex 38.1 -55.3347 1.87055
    endloop
  endfacet
  facet normal 0 -0.820628 0.571462
    outer loop
      vertex -38.1 -55.3347 1.87055
      vertex -38.1 -55.4135 1.75736
      vertex 38.1 -55.3347 1.87055
    endloop
  endfacet
  facet normal 0 -0.820628 0.571462
    outer loop
      vertex 38.1 -55.3347 1.87055
      vertex -38.1 -55.4135 1.75736
      vertex 38.1 -55.4135 1.75736
    endloop
  endfacet
  facet normal 0 -0.844678 0.535275
    outer loop
      vertex -38.1 -55.4135 1.75736
      vertex -38.1 -55.4873 1.64084
      vertex 38.1 -55.4135 1.75736
    endloop
  endfacet
  facet normal 0 -0.844678 0.535275
    outer loop
      vertex 38.1 -55.4135 1.75736
      vertex -38.1 -55.4873 1.64084
      vertex 38.1 -55.4873 1.64084
    endloop
  endfacet
  facet normal 0 -0.867128 0.498085
    outer loop
      vertex -38.1 -55.4873 1.64084
      vertex -38.1 -55.5561 1.52123
      vertex 38.1 -55.4873 1.64084
    endloop
  endfacet
  facet normal 0 -0.867128 0.498085
    outer loop
      vertex 38.1 -55.4873 1.64084
      vertex -38.1 -55.5561 1.52123
      vertex 38.1 -55.5561 1.52123
    endloop
  endfacet
  facet normal 0 -0.887944 0.459952
    outer loop
      vertex -38.1 -55.5561 1.52123
      vertex -38.1 -55.6195 1.39875
      vertex 38.1 -55.5561 1.52123
    endloop
  endfacet
  facet normal 0 -0.887944 0.459952
    outer loop
      vertex 38.1 -55.5561 1.52123
      vertex -38.1 -55.6195 1.39875
      vertex 38.1 -55.6195 1.39875
    endloop
  endfacet
  facet normal 0 -0.907093 0.420931
    outer loop
      vertex -38.1 -55.6195 1.39875
      vertex -38.1 -55.6776 1.27363
      vertex 38.1 -55.6195 1.39875
    endloop
  endfacet
  facet normal 0 -0.907093 0.420931
    outer loop
      vertex 38.1 -55.6195 1.39875
      vertex -38.1 -55.6776 1.27363
      vertex 38.1 -55.6776 1.27363
    endloop
  endfacet
  facet normal 0 -0.924514 0.381147
    outer loop
      vertex -38.1 -55.6776 1.27363
      vertex -38.1 -55.7301 1.1461
      vertex 38.1 -55.6776 1.27363
    endloop
  endfacet
  facet normal 0 -0.924514 0.381147
    outer loop
      vertex 38.1 -55.6776 1.27363
      vertex -38.1 -55.7301 1.1461
      vertex 38.1 -55.7301 1.1461
    endloop
  endfacet
  facet normal 0 -0.940195 0.340636
    outer loop
      vertex -38.1 -55.7301 1.1461
      vertex -38.1 -55.7771 1.01641
      vertex 38.1 -55.7301 1.1461
    endloop
  endfacet
  facet normal 0 -0.940195 0.340636
    outer loop
      vertex 38.1 -55.7301 1.1461
      vertex -38.1 -55.7771 1.01641
      vertex 38.1 -55.7771 1.01641
    endloop
  endfacet
  facet normal 0 -0.954103 0.299478
    outer loop
      vertex -38.1 -55.7771 1.01641
      vertex -38.1 -55.8184 0.884802
      vertex 38.1 -55.7771 1.01641
    endloop
  endfacet
  facet normal 0 -0.954103 0.299478
    outer loop
      vertex 38.1 -55.7771 1.01641
      vertex -38.1 -55.8184 0.884802
      vertex 38.1 -55.8184 0.884802
    endloop
  endfacet
  facet normal 0 -0.966211 0.257753
    outer loop
      vertex -38.1 -55.8184 0.884802
      vertex -38.1 -55.854 0.751524
      vertex 38.1 -55.8184 0.884802
    endloop
  endfacet
  facet normal 0 -0.966211 0.257753
    outer loop
      vertex 38.1 -55.8184 0.884802
      vertex -38.1 -55.854 0.751524
      vertex 38.1 -55.854 0.751524
    endloop
  endfacet
  facet normal 0 -0.976495 0.215541
    outer loop
      vertex -38.1 -55.854 0.751524
      vertex -38.1 -55.8837 0.616827
      vertex 38.1 -55.854 0.751524
    endloop
  endfacet
  facet normal 0 -0.976495 0.215541
    outer loop
      vertex 38.1 -55.854 0.751524
      vertex -38.1 -55.8837 0.616827
      vertex 38.1 -55.8837 0.616827
    endloop
  endfacet
  facet normal 0 -0.984935 0.172924
    outer loop
      vertex -38.1 -55.8837 0.616827
      vertex -38.1 -55.9076 0.480966
      vertex 38.1 -55.8837 0.616827
    endloop
  endfacet
  facet normal 0 -0.984935 0.172924
    outer loop
      vertex 38.1 -55.8837 0.616827
      vertex -38.1 -55.9076 0.480966
      vertex 38.1 -55.9076 0.480966
    endloop
  endfacet
  facet normal 0 -0.991516 0.129984
    outer loop
      vertex -38.1 -55.9076 0.480966
      vertex -38.1 -55.9255 0.344197
      vertex 38.1 -55.9076 0.480966
    endloop
  endfacet
  facet normal 0 -0.991516 0.129984
    outer loop
      vertex 38.1 -55.9076 0.480966
      vertex -38.1 -55.9255 0.344197
      vertex 38.1 -55.9255 0.344197
    endloop
  endfacet
  facet normal 0 -0.996228 0.086773
    outer loop
      vertex -38.1 -55.9255 0.344197
      vertex -38.1 -55.9375 0.206778
      vertex 38.1 -55.9255 0.344197
    endloop
  endfacet
  facet normal 0 -0.996228 0.086773
    outer loop
      vertex 38.1 -55.9255 0.344197
      vertex -38.1 -55.9375 0.206778
      vertex 38.1 -55.9375 0.206778
    endloop
  endfacet
  facet normal 0 -0.999057 0.0434269
    outer loop
      vertex -38.1 -55.9375 0.206778
      vertex -38.1 -55.9435 0.0689695
      vertex 38.1 -55.9375 0.206778
    endloop
  endfacet
  facet normal 0 -0.999057 0.0434269
    outer loop
      vertex 38.1 -55.9375 0.206778
      vertex -38.1 -55.9435 0.0689695
      vertex 38.1 -55.9435 0.0689695
    endloop
  endfacet
  facet normal 0 -1 0
    outer loop
      vertex -38.1 -55.9435 0.0689695
      vertex -38.1 -55.9435 -0.0689695
      vertex 38.1 -55.9435 0.0689695
    endloop
  endfacet
  facet normal 0 -1 0
    outer loop
      vertex 38.1 -55.9435 0.0689695
      vertex -38.1 -55.9435 -0.0689695
      vertex 38.1 -55.9435 -0.0689695
    endloop
  endfacet
  facet normal 0 -0.999057 -0.0434269
    outer loop
      vertex -38.1 -55.9435 -0.0689695
      vertex -38.1 -55.9375 -0.206778
      vertex 38.1 -55.9435 -0.0689695
    endloop
  endfacet
  facet normal 0 -0.999057 -0.0434269
    outer loop
      vertex 38.1 -55.9435 -0.0689695
      vertex -38.1 -55.9375 -0.206778
      vertex 38.1 -55.9375 -0.206778
    endloop
  endfacet
  facet normal 0 -0.996228 -0.086773
    outer loop
      vertex -38.1 -55.9375 -0.206778
      vertex -38.1 -55.9255 -0.344197
      vertex 38.1 -55.9375 -0.206778
    endloop
  endfacet
  facet normal 0 -0.996228 -0.086773
    outer loop
      vertex 38.1 -55.9375 -0.206778
      vertex -38.1 -55.9255 -0.344197
      vertex 38.1 -55.9255 -0.344197
    endloop
  endfacet
  facet normal 0 -0.991516 -0.129984
    outer loop
      vertex -38.1 -55.9255 -0.344197
      vertex -38.1 -55.9076 -0.480966
      vertex 38.1 -55.9255 -0.344197
    endloop
  endfacet
  facet normal 0 -0.991516 -0.129984
    outer loop
      vertex 38.1 -55.9255 -0.344197
      vertex -38.1 -55.9076 -0.480966
      vertex 38.1 -55.9076 -0.480966
    endloop
  endfacet
  facet normal 0 -0.984935 -0.172924
    outer loop
      vertex -38.1 -55.9076 -0.480966
      vertex -38.1 -55.8837 -0.616827
      vertex 38.1 -55.9076 -0.480966
    endloop
  endfacet
  facet normal 0 -0.984935 -0.172924
    outer loop
      vertex 38.1 -55.9076 -0.480966
      vertex -38.1 -55.8837 -0.616827
      vertex 38.1 -55.8837 -0.616827
    endloop
  endfacet
  facet normal 0 -0.976495 -0.215541
    outer loop
      vertex -38.1 -55.8837 -0.616827
      vertex -38.1 -55.854 -0.751524
      vertex 38.1 -55.8837 -0.616827
    endloop
  endfacet
  facet normal 0 -0.976495 -0.215541
    outer loop
      vertex 38.1 -55.8837 -0.616827
      vertex -38.1 -55.854 -0.751524
      vertex 38.1 -55.854 -0.751524
    endloop
  endfacet
  facet normal 0 -0.966211 -0.257753
    outer loop
      vertex -38.1 -55.854 -0.751524
      vertex -38.1 -55.8184 -0.884802
      vertex 38.1 -55.854 -0.751524
    endloop
  endfacet
  facet normal 0 -0.966211 -0.257753
    outer loop
      vertex 38.1 -55.854 -0.751524
      vertex -38.1 -55.8184 -0.884802
      vertex 38.1 -55.8184 -0.884802
    endloop
  endfacet
  facet normal 0 -0.954103 -0.299478
    outer loop
      vertex -38.1 -55.8184 -0.884802
      vertex -38.1 -55.7771 -1.01641
      vertex 38.1 -55.8184 -0.884802
    endloop
  endfacet
  facet normal 0 -0.954103 -0.299478
    outer loop
      vertex 38.1 -55.8184 -0.884802
      vertex -38.1 -55.7771 -1.01641
      vertex 38.1 -55.7771 -1.01641
    endloop
  endfacet
  facet normal 0 -0.940195 -0.340636
    outer loop
      vertex -38.1 -55.7771 -1.01641
      vertex -38.1 -55.7301 -1.1461
      vertex 38.1 -55.7771 -1.01641
    endloop
  endfacet
  facet normal 0 -0.940195 -0.340636
    outer loop
      vertex 38.1 -55.7771 -1.01641
      vertex -38.1 -55.7301 -1.1461
      vertex 38.1 -55.7301 -1.1461
    endloop
  endfacet
  facet normal 0 -0.924514 -0.381147
    outer loop
      vertex -38.1 -55.7301 -1.1461
      vertex -38.1 -55.6776 -1.27363
      vertex 38.1 -55.7301 -1.1461
    endloop
  endfacet
  facet normal 0 -0.924514 -0.381147
    outer loop
      vertex 38.1 -55.7301 -1.1461
      vertex -38.1 -55.6776 -1.27363
      vertex 38.1 -55.6776 -1.27363
    endloop
  endfacet
  facet normal 0 -0.907093 -0.420931
    outer loop
      vertex -38.1 -55.6776 -1.27363
      vertex -38.1 -55.6195 -1.39875
      vertex 38.1 -55.6776 -1.27363
    endloop
  endfacet
  facet normal 0 -0.907093 -0.420931
    outer loop
      vertex 38.1 -55.6776 -1.27363
      vertex -38.1 -55.6195 -1.39875
      vertex 38.1 -55.6195 -1.39875
    endloop
  endfacet
  facet normal 0 -0.887944 -0.459952
    outer loop
      vertex -38.1 -55.6195 -1.39875
      vertex -38.1 -55.5561 -1.52123
      vertex 38.1 -55.6195 -1.39875
    endloop
  endfacet
  facet normal 0 -0.887944 -0.459952
    outer loop
      vertex 38.1 -55.6195 -1.39875
      vertex -38.1 -55.5561 -1.52123
      vertex 38.1 -55.5561 -1.52123
    endloop
  endfacet
  facet normal 0 -0.867128 -0.498085
    outer loop
      vertex -38.1 -55.5561 -1.52123
      vertex -38.1 -55.4873 -1.64084
      vertex 38.1 -55.5561 -1.52123
    endloop
  endfacet
  facet normal 0 -0.867128 -0.498085
    outer loop
      vertex 38.1 -55.5561 -1.52123
      vertex -38.1 -55.4873 -1.64084
      vertex 38.1 -55.4873 -1.64084
    endloop
  endfacet
  facet normal 0 -0.844678 -0.535275
    outer loop
      vertex -38.1 -55.4873 -1.64084
      vertex -38.1 -55.4135 -1.75736
      vertex 38.1 -55.4873 -1.64084
    endloop
  endfacet
  facet normal 0 -0.844678 -0.535275
    outer loop
      vertex 38.1 -55.4873 -1.64084
      vertex -38.1 -55.4135 -1.75736
      vertex 38.1 -55.4135 -1.75736
    endloop
  endfacet
  facet normal 0 -0.820628 -0.571462
    outer loop
      vertex -38.1 -55.4135 -1.75736
      vertex -38.1 -55.3347 -1.87055
      vertex 38.1 -55.4135 -1.75736
    endloop
  endfacet
  facet normal 0 -0.820628 -0.571462
    outer loop
      vertex 38.1 -55.4135 -1.75736
      vertex -38.1 -55.3347 -1.87055
      vertex 38.1 -55.3347 -1.87055
    endloop
  endfacet
  facet normal 0 -0.795031 -0.606569
    outer loop
      vertex -38.1 -55.3347 -1.87055
      vertex -38.1 -55.251 -1.98022
      vertex 38.1 -55.3347 -1.87055
    endloop
  endfacet
  facet normal 0 -0.795031 -0.606569
    outer loop
      vertex 38.1 -55.3347 -1.87055
      vertex -38.1 -55.251 -1.98022
      vertex 38.1 -55.251 -1.98022
    endloop
  endfacet
  facet normal 0 -0.76794 -0.640522
    outer loop
      vertex -38.1 -55.251 -1.98022
      vertex -38.1 -55.1627 -2.08615
      vertex 38.1 -55.251 -1.98022
    endloop
  endfacet
  facet normal 0 -0.76794 -0.640522
    outer loop
      vertex 38.1 -55.251 -1.98022
      vertex -38.1 -55.1627 -2.08615
      vertex 38.1 -55.1627 -2.08615
    endloop
  endfacet
  facet normal 0 -0.73939 -0.673277
    outer loop
      vertex -38.1 -55.1627 -2.08615
      vertex -38.1 -55.0698 -2.18814
      vertex 38.1 -55.1627 -2.08615
    endloop
  endfacet
  facet normal 0 -0.73939 -0.673277
    outer loop
      vertex 38.1 -55.1627 -2.08615
      vertex -38.1 -55.0698 -2.18814
      vertex 38.1 -55.0698 -2.18814
    endloop
  endfacet
  facet normal 0 -0.709457 -0.704749
    outer loop
      vertex -38.1 -55.0698 -2.18814
      vertex -38.1 -54.9726 -2.286
      vertex 38.1 -55.0698 -2.18814
    endloop
  endfacet
  facet normal 0 -0.709457 -0.704749
    outer loop
      vertex 38.1 -55.0698 -2.18814
      vertex -38.1 -54.9726 -2.286
      vertex 38.1 -54.9726 -2.286
    endloop
  endfacet
  facet normal 0 0.709457 -0.704749
    outer loop
      vertex 38.1 -50.5658 -2.286
      vertex -38.1 -50.5658 -2.286
      vertex -38.1 -50.4686 -2.18814
    endloop
  endfacet
  facet normal 0 0.709457 -0.704749
    outer loop
      vertex 38.1 -50.5658 -2.286
      vertex -38.1 -50.4686 -2.18814
      vertex 38.1 -50.4686 -2.18814
    endloop
  endfacet
  facet normal 0 0.73939 -0.673277
    outer loop
      vertex -38.1 -50.4686 -2.18814
      vertex -38.1 -50.3758 -2.08615
      vertex 38.1 -50.4686 -2.18814
    endloop
  endfacet
  facet normal 0 0.73939 -0.673277
    outer loop
      vertex 38.1 -50.4686 -2.18814
      vertex -38.1 -50.3758 -2.08615
      vertex 38.1 -50.3758 -2.08615
    endloop
  endfacet
  facet normal 0 0.76794 -0.640522
    outer loop
      vertex -38.1 -50.3758 -2.08615
      vertex -38.1 -50.2874 -1.98022
      vertex 38.1 -50.3758 -2.08615
    endloop
  endfacet
  facet normal 0 0.76794 -0.640522
    outer loop
      vertex 38.1 -50.3758 -2.08615
      vertex -38.1 -50.2874 -1.98022
      vertex 38.1 -50.2874 -1.98022
    endloop
  endfacet
  facet normal 0 0.795031 -0.606569
    outer loop
      vertex -38.1 -50.2874 -1.98022
      vertex -38.1 -50.2037 -1.87055
      vertex 38.1 -50.2874 -1.98022
    endloop
  endfacet
  facet normal 0 0.795031 -0.606569
    outer loop
      vertex 38.1 -50.2874 -1.98022
      vertex -38.1 -50.2037 -1.87055
      vertex 38.1 -50.2037 -1.87055
    endloop
  endfacet
  facet normal 0 0.820628 -0.571462
    outer loop
      vertex -38.1 -50.2037 -1.87055
      vertex -38.1 -50.1249 -1.75736
      vertex 38.1 -50.2037 -1.87055
    endloop
  endfacet
  facet normal 0 0.820628 -0.571462
    outer loop
      vertex 38.1 -50.2037 -1.87055
      vertex -38.1 -50.1249 -1.75736
      vertex 38.1 -50.1249 -1.75736
    endloop
  endfacet
  facet normal 0 0.844678 -0.535275
    outer loop
      vertex -38.1 -50.1249 -1.75736
      vertex -38.1 -50.0511 -1.64084
      vertex 38.1 -50.1249 -1.75736
    endloop
  endfacet
  facet normal 0 0.844678 -0.535275
    outer loop
      vertex 38.1 -50.1249 -1.75736
      vertex -38.1 -50.0511 -1.64084
      vertex 38.1 -50.0511 -1.64084
    endloop
  endfacet
  facet normal 0 0.867128 -0.498085
    outer loop
      vertex -38.1 -50.0511 -1.64084
      vertex -38.1 -49.9824 -1.52123
      vertex 38.1 -50.0511 -1.64084
    endloop
  endfacet
  facet normal 0 0.867128 -0.498085
    outer loop
      vertex 38.1 -50.0511 -1.64084
      vertex -38.1 -49.9824 -1.52123
      vertex 38.1 -49.9824 -1.52123
    endloop
  endfacet
  facet normal 0 0.887944 -0.459952
    outer loop
      vertex -38.1 -49.9824 -1.52123
      vertex -38.1 -49.9189 -1.39875
      vertex 38.1 -49.9824 -1.52123
    endloop
  endfacet
  facet normal 0 0.887944 -0.459952
    outer loop
      vertex 38.1 -49.9824 -1.52123
      vertex -38.1 -49.9189 -1.39875
      vertex 38.1 -49.9189 -1.39875
    endloop
  endfacet
  facet normal 0 0.907093 -0.420931
    outer loop
      vertex -38.1 -49.9189 -1.39875
      vertex -38.1 -49.8609 -1.27363
      vertex 38.1 -49.9189 -1.39875
    endloop
  endfacet
  facet normal 0 0.907093 -0.420931
    outer loop
      vertex 38.1 -49.9189 -1.39875
      vertex -38.1 -49.8609 -1.27363
      vertex 38.1 -49.8609 -1.27363
    endloop
  endfacet
  facet normal 0 0.924514 -0.381147
    outer loop
      vertex -38.1 -49.8609 -1.27363
      vertex -38.1 -49.8083 -1.1461
      vertex 38.1 -49.8609 -1.27363
    endloop
  endfacet
  facet normal 0 0.924514 -0.381147
    outer loop
      vertex 38.1 -49.8609 -1.27363
      vertex -38.1 -49.8083 -1.1461
      vertex 38.1 -49.8083 -1.1461
    endloop
  endfacet
  facet normal 0 0.940195 -0.340636
    outer loop
      vertex -38.1 -49.8083 -1.1461
      vertex -38.1 -49.7613 -1.01641
      vertex 38.1 -49.8083 -1.1461
    endloop
  endfacet
  facet normal 0 0.940195 -0.340636
    outer loop
      vertex 38.1 -49.8083 -1.1461
      vertex -38.1 -49.7613 -1.01641
      vertex 38.1 -49.7613 -1.01641
    endloop
  endfacet
  facet normal 0 0.954103 -0.299478
    outer loop
      vertex -38.1 -49.7613 -1.01641
      vertex -38.1 -49.72 -0.884802
      vertex 38.1 -49.7613 -1.01641
    endloop
  endfacet
  facet normal 0 0.954103 -0.299478
    outer loop
      vertex 38.1 -49.7613 -1.01641
      vertex -38.1 -49.72 -0.884802
      vertex 38.1 -49.72 -0.884802
    endloop
  endfacet
  facet normal 0 0.966211 -0.257753
    outer loop
      vertex -38.1 -49.72 -0.884802
      vertex -38.1 -49.6844 -0.751524
      vertex 38.1 -49.72 -0.884802
    endloop
  endfacet
  facet normal 0 0.966211 -0.257753
    outer loop
      vertex 38.1 -49.72 -0.884802
      vertex -38.1 -49.6844 -0.751524
      vertex 38.1 -49.6844 -0.751524
    endloop
  endfacet
  facet normal 0 0.976495 -0.215541
    outer loop
      vertex -38.1 -49.6844 -0.751524
      vertex -38.1 -49.6547 -0.616827
      vertex 38.1 -49.6844 -0.751524
    endloop
  endfacet
  facet normal 0 0.976495 -0.215541
    outer loop
      vertex 38.1 -49.6844 -0.751524
      vertex -38.1 -49.6547 -0.616827
      vertex 38.1 -49.6547 -0.616827
    endloop
  endfacet
  facet normal 0 0.984935 -0.172924
    outer loop
      vertex -38.1 -49.6547 -0.616827
      vertex -38.1 -49.6309 -0.480966
      vertex 38.1 -49.6547 -0.616827
    endloop
  endfacet
  facet normal 0 0.984935 -0.172924
    outer loop
      vertex 38.1 -49.6547 -0.616827
      vertex -38.1 -49.6309 -0.480966
      vertex 38.1 -49.6309 -0.480966
    endloop
  endfacet
  facet normal 0 0.991516 -0.129984
    outer loop
      vertex -38.1 -49.6309 -0.480966
      vertex -38.1 -49.6129 -0.344197
      vertex 38.1 -49.6309 -0.480966
    endloop
  endfacet
  facet normal 0 0.991516 -0.129984
    outer loop
      vertex 38.1 -49.6309 -0.480966
      vertex -38.1 -49.6129 -0.344197
      vertex 38.1 -49.6129 -0.344197
    endloop
  endfacet
  facet normal 0 0.996228 -0.086773
    outer loop
      vertex -38.1 -49.6129 -0.344197
      vertex -38.1 -49.601 -0.206778
      vertex 38.1 -49.6129 -0.344197
    endloop
  endfacet
  facet normal 0 0.996228 -0.086773
    outer loop
      vertex 38.1 -49.6129 -0.344197
      vertex -38.1 -49.601 -0.206778
      vertex 38.1 -49.601 -0.206778
    endloop
  endfacet
  facet normal 0 0.999057 -0.0434269
    outer loop
      vertex -38.1 -49.601 -0.206778
      vertex -38.1 -49.595 -0.0689695
      vertex 38.1 -49.601 -0.206778
    endloop
  endfacet
  facet normal 0 0.999057 -0.0434269
    outer loop
      vertex 38.1 -49.601 -0.206778
      vertex -38.1 -49.595 -0.0689695
      vertex 38.1 -49.595 -0.0689695
    endloop
  endfacet
  facet normal 0 1 0
    outer loop
      vertex -38.1 -49.595 -0.0689695
      vertex -38.1 -49.595 0.0689695
      vertex 38.1 -49.595 -0.0689695
    endloop
  endfacet
  facet normal 0 1 0
    outer loop
      vertex 38.1 -49.595 -0.0689695
      vertex -38.1 -49.595 0.0689695
      vertex 38.1 -49.595 0.0689695
    endloop
  endfacet
  facet normal 0 0.999057 0.0434269
    outer loop
      vertex -38.1 -49.595 0.0689695
      vertex -38.1 -49.601 0.206778
      vertex 38.1 -49.595 0.0689695
    endloop
  endfacet
  facet normal 0 0.999057 0.0434269
    outer loop
      vertex 38.1 -49.595 0.0689695
      vertex -38.1 -49.601 0.206778
      vertex 38.1 -49.601 0.206778
    endloop
  endfacet
  facet normal 0 0.996228 0.086773
    outer loop
      vertex -38.1 -49.601 0.206778
      vertex -38.1 -49.6129 0.344197
      vertex 38.1 -49.601 0.206778
    endloop
  endfacet
  facet normal 0 0.996228 0.086773
    outer loop
      vertex 38.1 -49.601 0.206778
      vertex -38.1 -49.6129 0.344197
      vertex 38.1 -49.6129 0.344197
    endloop
  endfacet
  facet normal 0 0.991516 0.129984
    outer loop
      vertex -38.1 -49.6129 0.344197
      vertex -38.1 -49.6309 0.480966
      vertex 38.1 -49.6129 0.344197
    endloop
  endfacet
  facet normal 0 0.991516 0.129984
    outer loop
      vertex 38.1 -49.6129 0.344197
      vertex -38.1 -49.6309 0.480966
      vertex 38.1 -49.6309 0.480966
    endloop
  endfacet
  facet normal 0 0.984935 0.172924
    outer loop
      vertex -38.1 -49.6309 0.480966
      vertex -38.1 -49.6547 0.616827
      vertex 38.1 -49.6309 0.480966
    endloop
  endfacet
  facet normal 0 0.984935 0.172924
    outer loop
      vertex 38.1 -49.6309 0.480966
      vertex -38.1 -49.6547 0.616827
      vertex 38.1 -49.6547 0.616827
    endloop
  endfacet
  facet normal 0 0.976495 0.215541
    outer loop
      vertex -38.1 -49.6547 0.616827
      vertex -38.1 -49.6844 0.751524
      vertex 38.1 -49.6547 0.616827
    endloop
  endfacet
  facet normal 0 0.976495 0.215541
    outer loop
      vertex 38.1 -49.6547 0.616827
      vertex -38.1 -49.6844 0.751524
      vertex 38.1 -49.6844 0.751524
    endloop
  endfacet
  facet normal 0 0.966211 0.257753
    outer loop
      vertex -38.1 -49.6844 0.751524
      vertex -38.1 -49.72 0.884802
      vertex 38.1 -49.6844 0.751524
    endloop
  endfacet
  facet normal 0 0.966211 0.257753
    outer loop
      vertex 38.1 -49.6844 0.751524
      vertex -38.1 -49.72 0.884802
      vertex 38.1 -49.72 0.884802
    endloop
  endfacet
  facet normal 0 0.954103 0.299478
    outer loop
      vertex -38.1 -49.72 0.884802
      vertex -38.1 -49.7613 1.01641
      vertex 38.1 -49.72 0.884802
    endloop
  endfacet
  facet normal 0 0.954103 0.299478
    outer loop
      vertex 38.1 -49.72 0.884802
      vertex -38.1 -49.7613 1.01641
      vertex 38.1 -49.7613 1.01641
    endloop
  endfacet
  facet normal 0 0.940195 0.340636
    outer loop
      vertex -38.1 -49.7613 1.01641
      vertex -38.1 -49.8083 1.1461
      vertex 38.1 -49.7613 1.01641
    endloop
  endfacet
  facet normal 0 0.940195 0.340636
    outer loop
      vertex 38.1 -49.7613 1.01641
      vertex -38.1 -49.8083 1.1461
      vertex 38.1 -49.8083 1.1461
    endloop
  endfacet
  facet normal 0 0.924514 0.381147
    outer loop
      vertex -38.1 -49.8083 1.1461
      vertex -38.1 -49.8609 1.27363
      vertex 38.1 -49.8083 1.1461
    endloop
  endfacet
  facet normal 0 0.924514 0.381147
    outer loop
      vertex 38.1 -49.8083 1.1461
      vertex -38.1 -49.8609 1.27363
      vertex 38.1 -49.8609 1.27363
    endloop
  endfacet
  facet normal 0 0.907093 0.420931
    outer loop
      vertex -38.1 -49.8609 1.27363
      vertex -38.1 -49.9189 1.39875
      vertex 38.1 -49.8609 1.27363
    endloop
  endfacet
  facet normal 0 0.907093 0.420931
    outer loop
      vertex 38.1 -49.8609 1.27363
      vertex -38.1 -49.9189 1.39875
      vertex 38.1 -49.9189 1.39875
    endloop
  endfacet
  facet normal 0 0.887944 0.459952
    outer loop
      vertex -38.1 -49.9189 1.39875
      vertex -38.1 -49.9824 1.52123
      vertex 38.1 -49.9189 1.39875
    endloop
  endfacet
  facet normal 0 0.887944 0.459952
    outer loop
      vertex 38.1 -49.9189 1.39875
      vertex -38.1 -49.9824 1.52123
      vertex 38.1 -49.9824 1.52123
    endloop
  endfacet
  facet normal 0 0.867128 0.498085
    outer loop
      vertex -38.1 -49.9824 1.52123
      vertex -38.1 -50.0511 1.64084
      vertex 38.1 -49.9824 1.52123
    endloop
  endfacet
  facet normal 0 0.867128 0.498085
    outer loop
      vertex 38.1 -49.9824 1.52123
      vertex -38.1 -50.0511 1.64084
      vertex 38.1 -50.0511 1.64084
    endloop
  endfacet
  facet normal 0 0.844678 0.535275
    outer loop
      vertex -38.1 -50.0511 1.64084
      vertex -38.1 -50.1249 1.75736
      vertex 38.1 -50.0511 1.64084
    endloop
  endfacet
  facet normal 0 0.844678 0.535275
    outer loop
      vertex 38.1 -50.0511 1.64084
      vertex -38.1 -50.1249 1.75736
      vertex 38.1 -50.1249 1.75736
    endloop
  endfacet
  facet normal 0 0.820628 0.571462
    outer loop
      vertex -38.1 -50.1249 1.75736
      vertex -38.1 -50.2037 1.87055
      vertex 38.1 -50.1249 1.75736
    endloop
  endfacet
  facet normal 0 0.820628 0.571462
    outer loop
      vertex 38.1 -50.1249 1.75736
      vertex -38.1 -50.2037 1.87055
      vertex 38.1 -50.2037 1.87055
    endloop
  endfacet
  facet normal 0 0.795031 0.606569
    outer loop
      vertex -38.1 -50.2037 1.87055
      vertex -38.1 -50.2874 1.98022
      vertex 38.1 -50.2037 1.87055
    endloop
  endfacet
  facet normal 0 0.795031 0.606569
    outer loop
      vertex 38.1 -50.2037 1.87055
      vertex -38.1 -50.2874 1.98022
      vertex 38.1 -50.2874 1.98022
    endloop
  endfacet
  facet normal 0 0.76794 0.640522
    outer loop
      vertex -38.1 -50.2874 1.98022
      vertex -38.1 -50.3758 2.08615
      vertex 38.1 -50.2874 1.98022
    endloop
  endfacet
  facet normal 0 0.76794 0.640522
    outer loop
      vertex 38.1 -50.2874 1.98022
      vertex -38.1 -50.3758 2.08615
      vertex 38.1 -50.3758 2.08615
    endloop
  endfacet
  facet normal 0 0.73939 0.673277
    outer loop
      vertex -38.1 -50.3758 2.08615
      vertex -38.1 -50.4686 2.18814
      vertex 38.1 -50.3758 2.08615
    endloop
  endfacet
  facet normal 0 0.73939 0.673277
    outer loop
      vertex 38.1 -50.3758 2.08615
      vertex -38.1 -50.4686 2.18814
      vertex 38.1 -50.4686 2.18814
    endloop
  endfacet
  facet normal 0 0.709457 0.704749
    outer loop
      vertex -38.1 -50.4686 2.18814
      vertex -38.1 -50.5658 2.286
      vertex 38.1 -50.4686 2.18814
    endloop
  endfacet
  facet normal 0 0.709457 0.704749
    outer loop
      vertex 38.1 -50.4686 2.18814
      vertex -38.1 -50.5658 2.286
      vertex 38.1 -50.5658 2.286
    endloop
  endfacet
  facet normal -1 0 0
    outer loop
      vertex -22.225 -53.4042 -2.286
      vertex -22.225 -53.4042 2.286
      vertex -22.225 -52.1342 -2.286
    endloop
  endfacet
  facet normal -1 0 0
    outer loop
      vertex -22.225 -53.4042 2.286
      vertex -22.225 -52.1342 2.286
      vertex -22.225 -52.1342 -2.286
    endloop
  endfacet
  facet normal 0 1 0
    outer loop
      vertex -22.225 -53.4042 -2.286
      vertex -38.1 -53.4042 -2.286
      vertex -22.225 -53.4042 2.286
    endloop
  endfacet
  facet normal 0 1 0
    outer loop
      vertex -38.1 -53.4042 -2.286
      vertex -38.1 -53.4042 2.286
      vertex -22.225 -53.4042 2.286
    endloop
  endfacet
  facet normal 0 0 1
    outer loop
      vertex 22.225 -52.1342 2.286
      vertex 38.1 -52.1342 2.286
      vertex 38.1 -50.5658 2.286
    endloop
  endfacet
  facet normal 0 0 1
    outer loop
      vertex -38.1 -54.9726 2.286
      vertex 38.1 -54.9726 2.286
      vertex 22.225 -53.4042 2.286
    endloop
  endfacet
  facet normal 0 0 1
    outer loop
      vertex 38.1 -54.9726 2.286
      vertex 38.1 -53.4042 2.286
      vertex 22.225 -53.4042 2.286
    endloop
  endfacet
  facet normal 0 0 1
    outer loop
      vertex -38.1 -50.5658 2.286
      vertex -38.1 -52.1342 2.286
      vertex -22.225 -52.1342 2.286
    endloop
  endfacet
  facet normal 0 0 1
    outer loop
      vertex -38.1 -53.4042 2.286
      vertex -38.1 -54.9726 2.286
      vertex -22.225 -53.4042 2.286
    endloop
  endfacet
  facet normal 0 0 1
    outer loop
      vertex -38.1 -54.9726 2.286
      vertex 22.225 -53.4042 2.286
      vertex -22.225 -53.4042 2.286
    endloop
  endfacet
  facet normal 0 0 1
    outer loop
      vertex -22.225 -53.4042 2.286
      vertex 22.225 -53.4042 2.286
      vertex -22.225 -52.1342 2.286
    endloop
  endfacet
  facet normal 0 0 1
    outer loop
      vertex 22.225 -53.4042 2.286
      vertex 22.225 -52.1342 2.286
      vertex -22.225 -52.1342 2.286
    endloop
  endfacet
  facet normal 0 0 1
    outer loop
      vertex -22.225 -52.1342 2.286
      vertex 22.225 -52.1342 2.286
      vertex -38.1 -50.5658 2.286
    endloop
  endfacet
  facet normal 0 0 1
    outer loop
      vertex 22.225 -52.1342 2.286
      vertex 38.1 -50.5658 2.286
      vertex -38.1 -50.5658 2.286
    endloop
  endfacet
  facet normal 0 -1 0
    outer loop
      vertex -38.1 -52.1342 -2.286
      vertex -22.225 -52.1342 -2.286
      vertex -38.1 -52.1342 2.286
    endloop
  endfacet
  facet normal 0 -1 0
    outer loop
      vertex -22.225 -52.1342 -2.286
      vertex -22.225 -52.1342 2.286
      vertex -38.1 -52.1342 2.286
    endloop
  endfacet
  facet normal 0 0 -1
    outer loop
      vertex -22.225 -52.1342 -2.286
      vertex -38.1 -52.1342 -2.286
      vertex -38.1 -50.5658 -2.286
    endloop
  endfacet
  facet normal 0 0 -1
    outer loop
      vertex 38.1 -54.9726 -2.286
      vertex -38.1 -54.9726 -2.286
      vertex -22.225 -53.4042 -2.286
    endloop
  endfacet
  facet normal 0 0 -1
    outer loop
      vertex -38.1 -54.9726 -2.286
      vertex -38.1 -53.4042 -2.286
      vertex -22.225 -53.4042 -2.286
    endloop
  endfacet
  facet normal 0 0 -1
    outer loop
      vertex 38.1 -50.5658 -2.286
      vertex 38.1 -52.1342 -2.286
      vertex 22.225 -52.1342 -2.286
    endloop
  endfacet
  facet normal 0 0 -1
    outer loop
      vertex 38.1 -53.4042 -2.286
      vertex 38.1 -54.9726 -2.286
      vertex 22.225 -53.4042 -2.286
    endloop
  endfacet
  facet normal 0 0 -1
    outer loop
      vertex 38.1 -54.9726 -2.286
      vertex -22.225 -53.4042 -2.286
      vertex 22.225 -53.4042 -2.286
    endloop
  endfacet
  facet normal 0 0 -1
    outer loop
      vertex 22.225 -53.4042 -2.286
      vertex -22.225 -53.4042 -2.286
      vertex 22.225 -52.1342 -2.286
    endloop
  endfacet
  facet normal 0 0 -1
    outer loop
      vertex -22.225 -53.4042 -2.286
      vertex -22.225 -52.1342 -2.286
      vertex 22.225 -52.1342 -2.286
    endloop
  endfacet
  facet normal 0 0 -1
    outer loop
      vertex 22.225 -52.1342 -2.286
      vertex -22.225 -52.1342 -2.286
      vertex 38.1 -50.5658 -2.286
    endloop
  endfacet
  facet normal 0 0 -1
    outer loop
      vertex -22.225 -52.1342 -2.286
      vertex -38.1 -50.5658 -2.286
      vertex 38.1 -50.5658 -2.286
    endloop
  endfacet
  facet normal 0 -1 0
    outer loop
      vertex 22.225 -52.1342 -2.286
      vertex 38.1 -52.1342 -2.286
      vertex 22.225 -52.1342 2.286
    endloop
  endfacet
  facet normal 0 -1 0
    outer loop
      vertex 38.1 -52.1342 -2.286
      vertex 38.1 -52.1342 2.286
      vertex 22.225 -52.1342 2.286
    endloop
  endfacet
  facet normal 0 1 0
    outer loop
      vertex 38.1 -53.4042 -2.286
      vertex 22.225 -53.4042 -2.286
      vertex 38.1 -53.4042 2.286
    endloop
  endfacet
  facet normal 0 1 0
    outer loop
      vertex 22.225 -53.4042 -2.286
      vertex 22.225 -53.4042 2.286
      vertex 38.1 -53.4042 2.286
    endloop
  endfacet
endsolid Onshape
