solid Onshape
  facet normal 0 0 -1
    outer loop
      vertex -55.5625 -103.413 -5.66822
      vertex 49.2125 -103.413 -5.66822
      vertex -55.5625 -109.588 -5.66822
    endloop
  endfacet
  facet normal 0 0 -1
    outer loop
      vertex 49.2125 -103.413 -5.66822
      vertex 49.2125 -109.588 -5.66822
      vertex -55.5625 -109.588 -5.66822
    endloop
  endfacet
  facet normal -1 0 0
    outer loop
      vertex -33.3375 -110.467 -3.29485
      vertex -33.3375 -110.469 -3.12314
      vertex -33.3375 -102.551 -2.78033
    endloop
  endfacet
  facet normal -1 0 0
    outer loop
      vertex -33.3375 -110.449 -2.77262
      vertex -33.3375 -102.552 -2.77262
      vertex -33.3375 -110.45 -2.78033
    endloop
  endfacet
  facet normal -1 0 0
    outer loop
      vertex -33.3375 -102.552 -2.77262
      vertex -33.3375 -102.551 -2.78033
      vertex -33.3375 -110.45 -2.78033
    endloop
  endfacet
  facet normal -1 0 0
    outer loop
      vertex -33.3375 -110.45 -2.78033
      vertex -33.3375 -102.551 -2.78033
      vertex -33.3375 -110.463 -2.95153
    endloop
  endfacet
  facet normal -1 0 0
    outer loop
      vertex -33.3375 -102.551 -2.78033
      vertex -33.3375 -110.469 -3.12314
      vertex -33.3375 -110.463 -2.95153
    endloop
  endfacet
  facet normal -1 0 0
    outer loop
      vertex -33.3375 -110.467 -3.29485
      vertex -33.3375 -102.551 -2.78033
      vertex -33.3375 -110.459 -3.46633
    endloop
  endfacet
  facet normal -1 0 0
    outer loop
      vertex -33.3375 -102.551 -2.78033
      vertex -33.3375 -102.538 -2.95153
      vertex -33.3375 -110.459 -3.46633
    endloop
  endfacet
  facet normal -1 0 0
    outer loop
      vertex -33.3375 -110.459 -3.46633
      vertex -33.3375 -102.538 -2.95153
      vertex -33.3375 -102.532 -3.12314
    endloop
  endfacet
  facet normal -1 0 0
    outer loop
      vertex -33.3375 -102.552 -3.57738
      vertex -33.3375 -110.449 -3.57738
      vertex -33.3375 -102.542 -3.46633
    endloop
  endfacet
  facet normal -1 0 0
    outer loop
      vertex -33.3375 -110.449 -3.57738
      vertex -33.3375 -110.459 -3.46633
      vertex -33.3375 -102.542 -3.46633
    endloop
  endfacet
  facet normal -1 0 0
    outer loop
      vertex -33.3375 -102.542 -3.46633
      vertex -33.3375 -110.459 -3.46633
      vertex -33.3375 -102.534 -3.29485
    endloop
  endfacet
  facet normal -1 0 0
    outer loop
      vertex -33.3375 -110.459 -3.46633
      vertex -33.3375 -102.532 -3.12314
      vertex -33.3375 -102.534 -3.29485
    endloop
  endfacet
  facet normal 0 0 -1
    outer loop
      vertex -33.3375 -102.552 -2.77262
      vertex -33.3375 -110.449 -2.77262
      vertex -55.5625 -102.552 -2.77262
    endloop
  endfacet
  facet normal 0 0 -1
    outer loop
      vertex -33.3375 -110.449 -2.77262
      vertex -55.5625 -110.449 -2.77262
      vertex -55.5625 -102.552 -2.77262
    endloop
  endfacet
  facet normal 1 0 0
    outer loop
      vertex 26.9875 -102.597 -2.46038
      vertex 26.9875 -110.404 -2.46038
      vertex 26.9875 -102.572 -2.60988
    endloop
  endfacet
  facet normal 1 0 0
    outer loop
      vertex 26.9875 -110.404 -2.46038
      vertex 26.9875 -110.429 -2.60988
      vertex 26.9875 -102.572 -2.60988
    endloop
  endfacet
  facet normal 1 0 0
    outer loop
      vertex 26.9875 -102.572 -2.60988
      vertex 26.9875 -110.429 -2.60988
      vertex 26.9875 -110.45 -2.78033
    endloop
  endfacet
  facet normal 1 0 0
    outer loop
      vertex 26.9875 -110.45 -2.78033
      vertex 26.9875 -110.463 -2.95153
      vertex 26.9875 -102.572 -2.60988
    endloop
  endfacet
  facet normal 1 0 0
    outer loop
      vertex 26.9875 -110.463 -2.95153
      vertex 26.9875 -110.469 -3.12314
      vertex 26.9875 -102.572 -2.60988
    endloop
  endfacet
  facet normal 1 0 0
    outer loop
      vertex 26.9875 -102.572 -2.60988
      vertex 26.9875 -110.469 -3.12314
      vertex 26.9875 -110.467 -3.29485
    endloop
  endfacet
  facet normal 1 0 0
    outer loop
      vertex 26.9875 -110.467 -3.29485
      vertex 26.9875 -110.459 -3.46633
      vertex 26.9875 -102.572 -2.60988
    endloop
  endfacet
  facet normal 1 0 0
    outer loop
      vertex 26.9875 -110.459 -3.46633
      vertex 26.9875 -110.442 -3.63727
      vertex 26.9875 -102.572 -2.60988
    endloop
  endfacet
  facet normal 1 0 0
    outer loop
      vertex 26.9875 -102.572 -2.60988
      vertex 26.9875 -110.442 -3.63727
      vertex 26.9875 -110.419 -3.80734
    endloop
  endfacet
  facet normal 1 0 0
    outer loop
      vertex 26.9875 -110.404 -3.88961
      vertex 26.9875 -102.597 -3.88961
      vertex 26.9875 -110.419 -3.80734
    endloop
  endfacet
  facet normal 1 0 0
    outer loop
      vertex 26.9875 -102.597 -3.88961
      vertex 26.9875 -102.582 -3.80734
      vertex 26.9875 -110.419 -3.80734
    endloop
  endfacet
  facet normal 1 0 0
    outer loop
      vertex 26.9875 -110.419 -3.80734
      vertex 26.9875 -102.582 -3.80734
      vertex 26.9875 -102.559 -3.63727
    endloop
  endfacet
  facet normal 1 0 0
    outer loop
      vertex 26.9875 -102.559 -3.63727
      vertex 26.9875 -102.542 -3.46633
      vertex 26.9875 -110.419 -3.80734
    endloop
  endfacet
  facet normal 1 0 0
    outer loop
      vertex 26.9875 -102.542 -3.46633
      vertex 26.9875 -102.534 -3.29485
      vertex 26.9875 -110.419 -3.80734
    endloop
  endfacet
  facet normal 1 0 0
    outer loop
      vertex 26.9875 -110.419 -3.80734
      vertex 26.9875 -102.534 -3.29485
      vertex 26.9875 -102.532 -3.12314
    endloop
  endfacet
  facet normal 1 0 0
    outer loop
      vertex 26.9875 -102.532 -3.12314
      vertex 26.9875 -102.538 -2.95153
      vertex 26.9875 -110.419 -3.80734
    endloop
  endfacet
  facet normal 1 0 0
    outer loop
      vertex 26.9875 -102.538 -2.95153
      vertex 26.9875 -102.551 -2.78033
      vertex 26.9875 -110.419 -3.80734
    endloop
  endfacet
  facet normal 1 0 0
    outer loop
      vertex 26.9875 -110.419 -3.80734
      vertex 26.9875 -102.551 -2.78033
      vertex 26.9875 -102.572 -2.60988
    endloop
  endfacet
  facet normal 0 0 -1
    outer loop
      vertex 26.9875 -110.404 -2.46038
      vertex 26.9875 -102.597 -2.46038
      vertex 49.2125 -110.404 -2.46038
    endloop
  endfacet
  facet normal 0 0 -1
    outer loop
      vertex 26.9875 -102.597 -2.46038
      vertex 49.2125 -102.597 -2.46038
      vertex 49.2125 -110.404 -2.46038
    endloop
  endfacet
  facet normal 0 -0.994048 -0.108941
    outer loop
      vertex -33.3375 -110.449 -3.57738
      vertex -55.5625 -110.449 -3.57738
      vertex -55.5625 -110.442 -3.63727
    endloop
  endfacet
  facet normal 0 0.992541 0.121912
    outer loop
      vertex -33.3375 -102.552 -2.77262
      vertex -55.5625 -102.552 -2.77262
      vertex -55.5625 -102.572 -2.60988
    endloop
  endfacet
  facet normal 0 0.981593 -0.190985
    outer loop
      vertex 26.9875 -102.597 -3.88961
      vertex 49.2125 -102.597 -3.88961
      vertex 49.2125 -102.613 -3.97623
    endloop
  endfacet
  facet normal -2.30789e-5 0.985487 -0.169748
    outer loop
      vertex 26.9875 -102.582 -3.80734
      vertex 26.9875 -102.597 -3.88961
      vertex -55.5625 -102.613 -3.97623
    endloop
  endfacet
  facet normal 0 0.994048 -0.108941
    outer loop
      vertex -55.5625 -102.559 -3.63727
      vertex -55.5625 -102.552 -3.57738
      vertex -33.3375 -102.552 -3.57738
    endloop
  endfacet
  facet normal 0 0.983543 -0.180672
    outer loop
      vertex -55.5625 -102.613 -3.97623
      vertex -55.5625 -102.582 -3.80734
      vertex 26.9875 -102.582 -3.80734
    endloop
  endfacet
  facet normal 0 0.990441 -0.137934
    outer loop
      vertex -55.5625 -102.582 -3.80734
      vertex -55.5625 -102.559 -3.63727
      vertex 26.9875 -102.582 -3.80734
    endloop
  endfacet
  facet normal 0 0.990441 -0.137934
    outer loop
      vertex 26.9875 -102.582 -3.80734
      vertex -55.5625 -102.559 -3.63727
      vertex 26.9875 -102.559 -3.63727
    endloop
  endfacet
  facet normal 0 0.994048 -0.108941
    outer loop
      vertex -55.5625 -102.559 -3.63727
      vertex -33.3375 -102.552 -3.57738
      vertex 26.9875 -102.559 -3.63727
    endloop
  endfacet
  facet normal 1.40609e-5 0.995483 -0.0949358
    outer loop
      vertex 26.9875 -102.559 -3.63727
      vertex -33.3375 -102.552 -3.57738
      vertex 26.9875 -102.542 -3.46633
    endloop
  endfacet
  facet normal 0 0.996177 -0.087358
    outer loop
      vertex -33.3375 -102.552 -3.57738
      vertex -33.3375 -102.542 -3.46633
      vertex 26.9875 -102.542 -3.46633
    endloop
  endfacet
  facet normal 0 0.998655 -0.0518499
    outer loop
      vertex -33.3375 -102.542 -3.46633
      vertex -33.3375 -102.534 -3.29485
      vertex 26.9875 -102.542 -3.46633
    endloop
  endfacet
  facet normal 0 0.998655 -0.0518499
    outer loop
      vertex 26.9875 -102.542 -3.46633
      vertex -33.3375 -102.534 -3.29485
      vertex 26.9875 -102.534 -3.29485
    endloop
  endfacet
  facet normal 0 0.999963 -0.00854766
    outer loop
      vertex -33.3375 -102.534 -3.29485
      vertex -33.3375 -102.532 -3.12314
      vertex 26.9875 -102.534 -3.29485
    endloop
  endfacet
  facet normal 0 0.999963 -0.00854766
    outer loop
      vertex 26.9875 -102.534 -3.29485
      vertex -33.3375 -102.532 -3.12314
      vertex 26.9875 -102.532 -3.12314
    endloop
  endfacet
  facet normal 0 0.999397 0.0347113
    outer loop
      vertex -33.3375 -102.532 -3.12314
      vertex -33.3375 -102.538 -2.95153
      vertex 26.9875 -102.532 -3.12314
    endloop
  endfacet
  facet normal 0 0.999397 0.0347113
    outer loop
      vertex 26.9875 -102.532 -3.12314
      vertex -33.3375 -102.538 -2.95153
      vertex 26.9875 -102.538 -2.95153
    endloop
  endfacet
  facet normal 0 0.996962 0.0778837
    outer loop
      vertex -33.3375 -102.538 -2.95153
      vertex -33.3375 -102.551 -2.78033
      vertex 26.9875 -102.538 -2.95153
    endloop
  endfacet
  facet normal 0 0.996962 0.0778837
    outer loop
      vertex 26.9875 -102.538 -2.95153
      vertex -33.3375 -102.551 -2.78033
      vertex 26.9875 -102.551 -2.78033
    endloop
  endfacet
  facet normal 0 0.992662 0.120926
    outer loop
      vertex -33.3375 -102.551 -2.78033
      vertex 26.9875 -102.572 -2.60988
      vertex 26.9875 -102.551 -2.78033
    endloop
  endfacet
  facet normal 0 0.983199 0.182538
    outer loop
      vertex 49.2125 -102.6 -2.44048
      vertex 49.2125 -102.597 -2.46038
      vertex 26.9875 -102.597 -2.46038
    endloop
  endfacet
  facet normal 2.70045e-6 -0.992662 0.120926
    outer loop
      vertex -33.3375 -110.449 -2.77262
      vertex 26.9875 -110.45 -2.78033
      vertex 26.9875 -110.429 -2.60988
    endloop
  endfacet
  facet normal 0 -0.992541 0.121912
    outer loop
      vertex -55.5625 -110.449 -2.77262
      vertex -33.3375 -110.449 -2.77262
      vertex -55.5625 -110.429 -2.60988
    endloop
  endfacet
  facet normal 0 -0.992541 0.121912
    outer loop
      vertex -33.3375 -110.449 -2.77262
      vertex 26.9875 -110.429 -2.60988
      vertex -55.5625 -110.429 -2.60988
    endloop
  endfacet
  facet normal 0 -0.986495 0.163793
    outer loop
      vertex -55.5625 -110.429 -2.60988
      vertex 26.9875 -110.429 -2.60988
      vertex -55.5625 -110.401 -2.44048
    endloop
  endfacet
  facet normal -5.29094e-6 -0.986908 0.161284
    outer loop
      vertex 26.9875 -110.429 -2.60988
      vertex 26.9875 -110.404 -2.46038
      vertex -55.5625 -110.401 -2.44048
    endloop
  endfacet
  facet normal 0 -0.994985 0.100024
    outer loop
      vertex -33.3375 -110.449 -2.77262
      vertex -33.3375 -110.45 -2.78033
      vertex 26.9875 -110.45 -2.78033
    endloop
  endfacet
  facet normal 0 -0.996959 0.0779268
    outer loop
      vertex -33.3375 -110.45 -2.78033
      vertex -33.3375 -110.463 -2.95153
      vertex 26.9875 -110.45 -2.78033
    endloop
  endfacet
  facet normal 0 -0.996959 0.0779268
    outer loop
      vertex 26.9875 -110.45 -2.78033
      vertex -33.3375 -110.463 -2.95153
      vertex 26.9875 -110.463 -2.95153
    endloop
  endfacet
  facet normal 0 -0.999399 0.0346679
    outer loop
      vertex -33.3375 -110.463 -2.95153
      vertex -33.3375 -110.469 -3.12314
      vertex 26.9875 -110.463 -2.95153
    endloop
  endfacet
  facet normal 0 -0.999399 0.0346679
    outer loop
      vertex 26.9875 -110.463 -2.95153
      vertex -33.3375 -110.469 -3.12314
      vertex 26.9875 -110.469 -3.12314
    endloop
  endfacet
  facet normal 0 -0.999963 -0.00854766
    outer loop
      vertex -33.3375 -110.469 -3.12314
      vertex -33.3375 -110.467 -3.29485
      vertex 26.9875 -110.469 -3.12314
    endloop
  endfacet
  facet normal 0 -0.999963 -0.00854766
    outer loop
      vertex 26.9875 -110.469 -3.12314
      vertex -33.3375 -110.467 -3.29485
      vertex 26.9875 -110.467 -3.29485
    endloop
  endfacet
  facet normal 0 -0.998657 -0.0518067
    outer loop
      vertex -33.3375 -110.467 -3.29485
      vertex -33.3375 -110.459 -3.46633
      vertex 26.9875 -110.467 -3.29485
    endloop
  endfacet
  facet normal 2.15935e-5 -0.996171 -0.0874244
    outer loop
      vertex -33.3375 -110.449 -3.57738
      vertex 26.9875 -110.442 -3.63727
      vertex -33.3375 -110.459 -3.46633
    endloop
  endfacet
  facet normal 0 -0.995479 -0.0949788
    outer loop
      vertex 26.9875 -110.442 -3.63727
      vertex 26.9875 -110.459 -3.46633
      vertex -33.3375 -110.459 -3.46633
    endloop
  endfacet
  facet normal 0 -0.998657 -0.0518067
    outer loop
      vertex -33.3375 -110.459 -3.46633
      vertex 26.9875 -110.459 -3.46633
      vertex 26.9875 -110.467 -3.29485
    endloop
  endfacet
  facet normal 0 -0.994048 -0.108941
    outer loop
      vertex -33.3375 -110.449 -3.57738
      vertex -55.5625 -110.442 -3.63727
      vertex 26.9875 -110.442 -3.63727
    endloop
  endfacet
  facet normal 0 -0.990441 -0.137934
    outer loop
      vertex -55.5625 -110.442 -3.63727
      vertex -55.5625 -110.419 -3.80734
      vertex 26.9875 -110.442 -3.63727
    endloop
  endfacet
  facet normal 0 -0.990441 -0.137934
    outer loop
      vertex 26.9875 -110.442 -3.63727
      vertex -55.5625 -110.419 -3.80734
      vertex 26.9875 -110.419 -3.80734
    endloop
  endfacet
  facet normal 0 -0.981593 -0.190985
    outer loop
      vertex 49.2125 -110.388 -3.97623
      vertex 49.2125 -110.404 -3.88961
      vertex 26.9875 -110.404 -3.88961
    endloop
  endfacet
  facet normal 0 -0.985487 -0.169748
    outer loop
      vertex 26.9875 -110.419 -3.80734
      vertex -55.5625 -110.419 -3.80734
      vertex 26.9875 -110.404 -3.88961
    endloop
  endfacet
  facet normal -1.12201e-5 -0.983543 -0.180672
    outer loop
      vertex -55.5625 -110.419 -3.80734
      vertex -55.5625 -110.388 -3.97623
      vertex 26.9875 -110.404 -3.88961
    endloop
  endfacet
  facet normal 0 -0.981593 -0.190985
    outer loop
      vertex 26.9875 -110.404 -3.88961
      vertex -55.5625 -110.388 -3.97623
      vertex 49.2125 -110.388 -3.97623
    endloop
  endfacet
  facet normal 0 -0.974814 -0.22302
    outer loop
      vertex -55.5625 -110.388 -3.97623
      vertex -55.5625 -110.349 -4.14362
      vertex 49.2125 -110.388 -3.97623
    endloop
  endfacet
  facet normal 0 -0.974814 -0.22302
    outer loop
      vertex 49.2125 -110.388 -3.97623
      vertex -55.5625 -110.349 -4.14362
      vertex 49.2125 -110.349 -4.14362
    endloop
  endfacet
  facet normal 0 -0.964254 -0.264979
    outer loop
      vertex -55.5625 -110.349 -4.14362
      vertex -55.5625 -110.304 -4.3092
      vertex 49.2125 -110.349 -4.14362
    endloop
  endfacet
  facet normal 0 -0.964254 -0.264979
    outer loop
      vertex 49.2125 -110.349 -4.14362
      vertex -55.5625 -110.304 -4.3092
      vertex 49.2125 -110.304 -4.3092
    endloop
  endfacet
  facet normal 0 -0.951885 -0.306456
    outer loop
      vertex -55.5625 -110.304 -4.3092
      vertex -55.5625 -110.251 -4.47266
      vertex 49.2125 -110.304 -4.3092
    endloop
  endfacet
  facet normal 0 -0.951885 -0.306456
    outer loop
      vertex 49.2125 -110.304 -4.3092
      vertex -55.5625 -110.251 -4.47266
      vertex 49.2125 -110.251 -4.47266
    endloop
  endfacet
  facet normal 0 -0.937743 -0.347331
    outer loop
      vertex -55.5625 -110.251 -4.47266
      vertex -55.5625 -110.191 -4.63368
      vertex 49.2125 -110.251 -4.47266
    endloop
  endfacet
  facet normal 0 -0.937743 -0.347331
    outer loop
      vertex 49.2125 -110.251 -4.47266
      vertex -55.5625 -110.191 -4.63368
      vertex 49.2125 -110.191 -4.63368
    endloop
  endfacet
  facet normal 0 -0.921846 -0.387556
    outer loop
      vertex -55.5625 -110.191 -4.63368
      vertex -55.5625 -110.125 -4.79197
      vertex 49.2125 -110.191 -4.63368
    endloop
  endfacet
  facet normal 0 -0.921846 -0.387556
    outer loop
      vertex 49.2125 -110.191 -4.63368
      vertex -55.5625 -110.125 -4.79197
      vertex 49.2125 -110.125 -4.79197
    endloop
  endfacet
  facet normal 0 -0.904197 -0.427116
    outer loop
      vertex -55.5625 -110.125 -4.79197
      vertex -55.5625 -110.052 -4.94724
      vertex 49.2125 -110.125 -4.79197
    endloop
  endfacet
  facet normal 0 -0.904197 -0.427116
    outer loop
      vertex 49.2125 -110.125 -4.79197
      vertex -55.5625 -110.052 -4.94724
      vertex 49.2125 -110.052 -4.94724
    endloop
  endfacet
  facet normal 0 -0.884897 -0.465787
    outer loop
      vertex -55.5625 -110.052 -4.94724
      vertex -55.5625 -109.972 -5.09919
      vertex 49.2125 -110.052 -4.94724
    endloop
  endfacet
  facet normal 0 -0.884897 -0.465787
    outer loop
      vertex 49.2125 -110.052 -4.94724
      vertex -55.5625 -109.972 -5.09919
      vertex 49.2125 -109.972 -5.09919
    endloop
  endfacet
  facet normal 0 -0.863904 -0.503656
    outer loop
      vertex -55.5625 -109.972 -5.09919
      vertex -55.5625 -109.885 -5.24754
      vertex 49.2125 -109.972 -5.09919
    endloop
  endfacet
  facet normal 0 -0.863904 -0.503656
    outer loop
      vertex 49.2125 -109.972 -5.09919
      vertex -55.5625 -109.885 -5.24754
      vertex 49.2125 -109.885 -5.24754
    endloop
  endfacet
  facet normal 0 -0.841317 -0.540541
    outer loop
      vertex -55.5625 -109.885 -5.24754
      vertex -55.5625 -109.792 -5.392
      vertex 49.2125 -109.885 -5.24754
    endloop
  endfacet
  facet normal 0 -0.841317 -0.540541
    outer loop
      vertex 49.2125 -109.885 -5.24754
      vertex -55.5625 -109.792 -5.392
      vertex 49.2125 -109.792 -5.392
    endloop
  endfacet
  facet normal 0 -0.817149 -0.576426
    outer loop
      vertex -55.5625 -109.792 -5.392
      vertex -55.5625 -109.693 -5.53232
      vertex 49.2125 -109.792 -5.392
    endloop
  endfacet
  facet normal 0 -0.817149 -0.576426
    outer loop
      vertex 49.2125 -109.792 -5.392
      vertex -55.5625 -109.693 -5.53232
      vertex 49.2125 -109.693 -5.53232
    endloop
  endfacet
  facet normal 0 -0.791455 -0.611228
    outer loop
      vertex -55.5625 -109.693 -5.53232
      vertex -55.5625 -109.588 -5.66822
      vertex 49.2125 -109.693 -5.53232
    endloop
  endfacet
  facet normal 0 -0.791455 -0.611228
    outer loop
      vertex 49.2125 -109.693 -5.53232
      vertex -55.5625 -109.588 -5.66822
      vertex 49.2125 -109.588 -5.66822
    endloop
  endfacet
  facet normal 5.98587e-5 0.994985 0.100024
    outer loop
      vertex -33.3375 -102.551 -2.78033
      vertex -33.3375 -102.552 -2.77262
      vertex 26.9875 -102.572 -2.60988
    endloop
  endfacet
  facet normal 0 0.992541 0.121912
    outer loop
      vertex -33.3375 -102.552 -2.77262
      vertex -55.5625 -102.572 -2.60988
      vertex 26.9875 -102.572 -2.60988
    endloop
  endfacet
  facet normal 0 0.986908 0.161284
    outer loop
      vertex 26.9875 -102.572 -2.60988
      vertex -55.5625 -102.572 -2.60988
      vertex 26.9875 -102.597 -2.46038
    endloop
  endfacet
  facet normal -4.66728e-6 0.986495 0.163793
    outer loop
      vertex -55.5625 -102.572 -2.60988
      vertex -55.5625 -102.6 -2.44048
      vertex 26.9875 -102.597 -2.46038
    endloop
  endfacet
  facet normal 0 0.983199 0.182538
    outer loop
      vertex 26.9875 -102.597 -2.46038
      vertex -55.5625 -102.6 -2.44048
      vertex 49.2125 -102.6 -2.44048
    endloop
  endfacet
  facet normal 0 0.978495 0.206273
    outer loop
      vertex -55.5625 -102.6 -2.44048
      vertex -55.5625 -102.636 -2.27246
      vertex 49.2125 -102.6 -2.44048
    endloop
  endfacet
  facet normal 0 0.978495 0.206273
    outer loop
      vertex 49.2125 -102.6 -2.44048
      vertex -55.5625 -102.636 -2.27246
      vertex 49.2125 -102.636 -2.27246
    endloop
  endfacet
  facet normal 0 0.968646 0.248445
    outer loop
      vertex -55.5625 -102.636 -2.27246
      vertex -55.5625 -102.678 -2.10613
      vertex 49.2125 -102.636 -2.27246
    endloop
  endfacet
  facet normal 0 0.968646 0.248445
    outer loop
      vertex 49.2125 -102.636 -2.27246
      vertex -55.5625 -102.678 -2.10613
      vertex 49.2125 -102.678 -2.10613
    endloop
  endfacet
  facet normal 0 0.956997 0.290099
    outer loop
      vertex -55.5625 -102.678 -2.10613
      vertex -55.5625 -102.728 -1.94179
      vertex 49.2125 -102.678 -2.10613
    endloop
  endfacet
  facet normal 0 0.956997 0.290099
    outer loop
      vertex 49.2125 -102.678 -2.10613
      vertex -55.5625 -102.728 -1.94179
      vertex 49.2125 -102.728 -1.94179
    endloop
  endfacet
  facet normal 0 0.943563 0.331193
    outer loop
      vertex -55.5625 -102.728 -1.94179
      vertex -55.5625 -102.785 -1.77977
      vertex 49.2125 -102.728 -1.94179
    endloop
  endfacet
  facet normal 0 0.943563 0.331193
    outer loop
      vertex 49.2125 -102.728 -1.94179
      vertex -55.5625 -102.785 -1.77977
      vertex 49.2125 -102.785 -1.77977
    endloop
  endfacet
  facet normal 0 0.928332 0.371753
    outer loop
      vertex -55.5625 -102.785 -1.77977
      vertex -55.5625 -102.849 -1.62036
      vertex 49.2125 -102.785 -1.77977
    endloop
  endfacet
  facet normal 0 0.928332 0.371753
    outer loop
      vertex 49.2125 -102.785 -1.77977
      vertex -55.5625 -102.849 -1.62036
      vertex 49.2125 -102.849 -1.62036
    endloop
  endfacet
  facet normal 0 0.911406 0.411508
    outer loop
      vertex -55.5625 -102.849 -1.62036
      vertex -55.5625 -102.92 -1.46386
      vertex 49.2125 -102.849 -1.62036
    endloop
  endfacet
  facet normal 0 0.911406 0.411508
    outer loop
      vertex 49.2125 -102.849 -1.62036
      vertex -55.5625 -102.92 -1.46386
      vertex 49.2125 -102.92 -1.46386
    endloop
  endfacet
  facet normal 0 0.89273 0.450591
    outer loop
      vertex -55.5625 -102.92 -1.46386
      vertex -55.5625 -102.997 -1.31056
      vertex 49.2125 -102.92 -1.46386
    endloop
  endfacet
  facet normal 0 0.89273 0.450591
    outer loop
      vertex 49.2125 -102.92 -1.46386
      vertex -55.5625 -102.997 -1.31056
      vertex 49.2125 -102.997 -1.31056
    endloop
  endfacet
  facet normal 0 0.872428 0.488743
    outer loop
      vertex -55.5625 -102.997 -1.31056
      vertex -55.5625 -103.081 -1.16076
      vertex 49.2125 -102.997 -1.31056
    endloop
  endfacet
  facet normal 0 0.872428 0.488743
    outer loop
      vertex 49.2125 -102.997 -1.31056
      vertex -55.5625 -103.081 -1.16076
      vertex 49.2125 -103.081 -1.16076
    endloop
  endfacet
  facet normal 0 0.850454 0.526049
    outer loop
      vertex -55.5625 -103.081 -1.16076
      vertex -55.5625 -103.171 -1.01472
      vertex 49.2125 -103.081 -1.16076
    endloop
  endfacet
  facet normal 0 0.850454 0.526049
    outer loop
      vertex 49.2125 -103.081 -1.16076
      vertex -55.5625 -103.171 -1.01472
      vertex 49.2125 -103.171 -1.01472
    endloop
  endfacet
  facet normal 0 0.826893 0.562359
    outer loop
      vertex -55.5625 -103.171 -1.01472
      vertex -55.5625 -103.268 -0.872728
      vertex 49.2125 -103.171 -1.01472
    endloop
  endfacet
  facet normal 0 0.826893 0.562359
    outer loop
      vertex 49.2125 -103.171 -1.01472
      vertex -55.5625 -103.268 -0.872728
      vertex 49.2125 -103.268 -0.872728
    endloop
  endfacet
  facet normal 0 0.801799 0.597594
    outer loop
      vertex -55.5625 -103.268 -0.872728
      vertex -55.5625 -103.37 -0.735046
      vertex 49.2125 -103.268 -0.872728
    endloop
  endfacet
  facet normal 0 0.801799 0.597594
    outer loop
      vertex 49.2125 -103.268 -0.872728
      vertex -55.5625 -103.37 -0.735046
      vertex 49.2125 -103.37 -0.735046
    endloop
  endfacet
  facet normal 0 0.775209 0.631705
    outer loop
      vertex -55.5625 -103.37 -0.735046
      vertex -55.5625 -103.479 -0.601932
      vertex 49.2125 -103.37 -0.735046
    endloop
  endfacet
  facet normal 0 0.775209 0.631705
    outer loop
      vertex 49.2125 -103.37 -0.735046
      vertex -55.5625 -103.479 -0.601932
      vertex 49.2125 -103.479 -0.601932
    endloop
  endfacet
  facet normal 0 0.747162 0.664642
    outer loop
      vertex -55.5625 -103.479 -0.601932
      vertex -55.5625 -103.593 -0.473634
      vertex 49.2125 -103.479 -0.601932
    endloop
  endfacet
  facet normal 0 0.747162 0.664642
    outer loop
      vertex 49.2125 -103.479 -0.601932
      vertex -55.5625 -103.593 -0.473634
      vertex 49.2125 -103.593 -0.473634
    endloop
  endfacet
  facet normal 0 0.717702 0.696351
    outer loop
      vertex -55.5625 -103.593 -0.473634
      vertex -55.5625 -103.713 -0.350393
      vertex 49.2125 -103.593 -0.473634
    endloop
  endfacet
  facet normal 0 0.717702 0.696351
    outer loop
      vertex 49.2125 -103.593 -0.473634
      vertex -55.5625 -103.713 -0.350393
      vertex 49.2125 -103.713 -0.350393
    endloop
  endfacet
  facet normal 0 0.686919 0.726734
    outer loop
      vertex -55.5625 -103.713 -0.350393
      vertex -55.5625 -103.837 -0.23244
      vertex 49.2125 -103.713 -0.350393
    endloop
  endfacet
  facet normal 0 0.686919 0.726734
    outer loop
      vertex 49.2125 -103.713 -0.350393
      vertex -55.5625 -103.837 -0.23244
      vertex 49.2125 -103.837 -0.23244
    endloop
  endfacet
  facet normal 0 0.654821 0.755784
    outer loop
      vertex -55.5625 -103.837 -0.23244
      vertex -55.5625 -103.967 -0.119996
      vertex 49.2125 -103.837 -0.23244
    endloop
  endfacet
  facet normal 0 0.654821 0.755784
    outer loop
      vertex 49.2125 -103.837 -0.23244
      vertex -55.5625 -103.967 -0.119996
      vertex 49.2125 -103.967 -0.119996
    endloop
  endfacet
  facet normal 0 0.621527 0.783393
    outer loop
      vertex -55.5625 -103.967 -0.119996
      vertex -55.5625 -104.102 -0.0132703
      vertex 49.2125 -103.967 -0.119996
    endloop
  endfacet
  facet normal 0 0.621527 0.783393
    outer loop
      vertex 49.2125 -103.967 -0.119996
      vertex -55.5625 -104.102 -0.0132703
      vertex 49.2125 -104.102 -0.0132703
    endloop
  endfacet
  facet normal 0 0.587053 0.809549
    outer loop
      vertex -55.5625 -104.102 -0.0132703
      vertex -55.5625 -104.241 0.0875364
      vertex 49.2125 -104.102 -0.0132703
    endloop
  endfacet
  facet normal 0 0.587053 0.809549
    outer loop
      vertex 49.2125 -104.102 -0.0132703
      vertex -55.5625 -104.241 0.0875364
      vertex 49.2125 -104.241 0.0875364
    endloop
  endfacet
  facet normal 0 0.551501 0.834174
    outer loop
      vertex -55.5625 -104.241 0.0875364
      vertex -55.5625 -104.384 0.182235
      vertex 49.2125 -104.241 0.0875364
    endloop
  endfacet
  facet normal 0 0.551501 0.834174
    outer loop
      vertex 49.2125 -104.241 0.0875364
      vertex -55.5625 -104.384 0.182235
      vertex 49.2125 -104.384 0.182235
    endloop
  endfacet
  facet normal 0 0.514877 0.857264
    outer loop
      vertex -55.5625 -104.384 0.182235
      vertex -55.5625 -104.531 0.27065
      vertex 49.2125 -104.384 0.182235
    endloop
  endfacet
  facet normal 0 0.514877 0.857264
    outer loop
      vertex 49.2125 -104.384 0.182235
      vertex -55.5625 -104.531 0.27065
      vertex 49.2125 -104.531 0.27065
    endloop
  endfacet
  facet normal 0 0.477329 0.878725
    outer loop
      vertex -55.5625 -104.531 0.27065
      vertex -55.5625 -104.682 0.352614
      vertex 49.2125 -104.531 0.27065
    endloop
  endfacet
  facet normal 0 0.477329 0.878725
    outer loop
      vertex 49.2125 -104.531 0.27065
      vertex -55.5625 -104.682 0.352614
      vertex 49.2125 -104.682 0.352614
    endloop
  endfacet
  facet normal 0 0.438869 0.898551
    outer loop
      vertex -55.5625 -104.682 0.352614
      vertex -55.5625 -104.836 0.427974
      vertex 49.2125 -104.682 0.352614
    endloop
  endfacet
  facet normal 0 0.438869 0.898551
    outer loop
      vertex 49.2125 -104.682 0.352614
      vertex -55.5625 -104.836 0.427974
      vertex 49.2125 -104.836 0.427974
    endloop
  endfacet
  facet normal 0 0.399592 0.916693
    outer loop
      vertex -55.5625 -104.836 0.427974
      vertex -55.5625 -104.994 0.496589
      vertex 49.2125 -104.836 0.427974
    endloop
  endfacet
  facet normal 0 0.399592 0.916693
    outer loop
      vertex 49.2125 -104.836 0.427974
      vertex -55.5625 -104.994 0.496589
      vertex 49.2125 -104.994 0.496589
    endloop
  endfacet
  facet normal 0 0.359559 0.933122
    outer loop
      vertex -55.5625 -104.994 0.496589
      vertex -55.5625 -105.154 0.558331
      vertex 49.2125 -104.994 0.496589
    endloop
  endfacet
  facet normal 0 0.359559 0.933122
    outer loop
      vertex 49.2125 -104.994 0.496589
      vertex -55.5625 -105.154 0.558331
      vertex 49.2125 -105.154 0.558331
    endloop
  endfacet
  facet normal 0 0.31885 0.947805
    outer loop
      vertex -55.5625 -105.154 0.558331
      vertex -55.5625 -105.317 0.613084
      vertex 49.2125 -105.154 0.558331
    endloop
  endfacet
  facet normal 0 0.31885 0.947805
    outer loop
      vertex 49.2125 -105.154 0.558331
      vertex -55.5625 -105.317 0.613084
      vertex 49.2125 -105.317 0.613084
    endloop
  endfacet
  facet normal 0 0.277571 0.960705
    outer loop
      vertex -55.5625 -105.317 0.613084
      vertex -55.5625 -105.482 0.660746
      vertex 49.2125 -105.317 0.613084
    endloop
  endfacet
  facet normal 0 0.277571 0.960705
    outer loop
      vertex 49.2125 -105.317 0.613084
      vertex -55.5625 -105.482 0.660746
      vertex 49.2125 -105.482 0.660746
    endloop
  endfacet
  facet normal 0 0.235743 0.971816
    outer loop
      vertex -55.5625 -105.482 0.660746
      vertex -55.5625 -105.649 0.701228
      vertex 49.2125 -105.482 0.660746
    endloop
  endfacet
  facet normal 0 0.235743 0.971816
    outer loop
      vertex 49.2125 -105.482 0.660746
      vertex -55.5625 -105.649 0.701228
      vertex 49.2125 -105.649 0.701228
    endloop
  endfacet
  facet normal 0 0.193485 0.981103
    outer loop
      vertex -55.5625 -105.649 0.701228
      vertex -55.5625 -105.817 0.734452
      vertex 49.2125 -105.649 0.701228
    endloop
  endfacet
  facet normal 0 0.193485 0.981103
    outer loop
      vertex 49.2125 -105.649 0.701228
      vertex -55.5625 -105.817 0.734452
      vertex 49.2125 -105.817 0.734452
    endloop
  endfacet
  facet normal 0 0.15087 0.988554
    outer loop
      vertex -55.5625 -105.817 0.734452
      vertex -55.5625 -105.987 0.760359
      vertex 49.2125 -105.817 0.734452
    endloop
  endfacet
  facet normal 0 0.15087 0.988554
    outer loop
      vertex 49.2125 -105.817 0.734452
      vertex -55.5625 -105.987 0.760359
      vertex 49.2125 -105.987 0.760359
    endloop
  endfacet
  facet normal 0 0.107963 0.994155
    outer loop
      vertex -55.5625 -105.987 0.760359
      vertex -55.5625 -106.157 0.778898
      vertex 49.2125 -105.987 0.760359
    endloop
  endfacet
  facet normal 0 0.107963 0.994155
    outer loop
      vertex 49.2125 -105.987 0.760359
      vertex -55.5625 -106.157 0.778898
      vertex 49.2125 -106.157 0.778898
    endloop
  endfacet
  facet normal 0 0.064862 0.997894
    outer loop
      vertex -55.5625 -106.157 0.778898
      vertex -55.5625 -106.329 0.790035
      vertex 49.2125 -106.157 0.778898
    endloop
  endfacet
  facet normal 0 0.064862 0.997894
    outer loop
      vertex 49.2125 -106.157 0.778898
      vertex -55.5625 -106.329 0.790035
      vertex 49.2125 -106.329 0.790035
    endloop
  endfacet
  facet normal 0 0.0216331 0.999766
    outer loop
      vertex -55.5625 -106.329 0.790035
      vertex -55.5625 -106.501 0.79375
      vertex 49.2125 -106.329 0.790035
    endloop
  endfacet
  facet normal 0 0.0216331 0.999766
    outer loop
      vertex 49.2125 -106.329 0.790035
      vertex -55.5625 -106.501 0.79375
      vertex 49.2125 -106.501 0.79375
    endloop
  endfacet
  facet normal 0 -0.0216331 0.999766
    outer loop
      vertex -55.5625 -106.501 0.79375
      vertex -55.5625 -106.672 0.790035
      vertex 49.2125 -106.501 0.79375
    endloop
  endfacet
  facet normal 0 -0.0216331 0.999766
    outer loop
      vertex 49.2125 -106.501 0.79375
      vertex -55.5625 -106.672 0.790035
      vertex 49.2125 -106.672 0.790035
    endloop
  endfacet
  facet normal 0 -0.0648592 0.997894
    outer loop
      vertex -55.5625 -106.672 0.790035
      vertex -55.5625 -106.844 0.778898
      vertex 49.2125 -106.672 0.790035
    endloop
  endfacet
  facet normal 0 -0.0648592 0.997894
    outer loop
      vertex 49.2125 -106.672 0.790035
      vertex -55.5625 -106.844 0.778898
      vertex 49.2125 -106.844 0.778898
    endloop
  endfacet
  facet normal 0 -0.107967 0.994154
    outer loop
      vertex -55.5625 -106.844 0.778898
      vertex -55.5625 -107.014 0.760359
      vertex 49.2125 -106.844 0.778898
    endloop
  endfacet
  facet normal 0 -0.107967 0.994154
    outer loop
      vertex 49.2125 -106.844 0.778898
      vertex -55.5625 -107.014 0.760359
      vertex 49.2125 -107.014 0.760359
    endloop
  endfacet
  facet normal 0 -0.150864 0.988555
    outer loop
      vertex -55.5625 -107.014 0.760359
      vertex -55.5625 -107.184 0.734452
      vertex 49.2125 -107.014 0.760359
    endloop
  endfacet
  facet normal 0 -0.150864 0.988555
    outer loop
      vertex 49.2125 -107.014 0.760359
      vertex -55.5625 -107.184 0.734452
      vertex 49.2125 -107.184 0.734452
    endloop
  endfacet
  facet normal 0 -0.193494 0.981102
    outer loop
      vertex -55.5625 -107.184 0.734452
      vertex -55.5625 -107.352 0.701228
      vertex 49.2125 -107.184 0.734452
    endloop
  endfacet
  facet normal 0 -0.193494 0.981102
    outer loop
      vertex 49.2125 -107.184 0.734452
      vertex -55.5625 -107.352 0.701228
      vertex 49.2125 -107.352 0.701228
    endloop
  endfacet
  facet normal 0 -0.235743 0.971816
    outer loop
      vertex -55.5625 -107.352 0.701228
      vertex -55.5625 -107.519 0.660746
      vertex 49.2125 -107.352 0.701228
    endloop
  endfacet
  facet normal 0 -0.235743 0.971816
    outer loop
      vertex 49.2125 -107.352 0.701228
      vertex -55.5625 -107.519 0.660746
      vertex 49.2125 -107.519 0.660746
    endloop
  endfacet
  facet normal 0 -0.277559 0.960709
    outer loop
      vertex -55.5625 -107.519 0.660746
      vertex -55.5625 -107.684 0.613084
      vertex 49.2125 -107.519 0.660746
    endloop
  endfacet
  facet normal 0 -0.277559 0.960709
    outer loop
      vertex 49.2125 -107.519 0.660746
      vertex -55.5625 -107.684 0.613084
      vertex 49.2125 -107.684 0.613084
    endloop
  endfacet
  facet normal 0 -0.318863 0.947801
    outer loop
      vertex -55.5625 -107.684 0.613084
      vertex -55.5625 -107.847 0.558331
      vertex 49.2125 -107.684 0.613084
    endloop
  endfacet
  facet normal 0 -0.318863 0.947801
    outer loop
      vertex 49.2125 -107.684 0.613084
      vertex -55.5625 -107.847 0.558331
      vertex 49.2125 -107.847 0.558331
    endloop
  endfacet
  facet normal 0 -0.359559 0.933122
    outer loop
      vertex -55.5625 -107.847 0.558331
      vertex -55.5625 -108.007 0.496589
      vertex 49.2125 -107.847 0.558331
    endloop
  endfacet
  facet normal 0 -0.359559 0.933122
    outer loop
      vertex 49.2125 -107.847 0.558331
      vertex -55.5625 -108.007 0.496589
      vertex 49.2125 -108.007 0.496589
    endloop
  endfacet
  facet normal 0 -0.399592 0.916693
    outer loop
      vertex -55.5625 -108.007 0.496589
      vertex -55.5625 -108.165 0.427974
      vertex 49.2125 -108.007 0.496589
    endloop
  endfacet
  facet normal 0 -0.399592 0.916693
    outer loop
      vertex 49.2125 -108.007 0.496589
      vertex -55.5625 -108.165 0.427974
      vertex 49.2125 -108.165 0.427974
    endloop
  endfacet
  facet normal 0 -0.438869 0.898551
    outer loop
      vertex -55.5625 -108.165 0.427974
      vertex -55.5625 -108.319 0.352614
      vertex 49.2125 -108.165 0.427974
    endloop
  endfacet
  facet normal 0 -0.438869 0.898551
    outer loop
      vertex 49.2125 -108.165 0.427974
      vertex -55.5625 -108.319 0.352614
      vertex 49.2125 -108.319 0.352614
    endloop
  endfacet
  facet normal 0 -0.477329 0.878725
    outer loop
      vertex -55.5625 -108.319 0.352614
      vertex -55.5625 -108.47 0.27065
      vertex 49.2125 -108.319 0.352614
    endloop
  endfacet
  facet normal 0 -0.477329 0.878725
    outer loop
      vertex 49.2125 -108.319 0.352614
      vertex -55.5625 -108.47 0.27065
      vertex 49.2125 -108.47 0.27065
    endloop
  endfacet
  facet normal 0 -0.514877 0.857264
    outer loop
      vertex -55.5625 -108.47 0.27065
      vertex -55.5625 -108.617 0.182235
      vertex 49.2125 -108.47 0.27065
    endloop
  endfacet
  facet normal 0 -0.514877 0.857264
    outer loop
      vertex 49.2125 -108.47 0.27065
      vertex -55.5625 -108.617 0.182235
      vertex 49.2125 -108.617 0.182235
    endloop
  endfacet
  facet normal 0 -0.551501 0.834174
    outer loop
      vertex -55.5625 -108.617 0.182235
      vertex -55.5625 -108.76 0.0875364
      vertex 49.2125 -108.617 0.182235
    endloop
  endfacet
  facet normal 0 -0.551501 0.834174
    outer loop
      vertex 49.2125 -108.617 0.182235
      vertex -55.5625 -108.76 0.0875364
      vertex 49.2125 -108.76 0.0875364
    endloop
  endfacet
  facet normal 0 -0.587053 0.809549
    outer loop
      vertex -55.5625 -108.76 0.0875364
      vertex -55.5625 -108.899 -0.0132703
      vertex 49.2125 -108.76 0.0875364
    endloop
  endfacet
  facet normal 0 -0.587053 0.809549
    outer loop
      vertex 49.2125 -108.76 0.0875364
      vertex -55.5625 -108.899 -0.0132703
      vertex 49.2125 -108.899 -0.0132703
    endloop
  endfacet
  facet normal 0 -0.621527 0.783393
    outer loop
      vertex -55.5625 -108.899 -0.0132703
      vertex -55.5625 -109.034 -0.119996
      vertex 49.2125 -108.899 -0.0132703
    endloop
  endfacet
  facet normal 0 -0.621527 0.783393
    outer loop
      vertex 49.2125 -108.899 -0.0132703
      vertex -55.5625 -109.034 -0.119996
      vertex 49.2125 -109.034 -0.119996
    endloop
  endfacet
  facet normal 0 -0.654821 0.755784
    outer loop
      vertex -55.5625 -109.034 -0.119996
      vertex -55.5625 -109.164 -0.23244
      vertex 49.2125 -109.034 -0.119996
    endloop
  endfacet
  facet normal 0 -0.654821 0.755784
    outer loop
      vertex 49.2125 -109.034 -0.119996
      vertex -55.5625 -109.164 -0.23244
      vertex 49.2125 -109.164 -0.23244
    endloop
  endfacet
  facet normal 0 -0.686919 0.726734
    outer loop
      vertex -55.5625 -109.164 -0.23244
      vertex -55.5625 -109.288 -0.350393
      vertex 49.2125 -109.164 -0.23244
    endloop
  endfacet
  facet normal 0 -0.686919 0.726734
    outer loop
      vertex 49.2125 -109.164 -0.23244
      vertex -55.5625 -109.288 -0.350393
      vertex 49.2125 -109.288 -0.350393
    endloop
  endfacet
  facet normal 0 -0.717702 0.696351
    outer loop
      vertex -55.5625 -109.288 -0.350393
      vertex -55.5625 -109.408 -0.473634
      vertex 49.2125 -109.288 -0.350393
    endloop
  endfacet
  facet normal 0 -0.717702 0.696351
    outer loop
      vertex 49.2125 -109.288 -0.350393
      vertex -55.5625 -109.408 -0.473634
      vertex 49.2125 -109.408 -0.473634
    endloop
  endfacet
  facet normal 0 -0.747162 0.664642
    outer loop
      vertex -55.5625 -109.408 -0.473634
      vertex -55.5625 -109.522 -0.601932
      vertex 49.2125 -109.408 -0.473634
    endloop
  endfacet
  facet normal 0 -0.747162 0.664642
    outer loop
      vertex 49.2125 -109.408 -0.473634
      vertex -55.5625 -109.522 -0.601932
      vertex 49.2125 -109.522 -0.601932
    endloop
  endfacet
  facet normal 0 -0.775187 0.631731
    outer loop
      vertex -55.5625 -109.522 -0.601932
      vertex -55.5625 -109.631 -0.735046
      vertex 49.2125 -109.522 -0.601932
    endloop
  endfacet
  facet normal 0 -0.775187 0.631731
    outer loop
      vertex 49.2125 -109.522 -0.601932
      vertex -55.5625 -109.631 -0.735046
      vertex 49.2125 -109.631 -0.735046
    endloop
  endfacet
  facet normal 0 -0.80182 0.597566
    outer loop
      vertex -55.5625 -109.631 -0.735046
      vertex -55.5625 -109.733 -0.872728
      vertex 49.2125 -109.631 -0.735046
    endloop
  endfacet
  facet normal 0 -0.80182 0.597566
    outer loop
      vertex 49.2125 -109.631 -0.735046
      vertex -55.5625 -109.733 -0.872728
      vertex 49.2125 -109.733 -0.872728
    endloop
  endfacet
  facet normal 0 -0.826893 0.562359
    outer loop
      vertex -55.5625 -109.733 -0.872728
      vertex -55.5625 -109.83 -1.01472
      vertex 49.2125 -109.733 -0.872728
    endloop
  endfacet
  facet normal 0 -0.826893 0.562359
    outer loop
      vertex 49.2125 -109.733 -0.872728
      vertex -55.5625 -109.83 -1.01472
      vertex 49.2125 -109.83 -1.01472
    endloop
  endfacet
  facet normal 0 -0.850454 0.526049
    outer loop
      vertex -55.5625 -109.83 -1.01472
      vertex -55.5625 -109.92 -1.16076
      vertex 49.2125 -109.83 -1.01472
    endloop
  endfacet
  facet normal 0 -0.850454 0.526049
    outer loop
      vertex 49.2125 -109.83 -1.01472
      vertex -55.5625 -109.92 -1.16076
      vertex 49.2125 -109.92 -1.16076
    endloop
  endfacet
  facet normal 0 -0.872428 0.488743
    outer loop
      vertex -55.5625 -109.92 -1.16076
      vertex -55.5625 -110.004 -1.31056
      vertex 49.2125 -109.92 -1.16076
    endloop
  endfacet
  facet normal 0 -0.872428 0.488743
    outer loop
      vertex 49.2125 -109.92 -1.16076
      vertex -55.5625 -110.004 -1.31056
      vertex 49.2125 -110.004 -1.31056
    endloop
  endfacet
  facet normal 0 -0.89273 0.450591
    outer loop
      vertex -55.5625 -110.004 -1.31056
      vertex -55.5625 -110.081 -1.46386
      vertex 49.2125 -110.004 -1.31056
    endloop
  endfacet
  facet normal 0 -0.89273 0.450591
    outer loop
      vertex 49.2125 -110.004 -1.31056
      vertex -55.5625 -110.081 -1.46386
      vertex 49.2125 -110.081 -1.46386
    endloop
  endfacet
  facet normal 0 -0.91139 0.411544
    outer loop
      vertex -55.5625 -110.081 -1.46386
      vertex -55.5625 -110.152 -1.62036
      vertex 49.2125 -110.081 -1.46386
    endloop
  endfacet
  facet normal 0 -0.91139 0.411544
    outer loop
      vertex 49.2125 -110.081 -1.46386
      vertex -55.5625 -110.152 -1.62036
      vertex 49.2125 -110.152 -1.62036
    endloop
  endfacet
  facet normal 0 -0.928347 0.371716
    outer loop
      vertex -55.5625 -110.152 -1.62036
      vertex -55.5625 -110.216 -1.77977
      vertex 49.2125 -110.152 -1.62036
    endloop
  endfacet
  facet normal 0 -0.928347 0.371716
    outer loop
      vertex 49.2125 -110.152 -1.62036
      vertex -55.5625 -110.216 -1.77977
      vertex 49.2125 -110.216 -1.77977
    endloop
  endfacet
  facet normal 0 -0.943563 0.331193
    outer loop
      vertex -55.5625 -110.216 -1.77977
      vertex -55.5625 -110.273 -1.94179
      vertex 49.2125 -110.216 -1.77977
    endloop
  endfacet
  facet normal 0 -0.943563 0.331193
    outer loop
      vertex 49.2125 -110.216 -1.77977
      vertex -55.5625 -110.273 -1.94179
      vertex 49.2125 -110.273 -1.94179
    endloop
  endfacet
  facet normal 0 -0.956997 0.290099
    outer loop
      vertex -55.5625 -110.273 -1.94179
      vertex -55.5625 -110.323 -2.10613
      vertex 49.2125 -110.273 -1.94179
    endloop
  endfacet
  facet normal 0 -0.956997 0.290099
    outer loop
      vertex 49.2125 -110.273 -1.94179
      vertex -55.5625 -110.323 -2.10613
      vertex 49.2125 -110.323 -2.10613
    endloop
  endfacet
  facet normal 0 -0.968646 0.248445
    outer loop
      vertex -55.5625 -110.323 -2.10613
      vertex -55.5625 -110.365 -2.27246
      vertex 49.2125 -110.323 -2.10613
    endloop
  endfacet
  facet normal 0 -0.968646 0.248445
    outer loop
      vertex 49.2125 -110.323 -2.10613
      vertex -55.5625 -110.365 -2.27246
      vertex 49.2125 -110.365 -2.27246
    endloop
  endfacet
  facet normal 0 -0.978495 0.206273
    outer loop
      vertex -55.5625 -110.365 -2.27246
      vertex -55.5625 -110.401 -2.44048
      vertex 49.2125 -110.365 -2.27246
    endloop
  endfacet
  facet normal 0 -0.978495 0.206273
    outer loop
      vertex 49.2125 -110.365 -2.27246
      vertex -55.5625 -110.401 -2.44048
      vertex 49.2125 -110.401 -2.44048
    endloop
  endfacet
  facet normal 0 -0.983199 0.182538
    outer loop
      vertex -55.5625 -110.401 -2.44048
      vertex 26.9875 -110.404 -2.46038
      vertex 49.2125 -110.401 -2.44048
    endloop
  endfacet
  facet normal 0 -0.983199 0.182538
    outer loop
      vertex 49.2125 -110.401 -2.44048
      vertex 26.9875 -110.404 -2.46038
      vertex 49.2125 -110.404 -2.46038
    endloop
  endfacet
  facet normal 0 0.981593 -0.190985
    outer loop
      vertex 26.9875 -102.597 -3.88961
      vertex 49.2125 -102.613 -3.97623
      vertex -55.5625 -102.613 -3.97623
    endloop
  endfacet
  facet normal 0 0.974814 -0.22302
    outer loop
      vertex 49.2125 -102.613 -3.97623
      vertex 49.2125 -102.652 -4.14362
      vertex -55.5625 -102.613 -3.97623
    endloop
  endfacet
  facet normal 0 0.974814 -0.22302
    outer loop
      vertex -55.5625 -102.613 -3.97623
      vertex 49.2125 -102.652 -4.14362
      vertex -55.5625 -102.652 -4.14362
    endloop
  endfacet
  facet normal 0 0.964254 -0.264979
    outer loop
      vertex 49.2125 -102.652 -4.14362
      vertex 49.2125 -102.697 -4.3092
      vertex -55.5625 -102.652 -4.14362
    endloop
  endfacet
  facet normal 0 0.964254 -0.264979
    outer loop
      vertex -55.5625 -102.652 -4.14362
      vertex 49.2125 -102.697 -4.3092
      vertex -55.5625 -102.697 -4.3092
    endloop
  endfacet
  facet normal 0 0.951885 -0.306456
    outer loop
      vertex 49.2125 -102.697 -4.3092
      vertex 49.2125 -102.75 -4.47266
      vertex -55.5625 -102.697 -4.3092
    endloop
  endfacet
  facet normal 0 0.951885 -0.306456
    outer loop
      vertex -55.5625 -102.697 -4.3092
      vertex 49.2125 -102.75 -4.47266
      vertex -55.5625 -102.75 -4.47266
    endloop
  endfacet
  facet normal 0 0.937743 -0.347331
    outer loop
      vertex 49.2125 -102.75 -4.47266
      vertex 49.2125 -102.81 -4.63368
      vertex -55.5625 -102.75 -4.47266
    endloop
  endfacet
  facet normal 0 0.937743 -0.347331
    outer loop
      vertex -55.5625 -102.75 -4.47266
      vertex 49.2125 -102.81 -4.63368
      vertex -55.5625 -102.81 -4.63368
    endloop
  endfacet
  facet normal 0 0.921846 -0.387556
    outer loop
      vertex 49.2125 -102.81 -4.63368
      vertex 49.2125 -102.876 -4.79197
      vertex -55.5625 -102.81 -4.63368
    endloop
  endfacet
  facet normal 0 0.921846 -0.387556
    outer loop
      vertex -55.5625 -102.81 -4.63368
      vertex 49.2125 -102.876 -4.79197
      vertex -55.5625 -102.876 -4.79197
    endloop
  endfacet
  facet normal 0 0.904197 -0.427116
    outer loop
      vertex 49.2125 -102.876 -4.79197
      vertex 49.2125 -102.949 -4.94724
      vertex -55.5625 -102.876 -4.79197
    endloop
  endfacet
  facet normal 0 0.904197 -0.427116
    outer loop
      vertex -55.5625 -102.876 -4.79197
      vertex 49.2125 -102.949 -4.94724
      vertex -55.5625 -102.949 -4.94724
    endloop
  endfacet
  facet normal 0 0.884897 -0.465787
    outer loop
      vertex 49.2125 -102.949 -4.94724
      vertex 49.2125 -103.029 -5.09919
      vertex -55.5625 -102.949 -4.94724
    endloop
  endfacet
  facet normal 0 0.884897 -0.465787
    outer loop
      vertex -55.5625 -102.949 -4.94724
      vertex 49.2125 -103.029 -5.09919
      vertex -55.5625 -103.029 -5.09919
    endloop
  endfacet
  facet normal 0 0.863904 -0.503656
    outer loop
      vertex 49.2125 -103.029 -5.09919
      vertex 49.2125 -103.116 -5.24754
      vertex -55.5625 -103.029 -5.09919
    endloop
  endfacet
  facet normal 0 0.863904 -0.503656
    outer loop
      vertex -55.5625 -103.029 -5.09919
      vertex 49.2125 -103.116 -5.24754
      vertex -55.5625 -103.116 -5.24754
    endloop
  endfacet
  facet normal 0 0.841317 -0.540541
    outer loop
      vertex 49.2125 -103.116 -5.24754
      vertex 49.2125 -103.209 -5.392
      vertex -55.5625 -103.116 -5.24754
    endloop
  endfacet
  facet normal 0 0.841317 -0.540541
    outer loop
      vertex -55.5625 -103.116 -5.24754
      vertex 49.2125 -103.209 -5.392
      vertex -55.5625 -103.209 -5.392
    endloop
  endfacet
  facet normal 0 0.817149 -0.576426
    outer loop
      vertex 49.2125 -103.209 -5.392
      vertex 49.2125 -103.308 -5.53232
      vertex -55.5625 -103.209 -5.392
    endloop
  endfacet
  facet normal 0 0.817149 -0.576426
    outer loop
      vertex -55.5625 -103.209 -5.392
      vertex 49.2125 -103.308 -5.53232
      vertex -55.5625 -103.308 -5.53232
    endloop
  endfacet
  facet normal 0 0.791455 -0.611228
    outer loop
      vertex 49.2125 -103.308 -5.53232
      vertex 49.2125 -103.413 -5.66822
      vertex -55.5625 -103.308 -5.53232
    endloop
  endfacet
  facet normal 0 0.791455 -0.611228
    outer loop
      vertex -55.5625 -103.308 -5.53232
      vertex 49.2125 -103.413 -5.66822
      vertex -55.5625 -103.413 -5.66822
    endloop
  endfacet
  facet normal 0 0 1
    outer loop
      vertex -33.3375 -110.449 -3.57738
      vertex -33.3375 -102.552 -3.57738
      vertex -55.5625 -110.449 -3.57738
    endloop
  endfacet
  facet normal 0 0 1
    outer loop
      vertex -33.3375 -102.552 -3.57738
      vertex -55.5625 -102.552 -3.57738
      vertex -55.5625 -110.449 -3.57738
    endloop
  endfacet
  facet normal 1 0 0
    outer loop
      vertex 49.2125 -102.597 -3.88961
      vertex 49.2125 -110.404 -3.88961
      vertex 49.2125 -110.388 -3.97623
    endloop
  endfacet
  facet normal 1 0 0
    outer loop
      vertex 49.2125 -102.597 -3.88961
      vertex 49.2125 -110.388 -3.97623
      vertex 49.2125 -102.613 -3.97623
    endloop
  endfacet
  facet normal 1 0 0
    outer loop
      vertex 49.2125 -110.388 -3.97623
      vertex 49.2125 -110.349 -4.14362
      vertex 49.2125 -102.613 -3.97623
    endloop
  endfacet
  facet normal 1 0 0
    outer loop
      vertex 49.2125 -102.613 -3.97623
      vertex 49.2125 -110.349 -4.14362
      vertex 49.2125 -110.304 -4.3092
    endloop
  endfacet
  facet normal 1 0 0
    outer loop
      vertex 49.2125 -110.304 -4.3092
      vertex 49.2125 -110.251 -4.47266
      vertex 49.2125 -102.613 -3.97623
    endloop
  endfacet
  facet normal 1 0 0
    outer loop
      vertex 49.2125 -110.251 -4.47266
      vertex 49.2125 -110.191 -4.63368
      vertex 49.2125 -102.613 -3.97623
    endloop
  endfacet
  facet normal 1 0 0
    outer loop
      vertex 49.2125 -102.613 -3.97623
      vertex 49.2125 -110.191 -4.63368
      vertex 49.2125 -110.125 -4.79197
    endloop
  endfacet
  facet normal 1 0 0
    outer loop
      vertex 49.2125 -110.125 -4.79197
      vertex 49.2125 -110.052 -4.94724
      vertex 49.2125 -102.613 -3.97623
    endloop
  endfacet
  facet normal 1 0 0
    outer loop
      vertex 49.2125 -110.052 -4.94724
      vertex 49.2125 -109.972 -5.09919
      vertex 49.2125 -102.613 -3.97623
    endloop
  endfacet
  facet normal 1 0 0
    outer loop
      vertex 49.2125 -102.613 -3.97623
      vertex 49.2125 -109.972 -5.09919
      vertex 49.2125 -109.885 -5.24754
    endloop
  endfacet
  facet normal 1 0 0
    outer loop
      vertex 49.2125 -109.885 -5.24754
      vertex 49.2125 -109.792 -5.392
      vertex 49.2125 -102.613 -3.97623
    endloop
  endfacet
  facet normal 1 0 0
    outer loop
      vertex 49.2125 -109.792 -5.392
      vertex 49.2125 -109.693 -5.53232
      vertex 49.2125 -102.613 -3.97623
    endloop
  endfacet
  facet normal 1 0 0
    outer loop
      vertex 49.2125 -102.613 -3.97623
      vertex 49.2125 -109.693 -5.53232
      vertex 49.2125 -102.652 -4.14362
    endloop
  endfacet
  facet normal 1 0 0
    outer loop
      vertex 49.2125 -109.693 -5.53232
      vertex 49.2125 -102.697 -4.3092
      vertex 49.2125 -102.652 -4.14362
    endloop
  endfacet
  facet normal 1 0 0
    outer loop
      vertex 49.2125 -109.588 -5.66822
      vertex 49.2125 -103.413 -5.66822
      vertex 49.2125 -109.693 -5.53232
    endloop
  endfacet
  facet normal 1 0 0
    outer loop
      vertex 49.2125 -103.413 -5.66822
      vertex 49.2125 -103.308 -5.53232
      vertex 49.2125 -109.693 -5.53232
    endloop
  endfacet
  facet normal 1 0 0
    outer loop
      vertex 49.2125 -109.693 -5.53232
      vertex 49.2125 -103.308 -5.53232
      vertex 49.2125 -103.209 -5.392
    endloop
  endfacet
  facet normal 1 0 0
    outer loop
      vertex 49.2125 -109.693 -5.53232
      vertex 49.2125 -102.949 -4.94724
      vertex 49.2125 -102.876 -4.79197
    endloop
  endfacet
  facet normal 1 0 0
    outer loop
      vertex 49.2125 -103.209 -5.392
      vertex 49.2125 -103.116 -5.24754
      vertex 49.2125 -109.693 -5.53232
    endloop
  endfacet
  facet normal 1 0 0
    outer loop
      vertex 49.2125 -103.116 -5.24754
      vertex 49.2125 -103.029 -5.09919
      vertex 49.2125 -109.693 -5.53232
    endloop
  endfacet
  facet normal 1 0 0
    outer loop
      vertex 49.2125 -109.693 -5.53232
      vertex 49.2125 -103.029 -5.09919
      vertex 49.2125 -102.949 -4.94724
    endloop
  endfacet
  facet normal 1 0 0
    outer loop
      vertex 49.2125 -102.876 -4.79197
      vertex 49.2125 -102.81 -4.63368
      vertex 49.2125 -109.693 -5.53232
    endloop
  endfacet
  facet normal 1 0 0
    outer loop
      vertex 49.2125 -102.81 -4.63368
      vertex 49.2125 -102.75 -4.47266
      vertex 49.2125 -109.693 -5.53232
    endloop
  endfacet
  facet normal 1 0 0
    outer loop
      vertex 49.2125 -109.693 -5.53232
      vertex 49.2125 -102.75 -4.47266
      vertex 49.2125 -102.697 -4.3092
    endloop
  endfacet
  facet normal -1 0 0
    outer loop
      vertex -55.5625 -110.449 -3.57738
      vertex -55.5625 -102.552 -3.57738
      vertex -55.5625 -110.442 -3.63727
    endloop
  endfacet
  facet normal -1 0 0
    outer loop
      vertex -55.5625 -102.552 -3.57738
      vertex -55.5625 -102.559 -3.63727
      vertex -55.5625 -110.442 -3.63727
    endloop
  endfacet
  facet normal -1 0 0
    outer loop
      vertex -55.5625 -109.792 -5.392
      vertex -55.5625 -109.885 -5.24754
      vertex -55.5625 -102.559 -3.63727
    endloop
  endfacet
  facet normal -1 0 0
    outer loop
      vertex -55.5625 -109.885 -5.24754
      vertex -55.5625 -109.972 -5.09919
      vertex -55.5625 -102.559 -3.63727
    endloop
  endfacet
  facet normal -1 0 0
    outer loop
      vertex -55.5625 -109.972 -5.09919
      vertex -55.5625 -110.052 -4.94724
      vertex -55.5625 -102.559 -3.63727
    endloop
  endfacet
  facet normal -1 0 0
    outer loop
      vertex -55.5625 -110.052 -4.94724
      vertex -55.5625 -110.125 -4.79197
      vertex -55.5625 -102.559 -3.63727
    endloop
  endfacet
  facet normal -1 0 0
    outer loop
      vertex -55.5625 -102.559 -3.63727
      vertex -55.5625 -110.125 -4.79197
      vertex -55.5625 -110.191 -4.63368
    endloop
  endfacet
  facet normal -1 0 0
    outer loop
      vertex -55.5625 -102.613 -3.97623
      vertex -55.5625 -102.652 -4.14362
      vertex -55.5625 -109.693 -5.53232
    endloop
  endfacet
  facet normal -1 0 0
    outer loop
      vertex -55.5625 -102.652 -4.14362
      vertex -55.5625 -102.697 -4.3092
      vertex -55.5625 -109.693 -5.53232
    endloop
  endfacet
  facet normal -1 0 0
    outer loop
      vertex -55.5625 -109.693 -5.53232
      vertex -55.5625 -102.697 -4.3092
      vertex -55.5625 -102.75 -4.47266
    endloop
  endfacet
  facet normal -1 0 0
    outer loop
      vertex -55.5625 -110.191 -4.63368
      vertex -55.5625 -110.251 -4.47266
      vertex -55.5625 -102.559 -3.63727
    endloop
  endfacet
  facet normal -1 0 0
    outer loop
      vertex -55.5625 -110.251 -4.47266
      vertex -55.5625 -110.304 -4.3092
      vertex -55.5625 -102.559 -3.63727
    endloop
  endfacet
  facet normal -1 0 0
    outer loop
      vertex -55.5625 -102.559 -3.63727
      vertex -55.5625 -110.304 -4.3092
      vertex -55.5625 -110.349 -4.14362
    endloop
  endfacet
  facet normal -1 0 0
    outer loop
      vertex -55.5625 -110.349 -4.14362
      vertex -55.5625 -110.388 -3.97623
      vertex -55.5625 -102.559 -3.63727
    endloop
  endfacet
  facet normal -1 0 0
    outer loop
      vertex -55.5625 -110.388 -3.97623
      vertex -55.5625 -110.419 -3.80734
      vertex -55.5625 -102.559 -3.63727
    endloop
  endfacet
  facet normal -1 0 0
    outer loop
      vertex -55.5625 -102.559 -3.63727
      vertex -55.5625 -110.419 -3.80734
      vertex -55.5625 -110.442 -3.63727
    endloop
  endfacet
  facet normal -1 0 0
    outer loop
      vertex -55.5625 -109.792 -5.392
      vertex -55.5625 -102.559 -3.63727
      vertex -55.5625 -109.693 -5.53232
    endloop
  endfacet
  facet normal -1 0 0
    outer loop
      vertex -55.5625 -102.559 -3.63727
      vertex -55.5625 -102.582 -3.80734
      vertex -55.5625 -109.693 -5.53232
    endloop
  endfacet
  facet normal -1 0 0
    outer loop
      vertex -55.5625 -109.693 -5.53232
      vertex -55.5625 -102.582 -3.80734
      vertex -55.5625 -102.613 -3.97623
    endloop
  endfacet
  facet normal -1 0 0
    outer loop
      vertex -55.5625 -109.693 -5.53232
      vertex -55.5625 -102.949 -4.94724
      vertex -55.5625 -103.029 -5.09919
    endloop
  endfacet
  facet normal -1 0 0
    outer loop
      vertex -55.5625 -103.413 -5.66822
      vertex -55.5625 -109.588 -5.66822
      vertex -55.5625 -103.308 -5.53232
    endloop
  endfacet
  facet normal -1 0 0
    outer loop
      vertex -55.5625 -109.588 -5.66822
      vertex -55.5625 -109.693 -5.53232
      vertex -55.5625 -103.308 -5.53232
    endloop
  endfacet
  facet normal -1 0 0
    outer loop
      vertex -55.5625 -102.75 -4.47266
      vertex -55.5625 -102.81 -4.63368
      vertex -55.5625 -109.693 -5.53232
    endloop
  endfacet
  facet normal -1 0 0
    outer loop
      vertex -55.5625 -102.81 -4.63368
      vertex -55.5625 -102.876 -4.79197
      vertex -55.5625 -109.693 -5.53232
    endloop
  endfacet
  facet normal -1 0 0
    outer loop
      vertex -55.5625 -109.693 -5.53232
      vertex -55.5625 -102.876 -4.79197
      vertex -55.5625 -102.949 -4.94724
    endloop
  endfacet
  facet normal -1 0 0
    outer loop
      vertex -55.5625 -103.029 -5.09919
      vertex -55.5625 -103.116 -5.24754
      vertex -55.5625 -109.693 -5.53232
    endloop
  endfacet
  facet normal -1 0 0
    outer loop
      vertex -55.5625 -103.116 -5.24754
      vertex -55.5625 -103.209 -5.392
      vertex -55.5625 -109.693 -5.53232
    endloop
  endfacet
  facet normal -1 0 0
    outer loop
      vertex -55.5625 -109.693 -5.53232
      vertex -55.5625 -103.209 -5.392
      vertex -55.5625 -103.308 -5.53232
    endloop
  endfacet
  facet normal 0 0 1
    outer loop
      vertex 26.9875 -102.597 -3.88961
      vertex 26.9875 -110.404 -3.88961
      vertex 49.2125 -102.597 -3.88961
    endloop
  endfacet
  facet normal 0 0 1
    outer loop
      vertex 26.9875 -110.404 -3.88961
      vertex 49.2125 -110.404 -3.88961
      vertex 49.2125 -102.597 -3.88961
    endloop
  endfacet
  facet normal -1 0 0
    outer loop
      vertex -55.5625 -102.552 -2.77262
      vertex -55.5625 -110.449 -2.77262
      vertex -55.5625 -102.572 -2.60988
    endloop
  endfacet
  facet normal -1 0 0
    outer loop
      vertex -55.5625 -110.449 -2.77262
      vertex -55.5625 -110.429 -2.60988
      vertex -55.5625 -102.572 -2.60988
    endloop
  endfacet
  facet normal -1 0 0
    outer loop
      vertex -55.5625 -102.572 -2.60988
      vertex -55.5625 -110.429 -2.60988
      vertex -55.5625 -102.6 -2.44048
    endloop
  endfacet
  facet normal -1 0 0
    outer loop
      vertex -55.5625 -110.429 -2.60988
      vertex -55.5625 -110.401 -2.44048
      vertex -55.5625 -102.6 -2.44048
    endloop
  endfacet
  facet normal -1 0 0
    outer loop
      vertex -55.5625 -102.6 -2.44048
      vertex -55.5625 -110.401 -2.44048
      vertex -55.5625 -110.365 -2.27246
    endloop
  endfacet
  facet normal -1 0 0
    outer loop
      vertex -55.5625 -110.365 -2.27246
      vertex -55.5625 -110.323 -2.10613
      vertex -55.5625 -102.6 -2.44048
    endloop
  endfacet
  facet normal -1 0 0
    outer loop
      vertex -55.5625 -110.323 -2.10613
      vertex -55.5625 -110.273 -1.94179
      vertex -55.5625 -102.6 -2.44048
    endloop
  endfacet
  facet normal -1 0 0
    outer loop
      vertex -55.5625 -102.6 -2.44048
      vertex -55.5625 -110.273 -1.94179
      vertex -55.5625 -110.216 -1.77977
    endloop
  endfacet
  facet normal -1 0 0
    outer loop
      vertex -55.5625 -110.216 -1.77977
      vertex -55.5625 -110.152 -1.62036
      vertex -55.5625 -102.6 -2.44048
    endloop
  endfacet
  facet normal -1 0 0
    outer loop
      vertex -55.5625 -110.152 -1.62036
      vertex -55.5625 -110.081 -1.46386
      vertex -55.5625 -102.6 -2.44048
    endloop
  endfacet
  facet normal -1 0 0
    outer loop
      vertex -55.5625 -102.6 -2.44048
      vertex -55.5625 -110.081 -1.46386
      vertex -55.5625 -110.004 -1.31056
    endloop
  endfacet
  facet normal -1 0 0
    outer loop
      vertex -55.5625 -109.83 -1.01472
      vertex -55.5625 -102.92 -1.46386
      vertex -55.5625 -102.849 -1.62036
    endloop
  endfacet
  facet normal -1 0 0
    outer loop
      vertex -55.5625 -110.004 -1.31056
      vertex -55.5625 -109.92 -1.16076
      vertex -55.5625 -102.6 -2.44048
    endloop
  endfacet
  facet normal -1 0 0
    outer loop
      vertex -55.5625 -109.92 -1.16076
      vertex -55.5625 -109.83 -1.01472
      vertex -55.5625 -102.6 -2.44048
    endloop
  endfacet
  facet normal -1 0 0
    outer loop
      vertex -55.5625 -102.6 -2.44048
      vertex -55.5625 -109.83 -1.01472
      vertex -55.5625 -102.636 -2.27246
    endloop
  endfacet
  facet normal -1 0 0
    outer loop
      vertex -55.5625 -109.83 -1.01472
      vertex -55.5625 -102.678 -2.10613
      vertex -55.5625 -102.636 -2.27246
    endloop
  endfacet
  facet normal -1 0 0
    outer loop
      vertex -55.5625 -103.593 -0.473634
      vertex -55.5625 -103.479 -0.601932
      vertex -55.5625 -108.899 -0.0132703
    endloop
  endfacet
  facet normal -1 0 0
    outer loop
      vertex -55.5625 -103.479 -0.601932
      vertex -55.5625 -103.37 -0.735046
      vertex -55.5625 -108.899 -0.0132703
    endloop
  endfacet
  facet normal -1 0 0
    outer loop
      vertex -55.5625 -108.899 -0.0132703
      vertex -55.5625 -103.37 -0.735046
      vertex -55.5625 -109.034 -0.119996
    endloop
  endfacet
  facet normal -1 0 0
    outer loop
      vertex -55.5625 -103.171 -1.01472
      vertex -55.5625 -103.081 -1.16076
      vertex -55.5625 -109.83 -1.01472
    endloop
  endfacet
  facet normal -1 0 0
    outer loop
      vertex -55.5625 -103.081 -1.16076
      vertex -55.5625 -102.997 -1.31056
      vertex -55.5625 -109.83 -1.01472
    endloop
  endfacet
  facet normal -1 0 0
    outer loop
      vertex -55.5625 -109.83 -1.01472
      vertex -55.5625 -102.997 -1.31056
      vertex -55.5625 -102.92 -1.46386
    endloop
  endfacet
  facet normal -1 0 0
    outer loop
      vertex -55.5625 -102.849 -1.62036
      vertex -55.5625 -102.785 -1.77977
      vertex -55.5625 -109.83 -1.01472
    endloop
  endfacet
  facet normal -1 0 0
    outer loop
      vertex -55.5625 -102.785 -1.77977
      vertex -55.5625 -102.728 -1.94179
      vertex -55.5625 -109.83 -1.01472
    endloop
  endfacet
  facet normal -1 0 0
    outer loop
      vertex -55.5625 -109.83 -1.01472
      vertex -55.5625 -102.728 -1.94179
      vertex -55.5625 -102.678 -2.10613
    endloop
  endfacet
  facet normal -1 0 0
    outer loop
      vertex -55.5625 -109.733 -0.872728
      vertex -55.5625 -103.37 -0.735046
      vertex -55.5625 -109.83 -1.01472
    endloop
  endfacet
  facet normal -1 0 0
    outer loop
      vertex -55.5625 -103.37 -0.735046
      vertex -55.5625 -103.268 -0.872728
      vertex -55.5625 -109.83 -1.01472
    endloop
  endfacet
  facet normal -1 0 0
    outer loop
      vertex -55.5625 -109.83 -1.01472
      vertex -55.5625 -103.268 -0.872728
      vertex -55.5625 -103.171 -1.01472
    endloop
  endfacet
  facet normal -1 0 0
    outer loop
      vertex -55.5625 -109.733 -0.872728
      vertex -55.5625 -109.631 -0.735046
      vertex -55.5625 -103.37 -0.735046
    endloop
  endfacet
  facet normal -1 0 0
    outer loop
      vertex -55.5625 -109.631 -0.735046
      vertex -55.5625 -109.522 -0.601932
      vertex -55.5625 -103.37 -0.735046
    endloop
  endfacet
  facet normal -1 0 0
    outer loop
      vertex -55.5625 -103.37 -0.735046
      vertex -55.5625 -109.522 -0.601932
      vertex -55.5625 -109.408 -0.473634
    endloop
  endfacet
  facet normal -1 0 0
    outer loop
      vertex -55.5625 -109.408 -0.473634
      vertex -55.5625 -109.288 -0.350393
      vertex -55.5625 -103.37 -0.735046
    endloop
  endfacet
  facet normal -1 0 0
    outer loop
      vertex -55.5625 -109.288 -0.350393
      vertex -55.5625 -109.164 -0.23244
      vertex -55.5625 -103.37 -0.735046
    endloop
  endfacet
  facet normal -1 0 0
    outer loop
      vertex -55.5625 -103.37 -0.735046
      vertex -55.5625 -109.164 -0.23244
      vertex -55.5625 -109.034 -0.119996
    endloop
  endfacet
  facet normal -1 0 0
    outer loop
      vertex -55.5625 -108.47 0.27065
      vertex -55.5625 -108.319 0.352614
      vertex -55.5625 -105.649 0.701228
    endloop
  endfacet
  facet normal -1 0 0
    outer loop
      vertex -55.5625 -104.682 0.352614
      vertex -55.5625 -104.531 0.27065
      vertex -55.5625 -108.899 -0.0132703
    endloop
  endfacet
  facet normal -1 0 0
    outer loop
      vertex -55.5625 -104.531 0.27065
      vertex -55.5625 -104.384 0.182235
      vertex -55.5625 -108.899 -0.0132703
    endloop
  endfacet
  facet normal -1 0 0
    outer loop
      vertex -55.5625 -108.47 0.27065
      vertex -55.5625 -105.649 0.701228
      vertex -55.5625 -108.617 0.182235
    endloop
  endfacet
  facet normal -1 0 0
    outer loop
      vertex -55.5625 -104.384 0.182235
      vertex -55.5625 -104.241 0.0875364
      vertex -55.5625 -108.899 -0.0132703
    endloop
  endfacet
  facet normal -1 0 0
    outer loop
      vertex -55.5625 -104.241 0.0875364
      vertex -55.5625 -104.102 -0.0132703
      vertex -55.5625 -108.899 -0.0132703
    endloop
  endfacet
  facet normal -1 0 0
    outer loop
      vertex -55.5625 -108.899 -0.0132703
      vertex -55.5625 -104.102 -0.0132703
      vertex -55.5625 -103.967 -0.119996
    endloop
  endfacet
  facet normal -1 0 0
    outer loop
      vertex -55.5625 -103.967 -0.119996
      vertex -55.5625 -103.837 -0.23244
      vertex -55.5625 -108.899 -0.0132703
    endloop
  endfacet
  facet normal -1 0 0
    outer loop
      vertex -55.5625 -103.837 -0.23244
      vertex -55.5625 -103.713 -0.350393
      vertex -55.5625 -108.899 -0.0132703
    endloop
  endfacet
  facet normal -1 0 0
    outer loop
      vertex -55.5625 -108.899 -0.0132703
      vertex -55.5625 -103.713 -0.350393
      vertex -55.5625 -103.593 -0.473634
    endloop
  endfacet
  facet normal -1 0 0
    outer loop
      vertex -55.5625 -106.329 0.790035
      vertex -55.5625 -106.157 0.778898
      vertex -55.5625 -108.319 0.352614
    endloop
  endfacet
  facet normal -1 0 0
    outer loop
      vertex -55.5625 -105.482 0.660746
      vertex -55.5625 -105.317 0.613084
      vertex -55.5625 -108.899 -0.0132703
    endloop
  endfacet
  facet normal -1 0 0
    outer loop
      vertex -55.5625 -105.317 0.613084
      vertex -55.5625 -105.154 0.558331
      vertex -55.5625 -108.899 -0.0132703
    endloop
  endfacet
  facet normal -1 0 0
    outer loop
      vertex -55.5625 -105.482 0.660746
      vertex -55.5625 -108.899 -0.0132703
      vertex -55.5625 -105.649 0.701228
    endloop
  endfacet
  facet normal -1 0 0
    outer loop
      vertex -55.5625 -108.899 -0.0132703
      vertex -55.5625 -108.76 0.0875364
      vertex -55.5625 -105.649 0.701228
    endloop
  endfacet
  facet normal -1 0 0
    outer loop
      vertex -55.5625 -105.649 0.701228
      vertex -55.5625 -108.76 0.0875364
      vertex -55.5625 -108.617 0.182235
    endloop
  endfacet
  facet normal -1 0 0
    outer loop
      vertex -55.5625 -105.154 0.558331
      vertex -55.5625 -104.994 0.496589
      vertex -55.5625 -108.899 -0.0132703
    endloop
  endfacet
  facet normal -1 0 0
    outer loop
      vertex -55.5625 -104.994 0.496589
      vertex -55.5625 -104.836 0.427974
      vertex -55.5625 -108.899 -0.0132703
    endloop
  endfacet
  facet normal -1 0 0
    outer loop
      vertex -55.5625 -108.899 -0.0132703
      vertex -55.5625 -104.836 0.427974
      vertex -55.5625 -104.682 0.352614
    endloop
  endfacet
  facet normal -1 0 0
    outer loop
      vertex -55.5625 -108.165 0.427974
      vertex -55.5625 -108.007 0.496589
      vertex -55.5625 -106.672 0.790035
    endloop
  endfacet
  facet normal -1 0 0
    outer loop
      vertex -55.5625 -108.007 0.496589
      vertex -55.5625 -107.847 0.558331
      vertex -55.5625 -106.672 0.790035
    endloop
  endfacet
  facet normal -1 0 0
    outer loop
      vertex -55.5625 -106.672 0.790035
      vertex -55.5625 -107.847 0.558331
      vertex -55.5625 -107.684 0.613084
    endloop
  endfacet
  facet normal -1 0 0
    outer loop
      vertex -55.5625 -106.844 0.778898
      vertex -55.5625 -106.672 0.790035
      vertex -55.5625 -107.014 0.760359
    endloop
  endfacet
  facet normal -1 0 0
    outer loop
      vertex -55.5625 -106.672 0.790035
      vertex -55.5625 -107.184 0.734452
      vertex -55.5625 -107.014 0.760359
    endloop
  endfacet
  facet normal -1 0 0
    outer loop
      vertex -55.5625 -108.165 0.427974
      vertex -55.5625 -106.672 0.790035
      vertex -55.5625 -108.319 0.352614
    endloop
  endfacet
  facet normal -1 0 0
    outer loop
      vertex -55.5625 -106.672 0.790035
      vertex -55.5625 -106.501 0.79375
      vertex -55.5625 -108.319 0.352614
    endloop
  endfacet
  facet normal -1 0 0
    outer loop
      vertex -55.5625 -108.319 0.352614
      vertex -55.5625 -106.501 0.79375
      vertex -55.5625 -106.329 0.790035
    endloop
  endfacet
  facet normal -1 0 0
    outer loop
      vertex -55.5625 -106.157 0.778898
      vertex -55.5625 -105.987 0.760359
      vertex -55.5625 -108.319 0.352614
    endloop
  endfacet
  facet normal -1 0 0
    outer loop
      vertex -55.5625 -105.987 0.760359
      vertex -55.5625 -105.817 0.734452
      vertex -55.5625 -108.319 0.352614
    endloop
  endfacet
  facet normal -1 0 0
    outer loop
      vertex -55.5625 -108.319 0.352614
      vertex -55.5625 -105.817 0.734452
      vertex -55.5625 -105.649 0.701228
    endloop
  endfacet
  facet normal -1 0 0
    outer loop
      vertex -55.5625 -107.684 0.613084
      vertex -55.5625 -107.519 0.660746
      vertex -55.5625 -106.672 0.790035
    endloop
  endfacet
  facet normal -1 0 0
    outer loop
      vertex -55.5625 -107.519 0.660746
      vertex -55.5625 -107.352 0.701228
      vertex -55.5625 -106.672 0.790035
    endloop
  endfacet
  facet normal -1 0 0
    outer loop
      vertex -55.5625 -106.672 0.790035
      vertex -55.5625 -107.352 0.701228
      vertex -55.5625 -107.184 0.734452
    endloop
  endfacet
  facet normal 1 0 0
    outer loop
      vertex 49.2125 -102.678 -2.10613
      vertex 49.2125 -102.728 -1.94179
      vertex 49.2125 -109.83 -1.01472
    endloop
  endfacet
  facet normal 1 0 0
    outer loop
      vertex 49.2125 -110.004 -1.31056
      vertex 49.2125 -110.081 -1.46386
      vertex 49.2125 -102.6 -2.44048
    endloop
  endfacet
  facet normal 1 0 0
    outer loop
      vertex 49.2125 -102.6 -2.44048
      vertex 49.2125 -110.273 -1.94179
      vertex 49.2125 -110.323 -2.10613
    endloop
  endfacet
  facet normal 1 0 0
    outer loop
      vertex 49.2125 -102.678 -2.10613
      vertex 49.2125 -109.83 -1.01472
      vertex 49.2125 -102.636 -2.27246
    endloop
  endfacet
  facet normal 1 0 0
    outer loop
      vertex 49.2125 -110.404 -2.46038
      vertex 49.2125 -102.597 -2.46038
      vertex 49.2125 -110.401 -2.44048
    endloop
  endfacet
  facet normal 1 0 0
    outer loop
      vertex 49.2125 -102.597 -2.46038
      vertex 49.2125 -102.6 -2.44048
      vertex 49.2125 -110.401 -2.44048
    endloop
  endfacet
  facet normal 1 0 0
    outer loop
      vertex 49.2125 -110.401 -2.44048
      vertex 49.2125 -102.6 -2.44048
      vertex 49.2125 -110.365 -2.27246
    endloop
  endfacet
  facet normal 1 0 0
    outer loop
      vertex 49.2125 -102.6 -2.44048
      vertex 49.2125 -110.323 -2.10613
      vertex 49.2125 -110.365 -2.27246
    endloop
  endfacet
  facet normal 1 0 0
    outer loop
      vertex 49.2125 -103.479 -0.601932
      vertex 49.2125 -103.593 -0.473634
      vertex 49.2125 -108.899 -0.0132703
    endloop
  endfacet
  facet normal 1 0 0
    outer loop
      vertex 49.2125 -102.636 -2.27246
      vertex 49.2125 -109.83 -1.01472
      vertex 49.2125 -102.6 -2.44048
    endloop
  endfacet
  facet normal 1 0 0
    outer loop
      vertex 49.2125 -109.83 -1.01472
      vertex 49.2125 -109.92 -1.16076
      vertex 49.2125 -102.6 -2.44048
    endloop
  endfacet
  facet normal 1 0 0
    outer loop
      vertex 49.2125 -102.6 -2.44048
      vertex 49.2125 -109.92 -1.16076
      vertex 49.2125 -110.004 -1.31056
    endloop
  endfacet
  facet normal 1 0 0
    outer loop
      vertex 49.2125 -110.081 -1.46386
      vertex 49.2125 -110.152 -1.62036
      vertex 49.2125 -102.6 -2.44048
    endloop
  endfacet
  facet normal 1 0 0
    outer loop
      vertex 49.2125 -110.152 -1.62036
      vertex 49.2125 -110.216 -1.77977
      vertex 49.2125 -102.6 -2.44048
    endloop
  endfacet
  facet normal 1 0 0
    outer loop
      vertex 49.2125 -102.6 -2.44048
      vertex 49.2125 -110.216 -1.77977
      vertex 49.2125 -110.273 -1.94179
    endloop
  endfacet
  facet normal 1 0 0
    outer loop
      vertex 49.2125 -102.728 -1.94179
      vertex 49.2125 -102.785 -1.77977
      vertex 49.2125 -109.83 -1.01472
    endloop
  endfacet
  facet normal 1 0 0
    outer loop
      vertex 49.2125 -102.785 -1.77977
      vertex 49.2125 -102.849 -1.62036
      vertex 49.2125 -109.83 -1.01472
    endloop
  endfacet
  facet normal 1 0 0
    outer loop
      vertex 49.2125 -109.83 -1.01472
      vertex 49.2125 -102.849 -1.62036
      vertex 49.2125 -102.92 -1.46386
    endloop
  endfacet
  facet normal 1 0 0
    outer loop
      vertex 49.2125 -102.92 -1.46386
      vertex 49.2125 -102.997 -1.31056
      vertex 49.2125 -109.83 -1.01472
    endloop
  endfacet
  facet normal 1 0 0
    outer loop
      vertex 49.2125 -102.997 -1.31056
      vertex 49.2125 -103.081 -1.16076
      vertex 49.2125 -109.83 -1.01472
    endloop
  endfacet
  facet normal 1 0 0
    outer loop
      vertex 49.2125 -109.83 -1.01472
      vertex 49.2125 -103.081 -1.16076
      vertex 49.2125 -103.171 -1.01472
    endloop
  endfacet
  facet normal 1 0 0
    outer loop
      vertex 49.2125 -103.37 -0.735046
      vertex 49.2125 -109.522 -0.601932
      vertex 49.2125 -109.631 -0.735046
    endloop
  endfacet
  facet normal 1 0 0
    outer loop
      vertex 49.2125 -103.479 -0.601932
      vertex 49.2125 -108.899 -0.0132703
      vertex 49.2125 -103.37 -0.735046
    endloop
  endfacet
  facet normal 1 0 0
    outer loop
      vertex 49.2125 -108.899 -0.0132703
      vertex 49.2125 -109.034 -0.119996
      vertex 49.2125 -103.37 -0.735046
    endloop
  endfacet
  facet normal 1 0 0
    outer loop
      vertex 49.2125 -103.37 -0.735046
      vertex 49.2125 -109.034 -0.119996
      vertex 49.2125 -109.164 -0.23244
    endloop
  endfacet
  facet normal 1 0 0
    outer loop
      vertex 49.2125 -103.171 -1.01472
      vertex 49.2125 -103.268 -0.872728
      vertex 49.2125 -109.83 -1.01472
    endloop
  endfacet
  facet normal 1 0 0
    outer loop
      vertex 49.2125 -103.268 -0.872728
      vertex 49.2125 -103.37 -0.735046
      vertex 49.2125 -109.83 -1.01472
    endloop
  endfacet
  facet normal 1 0 0
    outer loop
      vertex 49.2125 -109.83 -1.01472
      vertex 49.2125 -103.37 -0.735046
      vertex 49.2125 -109.733 -0.872728
    endloop
  endfacet
  facet normal 1 0 0
    outer loop
      vertex 49.2125 -103.37 -0.735046
      vertex 49.2125 -109.631 -0.735046
      vertex 49.2125 -109.733 -0.872728
    endloop
  endfacet
  facet normal 1 0 0
    outer loop
      vertex 49.2125 -109.164 -0.23244
      vertex 49.2125 -109.288 -0.350393
      vertex 49.2125 -103.37 -0.735046
    endloop
  endfacet
  facet normal 1 0 0
    outer loop
      vertex 49.2125 -109.288 -0.350393
      vertex 49.2125 -109.408 -0.473634
      vertex 49.2125 -103.37 -0.735046
    endloop
  endfacet
  facet normal 1 0 0
    outer loop
      vertex 49.2125 -103.37 -0.735046
      vertex 49.2125 -109.408 -0.473634
      vertex 49.2125 -109.522 -0.601932
    endloop
  endfacet
  facet normal 1 0 0
    outer loop
      vertex 49.2125 -103.593 -0.473634
      vertex 49.2125 -103.713 -0.350393
      vertex 49.2125 -108.899 -0.0132703
    endloop
  endfacet
  facet normal 1 0 0
    outer loop
      vertex 49.2125 -103.713 -0.350393
      vertex 49.2125 -103.837 -0.23244
      vertex 49.2125 -108.899 -0.0132703
    endloop
  endfacet
  facet normal 1 0 0
    outer loop
      vertex 49.2125 -108.899 -0.0132703
      vertex 49.2125 -103.837 -0.23244
      vertex 49.2125 -103.967 -0.119996
    endloop
  endfacet
  facet normal 1 0 0
    outer loop
      vertex 49.2125 -103.967 -0.119996
      vertex 49.2125 -104.102 -0.0132703
      vertex 49.2125 -108.899 -0.0132703
    endloop
  endfacet
  facet normal 1 0 0
    outer loop
      vertex 49.2125 -104.102 -0.0132703
      vertex 49.2125 -104.241 0.0875364
      vertex 49.2125 -108.899 -0.0132703
    endloop
  endfacet
  facet normal 1 0 0
    outer loop
      vertex 49.2125 -108.899 -0.0132703
      vertex 49.2125 -104.241 0.0875364
      vertex 49.2125 -104.384 0.182235
    endloop
  endfacet
  facet normal 1 0 0
    outer loop
      vertex 49.2125 -104.384 0.182235
      vertex 49.2125 -104.531 0.27065
      vertex 49.2125 -108.899 -0.0132703
    endloop
  endfacet
  facet normal 1 0 0
    outer loop
      vertex 49.2125 -104.531 0.27065
      vertex 49.2125 -104.682 0.352614
      vertex 49.2125 -108.899 -0.0132703
    endloop
  endfacet
  facet normal 1 0 0
    outer loop
      vertex 49.2125 -108.899 -0.0132703
      vertex 49.2125 -104.682 0.352614
      vertex 49.2125 -104.836 0.427974
    endloop
  endfacet
  facet normal 1 0 0
    outer loop
      vertex 49.2125 -105.649 0.701228
      vertex 49.2125 -108.47 0.27065
      vertex 49.2125 -108.617 0.182235
    endloop
  endfacet
  facet normal 1 0 0
    outer loop
      vertex 49.2125 -104.836 0.427974
      vertex 49.2125 -104.994 0.496589
      vertex 49.2125 -108.899 -0.0132703
    endloop
  endfacet
  facet normal 1 0 0
    outer loop
      vertex 49.2125 -104.994 0.496589
      vertex 49.2125 -105.154 0.558331
      vertex 49.2125 -108.899 -0.0132703
    endloop
  endfacet
  facet normal 1 0 0
    outer loop
      vertex 49.2125 -108.899 -0.0132703
      vertex 49.2125 -105.154 0.558331
      vertex 49.2125 -105.317 0.613084
    endloop
  endfacet
  facet normal 1 0 0
    outer loop
      vertex 49.2125 -105.987 0.760359
      vertex 49.2125 -106.157 0.778898
      vertex 49.2125 -108.319 0.352614
    endloop
  endfacet
  facet normal 1 0 0
    outer loop
      vertex 49.2125 -106.157 0.778898
      vertex 49.2125 -106.329 0.790035
      vertex 49.2125 -108.319 0.352614
    endloop
  endfacet
  facet normal 1 0 0
    outer loop
      vertex 49.2125 -107.847 0.558331
      vertex 49.2125 -108.007 0.496589
      vertex 49.2125 -106.672 0.790035
    endloop
  endfacet
  facet normal 1 0 0
    outer loop
      vertex 49.2125 -105.317 0.613084
      vertex 49.2125 -105.482 0.660746
      vertex 49.2125 -108.899 -0.0132703
    endloop
  endfacet
  facet normal 1 0 0
    outer loop
      vertex 49.2125 -105.482 0.660746
      vertex 49.2125 -105.649 0.701228
      vertex 49.2125 -108.899 -0.0132703
    endloop
  endfacet
  facet normal 1 0 0
    outer loop
      vertex 49.2125 -108.899 -0.0132703
      vertex 49.2125 -105.649 0.701228
      vertex 49.2125 -108.76 0.0875364
    endloop
  endfacet
  facet normal 1 0 0
    outer loop
      vertex 49.2125 -105.649 0.701228
      vertex 49.2125 -108.617 0.182235
      vertex 49.2125 -108.76 0.0875364
    endloop
  endfacet
  facet normal 1 0 0
    outer loop
      vertex 49.2125 -108.47 0.27065
      vertex 49.2125 -105.649 0.701228
      vertex 49.2125 -108.319 0.352614
    endloop
  endfacet
  facet normal 1 0 0
    outer loop
      vertex 49.2125 -105.649 0.701228
      vertex 49.2125 -105.817 0.734452
      vertex 49.2125 -108.319 0.352614
    endloop
  endfacet
  facet normal 1 0 0
    outer loop
      vertex 49.2125 -108.319 0.352614
      vertex 49.2125 -105.817 0.734452
      vertex 49.2125 -105.987 0.760359
    endloop
  endfacet
  facet normal 1 0 0
    outer loop
      vertex 49.2125 -106.844 0.778898
      vertex 49.2125 -107.014 0.760359
      vertex 49.2125 -106.672 0.790035
    endloop
  endfacet
  facet normal 1 0 0
    outer loop
      vertex 49.2125 -107.014 0.760359
      vertex 49.2125 -107.184 0.734452
      vertex 49.2125 -106.672 0.790035
    endloop
  endfacet
  facet normal 1 0 0
    outer loop
      vertex 49.2125 -106.672 0.790035
      vertex 49.2125 -107.184 0.734452
      vertex 49.2125 -107.352 0.701228
    endloop
  endfacet
  facet normal 1 0 0
    outer loop
      vertex 49.2125 -106.329 0.790035
      vertex 49.2125 -106.501 0.79375
      vertex 49.2125 -108.319 0.352614
    endloop
  endfacet
  facet normal 1 0 0
    outer loop
      vertex 49.2125 -106.501 0.79375
      vertex 49.2125 -106.672 0.790035
      vertex 49.2125 -108.319 0.352614
    endloop
  endfacet
  facet normal 1 0 0
    outer loop
      vertex 49.2125 -108.319 0.352614
      vertex 49.2125 -106.672 0.790035
      vertex 49.2125 -108.165 0.427974
    endloop
  endfacet
  facet normal 1 0 0
    outer loop
      vertex 49.2125 -106.672 0.790035
      vertex 49.2125 -108.007 0.496589
      vertex 49.2125 -108.165 0.427974
    endloop
  endfacet
  facet normal 1 0 0
    outer loop
      vertex 49.2125 -107.352 0.701228
      vertex 49.2125 -107.519 0.660746
      vertex 49.2125 -106.672 0.790035
    endloop
  endfacet
  facet normal 1 0 0
    outer loop
      vertex 49.2125 -107.519 0.660746
      vertex 49.2125 -107.684 0.613084
      vertex 49.2125 -106.672 0.790035
    endloop
  endfacet
  facet normal 1 0 0
    outer loop
      vertex 49.2125 -106.672 0.790035
      vertex 49.2125 -107.684 0.613084
      vertex 49.2125 -107.847 0.558331
    endloop
  endfacet
endsolid Onshape
