solid Onshape
  facet normal -1 0 0
    outer loop
      vertex -57.15 5.61388 -18.4145
      vertex -57.15 5.61388 -15.5395
      vertex -57.15 12.4591 -18.4145
    endloop
  endfacet
  facet normal -1 0 0
    outer loop
      vertex -57.15 5.61388 -15.5395
      vertex -57.15 23.8222 -15.5395
      vertex -57.15 12.4591 -18.4145
    endloop
  endfacet
  facet normal -1 0 0
    outer loop
      vertex -57.15 12.4591 -18.4145
      vertex -57.15 23.8222 -15.5395
      vertex -57.15 17.5246 -42.0772
    endloop
  endfacet
  facet normal -1 0 0
    outer loop
      vertex -57.15 23.8222 -15.5395
      vertex -57.15 23.8222 -42.0772
      vertex -57.15 17.5246 -42.0772
    endloop
  endfacet
  facet normal 1 0 0
    outer loop
      vertex -6.35 5.61388 -15.5395
      vertex -6.35 5.61388 -18.4145
      vertex -6.35 12.4591 -18.4145
    endloop
  endfacet
  facet normal 1 0 0
    outer loop
      vertex -6.35 17.5246 -42.0772
      vertex -6.35 23.8222 -42.0772
      vertex -6.35 12.4591 -18.4145
    endloop
  endfacet
  facet normal 1 0 0
    outer loop
      vertex -6.35 23.8222 -42.0772
      vertex -6.35 23.8222 -15.5395
      vertex -6.35 12.4591 -18.4145
    endloop
  endfacet
  facet normal 1 0 0
    outer loop
      vertex -6.35 12.4591 -18.4145
      vertex -6.35 23.8222 -15.5395
      vertex -6.35 5.61388 -15.5395
    endloop
  endfacet
  facet normal 0 1 0
    outer loop
      vertex -6.35 23.8222 -15.5395
      vertex -6.35 23.8222 -42.0772
      vertex -57.15 23.8222 -15.5395
    endloop
  endfacet
  facet normal 0 1 0
    outer loop
      vertex -6.35 23.8222 -42.0772
      vertex -57.15 23.8222 -42.0772
      vertex -57.15 23.8222 -15.5395
    endloop
  endfacet
  facet normal 0 0 -1
    outer loop
      vertex -6.35 23.8222 -42.0772
      vertex -6.35 17.5246 -42.0772
      vertex -57.15 23.8222 -42.0772
    endloop
  endfacet
  facet normal 0 0 -1
    outer loop
      vertex -6.35 17.5246 -42.0772
      vertex -57.15 17.5246 -42.0772
      vertex -57.15 23.8222 -42.0772
    endloop
  endfacet
  facet normal 0 0 1
    outer loop
      vertex -6.35 5.61388 -15.5395
      vertex -6.35 23.8222 -15.5395
      vertex -57.15 5.61388 -15.5395
    endloop
  endfacet
  facet normal 0 0 1
    outer loop
      vertex -6.35 23.8222 -15.5395
      vertex -57.15 23.8222 -15.5395
      vertex -57.15 5.61388 -15.5395
    endloop
  endfacet
  facet normal 0 -1 0
    outer loop
      vertex -6.35 5.61388 -18.4145
      vertex -6.35 5.61388 -15.5395
      vertex -57.15 5.61388 -18.4145
    endloop
  endfacet
  facet normal 0 -1 0
    outer loop
      vertex -6.35 5.61388 -15.5395
      vertex -57.15 5.61388 -15.5395
      vertex -57.15 5.61388 -18.4145
    endloop
  endfacet
  facet normal 0 0 -1
    outer loop
      vertex -6.35 12.4591 -18.4145
      vertex -6.35 5.61388 -18.4145
      vertex -57.15 12.4591 -18.4145
    endloop
  endfacet
  facet normal 0 0 -1
    outer loop
      vertex -6.35 5.61388 -18.4145
      vertex -57.15 5.61388 -18.4145
      vertex -57.15 12.4591 -18.4145
    endloop
  endfacet
  facet normal 0 -0.977846 -0.209327
    outer loop
      vertex -6.35 17.5246 -42.0772
      vertex -6.35 12.4591 -18.4145
      vertex -57.15 17.5246 -42.0772
    endloop
  endfacet
  facet normal 0 -0.977846 -0.209327
    outer loop
      vertex -6.35 12.4591 -18.4145
      vertex -57.15 12.4591 -18.4145
      vertex -57.15 17.5246 -42.0772
    endloop
  endfacet
endsolid Onshape
