solid Onshape
  facet normal 0 0.0214674 0.99977
    outer loop
      vertex -60.6253 -90.5066 3.81
      vertex -127.935 -90.5066 3.81
      vertex -128.208 -90.7792 3.81585
    endloop
  endfacet
  facet normal 0 0.0214674 0.99977
    outer loop
      vertex -60.6253 -90.5066 3.81
      vertex -128.208 -90.7792 3.81585
      vertex -60.3527 -90.7792 3.81585
    endloop
  endfacet
  facet normal 0 0.0643586 0.997927
    outer loop
      vertex -128.208 -90.7792 3.81585
      vertex -128.48 -91.0512 3.8334
      vertex -60.3527 -90.7792 3.81585
    endloop
  endfacet
  facet normal 0 0.0643586 0.997927
    outer loop
      vertex -60.3527 -90.7792 3.81585
      vertex -128.48 -91.0512 3.8334
      vertex -60.0807 -91.0512 3.8334
    endloop
  endfacet
  facet normal 0 0.107136 0.994244
    outer loop
      vertex -128.48 -91.0512 3.8334
      vertex -128.751 -91.3223 3.86261
      vertex -60.0807 -91.0512 3.8334
    endloop
  endfacet
  facet normal 0 0.107136 0.994244
    outer loop
      vertex -60.0807 -91.0512 3.8334
      vertex -128.751 -91.3223 3.86261
      vertex -59.8096 -91.3223 3.86261
    endloop
  endfacet
  facet normal 0 0.149711 0.98873
    outer loop
      vertex -128.751 -91.3223 3.86261
      vertex -129.021 -91.5918 3.90342
      vertex -59.8096 -91.3223 3.86261
    endloop
  endfacet
  facet normal 0 0.149711 0.98873
    outer loop
      vertex -59.8096 -91.3223 3.86261
      vertex -129.021 -91.5918 3.90342
      vertex -59.5401 -91.5918 3.90342
    endloop
  endfacet
  facet normal 0 0.192013 0.981392
    outer loop
      vertex -129.021 -91.5918 3.90342
      vertex -129.288 -91.8594 3.95577
      vertex -59.5401 -91.5918 3.90342
    endloop
  endfacet
  facet normal 0 0.192013 0.981392
    outer loop
      vertex -59.5401 -91.5918 3.90342
      vertex -129.288 -91.8594 3.95577
      vertex -59.2725 -91.8594 3.95577
    endloop
  endfacet
  facet normal 0 0.233964 0.972245
    outer loop
      vertex -129.288 -91.8594 3.95577
      vertex -129.553 -92.1245 4.01955
      vertex -59.2725 -91.8594 3.95577
    endloop
  endfacet
  facet normal 0 0.233964 0.972245
    outer loop
      vertex -59.2725 -91.8594 3.95577
      vertex -129.553 -92.1245 4.01955
      vertex -59.0075 -92.1245 4.01955
    endloop
  endfacet
  facet normal 0 0.275479 0.961307
    outer loop
      vertex -129.553 -92.1245 4.01955
      vertex -129.815 -92.3865 4.09465
      vertex -59.0075 -92.1245 4.01955
    endloop
  endfacet
  facet normal 0 0.275479 0.961307
    outer loop
      vertex -59.0075 -92.1245 4.01955
      vertex -129.815 -92.3865 4.09465
      vertex -58.7454 -92.3865 4.09465
    endloop
  endfacet
  facet normal 0 0.316478 0.9486
    outer loop
      vertex -129.815 -92.3865 4.09465
      vertex -130.074 -92.6451 4.18094
      vertex -58.7454 -92.3865 4.09465
    endloop
  endfacet
  facet normal 0 0.316478 0.9486
    outer loop
      vertex -58.7454 -92.3865 4.09465
      vertex -130.074 -92.6451 4.18094
      vertex -58.4868 -92.6451 4.18094
    endloop
  endfacet
  facet normal 0 0.356912 0.934138
    outer loop
      vertex -130.074 -92.6451 4.18094
      vertex -130.328 -92.8998 4.27824
      vertex -58.4868 -92.6451 4.18094
    endloop
  endfacet
  facet normal 0 0.356912 0.934138
    outer loop
      vertex -58.4868 -92.6451 4.18094
      vertex -130.328 -92.8998 4.27824
      vertex -58.2321 -92.8998 4.27824
    endloop
  endfacet
  facet normal 0 0.396677 0.917958
    outer loop
      vertex -130.328 -92.8998 4.27824
      vertex -130.579 -93.1501 4.38638
      vertex -58.2321 -92.8998 4.27824
    endloop
  endfacet
  facet normal 0 0.396677 0.917958
    outer loop
      vertex -58.2321 -92.8998 4.27824
      vertex -130.579 -93.1501 4.38638
      vertex -57.9818 -93.1501 4.38638
    endloop
  endfacet
  facet normal 0 0.435715 0.900085
    outer loop
      vertex -130.579 -93.1501 4.38638
      vertex -130.824 -93.3955 4.50517
      vertex -57.9818 -93.1501 4.38638
    endloop
  endfacet
  facet normal 0 0.435715 0.900085
    outer loop
      vertex -57.9818 -93.1501 4.38638
      vertex -130.824 -93.3955 4.50517
      vertex -57.7365 -93.3955 4.50517
    endloop
  endfacet
  facet normal 0 0.473951 0.880551
    outer loop
      vertex -130.824 -93.3955 4.50517
      vertex -131.064 -93.6355 4.63438
      vertex -57.7365 -93.3955 4.50517
    endloop
  endfacet
  facet normal 0 0.473951 0.880551
    outer loop
      vertex -57.7365 -93.3955 4.50517
      vertex -131.064 -93.6355 4.63438
      vertex -57.4964 -93.6355 4.63438
    endloop
  endfacet
  facet normal 0 0.511309 0.859397
    outer loop
      vertex -131.064 -93.6355 4.63438
      vertex -131.298 -93.8698 4.77377
      vertex -57.4964 -93.6355 4.63438
    endloop
  endfacet
  facet normal 0 0.511309 0.859397
    outer loop
      vertex -57.4964 -93.6355 4.63438
      vertex -131.298 -93.8698 4.77377
      vertex -57.2621 -93.8698 4.77377
    endloop
  endfacet
  facet normal 0 0.547714 0.836666
    outer loop
      vertex -131.298 -93.8698 4.77377
      vertex -131.527 -94.0979 4.92309
      vertex -57.2621 -93.8698 4.77377
    endloop
  endfacet
  facet normal 0 0.547714 0.836666
    outer loop
      vertex -57.2621 -93.8698 4.77377
      vertex -131.527 -94.0979 4.92309
      vertex -57.034 -94.0979 4.92309
    endloop
  endfacet
  facet normal 0 0.58314 0.812372
    outer loop
      vertex -131.527 -94.0979 4.92309
      vertex -131.748 -94.3194 5.08207
      vertex -57.034 -94.0979 4.92309
    endloop
  endfacet
  facet normal 0 0.58314 0.812372
    outer loop
      vertex -57.034 -94.0979 4.92309
      vertex -131.748 -94.3194 5.08207
      vertex -56.8125 -94.3194 5.08207
    endloop
  endfacet
  facet normal 0 0.617456 0.786606
    outer loop
      vertex -131.748 -94.3194 5.08207
      vertex -131.962 -94.5338 5.25041
      vertex -56.8125 -94.3194 5.08207
    endloop
  endfacet
  facet normal 0 0.617456 0.786606
    outer loop
      vertex -56.8125 -94.3194 5.08207
      vertex -131.962 -94.5338 5.25041
      vertex -56.5981 -94.5338 5.25041
    endloop
  endfacet
  facet normal 0 0.650659 0.75937
    outer loop
      vertex -131.962 -94.5338 5.25041
      vertex -132.17 -94.7408 5.42779
      vertex -56.5981 -94.5338 5.25041
    endloop
  endfacet
  facet normal 0 0.650659 0.75937
    outer loop
      vertex -56.5981 -94.5338 5.25041
      vertex -132.17 -94.7408 5.42779
      vertex -56.3911 -94.7408 5.42779
    endloop
  endfacet
  facet normal 0 0.682647 0.730748
    outer loop
      vertex -132.17 -94.7408 5.42779
      vertex -132.369 -94.9401 5.6139
      vertex -56.3911 -94.7408 5.42779
    endloop
  endfacet
  facet normal 0 0.682647 0.730748
    outer loop
      vertex -56.3911 -94.7408 5.42779
      vertex -132.369 -94.9401 5.6139
      vertex -56.1919 -94.9401 5.6139
    endloop
  endfacet
  facet normal 0 0.713386 0.700772
    outer loop
      vertex -132.369 -94.9401 5.6139
      vertex -132.56 -95.1311 5.80838
      vertex -56.1919 -94.9401 5.6139
    endloop
  endfacet
  facet normal 0 0.713386 0.700772
    outer loop
      vertex -56.1919 -94.9401 5.6139
      vertex -132.56 -95.1311 5.80838
      vertex -56.0008 -95.1311 5.80838
    endloop
  endfacet
  facet normal 0 0.742807 0.669506
    outer loop
      vertex -132.56 -95.1311 5.80838
      vertex -132.742 -95.3136 6.01089
      vertex -56.0008 -95.1311 5.80838
    endloop
  endfacet
  facet normal 0 0.742807 0.669506
    outer loop
      vertex -56.0008 -95.1311 5.80838
      vertex -132.742 -95.3136 6.01089
      vertex -55.8183 -95.3136 6.01089
    endloop
  endfacet
  facet normal 0 0.770869 0.636993
    outer loop
      vertex -132.742 -95.3136 6.01089
      vertex -132.916 -95.4873 6.22105
      vertex -55.8183 -95.3136 6.01089
    endloop
  endfacet
  facet normal 0 0.770869 0.636993
    outer loop
      vertex -55.8183 -95.3136 6.01089
      vertex -132.916 -95.4873 6.22105
      vertex -55.6446 -95.4873 6.22105
    endloop
  endfacet
  facet normal 0 0.790968 0.611858
    outer loop
      vertex -55.6446 -95.4873 6.22105
      vertex -132.916 -95.4873 6.22105
      vertex -55.5612 -95.5707 6.32887
    endloop
  endfacet
  facet normal 0 0.790968 0.611858
    outer loop
      vertex -132.916 -95.4873 6.22105
      vertex -132.999 -95.5707 6.32887
      vertex -55.5612 -95.5707 6.32887
    endloop
  endfacet
  facet normal 0 0.803938 0.594714
    outer loop
      vertex -55.5612 -95.5707 6.32887
      vertex -132.999 -95.5707 6.32887
      vertex -55.4801 -95.6518 6.43846
    endloop
  endfacet
  facet normal 0 0.803938 0.594714
    outer loop
      vertex -132.999 -95.5707 6.32887
      vertex -133.08 -95.6518 6.43846
      vertex -55.4801 -95.6518 6.43846
    endloop
  endfacet
  facet normal 0 0.816487 0.577363
    outer loop
      vertex -55.4801 -95.6518 6.43846
      vertex -133.08 -95.6518 6.43846
      vertex -55.4014 -95.7305 6.54977
    endloop
  endfacet
  facet normal 0 0.816487 0.577363
    outer loop
      vertex -133.08 -95.6518 6.43846
      vertex -133.159 -95.7305 6.54977
      vertex -55.4014 -95.7305 6.54977
    endloop
  endfacet
  facet normal 0 0.828715 0.559671
    outer loop
      vertex -55.4014 -95.7305 6.54977
      vertex -133.159 -95.7305 6.54977
      vertex -55.3251 -95.8068 6.66274
    endloop
  endfacet
  facet normal 0 0.828715 0.559671
    outer loop
      vertex -133.159 -95.7305 6.54977
      vertex -133.235 -95.8068 6.66274
      vertex -55.3251 -95.8068 6.66274
    endloop
  endfacet
  facet normal 0 0.840543 0.541745
    outer loop
      vertex -133.235 -95.8068 6.66274
      vertex -133.309 -95.8806 6.77732
      vertex -55.3251 -95.8068 6.66274
    endloop
  endfacet
  facet normal 0 0.840543 0.541745
    outer loop
      vertex -55.3251 -95.8068 6.66274
      vertex -133.309 -95.8806 6.77732
      vertex -55.2513 -95.8806 6.77732
    endloop
  endfacet
  facet normal 0 0.851968 0.523594
    outer loop
      vertex -133.309 -95.8806 6.77732
      vertex -133.381 -95.952 6.89346
      vertex -55.2513 -95.8806 6.77732
    endloop
  endfacet
  facet normal 0 0.851968 0.523594
    outer loop
      vertex -55.2513 -95.8806 6.77732
      vertex -133.381 -95.952 6.89346
      vertex -55.1799 -95.952 6.89346
    endloop
  endfacet
  facet normal 0 0.863015 0.505178
    outer loop
      vertex -133.381 -95.952 6.89346
      vertex -133.45 -96.0209 7.01111
      vertex -55.1799 -95.952 6.89346
    endloop
  endfacet
  facet normal 0 0.863015 0.505178
    outer loop
      vertex -55.1799 -95.952 6.89346
      vertex -133.45 -96.0209 7.01111
      vertex -55.111 -96.0209 7.01111
    endloop
  endfacet
  facet normal 0 0.873658 0.48654
    outer loop
      vertex -133.45 -96.0209 7.01111
      vertex -133.516 -96.0872 7.13021
      vertex -55.111 -96.0209 7.01111
    endloop
  endfacet
  facet normal 0 0.873658 0.48654
    outer loop
      vertex -55.111 -96.0209 7.01111
      vertex -133.516 -96.0872 7.13021
      vertex -55.0447 -96.0872 7.13021
    endloop
  endfacet
  facet normal 0 0.883897 0.467681
    outer loop
      vertex -133.516 -96.0872 7.13021
      vertex -133.58 -96.1509 7.2507
      vertex -55.0447 -96.0872 7.13021
    endloop
  endfacet
  facet normal 0 0.883897 0.467681
    outer loop
      vertex -55.0447 -96.0872 7.13021
      vertex -133.58 -96.1509 7.2507
      vertex -54.981 -96.1509 7.2507
    endloop
  endfacet
  facet normal 0 0.89373 0.448605
    outer loop
      vertex -133.58 -96.1509 7.2507
      vertex -133.641 -96.2121 7.37253
      vertex -54.981 -96.1509 7.2507
    endloop
  endfacet
  facet normal 0 0.89373 0.448605
    outer loop
      vertex -54.981 -96.1509 7.2507
      vertex -133.641 -96.2121 7.37253
      vertex -54.9198 -96.2121 7.37253
    endloop
  endfacet
  facet normal 0 0.903177 0.429268
    outer loop
      vertex -133.641 -96.2121 7.37253
      vertex -133.699 -96.2706 7.49565
      vertex -54.9198 -96.2121 7.37253
    endloop
  endfacet
  facet normal 0 0.903177 0.429268
    outer loop
      vertex -54.9198 -96.2121 7.37253
      vertex -133.699 -96.2706 7.49565
      vertex -54.8613 -96.2706 7.49565
    endloop
  endfacet
  facet normal 0 0.912153 0.409851
    outer loop
      vertex -133.699 -96.2706 7.49565
      vertex -133.755 -96.3265 7.62
      vertex -54.8613 -96.2706 7.49565
    endloop
  endfacet
  facet normal 0 0.912153 0.409851
    outer loop
      vertex -54.8613 -96.2706 7.49565
      vertex -133.755 -96.3265 7.62
      vertex -54.8054 -96.3265 7.62
    endloop
  endfacet
  facet normal -0.912173 0 0.409805
    outer loop
      vertex -54.8054 -96.3265 7.62
      vertex -54.8054 79.4607 7.62
      vertex -54.8613 79.4049 7.49565
    endloop
  endfacet
  facet normal -0.912173 0 0.409805
    outer loop
      vertex -54.8054 -96.3265 7.62
      vertex -54.8613 79.4049 7.49565
      vertex -54.8613 -96.2706 7.49565
    endloop
  endfacet
  facet normal -0.903156 0 0.429313
    outer loop
      vertex -54.8613 79.4049 7.49565
      vertex -54.9198 79.3464 7.37253
      vertex -54.8613 -96.2706 7.49565
    endloop
  endfacet
  facet normal -0.903156 0 0.429313
    outer loop
      vertex -54.8613 -96.2706 7.49565
      vertex -54.9198 79.3464 7.37253
      vertex -54.9198 -96.2121 7.37253
    endloop
  endfacet
  facet normal -0.893741 0 0.448584
    outer loop
      vertex -54.9198 -96.2121 7.37253
      vertex -54.9198 79.3464 7.37253
      vertex -54.981 -96.1509 7.2507
    endloop
  endfacet
  facet normal -0.893741 0 0.448584
    outer loop
      vertex -54.9198 79.3464 7.37253
      vertex -54.981 79.2852 7.2507
      vertex -54.981 -96.1509 7.2507
    endloop
  endfacet
  facet normal -0.883897 0 0.467681
    outer loop
      vertex -54.981 -96.1509 7.2507
      vertex -54.981 79.2852 7.2507
      vertex -55.0447 -96.0872 7.13021
    endloop
  endfacet
  facet normal -0.883897 0 0.467681
    outer loop
      vertex -54.981 79.2852 7.2507
      vertex -55.0447 79.2215 7.13021
      vertex -55.0447 -96.0872 7.13021
    endloop
  endfacet
  facet normal -0.873658 0 0.48654
    outer loop
      vertex -55.0447 79.2215 7.13021
      vertex -55.111 79.1551 7.01111
      vertex -55.0447 -96.0872 7.13021
    endloop
  endfacet
  facet normal -0.873658 0 0.48654
    outer loop
      vertex -55.0447 -96.0872 7.13021
      vertex -55.111 79.1551 7.01111
      vertex -55.111 -96.0209 7.01111
    endloop
  endfacet
  facet normal -0.863015 0 0.505178
    outer loop
      vertex -55.111 79.1551 7.01111
      vertex -55.1799 79.0863 6.89346
      vertex -55.111 -96.0209 7.01111
    endloop
  endfacet
  facet normal -0.863015 0 0.505178
    outer loop
      vertex -55.111 -96.0209 7.01111
      vertex -55.1799 79.0863 6.89346
      vertex -55.1799 -95.952 6.89346
    endloop
  endfacet
  facet normal -0.851968 0 0.523594
    outer loop
      vertex -55.1799 -95.952 6.89346
      vertex -55.1799 79.0863 6.89346
      vertex -55.2513 -95.8806 6.77732
    endloop
  endfacet
  facet normal -0.851968 0 0.523594
    outer loop
      vertex -55.1799 79.0863 6.89346
      vertex -55.2513 79.0149 6.77732
      vertex -55.2513 -95.8806 6.77732
    endloop
  endfacet
  facet normal -0.840543 0 0.541745
    outer loop
      vertex -55.2513 -95.8806 6.77732
      vertex -55.2513 79.0149 6.77732
      vertex -55.3251 -95.8068 6.66274
    endloop
  endfacet
  facet normal -0.840543 0 0.541745
    outer loop
      vertex -55.2513 79.0149 6.77732
      vertex -55.3251 78.941 6.66274
      vertex -55.3251 -95.8068 6.66274
    endloop
  endfacet
  facet normal -0.828702 0 0.559689
    outer loop
      vertex -55.3251 78.941 6.66274
      vertex -55.4014 78.8647 6.54977
      vertex -55.3251 -95.8068 6.66274
    endloop
  endfacet
  facet normal -0.828702 0 0.559689
    outer loop
      vertex -55.3251 -95.8068 6.66274
      vertex -55.4014 78.8647 6.54977
      vertex -55.4014 -95.7305 6.54977
    endloop
  endfacet
  facet normal -0.816513 0 0.577327
    outer loop
      vertex -55.4014 78.8647 6.54977
      vertex -55.4801 78.786 6.43846
      vertex -55.4014 -95.7305 6.54977
    endloop
  endfacet
  facet normal -0.816513 0 0.577327
    outer loop
      vertex -55.4014 -95.7305 6.54977
      vertex -55.4801 78.786 6.43846
      vertex -55.4801 -95.6518 6.43846
    endloop
  endfacet
  facet normal -0.803924 0 0.594731
    outer loop
      vertex -55.4801 78.786 6.43846
      vertex -55.5612 78.705 6.32887
      vertex -55.4801 -95.6518 6.43846
    endloop
  endfacet
  facet normal -0.803924 0 0.594731
    outer loop
      vertex -55.4801 -95.6518 6.43846
      vertex -55.5612 78.705 6.32887
      vertex -55.5612 -95.5707 6.32887
    endloop
  endfacet
  facet normal -0.790968 0 0.611858
    outer loop
      vertex -55.5612 78.705 6.32887
      vertex -55.6446 -95.4873 6.22105
      vertex -55.5612 -95.5707 6.32887
    endloop
  endfacet
  facet normal -0.790968 0 0.611858
    outer loop
      vertex -55.5612 78.705 6.32887
      vertex -55.6446 78.6216 6.22105
      vertex -55.6446 -95.4873 6.22105
    endloop
  endfacet
  facet normal -0.770863 0 0.637001
    outer loop
      vertex -55.6446 78.6216 6.22105
      vertex -55.8183 78.4479 6.01089
      vertex -55.6446 -95.4873 6.22105
    endloop
  endfacet
  facet normal -0.770863 0 0.637001
    outer loop
      vertex -55.6446 -95.4873 6.22105
      vertex -55.8183 78.4479 6.01089
      vertex -55.8183 -95.3136 6.01089
    endloop
  endfacet
  facet normal -0.742807 0 0.669506
    outer loop
      vertex -55.8183 78.4479 6.01089
      vertex -56.0008 78.2654 5.80838
      vertex -55.8183 -95.3136 6.01089
    endloop
  endfacet
  facet normal -0.742807 0 0.669506
    outer loop
      vertex -55.8183 -95.3136 6.01089
      vertex -56.0008 78.2654 5.80838
      vertex -56.0008 -95.1311 5.80838
    endloop
  endfacet
  facet normal -0.713393 0 0.700765
    outer loop
      vertex -56.0008 78.2654 5.80838
      vertex -56.1919 78.0743 5.6139
      vertex -56.0008 -95.1311 5.80838
    endloop
  endfacet
  facet normal -0.713393 0 0.700765
    outer loop
      vertex -56.0008 -95.1311 5.80838
      vertex -56.1919 78.0743 5.6139
      vertex -56.1919 -94.9401 5.6139
    endloop
  endfacet
  facet normal -0.682647 0 0.730748
    outer loop
      vertex -56.1919 78.0743 5.6139
      vertex -56.3911 77.8751 5.42779
      vertex -56.1919 -94.9401 5.6139
    endloop
  endfacet
  facet normal -0.682647 0 0.730748
    outer loop
      vertex -56.1919 -94.9401 5.6139
      vertex -56.3911 77.8751 5.42779
      vertex -56.3911 -94.7408 5.42779
    endloop
  endfacet
  facet normal -0.650659 0 0.75937
    outer loop
      vertex -56.3911 77.8751 5.42779
      vertex -56.5981 77.6681 5.25041
      vertex -56.3911 -94.7408 5.42779
    endloop
  endfacet
  facet normal -0.650659 0 0.75937
    outer loop
      vertex -56.3911 -94.7408 5.42779
      vertex -56.5981 77.6681 5.25041
      vertex -56.5981 -94.5338 5.25041
    endloop
  endfacet
  facet normal -0.617462 0 0.786601
    outer loop
      vertex -56.5981 77.6681 5.25041
      vertex -56.8125 77.4536 5.08207
      vertex -56.5981 -94.5338 5.25041
    endloop
  endfacet
  facet normal -0.617462 0 0.786601
    outer loop
      vertex -56.5981 -94.5338 5.25041
      vertex -56.8125 77.4536 5.08207
      vertex -56.8125 -94.3194 5.08207
    endloop
  endfacet
  facet normal -0.583127 0 0.812381
    outer loop
      vertex -56.8125 77.4536 5.08207
      vertex -57.034 77.2322 4.92309
      vertex -56.8125 -94.3194 5.08207
    endloop
  endfacet
  facet normal -0.583127 0 0.812381
    outer loop
      vertex -56.8125 -94.3194 5.08207
      vertex -57.034 77.2322 4.92309
      vertex -57.034 -94.0979 4.92309
    endloop
  endfacet
  facet normal -0.547726 0 0.836658
    outer loop
      vertex -57.034 77.2322 4.92309
      vertex -57.2621 77.0041 4.77377
      vertex -57.034 -94.0979 4.92309
    endloop
  endfacet
  facet normal -0.547726 0 0.836658
    outer loop
      vertex -57.034 -94.0979 4.92309
      vertex -57.2621 77.0041 4.77377
      vertex -57.2621 -93.8698 4.77377
    endloop
  endfacet
  facet normal -0.511303 0 0.859401
    outer loop
      vertex -57.2621 77.0041 4.77377
      vertex -57.4964 76.7698 4.63438
      vertex -57.2621 -93.8698 4.77377
    endloop
  endfacet
  facet normal -0.511303 0 0.859401
    outer loop
      vertex -57.2621 -93.8698 4.77377
      vertex -57.4964 76.7698 4.63438
      vertex -57.4964 -93.6355 4.63438
    endloop
  endfacet
  facet normal -0.473951 0 0.880551
    outer loop
      vertex -57.4964 76.7698 4.63438
      vertex -57.7365 76.5297 4.50517
      vertex -57.4964 -93.6355 4.63438
    endloop
  endfacet
  facet normal -0.473951 0 0.880551
    outer loop
      vertex -57.4964 -93.6355 4.63438
      vertex -57.7365 76.5297 4.50517
      vertex -57.7365 -93.3955 4.50517
    endloop
  endfacet
  facet normal -0.43571 0 0.900087
    outer loop
      vertex -57.7365 76.5297 4.50517
      vertex -57.9818 76.2843 4.38638
      vertex -57.7365 -93.3955 4.50517
    endloop
  endfacet
  facet normal -0.43571 0 0.900087
    outer loop
      vertex -57.7365 -93.3955 4.50517
      vertex -57.9818 76.2843 4.38638
      vertex -57.9818 -93.1501 4.38638
    endloop
  endfacet
  facet normal -0.396677 0 0.917958
    outer loop
      vertex -57.9818 76.2843 4.38638
      vertex -58.2321 76.0341 4.27824
      vertex -57.9818 -93.1501 4.38638
    endloop
  endfacet
  facet normal -0.396677 0 0.917958
    outer loop
      vertex -57.9818 -93.1501 4.38638
      vertex -58.2321 76.0341 4.27824
      vertex -58.2321 -92.8998 4.27824
    endloop
  endfacet
  facet normal -0.356912 0 0.934138
    outer loop
      vertex -58.2321 76.0341 4.27824
      vertex -58.4868 75.7794 4.18094
      vertex -58.2321 -92.8998 4.27824
    endloop
  endfacet
  facet normal -0.356912 0 0.934138
    outer loop
      vertex -58.2321 -92.8998 4.27824
      vertex -58.4868 75.7794 4.18094
      vertex -58.4868 -92.6451 4.18094
    endloop
  endfacet
  facet normal -0.316486 0 0.948597
    outer loop
      vertex -58.4868 75.7794 4.18094
      vertex -58.7454 75.5208 4.09465
      vertex -58.4868 -92.6451 4.18094
    endloop
  endfacet
  facet normal -0.316486 0 0.948597
    outer loop
      vertex -58.4868 -92.6451 4.18094
      vertex -58.7454 75.5208 4.09465
      vertex -58.7454 -92.3865 4.09465
    endloop
  endfacet
  facet normal -0.275475 0 0.961308
    outer loop
      vertex -58.7454 75.5208 4.09465
      vertex -59.0075 75.2587 4.01955
      vertex -58.7454 -92.3865 4.09465
    endloop
  endfacet
  facet normal -0.275475 0 0.961308
    outer loop
      vertex -58.7454 -92.3865 4.09465
      vertex -59.0075 75.2587 4.01955
      vertex -59.0075 -92.1245 4.01955
    endloop
  endfacet
  facet normal -0.233961 0 0.972246
    outer loop
      vertex -59.0075 75.2587 4.01955
      vertex -59.2725 74.9937 3.95577
      vertex -59.0075 -92.1245 4.01955
    endloop
  endfacet
  facet normal -0.233961 0 0.972246
    outer loop
      vertex -59.0075 -92.1245 4.01955
      vertex -59.2725 74.9937 3.95577
      vertex -59.2725 -91.8594 3.95577
    endloop
  endfacet
  facet normal -0.192013 0 0.981392
    outer loop
      vertex -59.2725 74.9937 3.95577
      vertex -59.5401 74.7261 3.90342
      vertex -59.2725 -91.8594 3.95577
    endloop
  endfacet
  facet normal -0.192013 0 0.981392
    outer loop
      vertex -59.2725 -91.8594 3.95577
      vertex -59.5401 74.7261 3.90342
      vertex -59.5401 -91.5918 3.90342
    endloop
  endfacet
  facet normal -0.149713 0 0.98873
    outer loop
      vertex -59.5401 74.7261 3.90342
      vertex -59.8096 74.4566 3.86261
      vertex -59.5401 -91.5918 3.90342
    endloop
  endfacet
  facet normal -0.149713 0 0.98873
    outer loop
      vertex -59.5401 -91.5918 3.90342
      vertex -59.8096 74.4566 3.86261
      vertex -59.8096 -91.3223 3.86261
    endloop
  endfacet
  facet normal -0.107134 0 0.994245
    outer loop
      vertex -59.8096 74.4566 3.86261
      vertex -60.0807 74.1855 3.8334
      vertex -59.8096 -91.3223 3.86261
    endloop
  endfacet
  facet normal -0.107134 0 0.994245
    outer loop
      vertex -59.8096 -91.3223 3.86261
      vertex -60.0807 74.1855 3.8334
      vertex -60.0807 -91.0512 3.8334
    endloop
  endfacet
  facet normal -0.0643603 0 0.997927
    outer loop
      vertex -60.0807 74.1855 3.8334
      vertex -60.3527 73.9134 3.81585
      vertex -60.0807 -91.0512 3.8334
    endloop
  endfacet
  facet normal -0.0643603 0 0.997927
    outer loop
      vertex -60.0807 -91.0512 3.8334
      vertex -60.3527 73.9134 3.81585
      vertex -60.3527 -90.7792 3.81585
    endloop
  endfacet
  facet normal -0.0214668 0 0.99977
    outer loop
      vertex -60.3527 73.9134 3.81585
      vertex -60.6253 73.6409 3.81
      vertex -60.3527 -90.7792 3.81585
    endloop
  endfacet
  facet normal -0.0214668 0 0.99977
    outer loop
      vertex -60.3527 -90.7792 3.81585
      vertex -60.6253 73.6409 3.81
      vertex -60.6253 -90.5066 3.81
    endloop
  endfacet
  facet normal 0.0214662 0 0.99977
    outer loop
      vertex -127.935 -90.5066 3.81
      vertex -127.935 73.6409 3.81
      vertex -128.208 73.9134 3.81585
    endloop
  endfacet
  facet normal 0.0214662 0 0.99977
    outer loop
      vertex -127.935 -90.5066 3.81
      vertex -128.208 73.9134 3.81585
      vertex -128.208 -90.7792 3.81585
    endloop
  endfacet
  facet normal 0.0643621 0 0.997927
    outer loop
      vertex -128.208 73.9134 3.81585
      vertex -128.48 74.1855 3.8334
      vertex -128.208 -90.7792 3.81585
    endloop
  endfacet
  facet normal 0.0643621 0 0.997927
    outer loop
      vertex -128.208 -90.7792 3.81585
      vertex -128.48 74.1855 3.8334
      vertex -128.48 -91.0512 3.8334
    endloop
  endfacet
  facet normal 0.107136 0 0.994244
    outer loop
      vertex -128.48 74.1855 3.8334
      vertex -128.751 74.4566 3.86261
      vertex -128.48 -91.0512 3.8334
    endloop
  endfacet
  facet normal 0.107136 0 0.994244
    outer loop
      vertex -128.48 -91.0512 3.8334
      vertex -128.751 74.4566 3.86261
      vertex -128.751 -91.3223 3.86261
    endloop
  endfacet
  facet normal 0.149707 0 0.98873
    outer loop
      vertex -128.751 74.4566 3.86261
      vertex -129.021 74.7261 3.90342
      vertex -128.751 -91.3223 3.86261
    endloop
  endfacet
  facet normal 0.149707 0 0.98873
    outer loop
      vertex -128.751 -91.3223 3.86261
      vertex -129.021 74.7261 3.90342
      vertex -129.021 -91.5918 3.90342
    endloop
  endfacet
  facet normal 0.192013 0 0.981392
    outer loop
      vertex -129.021 74.7261 3.90342
      vertex -129.288 74.9937 3.95577
      vertex -129.021 -91.5918 3.90342
    endloop
  endfacet
  facet normal 0.192013 0 0.981392
    outer loop
      vertex -129.021 -91.5918 3.90342
      vertex -129.288 74.9937 3.95577
      vertex -129.288 -91.8594 3.95577
    endloop
  endfacet
  facet normal 0.233958 0 0.972247
    outer loop
      vertex -129.288 74.9937 3.95577
      vertex -129.553 75.2587 4.01955
      vertex -129.288 -91.8594 3.95577
    endloop
  endfacet
  facet normal 0.233958 0 0.972247
    outer loop
      vertex -129.288 -91.8594 3.95577
      vertex -129.553 75.2587 4.01955
      vertex -129.553 -92.1245 4.01955
    endloop
  endfacet
  facet normal 0.275486 0 0.961305
    outer loop
      vertex -129.553 75.2587 4.01955
      vertex -129.815 75.5208 4.09465
      vertex -129.553 -92.1245 4.01955
    endloop
  endfacet
  facet normal 0.275486 0 0.961305
    outer loop
      vertex -129.553 -92.1245 4.01955
      vertex -129.815 75.5208 4.09465
      vertex -129.815 -92.3865 4.09465
    endloop
  endfacet
  facet normal 0.316486 0 0.948597
    outer loop
      vertex -129.815 75.5208 4.09465
      vertex -130.074 75.7794 4.18094
      vertex -129.815 -92.3865 4.09465
    endloop
  endfacet
  facet normal 0.316486 0 0.948597
    outer loop
      vertex -129.815 -92.3865 4.09465
      vertex -130.074 75.7794 4.18094
      vertex -130.074 -92.6451 4.18094
    endloop
  endfacet
  facet normal 0.356903 0 0.934141
    outer loop
      vertex -130.074 75.7794 4.18094
      vertex -130.328 76.0341 4.27824
      vertex -130.074 -92.6451 4.18094
    endloop
  endfacet
  facet normal 0.356903 0 0.934141
    outer loop
      vertex -130.074 -92.6451 4.18094
      vertex -130.328 76.0341 4.27824
      vertex -130.328 -92.8998 4.27824
    endloop
  endfacet
  facet normal 0.396687 0 0.917954
    outer loop
      vertex -130.328 76.0341 4.27824
      vertex -130.579 76.2843 4.38638
      vertex -130.328 -92.8998 4.27824
    endloop
  endfacet
  facet normal 0.396687 0 0.917954
    outer loop
      vertex -130.328 -92.8998 4.27824
      vertex -130.579 76.2843 4.38638
      vertex -130.579 -93.1501 4.38638
    endloop
  endfacet
  facet normal 0.435704 0 0.90009
    outer loop
      vertex -130.579 76.2843 4.38638
      vertex -130.824 76.5297 4.50517
      vertex -130.579 -93.1501 4.38638
    endloop
  endfacet
  facet normal 0.435704 0 0.90009
    outer loop
      vertex -130.579 -93.1501 4.38638
      vertex -130.824 76.5297 4.50517
      vertex -130.824 -93.3955 4.50517
    endloop
  endfacet
  facet normal 0.473951 0 0.880551
    outer loop
      vertex -130.824 76.5297 4.50517
      vertex -131.064 76.7698 4.63438
      vertex -130.824 -93.3955 4.50517
    endloop
  endfacet
  facet normal 0.473951 0 0.880551
    outer loop
      vertex -130.824 -93.3955 4.50517
      vertex -131.064 76.7698 4.63438
      vertex -131.064 -93.6355 4.63438
    endloop
  endfacet
  facet normal 0.511309 0 0.859397
    outer loop
      vertex -131.064 76.7698 4.63438
      vertex -131.298 77.0041 4.77377
      vertex -131.064 -93.6355 4.63438
    endloop
  endfacet
  facet normal 0.511309 0 0.859397
    outer loop
      vertex -131.064 -93.6355 4.63438
      vertex -131.298 77.0041 4.77377
      vertex -131.298 -93.8698 4.77377
    endloop
  endfacet
  facet normal 0.547726 0 0.836658
    outer loop
      vertex -131.298 77.0041 4.77377
      vertex -131.527 77.2322 4.92309
      vertex -131.298 -93.8698 4.77377
    endloop
  endfacet
  facet normal 0.547726 0 0.836658
    outer loop
      vertex -131.298 -93.8698 4.77377
      vertex -131.527 77.2322 4.92309
      vertex -131.527 -94.0979 4.92309
    endloop
  endfacet
  facet normal 0.583127 0 0.812381
    outer loop
      vertex -131.527 77.2322 4.92309
      vertex -131.748 77.4536 5.08207
      vertex -131.527 -94.0979 4.92309
    endloop
  endfacet
  facet normal 0.583127 0 0.812381
    outer loop
      vertex -131.527 -94.0979 4.92309
      vertex -131.748 77.4536 5.08207
      vertex -131.748 -94.3194 5.08207
    endloop
  endfacet
  facet normal 0.617469 0 0.786595
    outer loop
      vertex -131.748 77.4536 5.08207
      vertex -131.962 77.6681 5.25041
      vertex -131.748 -94.3194 5.08207
    endloop
  endfacet
  facet normal 0.617469 0 0.786595
    outer loop
      vertex -131.748 -94.3194 5.08207
      vertex -131.962 77.6681 5.25041
      vertex -131.962 -94.5338 5.25041
    endloop
  endfacet
  facet normal 0.650632 0 0.759393
    outer loop
      vertex -131.962 77.6681 5.25041
      vertex -132.17 77.8751 5.42779
      vertex -131.962 -94.5338 5.25041
    endloop
  endfacet
  facet normal 0.650632 0 0.759393
    outer loop
      vertex -131.962 -94.5338 5.25041
      vertex -132.17 77.8751 5.42779
      vertex -132.17 -94.7408 5.42779
    endloop
  endfacet
  facet normal 0.682661 0 0.730735
    outer loop
      vertex -132.17 77.8751 5.42779
      vertex -132.369 78.0743 5.6139
      vertex -132.17 -94.7408 5.42779
    endloop
  endfacet
  facet normal 0.682661 0 0.730735
    outer loop
      vertex -132.17 -94.7408 5.42779
      vertex -132.369 78.0743 5.6139
      vertex -132.369 -94.9401 5.6139
    endloop
  endfacet
  facet normal 0.713386 0 0.700772
    outer loop
      vertex -132.369 78.0743 5.6139
      vertex -132.56 78.2654 5.80838
      vertex -132.369 -94.9401 5.6139
    endloop
  endfacet
  facet normal 0.713386 0 0.700772
    outer loop
      vertex -132.369 -94.9401 5.6139
      vertex -132.56 78.2654 5.80838
      vertex -132.56 -95.1311 5.80838
    endloop
  endfacet
  facet normal 0.742807 0 0.669506
    outer loop
      vertex -132.56 78.2654 5.80838
      vertex -132.742 78.4479 6.01089
      vertex -132.56 -95.1311 5.80838
    endloop
  endfacet
  facet normal 0.742807 0 0.669506
    outer loop
      vertex -132.56 -95.1311 5.80838
      vertex -132.742 78.4479 6.01089
      vertex -132.742 -95.3136 6.01089
    endloop
  endfacet
  facet normal 0.770869 0 0.636993
    outer loop
      vertex -132.742 78.4479 6.01089
      vertex -132.916 78.6216 6.22105
      vertex -132.742 -95.3136 6.01089
    endloop
  endfacet
  facet normal 0.770869 0 0.636993
    outer loop
      vertex -132.742 -95.3136 6.01089
      vertex -132.916 78.6216 6.22105
      vertex -132.916 -95.4873 6.22105
    endloop
  endfacet
  facet normal 0.803911 0 0.594749
    outer loop
      vertex -133.08 78.786 6.43846
      vertex -133.08 -95.6518 6.43846
      vertex -132.999 -95.5707 6.32887
    endloop
  endfacet
  facet normal 0.790994 0 0.611824
    outer loop
      vertex -132.916 -95.4873 6.22105
      vertex -132.916 78.6216 6.22105
      vertex -132.999 -95.5707 6.32887
    endloop
  endfacet
  facet normal 0.790994 0 0.611824
    outer loop
      vertex -132.916 78.6216 6.22105
      vertex -132.999 78.705 6.32887
      vertex -132.999 -95.5707 6.32887
    endloop
  endfacet
  facet normal 0.803911 0 0.594749
    outer loop
      vertex -132.999 -95.5707 6.32887
      vertex -132.999 78.705 6.32887
      vertex -133.08 78.786 6.43846
    endloop
  endfacet
  facet normal 0.816487 0 0.577363
    outer loop
      vertex -133.08 -95.6518 6.43846
      vertex -133.08 78.786 6.43846
      vertex -133.159 -95.7305 6.54977
    endloop
  endfacet
  facet normal 0.816487 0 0.577363
    outer loop
      vertex -133.08 78.786 6.43846
      vertex -133.159 78.8647 6.54977
      vertex -133.159 -95.7305 6.54977
    endloop
  endfacet
  facet normal 0.828715 0 0.559671
    outer loop
      vertex -133.159 -95.7305 6.54977
      vertex -133.159 78.8647 6.54977
      vertex -133.235 -95.8068 6.66274
    endloop
  endfacet
  facet normal 0.828715 0 0.559671
    outer loop
      vertex -133.159 78.8647 6.54977
      vertex -133.235 78.941 6.66274
      vertex -133.235 -95.8068 6.66274
    endloop
  endfacet
  facet normal 0.840543 0 0.541745
    outer loop
      vertex -133.235 78.941 6.66274
      vertex -133.309 79.0149 6.77732
      vertex -133.235 -95.8068 6.66274
    endloop
  endfacet
  facet normal 0.840543 0 0.541745
    outer loop
      vertex -133.235 -95.8068 6.66274
      vertex -133.309 79.0149 6.77732
      vertex -133.309 -95.8806 6.77732
    endloop
  endfacet
  facet normal 0.851968 0 0.523594
    outer loop
      vertex -133.309 79.0149 6.77732
      vertex -133.381 79.0863 6.89346
      vertex -133.309 -95.8806 6.77732
    endloop
  endfacet
  facet normal 0.851968 0 0.523594
    outer loop
      vertex -133.309 -95.8806 6.77732
      vertex -133.381 79.0863 6.89346
      vertex -133.381 -95.952 6.89346
    endloop
  endfacet
  facet normal 0.862992 0 0.505218
    outer loop
      vertex -133.381 -95.952 6.89346
      vertex -133.381 79.0863 6.89346
      vertex -133.45 -96.0209 7.01111
    endloop
  endfacet
  facet normal 0.862992 0 0.505218
    outer loop
      vertex -133.381 79.0863 6.89346
      vertex -133.45 79.1551 7.01111
      vertex -133.45 -96.0209 7.01111
    endloop
  endfacet
  facet normal 0.873658 0 0.48654
    outer loop
      vertex -133.45 -96.0209 7.01111
      vertex -133.45 79.1551 7.01111
      vertex -133.516 -96.0872 7.13021
    endloop
  endfacet
  facet normal 0.873658 0 0.48654
    outer loop
      vertex -133.45 79.1551 7.01111
      vertex -133.516 79.2215 7.13021
      vertex -133.516 -96.0872 7.13021
    endloop
  endfacet
  facet normal 0.88392 0 0.467638
    outer loop
      vertex -133.516 -96.0872 7.13021
      vertex -133.516 79.2215 7.13021
      vertex -133.58 -96.1509 7.2507
    endloop
  endfacet
  facet normal 0.88392 0 0.467638
    outer loop
      vertex -133.516 79.2215 7.13021
      vertex -133.58 79.2852 7.2507
      vertex -133.58 -96.1509 7.2507
    endloop
  endfacet
  facet normal 0.89373 0 0.448605
    outer loop
      vertex -133.58 -96.1509 7.2507
      vertex -133.58 79.2852 7.2507
      vertex -133.641 -96.2121 7.37253
    endloop
  endfacet
  facet normal 0.89373 0 0.448605
    outer loop
      vertex -133.58 79.2852 7.2507
      vertex -133.641 79.3464 7.37253
      vertex -133.641 -96.2121 7.37253
    endloop
  endfacet
  facet normal 0.903177 0 0.429268
    outer loop
      vertex -133.641 79.3464 7.37253
      vertex -133.699 79.4049 7.49565
      vertex -133.641 -96.2121 7.37253
    endloop
  endfacet
  facet normal 0.903177 0 0.429268
    outer loop
      vertex -133.641 -96.2121 7.37253
      vertex -133.699 79.4049 7.49565
      vertex -133.699 -96.2706 7.49565
    endloop
  endfacet
  facet normal 0.912173 0 0.409805
    outer loop
      vertex -133.699 79.4049 7.49565
      vertex -133.755 79.4607 7.62
      vertex -133.699 -96.2706 7.49565
    endloop
  endfacet
  facet normal 0.912173 0 0.409805
    outer loop
      vertex -133.699 -96.2706 7.49565
      vertex -133.755 79.4607 7.62
      vertex -133.755 -96.3265 7.62
    endloop
  endfacet
  facet normal 0 -0.790968 0.611858
    outer loop
      vertex -132.999 78.705 6.32887
      vertex -132.916 78.6216 6.22105
      vertex -55.6446 78.6216 6.22105
    endloop
  endfacet
  facet normal 0 -0.770856 0.637009
    outer loop
      vertex -132.916 78.6216 6.22105
      vertex -132.742 78.4479 6.01089
      vertex -55.6446 78.6216 6.22105
    endloop
  endfacet
  facet normal 0 -0.770856 0.637009
    outer loop
      vertex -55.6446 78.6216 6.22105
      vertex -132.742 78.4479 6.01089
      vertex -55.8183 78.4479 6.01089
    endloop
  endfacet
  facet normal 0 -0.742807 0.669506
    outer loop
      vertex -132.742 78.4479 6.01089
      vertex -132.56 78.2654 5.80838
      vertex -55.8183 78.4479 6.01089
    endloop
  endfacet
  facet normal 0 -0.742807 0.669506
    outer loop
      vertex -55.8183 78.4479 6.01089
      vertex -132.56 78.2654 5.80838
      vertex -56.0008 78.2654 5.80838
    endloop
  endfacet
  facet normal 0 -0.713399 0.700758
    outer loop
      vertex -132.56 78.2654 5.80838
      vertex -132.369 78.0743 5.6139
      vertex -56.0008 78.2654 5.80838
    endloop
  endfacet
  facet normal 0 -0.713399 0.700758
    outer loop
      vertex -56.0008 78.2654 5.80838
      vertex -132.369 78.0743 5.6139
      vertex -56.1919 78.0743 5.6139
    endloop
  endfacet
  facet normal 0 -0.682647 0.730748
    outer loop
      vertex -132.369 78.0743 5.6139
      vertex -132.17 77.8751 5.42779
      vertex -56.1919 78.0743 5.6139
    endloop
  endfacet
  facet normal 0 -0.682647 0.730748
    outer loop
      vertex -56.1919 78.0743 5.6139
      vertex -132.17 77.8751 5.42779
      vertex -56.3911 77.8751 5.42779
    endloop
  endfacet
  facet normal 0 -0.650659 0.75937
    outer loop
      vertex -132.17 77.8751 5.42779
      vertex -131.962 77.6681 5.25041
      vertex -56.3911 77.8751 5.42779
    endloop
  endfacet
  facet normal 0 -0.650659 0.75937
    outer loop
      vertex -56.3911 77.8751 5.42779
      vertex -131.962 77.6681 5.25041
      vertex -56.5981 77.6681 5.25041
    endloop
  endfacet
  facet normal 0 -0.617456 0.786606
    outer loop
      vertex -131.962 77.6681 5.25041
      vertex -131.748 77.4536 5.08207
      vertex -56.5981 77.6681 5.25041
    endloop
  endfacet
  facet normal 0 -0.617456 0.786606
    outer loop
      vertex -56.5981 77.6681 5.25041
      vertex -131.748 77.4536 5.08207
      vertex -56.8125 77.4536 5.08207
    endloop
  endfacet
  facet normal 0 -0.583127 0.812381
    outer loop
      vertex -131.748 77.4536 5.08207
      vertex -131.527 77.2322 4.92309
      vertex -56.8125 77.4536 5.08207
    endloop
  endfacet
  facet normal 0 -0.583127 0.812381
    outer loop
      vertex -56.8125 77.4536 5.08207
      vertex -131.527 77.2322 4.92309
      vertex -57.034 77.2322 4.92309
    endloop
  endfacet
  facet normal 0 -0.547726 0.836658
    outer loop
      vertex -131.527 77.2322 4.92309
      vertex -131.298 77.0041 4.77377
      vertex -57.034 77.2322 4.92309
    endloop
  endfacet
  facet normal 0 -0.547726 0.836658
    outer loop
      vertex -57.034 77.2322 4.92309
      vertex -131.298 77.0041 4.77377
      vertex -57.2621 77.0041 4.77377
    endloop
  endfacet
  facet normal 0 -0.511309 0.859397
    outer loop
      vertex -131.298 77.0041 4.77377
      vertex -131.064 76.7698 4.63438
      vertex -57.2621 77.0041 4.77377
    endloop
  endfacet
  facet normal 0 -0.511309 0.859397
    outer loop
      vertex -57.2621 77.0041 4.77377
      vertex -131.064 76.7698 4.63438
      vertex -57.4964 76.7698 4.63438
    endloop
  endfacet
  facet normal 0 -0.473939 0.880558
    outer loop
      vertex -131.064 76.7698 4.63438
      vertex -130.824 76.5297 4.50517
      vertex -57.4964 76.7698 4.63438
    endloop
  endfacet
  facet normal 0 -0.473939 0.880558
    outer loop
      vertex -57.4964 76.7698 4.63438
      vertex -130.824 76.5297 4.50517
      vertex -57.7365 76.5297 4.50517
    endloop
  endfacet
  facet normal 0 -0.435715 0.900085
    outer loop
      vertex -130.824 76.5297 4.50517
      vertex -130.579 76.2843 4.38638
      vertex -57.7365 76.5297 4.50517
    endloop
  endfacet
  facet normal 0 -0.435715 0.900085
    outer loop
      vertex -57.7365 76.5297 4.50517
      vertex -130.579 76.2843 4.38638
      vertex -57.9818 76.2843 4.38638
    endloop
  endfacet
  facet normal 0 -0.396677 0.917958
    outer loop
      vertex -130.579 76.2843 4.38638
      vertex -130.328 76.0341 4.27824
      vertex -57.9818 76.2843 4.38638
    endloop
  endfacet
  facet normal 0 -0.396677 0.917958
    outer loop
      vertex -57.9818 76.2843 4.38638
      vertex -130.328 76.0341 4.27824
      vertex -58.2321 76.0341 4.27824
    endloop
  endfacet
  facet normal 0 -0.356912 0.934138
    outer loop
      vertex -130.328 76.0341 4.27824
      vertex -130.074 75.7794 4.18094
      vertex -58.2321 76.0341 4.27824
    endloop
  endfacet
  facet normal 0 -0.356912 0.934138
    outer loop
      vertex -58.2321 76.0341 4.27824
      vertex -130.074 75.7794 4.18094
      vertex -58.4868 75.7794 4.18094
    endloop
  endfacet
  facet normal 0 -0.316486 0.948597
    outer loop
      vertex -130.074 75.7794 4.18094
      vertex -129.815 75.5208 4.09465
      vertex -58.4868 75.7794 4.18094
    endloop
  endfacet
  facet normal 0 -0.316486 0.948597
    outer loop
      vertex -58.4868 75.7794 4.18094
      vertex -129.815 75.5208 4.09465
      vertex -58.7454 75.5208 4.09465
    endloop
  endfacet
  facet normal 0 -0.275479 0.961307
    outer loop
      vertex -129.815 75.5208 4.09465
      vertex -129.553 75.2587 4.01955
      vertex -58.7454 75.5208 4.09465
    endloop
  endfacet
  facet normal 0 -0.275479 0.961307
    outer loop
      vertex -58.7454 75.5208 4.09465
      vertex -129.553 75.2587 4.01955
      vertex -59.0075 75.2587 4.01955
    endloop
  endfacet
  facet normal 0 -0.233958 0.972247
    outer loop
      vertex -129.553 75.2587 4.01955
      vertex -129.288 74.9937 3.95577
      vertex -59.0075 75.2587 4.01955
    endloop
  endfacet
  facet normal 0 -0.233958 0.972247
    outer loop
      vertex -59.0075 75.2587 4.01955
      vertex -129.288 74.9937 3.95577
      vertex -59.2725 74.9937 3.95577
    endloop
  endfacet
  facet normal 0 -0.192013 0.981392
    outer loop
      vertex -129.288 74.9937 3.95577
      vertex -129.021 74.7261 3.90342
      vertex -59.2725 74.9937 3.95577
    endloop
  endfacet
  facet normal 0 -0.192013 0.981392
    outer loop
      vertex -59.2725 74.9937 3.95577
      vertex -129.021 74.7261 3.90342
      vertex -59.5401 74.7261 3.90342
    endloop
  endfacet
  facet normal 0 -0.149715 0.988729
    outer loop
      vertex -129.021 74.7261 3.90342
      vertex -128.751 74.4566 3.86261
      vertex -59.5401 74.7261 3.90342
    endloop
  endfacet
  facet normal 0 -0.149715 0.988729
    outer loop
      vertex -59.5401 74.7261 3.90342
      vertex -128.751 74.4566 3.86261
      vertex -59.8096 74.4566 3.86261
    endloop
  endfacet
  facet normal 0 -0.107133 0.994245
    outer loop
      vertex -128.751 74.4566 3.86261
      vertex -128.48 74.1855 3.8334
      vertex -59.8096 74.4566 3.86261
    endloop
  endfacet
  facet normal 0 -0.107133 0.994245
    outer loop
      vertex -59.8096 74.4566 3.86261
      vertex -128.48 74.1855 3.8334
      vertex -60.0807 74.1855 3.8334
    endloop
  endfacet
  facet normal 0 -0.0643603 0.997927
    outer loop
      vertex -128.48 74.1855 3.8334
      vertex -128.208 73.9134 3.81585
      vertex -60.0807 74.1855 3.8334
    endloop
  endfacet
  facet normal 0 -0.0643603 0.997927
    outer loop
      vertex -60.0807 74.1855 3.8334
      vertex -128.208 73.9134 3.81585
      vertex -60.3527 73.9134 3.81585
    endloop
  endfacet
  facet normal 0 -0.0214668 0.99977
    outer loop
      vertex -128.208 73.9134 3.81585
      vertex -127.935 73.6409 3.81
      vertex -60.3527 73.9134 3.81585
    endloop
  endfacet
  facet normal 0 -0.0214668 0.99977
    outer loop
      vertex -60.3527 73.9134 3.81585
      vertex -127.935 73.6409 3.81
      vertex -60.6253 73.6409 3.81
    endloop
  endfacet
  facet normal 0 -0.82869 0.559708
    outer loop
      vertex -55.3251 78.941 6.66274
      vertex -133.159 78.8647 6.54977
      vertex -55.4014 78.8647 6.54977
    endloop
  endfacet
  facet normal 0 -0.816513 0.577327
    outer loop
      vertex -133.159 78.8647 6.54977
      vertex -133.08 78.786 6.43846
      vertex -55.4014 78.8647 6.54977
    endloop
  endfacet
  facet normal 0 -0.816513 0.577327
    outer loop
      vertex -55.4014 78.8647 6.54977
      vertex -133.08 78.786 6.43846
      vertex -55.4801 78.786 6.43846
    endloop
  endfacet
  facet normal 0 -0.803938 0.594714
    outer loop
      vertex -133.08 78.786 6.43846
      vertex -132.999 78.705 6.32887
      vertex -55.4801 78.786 6.43846
    endloop
  endfacet
  facet normal 0 -0.803938 0.594714
    outer loop
      vertex -55.4801 78.786 6.43846
      vertex -132.999 78.705 6.32887
      vertex -55.5612 78.705 6.32887
    endloop
  endfacet
  facet normal 0 -0.790968 0.611858
    outer loop
      vertex -132.999 78.705 6.32887
      vertex -55.6446 78.6216 6.22105
      vertex -55.5612 78.705 6.32887
    endloop
  endfacet
  facet normal 0 -0.912173 0.409805
    outer loop
      vertex -54.8054 79.4607 7.62
      vertex -133.755 79.4607 7.62
      vertex -54.8613 79.4049 7.49565
    endloop
  endfacet
  facet normal 0 -0.912173 0.409805
    outer loop
      vertex -133.755 79.4607 7.62
      vertex -133.699 79.4049 7.49565
      vertex -54.8613 79.4049 7.49565
    endloop
  endfacet
  facet normal 0 -0.903156 0.429313
    outer loop
      vertex -54.8613 79.4049 7.49565
      vertex -133.699 79.4049 7.49565
      vertex -54.9198 79.3464 7.37253
    endloop
  endfacet
  facet normal 0 -0.903156 0.429313
    outer loop
      vertex -133.699 79.4049 7.49565
      vertex -133.641 79.3464 7.37253
      vertex -54.9198 79.3464 7.37253
    endloop
  endfacet
  facet normal 0 -0.893752 0.448562
    outer loop
      vertex -54.9198 79.3464 7.37253
      vertex -133.641 79.3464 7.37253
      vertex -54.981 79.2852 7.2507
    endloop
  endfacet
  facet normal 0 -0.893752 0.448562
    outer loop
      vertex -133.641 79.3464 7.37253
      vertex -133.58 79.2852 7.2507
      vertex -54.981 79.2852 7.2507
    endloop
  endfacet
  facet normal 0 -0.883897 0.467681
    outer loop
      vertex -54.981 79.2852 7.2507
      vertex -133.58 79.2852 7.2507
      vertex -55.0447 79.2215 7.13021
    endloop
  endfacet
  facet normal 0 -0.883897 0.467681
    outer loop
      vertex -133.58 79.2852 7.2507
      vertex -133.516 79.2215 7.13021
      vertex -55.0447 79.2215 7.13021
    endloop
  endfacet
  facet normal 0 -0.873658 0.48654
    outer loop
      vertex -55.0447 79.2215 7.13021
      vertex -133.516 79.2215 7.13021
      vertex -55.111 79.1551 7.01111
    endloop
  endfacet
  facet normal 0 -0.873658 0.48654
    outer loop
      vertex -133.516 79.2215 7.13021
      vertex -133.45 79.1551 7.01111
      vertex -55.111 79.1551 7.01111
    endloop
  endfacet
  facet normal 0 -0.863015 0.505178
    outer loop
      vertex -55.111 79.1551 7.01111
      vertex -133.45 79.1551 7.01111
      vertex -55.1799 79.0863 6.89346
    endloop
  endfacet
  facet normal 0 -0.863015 0.505178
    outer loop
      vertex -133.45 79.1551 7.01111
      vertex -133.381 79.0863 6.89346
      vertex -55.1799 79.0863 6.89346
    endloop
  endfacet
  facet normal 0 -0.851968 0.523594
    outer loop
      vertex -55.1799 79.0863 6.89346
      vertex -133.381 79.0863 6.89346
      vertex -55.2513 79.0149 6.77732
    endloop
  endfacet
  facet normal 0 -0.851968 0.523594
    outer loop
      vertex -133.381 79.0863 6.89346
      vertex -133.309 79.0149 6.77732
      vertex -55.2513 79.0149 6.77732
    endloop
  endfacet
  facet normal 0 -0.840543 0.541745
    outer loop
      vertex -55.2513 79.0149 6.77732
      vertex -133.309 79.0149 6.77732
      vertex -55.3251 78.941 6.66274
    endloop
  endfacet
  facet normal 0 -0.840543 0.541745
    outer loop
      vertex -133.309 79.0149 6.77732
      vertex -133.235 78.941 6.66274
      vertex -55.3251 78.941 6.66274
    endloop
  endfacet
  facet normal 0 -0.82869 0.559708
    outer loop
      vertex -55.3251 78.941 6.66274
      vertex -133.235 78.941 6.66274
      vertex -133.159 78.8647 6.54977
    endloop
  endfacet
  facet normal 0 0 1
    outer loop
      vertex -60.6253 -90.5066 3.81
      vertex -60.6253 73.6409 3.81
      vertex -127.935 -90.5066 3.81
    endloop
  endfacet
  facet normal 0 0 1
    outer loop
      vertex -60.6253 73.6409 3.81
      vertex -127.935 73.6409 3.81
      vertex -127.935 -90.5066 3.81
    endloop
  endfacet
  facet normal -1 0 0
    outer loop
      vertex -141.905 -104.477 7.62
      vertex -141.905 87.6109 7.62
      vertex -141.905 -104.477 0
    endloop
  endfacet
  facet normal -1 0 0
    outer loop
      vertex -141.905 87.6109 7.62
      vertex -141.905 87.6109 0
      vertex -141.905 -104.477 0
    endloop
  endfacet
  facet normal 0 0 1
    outer loop
      vertex -133.755 79.4607 7.62
      vertex -141.905 87.6109 7.62
      vertex -133.755 -96.3265 7.62
    endloop
  endfacet
  facet normal 0 0 1
    outer loop
      vertex -141.905 87.6109 7.62
      vertex -141.905 -104.477 7.62
      vertex -133.755 -96.3265 7.62
    endloop
  endfacet
  facet normal 0 0 1
    outer loop
      vertex -133.755 -96.3265 7.62
      vertex -141.905 -104.477 7.62
      vertex -54.8054 -96.3265 7.62
    endloop
  endfacet
  facet normal 0 0 1
    outer loop
      vertex -141.905 -104.477 7.62
      vertex -46.6553 -104.477 7.62
      vertex -54.8054 -96.3265 7.62
    endloop
  endfacet
  facet normal 0 0 1
    outer loop
      vertex -54.8054 -96.3265 7.62
      vertex -46.6553 -104.477 7.62
      vertex -54.8054 79.4607 7.62
    endloop
  endfacet
  facet normal 0 0 1
    outer loop
      vertex -46.6553 -104.477 7.62
      vertex -46.6553 87.6109 7.62
      vertex -54.8054 79.4607 7.62
    endloop
  endfacet
  facet normal 0 0 1
    outer loop
      vertex -54.8054 79.4607 7.62
      vertex -46.6553 87.6109 7.62
      vertex -133.755 79.4607 7.62
    endloop
  endfacet
  facet normal 0 0 1
    outer loop
      vertex -46.6553 87.6109 7.62
      vertex -141.905 87.6109 7.62
      vertex -133.755 79.4607 7.62
    endloop
  endfacet
  facet normal 0 1 0
    outer loop
      vertex -141.905 87.6109 7.62
      vertex -46.6553 87.6109 7.62
      vertex -141.905 87.6109 0
    endloop
  endfacet
  facet normal 0 1 0
    outer loop
      vertex -46.6553 87.6109 7.62
      vertex -46.6553 87.6109 0
      vertex -141.905 87.6109 0
    endloop
  endfacet
  facet normal 0 -1 0
    outer loop
      vertex -46.6553 -104.477 7.62
      vertex -141.905 -104.477 7.62
      vertex -46.6553 -104.477 0
    endloop
  endfacet
  facet normal 0 -1 0
    outer loop
      vertex -141.905 -104.477 7.62
      vertex -141.905 -104.477 0
      vertex -46.6553 -104.477 0
    endloop
  endfacet
  facet normal 1 0 0
    outer loop
      vertex -46.6553 87.6109 7.62
      vertex -46.6553 -104.477 7.62
      vertex -46.6553 87.6109 0
    endloop
  endfacet
  facet normal 1 0 0
    outer loop
      vertex -46.6553 -104.477 7.62
      vertex -46.6553 -104.477 0
      vertex -46.6553 87.6109 0
    endloop
  endfacet
  facet normal 0 0 -1
    outer loop
      vertex -46.6553 -104.477 0
      vertex -141.905 -104.477 0
      vertex -46.6553 87.6109 0
    endloop
  endfacet
  facet normal 0 0 -1
    outer loop
      vertex -141.905 -104.477 0
      vertex -141.905 87.6109 0
      vertex -46.6553 87.6109 0
    endloop
  endfacet
endsolid Onshape
