solid Onshape
  facet normal -1 0 0
    outer loop
      vertex -7.62 -183.34 -39.2503
      vertex -7.62 -188.42 -39.2503
      vertex -7.62 -183.34 12.1847
    endloop
  endfacet
  facet normal -1 0 0
    outer loop
      vertex -7.62 -188.42 -39.2503
      vertex -7.62 -188.42 12.1847
      vertex -7.62 -183.34 12.1847
    endloop
  endfacet
  facet normal 1 0 0
    outer loop
      vertex -87.63 -188.42 -39.2503
      vertex -87.63 -183.34 -39.2503
      vertex -87.63 -188.42 12.1847
    endloop
  endfacet
  facet normal 1 0 0
    outer loop
      vertex -87.63 -183.34 -39.2503
      vertex -87.63 -183.34 12.1847
      vertex -87.63 -188.42 12.1847
    endloop
  endfacet
  facet normal 0 0 1
    outer loop
      vertex -87.63 -183.34 -39.2503
      vertex -87.63 -188.42 -39.2503
      vertex -7.62 -183.34 -39.2503
    endloop
  endfacet
  facet normal 0 0 1
    outer loop
      vertex -87.63 -188.42 -39.2503
      vertex -7.62 -188.42 -39.2503
      vertex -7.62 -183.34 -39.2503
    endloop
  endfacet
  facet normal 0 1 0
    outer loop
      vertex -87.63 -188.42 -39.2503
      vertex -87.63 -188.42 12.1847
      vertex -7.62 -188.42 -39.2503
    endloop
  endfacet
  facet normal 0 1 0
    outer loop
      vertex -87.63 -188.42 12.1847
      vertex -7.62 -188.42 12.1847
      vertex -7.62 -188.42 -39.2503
    endloop
  endfacet
  facet normal 0 0 -1
    outer loop
      vertex -87.63 -188.42 12.1847
      vertex -87.63 -183.34 12.1847
      vertex -7.62 -188.42 12.1847
    endloop
  endfacet
  facet normal 0 0 -1
    outer loop
      vertex -87.63 -183.34 12.1847
      vertex -7.62 -183.34 12.1847
      vertex -7.62 -188.42 12.1847
    endloop
  endfacet
  facet normal 0 0 1
    outer loop
      vertex -95.25 -183.34 19.8047
      vertex -95.25 -196.04 19.8047
      vertex 0 -183.34 19.8047
    endloop
  endfacet
  facet normal 0 0 1
    outer loop
      vertex -95.25 -196.04 19.8047
      vertex 0 -196.04 19.8047
      vertex 0 -183.34 19.8047
    endloop
  endfacet
  facet normal 0 1 0
    outer loop
      vertex -7.62 -183.34 -39.2503
      vertex 0 -183.34 -46.8703
      vertex -87.63 -183.34 -39.2503
    endloop
  endfacet
  facet normal 0 1 0
    outer loop
      vertex 0 -183.34 -46.8703
      vertex -95.25 -183.34 -46.8703
      vertex -87.63 -183.34 -39.2503
    endloop
  endfacet
  facet normal 0 1 0
    outer loop
      vertex -87.63 -183.34 -39.2503
      vertex -95.25 -183.34 -46.8703
      vertex -87.63 -183.34 12.1847
    endloop
  endfacet
  facet normal 0 1 0
    outer loop
      vertex -95.25 -183.34 -46.8703
      vertex -95.25 -183.34 19.8047
      vertex -87.63 -183.34 12.1847
    endloop
  endfacet
  facet normal 0 1 0
    outer loop
      vertex -87.63 -183.34 12.1847
      vertex -95.25 -183.34 19.8047
      vertex -7.62 -183.34 12.1847
    endloop
  endfacet
  facet normal 0 1 0
    outer loop
      vertex -95.25 -183.34 19.8047
      vertex 0 -183.34 19.8047
      vertex -7.62 -183.34 12.1847
    endloop
  endfacet
  facet normal 0 1 0
    outer loop
      vertex -7.62 -183.34 12.1847
      vertex 0 -183.34 19.8047
      vertex -7.62 -183.34 -39.2503
    endloop
  endfacet
  facet normal 0 1 0
    outer loop
      vertex 0 -183.34 19.8047
      vertex 0 -183.34 -46.8703
      vertex -7.62 -183.34 -39.2503
    endloop
  endfacet
  facet normal 0 -1 0
    outer loop
      vertex -95.25 -196.04 19.8047
      vertex -95.25 -196.04 -46.8703
      vertex 0 -196.04 19.8047
    endloop
  endfacet
  facet normal 0 -1 0
    outer loop
      vertex -95.25 -196.04 -46.8703
      vertex 0 -196.04 -46.8703
      vertex 0 -196.04 19.8047
    endloop
  endfacet
  facet normal 0 0 -1
    outer loop
      vertex -95.25 -196.04 -46.8703
      vertex -95.25 -183.34 -46.8703
      vertex 0 -196.04 -46.8703
    endloop
  endfacet
  facet normal 0 0 -1
    outer loop
      vertex -95.25 -183.34 -46.8703
      vertex 0 -183.34 -46.8703
      vertex 0 -196.04 -46.8703
    endloop
  endfacet
  facet normal -1 0 0
    outer loop
      vertex -95.25 -183.34 -46.8703
      vertex -95.25 -196.04 -46.8703
      vertex -95.25 -183.34 19.8047
    endloop
  endfacet
  facet normal -1 0 0
    outer loop
      vertex -95.25 -196.04 -46.8703
      vertex -95.25 -196.04 19.8047
      vertex -95.25 -183.34 19.8047
    endloop
  endfacet
  facet normal 1 0 0
    outer loop
      vertex 0 -196.04 -46.8703
      vertex 0 -183.34 -46.8703
      vertex 0 -196.04 19.8047
    endloop
  endfacet
  facet normal 1 0 0
    outer loop
      vertex 0 -183.34 -46.8703
      vertex 0 -183.34 19.8047
      vertex 0 -196.04 19.8047
    endloop
  endfacet
endsolid Onshape
